/* XPM */
static char * Ammo_xpm[] = {
"103 84 24 1",
" 	c #979797",
".	c #838383",
"+	c #7F7F7F",
"@	c #6F6F6F",
"#	c #777777",
"$	c #6B6B6B",
"%	c #636363",
"&	c #8B8B8B",
"*	c #3B3B3B",
"=	c #575757",
"-	c #474747",
";	c #4F4F4F",
">	c #434343",
",	c #5B5B5B",
"'	c #232323",
")	c #1B1B1B",
"!	c #373737",
"~	c #272727",
"{	c #939393",
"]	c #131313",
"^	c #9F9F9F",
"/	c #ABABAB",
"(	c #2F2F2F",
"_	c #B7B7B7",
"  ..+++@@++####@@@$$$$$$$$%%$$$@@@@++@@$$$$$$$++%%$$$&&..++++#########@@###@@##....++...&&..++@@+++##**",
"  ..+++@@++####@@@$$$$$$$$%%$$$@@@@++@@$$$$$$$++%%$$$&&..++++#########@@###@@##....++...&&..++@@+++##**",
"..##===========---;;>>--;;-------;;;;%%>>>;;--%%**>>>@@@@$$;;---========;;;,,%%,,$$%%%%%@@##=========''",
"..##===========---;;>>--;;-------;;;;%%>>>;;--%%**>>>@@@@$$;;---========;;;,,%%,,$$%%%%%@@##=========''",
"..##===========---;;>>--;;-------;;;;%%>>>;;--%%**>>>@@@@$$;;---========;;;,,%%,,$$%%%%%@@##=========''",
"..##%%%%%%%====;;;----;;---->>>--======;;;;;--;;,,---##@@$$$$---=============,,,,,,##@@@$$##%%%%%%%==''",
"..##%%%%%%%====;;;----;;---->>>--======;;;;;--;;,,---##@@$$$$---=============,,,,,,##@@@$$##%%%%%%%==''",
"..##%%%%%%%====;;;----;;---->>>--======;;;;;--;;,,---##@@$$$$---=============,,,,,,##@@@$$##%%%%%%%==''",
"++$$%%%##======;;;--**;;**,,---**--%%==;;;,,--,,;;---,,==$$$$;;;========---======%%##%%%%%$$%%##=====''",
"++$$%%%##======;;;--**;;**,,---**--%%==;;;,,--,,;;---,,==$$$$;;;========---======%%##%%%%%$$%%##=====''",
"++$$%%%##======;;;--**;;**,,---**--%%==;;;,,--,,;;---,,==$$$$;;;========---======%%##%%%%%$$%%##=====''",
"++##%%%##==;;=====------;;----->>--;;%%;;;----;;,,---%%$$##%%;;;;;=========;;;;==@@$$%%%%%##%%##===;;''",
"++##%%%##==;;=====------;;----->>--;;%%;;;----;;,,---%%$$##%%;;;;;=========;;;;==@@$$%%%%%##%%##===;;''",
"..##$$$%%%%;;=====;;>>;;;;----->>>>;;=====;;>>;;;;---====%%==%%%;;====;;;;;;;====%%%%%%%@@##$$%%%%%;;''",
"..##$$$%%%%;;=====;;>>;;;;----->>>>;;=====;;>>;;;;---====%%==%%%;;====;;;;;;;====%%%%%%%@@##$$%%%%%;;''",
"..##$$$%%%%;;=====;;>>;;;;----->>>>;;=====;;>>;;;;---====%%==%%%;;====;;;;;;;====%%%%%%%@@##$$%%%%%;;''",
"..$$=====%%==;;===;;;;;;;;**---,,>>;;,,---;;>>;;==>>>%%%%;;%%=========;;===%%%%,,$$%%@@@$$$$====%%%==))",
"..$$=====%%==;;===;;;;;;;;**---,,>>;;,,---;;>>;;==>>>%%%%;;%%=========;;===%%%%,,$$%%@@@$$$$====%%%==))",
"..;;%%%====%%;;===>>;;;;;;;;!!!--====;;;;;--;;--;;>>>,,==~~;;%%%==;;==;;===,,,,==%%%%###$$;;%%=====%%))",
"..;;%%%====%%;;===>>;;;;;;;;!!!--====;;;;;--;;--;;>>>,,==~~;;%%%==;;==;;===,,,,==%%%%###$$;;%%=====%%))",
"++$$$$$%%;;%%=====>>----;;--;;;%%;;--;;%%%--;;--;;>>>##..%%%%;;;======;;===,,====%%%%###%%$$$$%%;;;%%''",
"++$$$$$%%;;%%=====>>----;;--;;;%%;;--;;%%%--;;--;;>>>##..%%%%;;;======;;===,,====%%%%###%%$$$$%%;;;%%''",
"++$$$$$%%;;%%=====>>----;;--;;;%%;;--;;%%%--;;--;;>>>##..%%%%;;;======;;===,,====%%%%###%%$$$$%%;;;%%''",
"++$$$$$%%;;%%=====>>----;;--;;;%%;;--;;%%%--;;--;;>>>##..%%%%;;;======;;===,,====%%%%###%%$$$$%%;;;%%''",
"..@@$$$%%==$$=======,,>>;;;;>>>--;;;;%%%%%;;,,>>;;;;;..####>>,,,$$======%%%,,==%%%%$$$$$$$@@$$%%===$$''",
"..@@$$$%%==$$=======,,>>;;;;>>>--;;;;%%%%%;;,,>>;;;;;..####>>,,,$$======%%%,,==%%%%$$$$$$$@@$$%%===$$''",
"..$$%%%======;;===--;;--;;>>--->>;;==,,;;;------%%---##%%$$,,$$$===========%%;;==$$#####$$$$%%=======))",
"..$$%%%======;;===--;;--;;>>--->>;;==,,;;;------%%---##%%$$,,$$$===========%%;;==$$#####$$$$%%=======))",
"..$$%%%======;;===--;;--;;>>--->>;;==,,;;;------%%---##%%$$,,$$$===========%%;;==$$#####$$$$%%=======))",
"++$$=========;;;;;;;;;;;;;>>-----;;;;%%;;;------%%,,,%%##@@$$@@@=============;;;;##@@$$$%%$$=========))",
"++$$=========;;;;;;;;;;;;;>>-----;;;;%%;;;------%%,,,%%##@@$$@@@=============;;;;##@@$$$%%$$=========))",
"##%%%%%========,,,>>------**-------;;;;%%%>>;;--%%,,,######@@@@@======;;===--====@@##$$$==%%%%=======''",
"##%%%%%========,,,>>------**-------;;;;%%%>>;;--%%,,,######@@@@@======;;===--====@@##$$$==%%%%=======''",
"##%%%%%========,,,>>------**-------;;;;%%%>>;;--%%,,,######@@@@@======;;===--====@@##$$$==%%%%=======''",
"++================--**--------->>--=======;;;;--;;,,,##$$@@##$$$==%%====---;;;;;;$$##@@@%%===========''",
"++================--**--------->>--=======;;;;--;;,,,##$$@@##$$$==%%====---;;;;;;$$##@@@%%===========''",
"++================--**--------->>--=======;;;;--;;,,,##$$@@##$$$==%%====---;;;;;;$$##@@@%%===========''",
"++%%===========,,,>>----%%>>!!!--**--%%===;;,,--,,;;;$$@@##$$@@@====%%;;===;;--,,%%$$@@@%%%%=========''",
"++%%===========,,,>>----%%>>!!!--**--%%===;;,,--,,;;;$$@@##$$@@@====%%;;===;;--,,%%$$@@@%%%%=========''",
"++%%===========,,,>>----%%>>!!!--**--%%===;;,,--,,;;;$$@@##$$@@@====%%;;===;;--,,%%$$@@@%%%%=========''",
"..;;%%%====;;;;%%%>>--;;;;>>;;;-->>--;;%%%;;----;;,,,@@==$$%%%%%====$$;;===;;;;==$$##@@@$$;;%%=====;;))",
"..;;%%%====;;;;%%%>>--;;;;>>;;;-->>--;;%%%;;----;;,,,@@==$$%%%%%====$$;;===;;;;==$$##@@@$$;;%%=====;;))",
"..%%=====%%====,,,;;>>;;--;;>>>-->>>>;;=====;;>>;;;;;##%%####%%%====%%==;;;;;;;==$$@@###$$%%====%%%==''",
"..%%=====%%====,,,;;>>;;--;;>>>-->>>>;;=====;;>>;;;;;##%%####%%%====%%==;;;;;;;==$$@@###$$%%====%%%==''",
"..@@===========,,,;;--==;;;;>>>--,,>>;;,,,--;;>>;;===%%$$$$$$;;;====%%=====--;;;;##$$###@@@@=========''",
"..@@===========,,,;;--==;;;;>>>--,,>>;;,,,--;;>>;;===%%$$$$$$;;;====%%=====--;;;;##$$###@@@@=========''",
"..@@===========,,,;;--==;;;;>>>--,,>>;;,,,--;;>>;;===%%$$$$$$;;;====%%=====--;;;;##$$###@@@@=========''",
"..%%=========%%===;;--;;,,==;;;--,,>>;;,,,--;;>>;;===++++%%%%,,,==$$=======;;====@@%%$$$@@%%=========''",
"..%%=========%%===;;--;;,,==;;;--,,>>;;,,,--;;>>;;===++++%%%%,,,==$$=======;;====@@%%$$$@@%%=========''",
"..%%=========%%===;;--;;,,==;;;--,,>>;;,,,--;;>>;;===++++%%%%,,,==$$=======;;====@@%%$$$@@%%=========''",
"&&==%%%==%%====%%%==>>%%%%--,,,--,,>>;;,,,--;;>>;;===++@@%%%%=======$$==;;;**;;;;$$%%#####==%%==%%%==''",
"&&==%%%==%%====%%%==>>%%%%--,,,--,,>>;;,,,--;;>>;;===++@@%%%%=======$$==;;;**;;;;$$%%#####==%%==%%%==''",
"&&==%%%==%%====%%%==>>%%%%--,,,--,,>>;;,,,--;;>>;;===++@@%%%%=======$$==;;;**;;;;$$%%#####==%%==%%%==''",
"&&..%%%==%%==%%%%%==;;;;%%--;;;;;%%%%!!;;;,,==;;**===@@@@$$;;---==%%$$=====;;--,,%%@@###++..%%==%%%==''",
"&&..%%%==%%==%%%%%==;;;;%%--;;;;;%%%%!!;;;,,==;;**===@@@@$$;;---==%%$$=====;;--,,%%@@###++..%%==%%%==''",
"++##%%%========%%%,,>>,,,,>>;;;;;;;%%--;;;;;!!-->>;;;##@@$$$$---====$$==;;;--;;==$$$$$$$%%##%%=======''",
"++##%%%========%%%,,>>,,,,>>;;;;;;;%%--;;;;;!!-->>;;;##@@$$$$---====$$==;;;--;;==$$$$$$$%%##%%=======''",
"++##%%%========%%%,,>>,,,,>>;;;;;;;%%--;;;;;!!-->>;;;##@@$$$$---====$$==;;;--;;==$$$$$$$%%##%%=======''",
"..$$%%%========,,,;;>>,,,,>>;;;;;;;;;,,-----!!!!!!%%%,,==$$$$;;;========;;;>>%%;;%%$$;;;$$$$%%=======''",
"..$$%%%========,,,;;>>,,,,>>;;;;;;;;;,,-----!!!!!!%%%,,==$$$$;;;========;;;>>%%;;%%$$;;;$$$$%%=======''",
"++==%%%====%%==;;;>>;;......;;;;;==..%%;;;**..!!--;;;..$$##%%...====;;..&&&......%%%%,,,%%==%%=====%%''",
"++==%%%====%%==;;;>>;;......;;;;;==..%%;;;**..!!--;;;..$$##%%...====;;..&&&......%%%%,,,%%==%%=====%%''",
"++$$$$$%%=========;;{{{{''{{{{{''{{{{{{==={{{{{{!!{{{{{{{%%{{{{{{{=={{{{''']]''{{{{%%%%%%%$$$$%%=====''",
"++$$$$$%%=========;;{{{{''{{{{{''{{{{{{==={{{{{{!!{{{{{{{%%{{{{{{{=={{{{''']]''{{{{%%%%%%%$$$$%%=====''",
"++$$$$$%%=========;;{{{{''{{{{{''{{{{{{==={{{{{{!!{{{{{{{%%{{{{{{{=={{{{''']]''{{{{%%%%%%%$$$$%%=====''",
"++$$$$$%%=========;;{{{{''{{{{{''{{{{{{==={{{{{{!!{{{{{{{%%{{{{{{{=={{{{''']]''{{{{%%%%%%%$$$$%%=====''",
"++,,$$$======%%;;;^^^^^^^^^^^^^''^^^^^^^^^^^^^^^]]^^^^^^^^^^^^^^^^''^^^^'''--;;^^^^''%%%%%,,$$=======''",
"++,,$$$======%%;;;^^^^^^^^^^^^^''^^^^^^^^^^^^^^^]]^^^^^^^^^^^^^^^^''^^^^'''--;;^^^^''%%%%%,,$$=======''",
"++%%===========;;;////''))/////''////''///))////))/////''//''/////''////)))----////(($$$%%%%=========''",
"++%%===========;;;////''))/////''////''///))////))/////''//''/////''////)))----////(($$$%%%%=========''",
"++%%===========;;;////''))/////''////''///))////))/////''//''/////''////)))----////(($$$%%%%=========''",
"##,,===%%;;%%==%%%____'';;_____''____''!!!]]____))_____))~~''_____''%%___________''((%%%,,,,==%%;;;%%''",
"##,,===%%;;%%==%%%____'';;_____''____''!!!]]____))_____))~~''_____''%%___________''((%%%,,,,==%%;;;%%''",
"##,,%%%========,,,;;))));;--]]]))--))''(((!!;;''))***'')),,%%%%%''''%%==''']]))''''$$$$$,,,,%%=======''",
"##,,%%%========,,,;;))));;--]]]))--))''(((!!;;''))***'')),,%%%%%''''%%==''']]))''''$$$$$,,,,%%=======''",
"##,,%%%========,,,;;))));;--]]]))--))''(((!!;;''))***'')),,%%%%%''''%%==''']]))''''$$$$$,,,,%%=======''",
"++%%%%%========;;;;;;;!!--;;>>>;;**--==~~~!!,,--*****$$####==@@@===========!!--==,,$$$$$%%%%%%=======''",
"++%%%%%========;;;;;;;!!--;;>>>;;**--==~~~!!,,--*****$$####==@@@===========!!--==,,$$$$$%%%%%%=======''",
"++%%%%%========;;;;;;;!!--;;>>>;;**--==~~~!!,,--*****$$####==@@@===========!!--==,,$$$$$%%%%%%=======''",
"++%%%%%==%%==;;,,,;;;;**--;;---!!**--;;~~~**---------;;,,%%++=====;;%%=====------%%@@$$$%%%%%%==%%%==))",
"++%%%%%==%%==;;,,,;;;;**--;;---!!**--;;~~~**---------;;,,%%++=====;;%%=====------%%@@$$$%%%%%%==%%%==))",
"++%%%%%==%%==;;,,,;;;;**--;;---!!**--;;~~~**---------;;,,%%++=====;;%%=====------%%@@$$$%%%%%%==%%%==))",
"%%!!***!!((!!(((((''(((((('''''(((())''((((((((((()))**;;!!!!(((**!!!!(((((((**-->>*******!!**!!(((!!((",
"%%!!***!!((!!(((((''(((((('''''(((())''((((((((((()))**;;!!!!(((**!!!!(((((((**-->>*******!!**!!(((!!(("};
