/* XPM */
static char * Ammunitions_xpm[] = {
"152 84 29 1",
" 	c None",
".	c #474747",
"+	c #575757",
"@	c #4F4F4F",
"#	c #5B5B5B",
"$	c #636363",
"%	c #6B6B6B",
"&	c #6F6F6F",
"*	c #777777",
"=	c #434343",
"-	c #3B3B3B",
";	c #2F2F2F",
">	c #373737",
",	c #8B8B8B",
"'	c #838383",
")	c #232323",
"!	c #1B1B1B",
"~	c #939393",
"{	c #373F27",
"]	c #131313",
"^	c #9F9F9F",
"/	c #272727",
"(	c #ABABAB",
"_	c #B7B7B7",
":	c #474F33",
"<	c #979797",
"[	c #27531B",
"}	c #0B1707",
"|	c #3F472B",
"                                                                                                                                                        ",
"                                                                                                                                                        ",
"  ..+++@@........@@@##$$##%%$$$$$&&**+++++++++++..@@==..@@@......@@@@$$$==@@..$$---==..@@++++...;;==--==>>;;;;;..@@#######====..++##@@@%%##++@@@@#######",
"  ..+++@@........@@@##$$##%%$$$$$&&**+++++++++++..@@==..@@@......@@@@$$$==@@..$$---==..@@++++...;;==--==>>;;;;;..@@#######====..++##@@@%%##++@@@@#######",
"  ..+++@@........@@@##$$##%%$$$$$&&**+++++++++++..@@==..@@@......@@@@$$$==@@..$$---==..@@++++...;;==--==>>;;;;;..@@#######====..++##@@@%%##++@@@@#######",
"  ..@@@@@@@++$$@@@@@++######**&&&%%**$$$$$$+++++@@....@@.....==..+++++++@@@@..@@###..==@@++++@@@;;>>;;==;;;;;==######@@#####....$$@@@@@####++@@==+++@@$$",
"  ..@@@@@@@++$$@@@@@++######**&&&%%**$$$$$$+++++@@....@@.....==..+++++++@@@@..@@###..==@@++++@@@;;>>;;==;;;;;==######@@#####....$$@@@@@####++@@==+++@@$$",
"  ..###@@..@@@@@@$$$++++++$$**$$$$$%%$$**+++++++@@..--@@---##..--..$$+++@@##..##@@@....@@++.....==;;;;;;==>>>@@..@@@@..#####@@@@++@@...++##@@@@==@@@@@$$",
"  ..###@@..@@@@@@$$$++++++$$**$$$$$%%$$**+++++++@@..--@@---##..--..$$+++@@##..##@@@....@@++.....==;;;;;;==>>>@@..@@@@..#####@@@@++@@...++##@@@@==@@@@@$$",
"  ..###@@..@@@@@@$$$++++++$$**$$$$$%%$$**+++++++@@..--@@---##..--..$$+++@@##..##@@@....@@++.....==;;;;;;==>>>@@..@@@@..#####@@@@++@@...++##@@@@==@@@@@$$",
"  ==+++@@........@@@@@@@++&&%%$$$$$**$$**++@@@++++......@@@....==..@@$$$@@....@@###......@@.....--========.............###$$..@@@@..@@@$$##++##@@@@@$$$$",
"  ==+++@@........@@@@@@@++&&%%$$$$$**$$**++@@@++++......@@@....==..@@$$$@@....@@###......@@.....--========.............###$$..@@@@..@@@$$##++##@@@@@$$$$",
"  ==+++@@........@@@@@@@++&&%%$$$$$**$$**++@@@++++......@@@....==..@@$$$@@....@@###......@@.....--========.............###$$..@@@@..@@@$$##++##@@@@@$$$$",
"  ..@@@$$@@,,'''')))@@''))$$,,)))'';;%%$$'')))++++@@==@@@@@....====@@+++++@@==@@@@@..@@@@@@.....;;====''!!.......==....@@@@@@@>>..==...$$....$$@@+++$$##",
"  ..@@@$$@@,,'''')))@@''))$$,,)))'';;%%$$'')))++++@@==@@@@@....====@@+++++@@==@@@@@..@@@@@@.....;;====''!!.......==....@@@@@@@>>..==...$$....$$@@+++$$##",
"  ..+++$$@@~~))@@~~~))~~))%%~~;;;~~;;++++~~)))@@++@@@@@@@@@--..##==@@###..@@==@@+++==..@@++..{{{;;==~~]]..=====....@@@@###@@..@@..==...++++@@%%@@...$$##",
"  ..+++$$@@~~))@@~~~))~~))%%~~;;;~~;;++++~~)))@@++@@@@@@@@@--..##==@@###..@@==@@+++==..@@++..{{{;;==~~]]..=====....@@@@###@@..@@..==...++++@@%%@@...$$##",
"  ..+++$$@@~~))@@~~~))~~))%%~~;;;~~;;++++~~)))@@++@@@@@@@@@--..##==@@###..@@==@@+++==..@@++..{{{;;==~~]]..=====....@@@@###@@..@@..==...++++@@%%@@...$$##",
"  @@@@@####^^^^^^)))##^^))$$^^;;;^^))$$++^^)))@@++==@@@@@@@@@>>..++++@@@@@..@@..@@@====@@++@@///>>^^]]>>==.......@@@@@@=====@@$$@@==.....####$$..---@@$$",
"  @@@@@####^^^^^^)))##^^))$$^^;;;^^))$$++^^)))@@++==@@@@@@@@@>>..++++@@@@@..@@..@@@====@@++@@///>>^^]]>>==.......@@@@@@=====@@$$@@==.....####$$..---@@$$",
"  @@@@@####^^^^^^)))##^^))$$^^;;;^^))$$++^^)))@@++==@@@@@@@@@>>..++++@@@@@..@@..@@@====@@++@@///>>^^]]>>==.......@@@@@@=====@@$$@@==.....####$$..---@@$$",
"  @@...$$##(())@@((())(())$$((;;;((;;%%$$(()))++++==....@@@..@@$$@@..@@@$$..@@..@@@==>>####..---((]];;;;--===....@@@@$$@@@@@==..@@..+++##$$++@@.....##$$",
"  @@...$$##(())@@((())(())$$((;;;((;;%%$$(()))++++==....@@@..@@$$@@..@@@$$..@@..@@@==>>####..---((]];;;;--===....@@@@$$@@@@@==..@@..+++##$$++@@.....##$$",
"  @@@@@++##______)))##++____;;%%%______))_______))++##==@@@@@==..@@@@$$$$$@@##==@@@@@==@@@@..___]];;;;;;--===@@##@@..@@###==....--.......##@@@@==...++@@",
"  @@@@@++##______)))##++____;;%%%______))_______))++##==@@@@@==..@@@@$$$$$@@##==@@@@@==@@@@..___]];;;;;;--===@@##@@..@@###==....--.......##@@@@==...++@@",
"  @@@@@++##______)))##++____;;%%%______))_______))++##==@@@@@==..@@@@$$$$$@@##==@@@@@==@@@@..___]];;;;;;--===@@##@@..@@###==....--.......##@@@@==...++@@",
"  ..@@@$$..##@@##@@@$$@@++%%*****%%%%$$+++++++@@++..@@..@@@==..==@@++###@@......$$$......++@@...;;;;;;---->>>--........@@@$$..@@--.......@@##@@==.....@@",
"  ..@@@$$..##@@##@@@$$@@++%%*****%%%%$$+++++++@@++..@@..@@@==..==@@++###@@......$$$......++@@...;;;;;;---->>>--........@@@$$..@@--.......@@##@@==.....@@",
"  ..@@@$$..##@@##@@@$$@@++%%*****%%%%$$+++++++@@++..@@..@@@==..==@@++###@@......$$$......++@@...;;;;;;---->>>--........@@@$$..@@--.......@@##@@==.....@@",
"  @@...####@@'''''''))''))**,,;;;'''',,))'')))@@@@@@@@@@@@@==....@@@@$$$@@......$$$##==@@++--...//>>;;'']]>>>==......==@@@##..@@@@==...@@@@@@.........@@",
"  @@...####@@'''''''))''))**,,;;;'''',,))'')))@@@@@@@@@@@@@==....@@@@$$$@@......$$$##==@@++--...//>>;;'']]>>>==......==@@@##..@@@@==...@@@@@@.........@@",
"  $$@@@@@@@~~))$$@@@..~~))&&~~;;;~~))$$++~~)))++##==.......--......@@@@@$$==@@..$$$##==..@@..--->>//~~]]=====....==....@@@==----..-->>>@@...........$$@@",
"  $$@@@@@@@~~))$$@@@..~~))&&~~;;;~~))$$++~~)))++##==.......--......@@@@@$$==@@..$$$##==..@@..--->>//~~]]=====....==....@@@==----..-->>>@@...........$$@@",
"  $$@@@@@@@~~))$$@@@..~~))&&~~;;;~~))$$++~~)))++##==.......--......@@@@@$$==@@..$$$##==..@@..--->>//~~]]=====....==....@@@==----..-->>>@@...........$$@@",
"  --$$$@@++..^^^^!!!@@^^^^^^^^;;;^^^^))++^^)))++++..--.........==..+++++++@@@@..@@@##..==@@..---;;^^]]==++>>>--==..==..===@@------@@.......@@....===@@$$",
"  --$$$@@++..^^^^!!!@@^^^^^^^^;;;^^^^))++^^)))++++..--.........==..+++++++@@@@..@@@##..==@@..---;;^^]]==++>>>--==..==..===@@------@@.......@@....===@@$$",
"  --$$$@@++..^^^^!!!@@^^^^^^^^;;;^^^^))++^^)))++++..--.........==..+++++++@@@@..@@@##..==@@..---;;^^]]==++>>>--==..==..===@@------@@.......@@....===@@$$",
"  >>@@@@@@@......((())(())$$((;;;(())++++(()))++##==....$$$==>>..--..$$$++@@##..###@@....@@.....((]];;##$$===..==....==@@@@@..====.....==........===@@++",
"  >>@@@@@@@......((())(())$$((;;;(())++++(()))++##==....$$$==>>..--..$$$++@@##..###@@....@@.....((]];;##$$===..==....==@@@@@..====.....==........===@@++",
"  $$+++..@@______)))@@__))%%__;;;______))_______))==..@@@@@==@@..==..@@@$$@@....@@@##....@@@@___]]==;;;;>>>>>>>........@@@==......>>---....@@...........",
"  $$+++..@@______)))@@__))%%__;;;______))_______))==..@@@@@==@@..==..@@@$$@@....@@@##....@@@@___]]==;;;;>>>>>>>........@@@==......>>---....@@...........",
"  $$+++..@@______)))@@__))%%__;;;______))_______))==..@@@@@==@@..==..@@@$$@@....@@@##....@@@@___]]==;;;;>>>>>>>........@@@==......>>---....@@...........",
"  ..***--++@@@@$$@@@@@##..$$%%%%%$$**$$++$$$$$++....--.....@@==..====@@@++++@@==@@@@@..@@@@::...======;;>>=====@@>>>>--@@@@@....--..;;;--..==...........",
"  ..***--++@@@@$$@@@@@##..$$%%%%%$$**$$++$$$$$++....--.....@@==..====@@@++++@@==@@@@@..@@@@::...======;;>>=====@@>>>>--@@@@@....--..;;;--..==...........",
"  ..***--++@@@@$$@@@@@##..$$%%%%%$$**$$++$$$$$++....--.....@@==..====@@@++++@@==@@@@@..@@@@::...======;;>>=====@@>>>>--@@@@@....--..;;;--..==...........",
"  $$***++++,,,,,,---$$@@'',,))'''))**''))<<'''''//==..==@@@@@==..##==@@@##..@@==@@@++==..@@..+++--;;;;'']]-----..;;>>--@@@@@==..>>..===>>....==@@.......",
"  $$***++++,,,,,,---$$@@'',,))'''))**''))<<'''''//==..==@@@@@==..##==@@@##..@@==@@@++==..@@..+++--;;;;'']]-----..;;>>--@@@@@==..>>..===>>....==@@.......",
"  @@@@@..$$~~))$$~~~//~~!!$$**~~~))~~))$$%%~~~//==......###++@@..##==@@@##..@@==@@@++==..@@.....--;;~~]]-----..;;//----@@@@@====;;==...==@@==...........",
"  @@@@@..$$~~))$$~~~//~~!!$$**~~~))~~))$$%%~~~//==......###++@@..##==@@@##..@@==@@@++==..@@.....--;;~~]]-----..;;//----@@@@@====;;==...==@@==...........",
"  @@@@@..$$~~))$$~~~//~~!!$$**~~~))~~))$$%%~~~//==......###++@@..##==@@@##..@@==@@@++==..@@.....--;;~~]]-----..;;//----@@@@@====;;==...==@@==...........",
"  @@...++++^^^^^^;;;@@^^))$$&&^^^^^))$$$$$$^^^//....>>..$$$..##..##==@@@##..@@==@@@++==..++@@---;;^^]];;>>----->>..----===@@==>>>>--===......====...====",
"  @@...++++^^^^^^;;;@@^^))$$&&^^^^^))$$$$$$^^^//....>>..$$$..##..##==@@@##..@@==@@@++==..++@@---;;^^]];;>>----->>..----===@@==>>>>--===......====...====",
"  @@...++++^^^^^^;;;@@^^))$$&&^^^^^))$$$$$$^^^//....>>..$$$..##..##==@@@##..@@==@@@++==..++@@---;;^^]];;>>----->>..----===@@==>>>>--===......====...====",
"  @@@@@..@@(())$$((())(())%%%%((())(())$$++(((//........$$$..@@@@$$$$>>>@@##++@@---++==--++@@@@@((]]//;;-------....>>>>@@@====>>==>>>>>....==;;..=======",
"  @@@@@..@@(())$$((())(())%%%%((())(())$$++(((//........$$$..@@@@$$$$>>>@@##++@@---++==--++@@@@@((]]//;;-------....>>>>@@@====>>==>>>>>....==;;..=======",
"  @@.....##__))##___))@@____))___))**__))$$___//++....==###==@@@@@@$$...@@@@>>..===@@==....--___]];;//;;..>>>>>>>..>>//@@@====-->>>>---..@@======-----==",
"  @@.....##__))##___))@@____))___))**__))$$___//++....==###==@@@@@@$$...@@@@>>..===@@==....--___]];;//;;..>>>>>>>..>>//@@@====-->>>>---..@@======-----==",
"  @@.....##__))##___))@@____))___))**__))$$___//++....==###==@@@@@@$$...@@@@>>..===@@==....--___]];;//;;..>>>>>>>..>>//@@@====-->>>>---..@@======-----==",
"  @@===++@@..++@@$$$@@$$@@%%%%%%%$$**$$$$+++++++..==@@..###==@@@@@@@@###....>>>>>>>$$====--.....>>////==@@===>>....;;;;@@@====;;[[;;---......=========..",
"  @@===++@@..++@@$$$@@$$@@%%%%%%%$$**$$$$+++++++..==@@..###==@@@@@@@@###....>>>>>>>$$====--.....>>////==@@===>>....;;;;@@@====;;[[;;---......=========..",
"  @@===++@@..++@@$$$@@$$@@%%%%%%%$$**$$$$+++++++..==@@..###==@@@@@@@@###....>>>>>>>$$====--.....>>////==@@===>>....;;;;@@@====;;[[;;---......=========..",
"  .......##@@'''',,,!!'''',,;;''';;&&++''))+++++..==@@@@$$$@@@@@@++==$$$@@---->>...@@..------+++>>;;;;,,!!>>>>>@@..>>>>@@@==-->>>>>>...======..==---....",
"  .......##@@'''',,,!!'''',,;;''';;&&++''))+++++..==@@@@$$$@@@@@@++==$$$@@---->>...@@..------+++>>;;;;,,!!>>>>>@@..>>>>@@@==-->>>>>>...======..==---....",
"  ..@@@@@@@~~!!++$$$@@~~))&&$$~~~;;$$++~~))+++$$@@@@..@@$$$@@..++&&--+++++;;....>>>@@@@>>----...////~~]]--;;;;;....>>;;=====>>;;====;;;>>;;......---@@..",
"  ..@@@@@@@~~!!++$$$@@~~))&&$$~~~;;$$++~~))+++$$@@@@..@@$$$@@..++&&--+++++;;....>>>@@@@>>----...////~~]]--;;;;;....>>;;=====>>;;====;;;>>;;......---@@..",
"  ..@@@@@@@~~!!++$$$@@~~))&&$$~~~;;$$++~~))+++$$@@@@..@@$$$@@..++&&--+++++;;....>>>@@@@>>----...////~~]]--;;;;;....>>;;=====>>;;====;;;>>;;......---@@..",
"  $$@@@@@..^^))==...--^^^^;;$$^^^;;++$$^^))+++++..++==..@@@..==@@++..$$$----##..;;;@@....-------//^^]];;>>;;;//--==;;;;>>>====;;;;--;;;==;;--..==...==..",
"  $$@@@@@..^^))==...--^^^^;;$$^^^;;++$$^^))+++++..++==..@@@..==@@++..$$$----##..;;;@@....-------//^^]];;>>;;;//--==;;;;>>>====;;;;--;;;==;;--..==...==..",
"  $$@@@@@..^^))==...--^^^^;;$$^^^;;++$$^^))+++++..++==..@@@..==@@++..$$$----##..;;;@@....-------//^^]];;>>;;;//--==;;;;>>>====;;;;--;;;==;;--..==...==..",
"  ##@@@@@++(())=====@@(())$$&&(((;;''$$(())+++$$==..>>++...@@--@@@@==+++>>..++@@.......==..-----((]];;////;;;;;;;;;///////====--;;>>>>>-->>;;=========--",
"  ##@@@@@++(())=====@@(())$$&&(((;;''$$(())+++$$==..>>++...@@--@@@@==+++>>..++@@.......==..-----((]];;////;;;;;;;;;///////====--;;>>>>>-->>;;=========--",
"  #########@@_______!!______;;_______))_______))..@@>>@@@@@@@..++....###>>>>++++.....====--;;___}};;;;////;;;==//>>;;/////====-->>-->>>;;>>--==>>=======",
"  #########@@_______!!______;;_______))_______))..@@>>@@@@@@@..++....###>>>>++++.....====--;;___}};;;;////;;;==//>>;;/////====-->>-->>>;;>>--==>>=======",
"  #########@@_______!!______;;_______))_______))..@@>>@@@@@@@..++....###>>>>++++.....====--;;___}};;;;////;;;==//>>;;/////====-->>-->>>;;>>--==>>=======",
"  ..@@@@@..@@@@@@@@@>>==##$$%%%%%####$$+++++++++##@@==..@@@..--......+++;;>>@@@@...--....{{-----;;;;;;;;;;;;;;;;;;;////=====----==;;---//>>====>>=====--",
"  ..@@@@@..@@@@@@@@@>>==##$$%%%%%####$$+++++++++##@@==..@@@..--......+++;;>>@@@@...--....{{-----;;;;;;;;;;;;;;;;;;;////=====----==;;---//>>====>>=====--",
"  ..@@@@@..@@@@@@@@@>>==##$$%%%%%####$$+++++++++##@@==..@@@..--......+++;;>>@@@@...--....{{-----;;;;;;;;;;;;;;;;;;;////=====----==;;---//>>====>>=====--",
"  ..@@@..@@@@@@@@@@@>>..++##%%%%%$$$$$$+++++++++@@@@@@>>...@@==@@--..+++//>>##..-----....----...//////;;;;///--;;//;;;;@@@@@==----;;>>>;;;;>>==@@>>>--..",
"  ..@@@..@@@@@@@@@@@>>..++##%%%%%$$$$$$+++++++++@@@@@@>>...@@==@@--..+++//>>##..-----....----...//////;;;;///--;;//;;;;@@@@@==----;;>>>;;;;>>==@@>>>--..",
"  .......@@....@@###......$$&&%%%$$$$$$++$$+++@@##@@@@--...@@..>>--..@@@//--.........@@;;..||---;;;;/////////;;////////===@@;;;;-->>;;;>>;;>>-->>;;;==--",
"  .......@@....@@###......$$&&%%%$$$$$$++$$+++@@##@@@@--...@@..>>--..@@@//--.........@@;;..||---;;;;/////////;;////////===@@;;;;-->>;;;>>;;>>-->>;;;==--",
"  .......@@....@@###......$$&&%%%$$$$$$++$$+++@@##@@@@--...@@..>>--..@@@//--.........@@;;..||---;;;;/////////;;////////===@@;;;;-->>;;;>>;;>>-->>;;;==--",
"                                                                                                                                                        ",
"                                                                                                                                                        "};
