/* XPM */
static char * Armor_xpm[] = {
"126 84 24 1",
" 	c None",
".	c #9F9F9F",
"+	c #939393",
"@	c #838383",
"#	c #7F7F7F",
"$	c #8B8B8B",
"%	c #777777",
"&	c #6F6F6F",
"*	c #6B6B6B",
"=	c #575757",
"-	c #4F4F4F",
";	c #474747",
">	c #5B5B5B",
",	c #636363",
"'	c #434343",
")	c #3B3B3B",
"!	c #373737",
"~	c #272727",
"{	c #2F2F2F",
"]	c #232323",
"^	c #1B1B1B",
"/	c #ABABAB",
"(	c #131313",
"_	c #B7B7B7",
"                                                                                                                              ",
"..+++++@@####$$@@#####%%%%%%%%&&&%%&&%%@@@@###@@$$@@##&&###%%%%&&*********&&%%%%%%%&&%%&&**%%%%%&&&&****##%%%&&&&****#######  ",
"..+++++@@####$$@@#####%%%%%%%%&&&%%&&%%@@@@###@@$$@@##&&###%%%%&&*********&&%%%%%%%&&%%&&**%%%%%&&&&****##%%%&&&&****#######  ",
"++=====&&&&**&&&&***--;;=========-->>,,>>**,,,,,&&%%===========;;--'''--;;===============>>=======;;--'',,===>>>>----&&-----  ",
"++=====&&&&**&&&&***--;;=========-->>,,>>**,,,,,&&%%===========;;--'''--;;===============>>=======;;--'',,===>>>>----&&-----  ",
"$$>>,,,##&&&&%%&&*****;;=============>>>>>>%%%&&**%%,,,,,,,====--;;;;;;;;;;;,,==---====>>>>=====,,--;;;;==>>>>>>>--;;-------  ",
"$$>>,,,##&&&&%%&&*****;;=============>>>>>>%%%&&**%%,,,,,,,====--;;;;;;;;;;;,,==---====>>>>=====,,--;;;;==>>>>>>>--;;-------  ",
"$$>>,,,##&&&&%%&&*****;;=============>>>>>>%%%&&**%%,,,,,,,====--;;;;;;;;;;;,,==---====>>>>=====,,--;;;;==>>>>>>>--;;-------  ",
"@@--===,,##&&>>==*****--=========;;======,,%%%,,,,**,,%%=======--;;)));;----))=======-->>>>=====;;--;;))>>===>>>>--!!--===>>  ",
"@@--===,,##&&>>==*****--=========;;======,,%%%,,,,**,,%%=======--;;)));;----))=======-->>>>=====;;--;;))>>===>>>>--!!--===>>  ",
"@@-->>>&&####,,**%%%,,----=========----==&&***,,,,%%,,%%===--====;;;;;--;;--;;=====--==,,=======;;--;;;;=====>>>>==--;;-----  ",
"@@-->>>&&####,,**%%%,,----=========----==&&***,,,,%%,,%%===--====;;;;;--;;--;;=====--==,,=======;;--;;;;=====>>>>==--;;-----  ",
"@@-->>>&&####,,**%%%,,----=========----==&&***,,,,%%,,%%===--====;;;;;--;;--;;=====--==,,=======;;--;;;;=====>>>>==--;;-----  ",
"@@,,---%%####====,,,==,,--====-------====,,,,,,,&&%%**,,,,,--====--'''----==;;==***==;;,,,,;;-----,,--''>>>>>,,,,--==>>,,,--  ",
"@@,,---%%####====,,,==,,--====-------====,,,,,,,&&%%**,,,,,--====--'''----==;;==***==;;,,,,;;-----,,--''>>>>>,,,,--==>>,,,--  ",
"@@,,---%%####====,,,==,,--====-------====,,,,,,,&&%%**,,,,,--====--'''----==;;==***==;;,,,,;;-----,,--''>>>>>,,,,--==>>,,,--  ",
"@@,,===,,%%,,,,,,---,,========---==,,,,>>**,,,&&****====,,,==--==-----;;;;====--===,,--,,>>;;;;;-------->>>>>====------>>>--  ",
"@@,,===,,%%,,,,,,---,,========---==,,,,>>**,,,&&****====,,,==--==-----;;;;====--===,,--,,>>;;;;;-------->>>>>====------>>>--  ",
"$$,,***%%,,==>>==~~~--,,==--==---==>>>>==,,,,,%%**--,,=====,,--==''---;;----=======,,>>&&>>==;;;-->>''-->>===>>>>;;----,,,--  ",
"$$,,***%%,,==>>==~~~--,,==--==---==>>>>==,,,,,%%**--,,=====,,--==''---;;----=======,,>>&&>>==;;;-->>''-->>===>>>>;;----,,,--  ",
"$$,,***%%,,==>>==~~~--,,==--==---==>>>>==,,,,,%%**--,,=====,,--==''---;;----=======,,>>&&>>==;;;-->>''-->>===>>>>;;----,,,--  ",
"$$>>;;;%%&&&&%%@@,,,,,--======---==>>====,,,,,%%,,****,,---,,===='';;;;;--====--===,,>>,,=======--=='';;==>>>,,,,;;--;;-----  ",
"$$>>;;;%%&&&&%%@@,,,,,--======---==>>====,,,,,%%,,****,,---,,===='';;;;;--====--===,,>>,,=======--=='';;==>>>,,,,;;--;;-----  ",
"$$>>;;;%%&&&&%%@@,,,,,--======---==>>====,,,,,%%,,****,,---,,===='';;;;;--====--===,,>>,,=======--=='';;==>>>,,,,;;--;;-----  ",
"@@-->>>****%%@@%%%%%''>>**=======,,>>==,,,,*******&&**,,===**======>>>;;------=======>>,,==--;;;--====>>>>=======>>--;;;;;--  ",
"@@-->>>****%%@@%%%%%''>>**=======,,>>==,,,,*******&&**,,===**======>>>;;------=======>>,,==--;;;--====>>>>=======>>--;;;;;--  ",
"@@,,--->>,,%%%%,,***>>**===========,,--==**%%%%%****,,=======--==;;---;;;;----=======>>,,>>>>-----==;;-->>=======--;;;;-----  ",
"@@,,--->>,,%%%%,,***>>**===========,,--==**%%%%%****,,=======--==;;---;;;;----=======>>,,>>>>-----==;;-->>=======--;;;;-----  ",
"@@,,--->>,,%%%%,,***>>**===========,,--==**%%%%%****,,=======--==;;---;;;;----=======>>,,>>>>-----==;;-->>=======--;;;;-----  ",
"@@==,,,,,**&&,,%%&&&**&&=============----%%&&&**,,**=========-----------;;----=======>>>>,,>>'''--------==---====--''-----,,  ",
"@@==,,,,,**&&,,%%&&&**&&=============----%%&&&**,,**=========-----------;;----=======>>>>,,>>'''--------==---====--''-----,,  ",
"@@**>>>******%%%%%%%&&&&======---==;;====&&%%%**==,,,,=========>>'';;;;;;;--=========,,,,>>>>'''>>>>'';;---------));;>>===,,  ",
"@@**>>>******%%%%%%%&&&&======---==;;====&&%%%**==,,,,=========>>'';;;;;;;--=========,,,,>>>>'''>>>>'';;---------));;>>===,,  ",
"@@**>>>******%%%%%%%&&&&======---==;;====&&%%%**==,,,,=========>>'';;;;;;;--=========,,,,>>>>'''>>>>'';;---------));;>>===,,  ",
"@@>>>>>%%%%%%%%**&&&%%**==,,=====;;------**%%%&&,,===============;;)));;--==----=====**>>,,>>'''====;;))=========;;''-----;;  ",
"@@>>>>>%%%%%%%%**&&&%%**==,,=====;;------**%%%&&,,===============;;)));;--==----=====**>>,,>>'''====;;))=========;;''-----;;  ",
"@@>>>>>%%%%%%%%**&&&%%**==,,=====;;------**%%%&&,,===============;;)));;--==----=====**>>,,>>'''====;;))=========;;''-----;;  ",
"@@==---%%==,,**&&%%%**&&====,,---==--;;>>,,***&&,,,,===========>>'';;;;;;;------=====>>**,,>>'''>>>>'';;--===----;;!!==-----  ",
"@@==---%%==,,**&&%%%**&&====,,---==--;;>>,,***&&,,,,===========>>'';;;;;;;------=====>>**,,>>'''>>>>'';;--===----;;!!==-----  ",
"@@,,---====%%&&==***,,,,====**---==----==**%%%&&**--,,=====----,,'';;;--;;--==--=====;;,,>>,,;;;>>,,'';;>>======={{!!,,---;;  ",
"@@,,---====%%&&==***,,,,====**---==----==**%%%&&**--,,=====----,,'';;;--;;--==--=====;;,,>>,,;;;>>,,'';;>>======={{!!,,---;;  ",
"@@,,---====%%&&==***,,,,====**---==----==**%%%&&**--,,=====----,,'';;;--;;--==--=====;;,,>>,,;;;>>,,'';;>>======={{!!,,---;;  ",
"$$=====))&&**%%,,%%%%%,,====,,===------==**&&&%%**,,====,,,====>>--''';;----==--===**--,,>>>>>>>,,>>--''>>---;;;;'';;'';;;;;  ",
"$$=====))&&**%%,,%%%%%,,====,,===------==**&&&%%**,,====,,,====>>--''';;----==--===**--,,>>>>>>>,,>>--''>>---;;;;'';;'';;;;;  ",
"$$=====))&&**%%,,%%%%%,,====,,===------==**&&&%%**,,====,,,====>>--''';;----==--===**--,,>>>>>>>,,>>--''>>---;;;;'';;'';;;;;  ",
"$$--&&&;;****,,*******--====,,=====;;----%%***%%&&&&===========>>--;;;;;--=========,,>>>>**,,---,,>>--;;==---;;;;;;;;'';;;;;  ",
"$$--&&&;;****,,*******--====,,=====;;----%%***%%&&&&===========>>--;;;;;--=========,,>>>>**,,---,,>>--;;==---;;;;;;;;'';;;;;  ",
"@@==,,,;;**,,####,,,,,>>==**=======--====&&,,,**&&,,=========,,==--;;;=============,,,,****,,;;;,,==--;;==---;;;;;;))));;;;;  ",
"@@==,,,;;**,,####,,,,,>>==**=======--====&&,,,**&&,,=========,,==--;;;=============,,,,****,,;;;,,==--;;==---;;;;;;))));;;;;  ",
"@@==,,,;;**,,####,,,,,>>==**=======--====&&,,,**&&,,=========,,==--;;;=============,,,,****,,;;;,,==--;;==---;;;;;;))));;;;;  ",
"##;;>>>==%%,,##&&,,,,,======**===--))----**,,,%%%%==,,==,,,====,,=='''==;;======,,,**,,%%**,,,,,--,,==''>>---====;;!!))---))  ",
"##;;>>>==%%,,##&&,,,,,======**===--))----**,,,%%%%==,,==,,,====,,=='''==;;======,,,**,,%%**,,,,,--,,==''>>---====;;!!))---))  ",
"@@=====******&&&&***--;;==,,**=====--;;>>,,&&&%%##@@,,==,,,==,,,,==---==--==--==,,,==,,,,>>,,,,,,,,,==----;;;,,,,!!{{!!))){{  ",
"@@=====******&&&&***--;;==,,**=====--;;>>,,&&&%%##@@,,==,,,==,,,,==---==--==--==,,,==,,,,>>,,,,,,,,,==----;;;,,,,!!{{!!))){{  ",
"@@=====******&&&&***--;;==,,**=====--;;>>,,&&&%%##@@,,==,,,==,,,,==---==--==--==,,,==,,,,>>,,,,,,,,,==----;;;,,,,!!{{!!))){{  ",
"$$>>,,,==**&&%%&&*****;;====**===--;;--==*******,,%%,,=========,,>>'''==--==--=======;;,,,,,,--->>,,>>''!!;;;====!!!!!!{{{{{  ",
"$$>>,,,==**&&%%&&*****;;====**===--;;--==*******,,%%,,=========,,>>'''==--==--=======;;,,,,,,--->>,,>>''!!;;;====!!!!!!{{{{{  ",
"$$>>,,,==**&&%%&&*****;;====**===--;;--==*******,,%%,,=========,,>>'''==--==--=======;;,,,,,,--->>,,>>''!!;;;====!!!!!!{{{{{  ",
"@@--===,,@@&&>>==*****--=========--'',,--,,***--****,,=========>>--'''==--===========>>>>>>,,;;;>>>>--''));;;,,,,))''!!!!!{{  ",
"@@--===,,@@&&>>==*****--=========--'',,--,,***--****,,=========>>--'''==--===========>>>>>>,,;;;>>>>--''));;;,,,,))''!!!!!{{  ",
"@@-->>>&&##&&,,**%%%,,--==@@@@$$$==!!@@$$@@@@@@@,,==,,@@===,,==@@''---==@@$$@@@@@@@,,==@@@@$$@@@@@--''--)))));;;;{{;;{{{{{{{  ",
"@@-->>>&&##&&,,**%%%,,--==@@@@$$$==!!@@$$@@@@@@@,,==,,@@===,,==@@''---==@@$$@@@@@@@,,==@@@@$$@@@@@--''--)))));;;;{{;;{{{{{{{  ",
"@@-->>>&&##&&,,**%%%,,--==@@@@$$$==!!@@$$@@@@@@@,,==,,@@===,,==@@''---==@@$$@@@@@@@,,==@@@@$$@@@@@--''--)))));;;;{{;;{{{{{{{  ",
"@@,,---%%####====,,,==,,++++]]+++++))>>^^]]]]]++++**+++++++==++++++;;;++++]]]]]]+++++==,,]]]]]]]++++--;;));;;))))~~''!!{{{{{  ",
"@@,,---%%####====,,,==,,++++]]+++++))>>^^]]]]]++++**+++++++==++++++;;;++++]]]]]]+++++==,,]]]]]]]++++--;;));;;))))~~''!!{{{{{  ",
"@@,,---%%####====,,,==,,++++]]+++++))>>^^]]]]]++++**+++++++==++++++;;;++++]]]]]]+++++==,,]]]]]]]++++--;;));;;))))~~''!!{{{{{  ",
"@@,,===,,%%,,,,,,-----.............^^...........]]]]...............^^^....]]====.....]]...........]]]]'';;;;;;;;;!!{{{{{{{{{  ",
"@@,,===,,%%,,,,,,-----.............^^...........]]]]...............^^^....]]====.....]]...........]]]]'';;;;;;;;;!!{{{{{{{{{  ",
"$$,,***%%,,==>>==~~~,,////]]]]/////^^////]]{{{////,,////]]]//]]////(((////]]====/////]]////]]]]]////;;!!;;;;;)))){{!!!!!!!''  ",
"$$,,***%%,,==>>==~~~,,////]]]]/////^^////]]{{{////,,////]]]//]]////(((////]]====/////]]////]]]]]////;;!!;;;;;)))){{!!!!!!!''  ",
"$$,,***%%,,==>>==~~~,,////]]]]/////^^////]]{{{////,,////]]]//]]////(((////]]====/////]]////]]]]]////;;!!;;;;;)))){{!!!!!!!''  ",
"++,,>>>,,>>,,;;;;~~~--____]],,_____((____]]***____]]____]]],,]]____(((--___________]]]]____]]---____]]!!;;---)))){{{{!!!!!;;  ",
"++,,>>>,,>>,,;;;;~~~--____]],,_____((____]]***____]]____]]],,]]____(((--___________]]]]____]]---____]]!!;;---)))){{{{!!!!!;;  ",
"@@=====----%%--;;>>>,,,,]]]],,===]](('']]]]*****]]]],,]]]]]====>>]]^^^;;;;^^]]]]]]]]]-->>]]]];;;>>]]]]'';;>>>;;;;~~{{!!)));;  ",
"@@=====----%%--;;>>>,,,,]]]],,===]](('']]]]*****]]]],,]]]]]====>>]]^^^;;;;^^]]]]]]]]]-->>]]]];;;>>]]]]'';;>>>;;;;~~{{!!)));;  ",
"@@=====----%%--;;>>>,,,,]]]],,===]](('']]]]*****]]]],,]]]]]====>>]]^^^;;;;^^]]]]]]]]]-->>]]]];;;>>]]]]'';;>>>;;;;~~{{!!)));;  ",
"@@---------==**%%%%%==&&===========!!;;==>>*****,,,,,,=========-------;;--;;==--=====,,>>;;==>>>==-----------;;;;!!!!!!)))))  ",
"@@---------==**%%%%%==&&===========!!;;==>>*****,,,,,,=========-------;;--;;==--=====,,>>;;==>>>==-----------;;;;!!!!!!)))))  ",
"@@---------==**%%%%%==&&===========!!;;==>>*****,,,,,,=========-------;;--;;==--=====,,>>;;==>>>==-----------;;;;!!!!!!)))))  ",
"@@--,,,--,,==-->>,,,##====--,,=====;;;;;;,,&&&**,,,,,,==,,,==-->>-----;;;;;;==------->>,,,,&&>>>>>>>----));;;;;;;~~!!!!)))!!  ",
"@@--,,,--,,==-->>,,,##====--,,=====;;;;;;,,&&&**,,,,,,==,,,==-->>-----;;;;;;==------->>,,,,&&>>>>>>>----));;;;;;;~~!!!!)))!!  ",
"                                                                                                                              ",
"                                                                                                                              ",
"                                                                                                                              "};
