/* XPM */
static char * armor1_xpm[] = {
"64 35 13 1",
" 	c None",
".	c #000083",
"+	c #00009B",
"@	c #0000CB",
"#	c #0000E3",
"$	c #000053",
"%	c #00006B",
"&	c #000023",
"*	c #0000B3",
"=	c #000047",
"-	c #00002F",
";	c #000017",
">	c #00003B",
"    ..++@@@@@@###@@$$%%$$&&          &&$$%%$$@@@@@##@@@@++..    ",
"    ..++@@@@@@###@@$$%%$$&&          &&$$%%$$@@@@@##@@@@++..    ",
"  ..**@@#########@@..$$====&&&&&&&&&&====$$..@@#########@@**..  ",
"  ..**@@#########@@..$$====&&&&&&&&&&====$$..@@#########@@**..  ",
"..++**@@@@##@@@@@++++%%----&&&&&&&&&&----%%++++@@@@@##@@@@**++..",
"..++**@@@@##@@@@@++++%%----&&&&&&&&&&----%%++++@@@@@##@@@@**++..",
"..********@@+++++@@@@@@++==--&&&&&&--==++@@@@@@+++++@@********..",
"..********@@+++++@@@@@@++==--&&&&&&--==++@@@@@@+++++@@********..",
"..++++++++++%%***######@@**%%&&--&&%%**@@######***%%++++++++++..",
"..++++++++++%%***######@@**%%&&--&&%%**@@######***%%++++++++++..",
"..;;;;;;;;%%%%+++************++..%%************+++%%%%;;;;;;;;..",
"..;;;;;;;;%%%%+++************++..%%************+++%%%%;;;;;;;;..",
"          $$%%%%%++++++++++++++..%%++++++++++++%%%%%$$          ",
"          $$%%%%%++++++++++++++..%%++++++++++++%%%%%$$          ",
"          $$$$%%%%%..++..........%%..........%%%%%$$$$          ",
"          $$$$%%%%%..++..........%%..........%%%%%$$$$          ",
"            $$$$$$$$$$$$$$$$$$$$$$$$$$$$$$$$$$$$$$$$            ",
"            $$$$$$$$$$$$$$$$$$$$$$$$$$$$$$$$$$$$$$$$            ",
"            $$$$$$$$$$$$$$$$$$$$$$$$$$$$$$$$$$$$$$$$            ",
"            $$>>>==$$$$%%%%%%%%%%%%%%%%%%$$$$==>>>$$            ",
"            $$>>>==$$$$%%%%%%%%%%%%%%%%%%$$$$==>>>$$            ",
"              >>>==$$$$%%..............%%$$$$==>>>              ",
"              >>>==$$$$%%..............%%$$$$==>>>              ",
"              >>>==$$$$%%....++++++....%%$$$$==>>>              ",
"              >>>==$$$$%%....++++++....%%$$$$==>>>              ",
"              $$$==$$$$%%....++++++....%%$$$$==$$$              ",
"              $$$==$$$$%%....++++++....%%$$$$==$$$              ",
"              %%%$$$$$$%%....++++++....%%$$$$$$%%%              ",
"              %%%$$$$$$%%....++++++....%%$$$$$$%%%              ",
"              ...%%$$%%..++++++++++++++..%%..++...              ",
"              ...%%$$%%..++++++++++++++..%%..++...              ",
"                 ....++++**@@@@@@@@@@**++++++..                 ",
"                 ....++++**@@@@@@@@@@**++++++..                 ",
"                     ....%%$$$$$$$$$$%%....                     ",
"                     ....%%$$$$$$$$$$%%....                     "};
