/* XPM */
static char * armor_xpm[] = {
"64 36 425 2",
"  	c None",
". 	c #37732B",
"+ 	c #3C7F31",
"@ 	c #46953A",
"# 	c #53B249",
"$ 	c #61D158",
"% 	c #69E361",
"& 	c #6DEB65",
"* 	c #6FEF67",
"= 	c #6BE462",
"- 	c #61CD56",
"; 	c #50AA45",
"> 	c #36742D",
", 	c #214818",
"' 	c #244D19",
") 	c #27531B",
"! 	c #234A18",
"~ 	c #1A3410",
"{ 	c #13230B",
"] 	c #3F8433",
"^ 	c #448F38",
"/ 	c #4CA040",
"( 	c #56B84C",
"_ 	c #62D359",
": 	c #6FF067",
"< 	c #6BE562",
"[ 	c #51AB46",
"} 	c #397A30",
"| 	c #26521D",
"1 	c #244E1A",
"2 	c #254F1A",
"3 	c #224818",
"4 	c #1B3912",
"5 	c #162D0F",
"6 	c #49993D",
"7 	c #4FA743",
"8 	c #55B249",
"9 	c #5BC251",
"0 	c #63D65A",
"a 	c #6AE462",
"b 	c #53AE47",
"c 	c #3F8534",
"d 	c #2E6123",
"e 	c #25501C",
"f 	c #214718",
"g 	c #204517",
"h 	c #1E3F15",
"i 	c #1B3813",
"j 	c #162D0E",
"k 	c #3C7E30",
"l 	c #438E38",
"m 	c #4EA442",
"n 	c #55B44A",
"o 	c #5ABF4F",
"p 	c #5FCB55",
"q 	c #65D95C",
"r 	c #69E461",
"s 	c #6DEC65",
"t 	c #6EED66",
"u 	c #6CE763",
"v 	c #66DA5D",
"w 	c #5CC452",
"x 	c #50A944",
"y 	c #428A35",
"z 	c #336B27",
"A 	c #27531C",
"B 	c #1F4216",
"C 	c #1D3E14",
"D 	c #1C3E15",
"E 	c #1D3F15",
"F 	c #1B3913",
"G 	c #162C0E",
"H 	c #2F6323",
"I 	c #38762C",
"J 	c #428C36",
"K 	c #4A9C3E",
"L 	c #56B74B",
"M 	c #5CC552",
"N 	c #60D058",
"O 	c #65DA5D",
"P 	c #65D75B",
"Q 	c #5DC552",
"R 	c #54B249",
"S 	c #4B9F3F",
"T 	c #428B34",
"U 	c #38752A",
"V 	c #2C5E20",
"W 	c #224A18",
"X 	c #1C3E14",
"Y 	c #193811",
"Z 	c #183310",
"` 	c #152A0D",
" .	c #316725",
"..	c #3A7B2E",
"+.	c #47973C",
"@.	c #52AD46",
"#.	c #56B64A",
"$.	c #5AC250",
"%.	c #5ECB55",
"&.	c #65D85C",
"*.	c #68E060",
"=.	c #6AE361",
"-.	c #63D55A",
";.	c #55B349",
">.	c #51AB45",
",.	c #4FA843",
"'.	c #4CA241",
").	c #44933A",
"!.	c #3B8132",
"~.	c #316B28",
"{.	c #27561E",
"].	c #1E4216",
"^.	c #17320F",
"/.	c #14260C",
"(.	c #13240B",
"_.	c #47973B",
":.	c #356F29",
"<.	c #3E8232",
"[.	c #4B9E3F",
"}.	c #52AC46",
"|.	c #53AF47",
"1.	c #54B148",
"2.	c #57B94C",
"3.	c #58BC4E",
"4.	c #5BC250",
"5.	c #5FC954",
"6.	c #5EC854",
"7.	c #59BE4F",
"8.	c #54B44A",
"9.	c #51AC45",
"0.	c #5BC150",
"a.	c #62D158",
"b.	c #5ECC56",
"c.	c #56BA4D",
"d.	c #499E40",
"e.	c #3B7E30",
"f.	c #2A5A21",
"g.	c #1B3C13",
"h.	c #152D0D",
"i.	c #3E8332",
"j.	c #499A3D",
"k.	c #4FA642",
"l.	c #54B048",
"m.	c #499C3E",
"n.	c #4EA844",
"o.	c #55B54A",
"p.	c #6AE562",
"q.	c #67DF5F",
"r.	c #57BB4D",
"s.	c #4BA040",
"t.	c #3C8132",
"u.	c #2E6425",
"v.	c #244E1B",
"w.	c #1C3B13",
"x.	c #152B0D",
"y.	c #12220B",
"z.	c #13250B",
"A.	c #162C0D",
"B.	c #3B7B2E",
"C.	c #428934",
"D.	c #469338",
"E.	c #47993A",
"F.	c #499D3D",
"G.	c #4CA140",
"H.	c #4DA341",
"I.	c #4C9F3F",
"J.	c #49993B",
"K.	c #448F36",
"L.	c #3F8533",
"M.	c #45953B",
"N.	c #54B54A",
"O.	c #5DC954",
"P.	c #64D85B",
"Q.	c #64D95C",
"R.	c #63D85B",
"S.	c #62D65A",
"T.	c #60D158",
"U.	c #5CC954",
"V.	c #4EA744",
"W.	c #438F38",
"X.	c #346F29",
"Y.	c #254F1B",
"Z.	c #1A3611",
"`.	c #14270C",
" +	c #152C0D",
".+	c #367129",
"++	c #38742A",
"@+	c #397A2C",
"#+	c #3C822F",
"$+	c #3F8933",
"%+	c #438F37",
"&+	c #46943A",
"*+	c #449037",
"=+	c #3D802F",
"-+	c #377329",
";+	c #356E28",
">+	c #3F8835",
",+	c #50AE47",
"'+	c #5BC552",
")+	c #60D057",
"!+	c #5CC753",
"~+	c #5CC853",
"{+	c #428C37",
"]+	c #36732B",
"^+	c #2B5B20",
"/+	c #204516",
"(+	c #1D3F14",
"_+	c #254E1B",
":+	c #35702A",
"<+	c #37742A",
"[+	c #2F6424",
"}+	c #2C5D20",
"|+	c #2B5D20",
"1+	c #2E6423",
"2+	c #326C26",
"3+	c #36732A",
"4+	c #3B7C2E",
"5+	c #408632",
"6+	c #316925",
"7+	c #29581E",
"8+	c #2B5A1F",
"9+	c #357129",
"0+	c #4EA642",
"a+	c #55B64A",
"b+	c #56B84B",
"c+	c #56B64B",
"d+	c #47963B",
"e+	c #3D8130",
"f+	c #346D26",
"g+	c #2E6021",
"h+	c #28541D",
"i+	c #254E1A",
"j+	c #316926",
"k+	c #2B5C20",
"l+	c #244D1B",
"m+	c #29571D",
"n+	c #2D5F21",
"o+	c #346D27",
"p+	c #3B7C2C",
"q+	c #377228",
"r+	c #27531D",
"s+	c #1F4316",
"t+	c #234B19",
"u+	c #2B5C1F",
"v+	c #357027",
"w+	c #4A9C3D",
"x+	c #51AA45",
"y+	c #4CA03F",
"z+	c #448E35",
"A+	c #3C7D2D",
"B+	c #356F28",
"C+	c #2E6222",
"D+	c #2A591E",
"E+	c #35712A",
"F+	c #47983C",
"G+	c #1E4115",
"H+	c #1B3B13",
"I+	c #2B5B1F",
"J+	c #356F27",
"K+	c #408531",
"L+	c #479539",
"M+	c #4B9E3E",
"N+	c #4CA240",
"O+	c #499E3D",
"P+	c #469639",
"Q+	c #428A33",
"R+	c #3D7F2E",
"S+	c #38752B",
"T+	c #326826",
"U+	c #326C27",
"V+	c #418D35",
"W+	c #17330F",
"X+	c #193611",
"Y+	c #1C3C14",
"Z+	c #234C19",
"`+	c #3D812F",
" @	c #448F37",
".@	c #48983B",
"+@	c #47953B",
"@@	c #459239",
"#@	c #418C35",
"$@	c #3E8631",
"%@	c #3C7F2E",
"&@	c #3A792C",
"*@	c #37732A",
"=@	c #397D2E",
"-@	c #459339",
";@	c #17340F",
">@	c #326A26",
",@	c #3A792D",
"'@	c #418833",
")@	c #3D8031",
"!@	c #3B7D2F",
"~@	c #37762B",
"{@	c #357028",
"]@	c #346E27",
"^@	c #336B26",
"/@	c #326926",
"(@	c #2F6223",
"_@	c #316A26",
":@	c #326B26",
"<@	c #224918",
"[@	c #27541C",
"}@	c #346D28",
"|@	c #326927",
"1@	c #306625",
"2@	c #2D5F22",
"3@	c #2A591F",
"4@	c #27521C",
"5@	c #316726",
"6@	c #173410",
"7@	c #1A3912",
"8@	c #1B3B12",
"9@	c #1D4014",
"0@	c #204617",
"a@	c #28551D",
"b@	c #29571E",
"c@	c #27541E",
"d@	c #26501C",
"e@	c #244C1A",
"f@	c #244D1A",
"g@	c #234B1A",
"h@	c #224919",
"i@	c #26511C",
"j@	c #234C1A",
"k@	c #16320F",
"l@	c #152F0E",
"m@	c #152E0D",
"n@	c #162F0E",
"o@	c #16300E",
"p@	c #204417",
"q@	c #11260B",
"r@	c #10220A",
"s@	c #142A0D",
"t@	c #1D3E15",
"u@	c #204618",
"v@	c #142C0D",
"w@	c #0E1F09",
"x@	c #0D1A08",
"y@	c #11200A",
"z@	c #14280C",
"A@	c #193711",
"B@	c #28541C",
"C@	c #29561D",
"D@	c #0C1A08",
"E@	c #2C5C20",
"F@	c #0B1707",
"G@	c #2F6423",
"H@	c #316825",
"I@	c #336C27",
"J@	c #0F2009",
"K@	c #102009",
"L@	c #12220A",
"M@	c #142D0D",
"N@	c #142B0D",
"O@	c #13260C",
"P@	c #1C3D12",
"Q@	c #183210",
"R@	c #172F0F",
"S@	c #17310F",
"T@	c #37722B",
"U@	c #16310F",
"V@	c #162E0E",
"W@	c #18310F",
"X@	c #1A3911",
"Y@	c #244C18",
"Z@	c #224917",
"`@	c #1E4116",
" #	c #1B3A13",
".#	c #183510",
"+#	c #2D6022",
"@#	c #3C7D30",
"##	c #3D7F31",
"$#	c #27541D",
"%#	c #336C28",
"&#	c #2A581E",
"*#	c #316826",
"=#	c #3B7B2D",
"-#	c #408532",
";#	c #449038",
">#	c #46953B",
",#	c #26521B",
"'#	c #377429",
")#	c #2E6223",
"!#	c #28561E",
"~#	c #2D5F20",
"{#	c #3A7A2E",
"]#	c #438D36",
"^#	c #4EA743",
"/#	c #52B047",
"(#	c #53B349",
"_#	c #306523",
":#	c #326A25",
"<#	c #367229",
"[#	c #3B7B2C",
"}#	c #39772C",
"|#	c #326A27",
"1#	c #48993C",
"2#	c #4DA140",
"3#	c #52AE46",
"4#	c #58BD4E",
"5#	c #5FCE57",
"6#	c #438E37",
"7#	c #3A7A2B",
"8#	c #39782C",
"9#	c #3F8431",
"0#	c #438E36",
"a#	c #499B3E",
"b#	c #4DA543",
"c#	c #52B149",
"d#	c #56BB4E",
"e#	c #59C252",
"f#	c #5BC553",
"g#	c #5AC553",
"h#	c #3E802E",
"i#	c #3E812F",
"j#	c #38772C",
"k#	c #37752C",
"l#	c #37772D",
"m#	c #387B30",
"n#	c #3A8033",
"o#	c #3C8435",
"p#	c #3C8535",
"q#	c #3B8334",
"r#	c #1F4317",
"                                                                                                                                ",
"                                                                                                                                ",
"        . + @ # $ % & * * * * = - ; > , ' ) ) ! ~ {                     { ~ ! ) ) ' , > ; - = * * * * & % $ # @ + .             ",
"        ] ^ / ( _ % & * * : * < - [ } | 1 2 2 3 4 5                     5 4 3 2 2 1 | } [ - < * : * * & % _ ( / ^ ]             ",
"    . ] 6 7 8 9 0 % & * * * * a - b c d e , f g h i j { { { { { { { { j i h g f , e d c b - a * * * * & % 0 9 8 7 6 ] .         ",
"    k l m n o p q r s : : t u v w x y z A B C D E F G { { { { { { { { G F E D C B A z y x w v u t : : s r q p o n m l k         ",
"H I J K x L M N O % & * * u P Q R S T U V W X Y Y Z ` { { { { { { { { ` Z Y Y X W V U T S R Q P u * * & % O N M L x K J I H     ",
" ...+.7 @.#.$.%.$ &.*.=.*.-.9 ;.>.,.,.'.).!.~.{.].^.` /.(.{ { { { (./.` ^.].{.~.!.).'.,.,.>.;.9 -.*.=.*.&.$ %.$.#.@.7 _... .    ",
":.<.[.}.|.1.#.2.3.4.5.6.7.8.9.>.;.0.a.-.b.c.d.e.f.g.^.h./.{ { { { /.h.^.g.f.e.d.c.b.-.a.0.;.>.9.8.7.6.5.4.3.2.#.1.|.}.[.<.:.    ",
". i.j.k.,.x >.>.>.@.l.>.[.m.n.o.9 a.*.p.q.$ r.s.t.u.v.w.x.y.z.z.{ A.w.v.u.t.s.r.$ q.p.*.a.9 o.n.m.[.>.l.@.>.>.>.x ,.k.j.i..     ",
". B.C.D.E.F.G.H.H.I.J.K.L.M.N.O._ P.Q.R.S.T.U.r.V.W.X.Y.Z.`. + +`.Z.Y.X.W.V.r.U.T.S.R.Q.P._ O.N.M.L.K.J.I.H.H.G.F.E.D.C.B..     ",
":..+++@+#+$+%+&+_.*+=+-+;+>+,+'+)+$ %.!+!+~+!+$.#.m {+]+^+! /+(+4 _+:+{+m #.$.!+~+!+!+%.$ )+'+,+>+;+-+=+*+_.&+%+$+#+@+<+.+:.    ",
" .[+}+|+1+2+3+4+5+=+6+7+8+9+%+0+a+3.2.b+b+( ( c+R }.m d+e+f+g+h+i+j+^ m }.R c+( ( b+b+2.3.a+0+%+9+8+7+6+=+5+4+3+2+1+|+}+[+ .    ",
"H k+l+f 2 m+n+o+p+q+r+s+t+u+v+5+w+7 x+>.>.>.>.>.>.>.x y+z+A+B+C+D+E+F+x >.>.>.>.>.>.>.x+7 w+5+v+u+t+s+r+q+p+o+n+m+2 f l+k+H     ",
"                    G+H+s+1 I+J+K+L+M+H.H.H.H.H.H.N+O+P+Q+R+S+T+I+U+V+O+N+H.H.H.H.H.H.M+L+K+J+I+1 s+H+G+                        ",
"                    W+X+Y+s+Z+u+v+`+ @d+.@.@d+d++@@@#@$@%@&@*@T+I+1+=@#@-@+@d++@+@d++@ @`+v+u+Z+s+Y+X+W+                        ",
"                    ^.;@X+H+s+i+u+>@,@i.'@'@i.)@)@!@~@{@]@^@/@(@D+u+_@~@!@)@)@)@)@)@)@,@:@u+i+s+H+X+;@^.                        ",
"                    W+W+W+X+Y+s+<@[@d z -+-+}@|@|@1@2@k+k+k+k+3@A 4@3@2@1@|@|@|@|@|@5@d [@<@s+Y+X+W+W+W+                        ",
"                        W+6@X+7@8@9@0@1 a@b@c@| | d@v.e@e@e@f@g@h@h@g@v.i@| | | | e j@0@9@8@7@X+6@W+                            ",
"                        W+k@l@m@n@o@^.Y E p@f , f f f f f f f f f f f f f f , f p@E Y ^.o@n@m@l@k@W+                            ",
"                        W+l@q@r@z.s@n@X+t@g Z+2 2 2 2 2 2 2 2 2 2 2 2 2 2 2 2 Z+u@E X+n@s@z.r@q@l@W+                            ",
"                        W+v@w@x@y@z@n@A@E f 2 B@C@m+m+m+m+m+m+m+m+m+m+m+m+C@B@2 f E A@n@z@y@x@w@v@W+                            ",
"                            D@x@y@`.n@A@E f 2 m+E@n+n+n+n+n+n+n+n+n+n+n+n+E@m+2 f E A@n@`.y@x@D@                                ",
"                            F@x@y@z@n@A@E h@A k+G@ .H@ . . . . . . . .H@ .G@k+A h@E A@n@z@y@x@F@                                ",
"                            F@x@y@z@n@A@E g@3@G@I@:.:.:.:.:.:.:.:.:.:.:.:.I@G@3@g@E A@n@z@y@x@F@                                ",
"                            J@K@L@`.n@A@E f@k+ .:.. . . . . . . . . . . . :. .k+f@E A@n@`.L@K@J@                                ",
"                            M@N@O@z@n@A@E l+E@H@:.. . . . . . . . . . . . :.H@E@l+E A@n@z@O@N@M@                                ",
"                            P@7@Q@R@S@A@E e@k+ .:.. . T@T@T@T@T@T@T@T@. . :. .k+e@E A@U@V@W@X@P@                                ",
"                            Y@Z@`@ #.#A@E f@k+ .:.. . . . . . . . . . . . :. .k+f@E A@.# #`@Z@Y@                                ",
"                            }+7+1 s+H+H+s+d@+#z *@,@@#####+ + + + ####@#,@*@z +#d@g s+W $#8+E@}+                                ",
"                            %#1@&#t+s+s+t+3@*#*@=#-#;#>#+@>#>#>#>#+@>#;#-#=#*@*#3@,#b@C+{@'#B+%#                                ",
"                            . }@)#8+!#b@~#^@{#L.]#J.^#/#(#8.8.8.8.(#/#^#J.]#L.{#^@_#:#<#[#A+}#.                                 ",
"                                }@z |#}@U `+ @1#2#3#4#~+5#$ $ $ $ 5#~+4#3#2#1#6#`+7#[#[#&@8#                                    ",
"                                . . . }#A+9#0#>#a#b#c#d#e#f#g#g#f#e#d#c#b#a#>#0#9#h#i#R+}#.                                     ",
"                                        8#8#j#I k#l#m#n#o#p#q#q#p#o#n#m#l#k#I j#8#,@                                            ",
"                                        . :.H@n+m+2 f r#r#E Y Y E r#r#f 2 m+n+H@:..                                             "};
