/* XPM */
static char * Arms_xpm[] = {
"80 84 27 1",
" 	c None",
".	c #B7B7B7",
"+	c #979797",
"@	c #7F7F7F",
"#	c #777777",
"$	c #6F6F6F",
"%	c #6B6B6B",
"&	c #636363",
"*	c #5B5B5B",
"=	c #9F9F9F",
"-	c #575757",
";	c #474747",
">	c #373737",
",	c #434343",
"'	c #4F4F4F",
")	c #2F2F2F",
"!	c #8B8B8B",
"~	c #838383",
"{	c #3B3B3B",
"]	c #272727",
"^	c #430000",
"/	c #939393",
"(	c #232323",
"_	c #1B1B1B",
":	c #131313",
"<	c #4B4B4B",
"[	c #ABABAB",
"                                                                                ",
"                                                                                ",
"..++@@#####$$%%%%%%%%&&%%$$$$@@@$$%%%%%%@@&&%%$$$$$####%%&&%%**&&%%$$$$$&&##==  ",
"++--%%-----;;;;>>,,''''&&----&&&&&--&&>>--&&;;;;'''****'';;;;;;'';;));;;,,**##  ",
"++--%%-----;;;;>>,,''''&&----&&&&&--&&>>--&&;;;;'''****'';;;;;;'';;));;;,,**##  ",
"!!~~%%$$%%%$$##$$~~@@##{{--~~%%%$$%%$$##$$~~@@##{{{**~~%%$$%%$$##$$~~@@@##{{##  ",
"!!~~%%$$%%%$$##$$~~@@##{{--~~%%%$$%%$$##$$~~@@##{{{**~~%%$$%%$$##$$~~@@@##{{##  ",
"!!~~%%$$%%%$$##$$~~@@##{{--~~%%%$$%%$$##$$~~@@##{{{**~~%%$$%%$$##$$~~@@@##{{##  ",
"++%%;;;;>>>''&&''&&--'']]''%%;;;;;>>''&&''&&--'']]]--%%;;;;>>''&&''&&---'']]##  ",
"++%%;;;;>>>''&&''&&--'']]''%%;;;;;>>''&&''&&--'']]]--%%;;;;>>''&&''&&---'']]##  ",
"!!%%;;;;~~~~~~~~~--%%--]]--%%;;;;~~~~~~~~~--%%--]]]**%%;;;~~-**&~~~--%%%--]]$$  ",
"!!%%;;;;~~~~~~~~~--%%--]]--%%;;;;~~~~~~~~~--%%--]]]**%%;;;~~-**&~~~--%%%--]]$$  ",
"!!%%;;;;---^^^~~~^^%%--]]--%%;;;;;--^^^~~~^^%%--]]]**%%;;;~~^^^^~~~^^%%%--]]$$  ",
"//%%;;;;---^^^~~~^^%%--]];;%%;;;;;--^^^~~~^^%%--]]]--%%;;;~~^^^^~~~^^%%%--]]$$  ",
"//%%;;;;---^^^~~~^^%%--]];;%%;;;;;--^^^~~~^^%%--]]]--%%;;;~~^^^^~~~^^%%%--]]$$  ",
"//%%;;;;---~~~&--^^%%--]];;%%;;;;;--~~~~~~^^%%--]]]--%%;;;~~~~~~~~~^^%%%--]]$$  ",
"!!&&'';;;;;~~~%--^^&&--]]''&&''';;&&~~~~~~^^&&--]]]&&&&'';~~~~~~~~~^^&&&--]]$$  ",
"!!&&'';;;;;~~~%--^^&&--]]''&&''';;&&~~~~~~^^&&--]]]&&&&'';~~~~~~~~~^^&&&--]]$$  ",
"!!&&'';;~~~''%^^^&&&&--]]''&&''';;&&''%~~~^^&&--]]]&&&&'';;;^^^^~~~^^&&&--]]$$  ",
"!!$$'';;~~~''%^^^%%%%--]]--$$''';;;;''%~~~^^%%--]]]**$$'';;;^^^^~~~^^%%%--]]$$  ",
"!!$$'';;~~~''%^^^%%%%--]]--$$''';;;;''%~~~^^%%--]]]**$$'';;;^^^^~~~^^%%%--]]$$  ",
"//%%>>{{~~~~~~~~~&&----((''%%;;;{~~~~~~~~~^^----(((**%%;;;;;;''&~~~^^-----(($$  ",
"//%%>>{{~~~~~~~~~&&----((''%%;;;{~~~~~~~~~^^----(((**%%;;;;;;''&~~~^^-----(($$  ",
"//%%>>{{;;;^^^^^^^^----((''%%;;;{{;;^^^^^^^^----(((**%%;;;;;;''&&--^^-----(($$  ",
"//%%,,;;;;;^^^^^^^^&&''((''%%,,,;;;;^^^^^^^^&&''(((--%%,,;;;;,,&&--^^&&&''((##  ",
"//%%,,;;;;;,,&&,,%%&&''((''%%,,,;;;;,,&&,,%%&&''(((--%%,,;;;;,,&&--%%&&&''((##  ",
"!!**))_______((((]]((____--**)))______((((]]((_____--**))______((((]](((____$$  ",
"!!**))_______((((]]((____--**)))______((((]]((_____--**))______((((]](((____$$  ",
"!!**))_______((((]]((____--**)))______((((]]((_____--**))______((((]](((____$$  ",
"!!&&&&-----'',,'',,'''',,,,''''';;**&&;;;;;;&&**;;;''**;;))));;****;;***,,,,$$  ",
"!!&&&&-----'',,'',,'''',,,,''''';;**&&;;;;;;&&**;;;''**;;))));;****;;***,,,,$$  ",
"!!~~%%%%%%%$$@@$$~~$$##]]--**&&&&&&&$$$$####@@%%:::**~~%%$$%%$$##$$~~@@@##{{$$  ",
"!!~~%%%%%%%$$@@$$~~$$##]]--**&&&&&&&$$$$####@@%%:::**~~%%$$%%$$##$$~~@@@##{{$$  ",
"!!~~%%%%%%%$$@@$$~~$$##]]--**&&&&&&&$$$$####@@%%:::**~~%%$$%%$$##$$~~@@@##{{$$  ",
"!!%%,,,,;;;''''--%%&&--__''&&>>>{{{{''''--**%%<<:::--%%;;;;>>''&&''&&---'']]$$  ",
"!!%%,,,,;;;''''--%%&&--__''&&>>>{{{{''''--**%%<<:::--%%;;;;>>''&&''&&---'']]$$  ",
"!!%%{{{{~~~~~~~~~%%----__--**,,,)~~~~~~~~~----,,:::**%%;;;~~~~~~~~~--%%%--]]$$  ",
"!!%%{{{{~~~~~~~~~%%----__--**,,,)~~~~~~~~~----,,:::**%%;;;~~~~~~~~~--%%%--]]$$  ",
"!!%%{{{{~~~^^^^^^^^----__--**,,,)~~~^^^^^^^^--,,:::**%%;;;;--^^^~~~^^%%%--]]$$  ",
"!!%%>>{{~~~^^^^^^^^''--__;;**>>>)~~~^^^^^^^^'',,___--%%;;;;--^^^~~~^^%%%--]]$$  ",
"!!%%>>{{~~~^^^^^^^^''--__;;**>>>)~~~^^^^^^^^'',,___--%%;;;;--^^^~~~^^%%%--]]$$  ",
"!!&&>>,,~~~~~~~~~--%%--((''**)))]~~~~~~~~~--''''___&&&&'';;--~~~%--^^&&&--]]$$  ",
"!!&&>>,,~~~~~~~~~--%%--((''**)))]~~~~~~~~~--''''___&&&&'';;--~~~%--^^&&&--]]$$  ",
"!!&&>>,,~~~~~~~~~--%%--((''**)))]~~~~~~~~~--''''___&&&&'';;--~~~%--^^&&&--]]$$  ",
"!!&&>>,,{{{^^^^~~^^%%--((''**)))]~~~^^^~~~^^''''___&&&&'';~~~--%^^^&&&&&--]]$$  ",
"!!$${{,,)))^^^^~~^^--''__--**))))~~~^^^~~~^^--,,___**$$'';~~~--%^^^%%%%%--]]$$  ",
"!!$${{,,)))^^^^~~^^--''__--**))))~~~^^^~~~^^--,,___**$$'';~~~--%^^^%%%%%--]]$$  ",
"!!$${{,,~~~~~~~~~^^--''__--**))))~~~~~~~~~^^--,,___**$$'';~~~^^^%--%%%%%--]]$$  ",
"!!%%{{,,~~~~~~~~~^^'',,__''&&))))~~~~~~~~~^^--''___**%%>>{~~~^^^&--&&-----((%%  ",
"!!%%{{,,)))^^^^^^^^'',,__''&&))))){{^^^^^^^^--''___**%%>>{{--^^^&--&&-----((%%  ",
"!!%%,,,,)))^^^^^^^^--,,__''&&))),,))^^^^^^^^--''___--%%,,;;--^^^&,,%%&&&''((%%  ",
"!!%%,,,,))),,''%%----,,__''&&))),,))**&&--&&--''___--%%,,;;--,,&&,,%%&&&''((%%  ",
"!!%%,,,,))),,''%%----,,__''&&))),,))**&&--&&--''___--%%,,;;--,,&&,,%%&&&''((%%  ",
"!!**(())((())))))))]]]]))--**)))______((((]]((_____--**))______((((]](((____$$  ",
"!!**(())((())))))))]]]]))--**)))______((((]]((_____--**))______((((]](((____$$  ",
"!!&&&&-------;;;;,,{{'';;''''&&&&&''**,,'''',,'''''''----,,;;**''{{;;,,,;;;;%%  ",
"!!&&&&-------;;;;,,{{'';;''''&&&&&''**,,'''',,'''''''----,,;;**''{{;;,,,;;;;%%  ",
"!!&&&&-------;;;;,,{{'';;''''&&&&&''**,,'''',,'''''''----,,;;**''{{;;,,,;;;;%%  ",
"!!&&%%-----;;,,'';;>>'';;'';;'''''--;;--;;''**'''''''''--,,,,--;;{{;;;;;;;''$$  ",
"!!&&%%-----;;,,'';;>>'';;'';;'''''--;;--;;''**'''''''''--,,,,--;;{{;;;;;;;''$$  ",
"!!&&%%--'''''~~~~!!''''~~~~!!~~~~~'',,&&~~--&&--~~~,,''**~~!!~~~~~~--;;;;;;;$$  ",
"!!&&%%--'''''~~~~!!''''~~~~!!~~~~~'',,&&~~--&&--~~~,,''**~~!!~~~~~~--;;;;;;;$$  ",
"!!&&%%--'''''~~~~!!''''~~~~!!~~~~~'',,&&~~--&&--~~~,,''**~~!!~~~~~~--;;;;;;;$$  ",
"//%%%%--'''////((////''''(((((((////''//////--///////;;////__((______''''';;$$  ",
"//%%%%--'''////((////''''(((((((////''//////--///////;;////__((______''''';;$$  ",
"//--%%&&=============))===========((((===============__$$========--;;{{{;;;;$$  ",
"//--%%&&=============))===========((((===============__$$========--;;{{{;;;;$$  ",
"//--%%&&=============))===========((((===============__$$========--;;{{{;;;;$$  ",
"!!--%%--[[[[[(())[[[[(([[[[((((([[[[;;[[[[(([[(([[[[[::##%%))__[[[[--,,,;;;;%%  ",
"!!--%%--[[[[[(())[[[[(([[[[((((([[[[;;[[[[(([[(([[[[[::##%%))__[[[[--,,,;;;;%%  ",
"!!--%%--[[[[[(())[[[[(([[[[((((([[[[;;[[[[(([[(([[[[[::##%%))__[[[[--,,,;;;;%%  ",
"!!--%%--.....__''....__....(('''....((....((&&((.....::..........____,,,;;;;&&  ",
"!!--%%--.....__''....__....(('''....((....((&&((.....::..........____,,,;;;;&&  ",
"!!--%%--.....__''....__....(('''....((....((&&((.....::..........____,,,;;;;&&  ",
"!!--%%--'''((__''''____**((((;;;**((((&&((((--'''''((__&&((________'';;;;;;;%%  ",
"!!--%%--'''((__''''____**((((;;;**((((&&((((--'''''((__&&((________'';;;;;;;%%  ",
"!!--%%--''';;;;;;;;,,'''''';;'''&&;;'';;'',,>>'';;;&&&&;;>>;;,,;;,,,,{{{,,;;%%  ",
"!!--%%--''';;;;;;;;,,'''''';;'''&&;;'';;'',,>>'';;;&&&&;;>>;;,,;;,,,,{{{,,;;%%  ",
"!!--%%--''';;;;;;;;,,'''''';;'''&&;;'';;'',,>>'';;;&&&&;;>>;;,,;;,,,,{{{,,;;%%  ",
"!!%%%%--''''';;;;,,;;'';;''''&&&&&''**,,'''',,'',,,&&--'',,;;>>>>{{,,;;;,,;;&&  ",
"!!%%%%--''''';;;;,,;;'';;''''&&&&&''**,,'''',,'',,,&&--'',,;;>>>>{{,,;;;,,;;&&  ",
"                                                                                ",
"                                                                                ",
"                                                                                "};
