/* XPM */
static char * BigRedNumbers_xpm[] = {
"384 44 18 1",
" 	c None",
".	c #430000",
"+	c #7F0000",
"@	c #9B0000",
"#	c #B30000",
"$	c #8B0000",
"%	c #A70000",
"&	c #CB0000",
"*	c #D70000",
"=	c #2F2F2F",
"-	c #670000",
";	c #E30000",
">	c #BF0000",
",	c #730000",
"'	c #EF0000",
")	c #5B0000",
"!	c #4F0000",
"~	c #530707",
"         ...........                        ................       ..................           ....................            .............  ...............  ..........................                ...................   .....................                  ................                   ...........             ........               ....                                   ",
"         ...........                        ................       ..................           ....................            .............  ...............  ..........................                ...................   .....................                  ................                   ...........             ........               ....                                   ",
"         ...........                        ................       ..................           ....................            .............  ...............  ..........................                ...................   .....................                  ................                   ...........             ........               ....                                   ",
"     ....+++@@@#$$$@.....                ...%###&&&&&**%%...==     ..$$$%**&&&&&##%%%--..       .$$***;;;;;;;&&>>>,,.....       ...$;;'''##..  ...%%%****@@...==...,,>>%%%#&&&******%%$$..===       ......,>>>&*******>>>$$..===...+@@@>>>>>>>%%@@@,,....          ..)),,,@@;;;;##@@@,,)..           .....%%&&&&>>,,,.....      ..%%***@@@.           ...&&..                                   ",
"     ....+++@@@#$$$@.....                ...%###&&&&&**%%...==     ..$$$%**&&&&&##%%%--..       .$$***;;;;;;;&&>>>,,.....       ...$;;'''##..  ...%%%****@@...==...,,>>%%%#&&&******%%$$..===       ......,>>>&*******>>>$$..===...+@@@>>>>>>>%%@@@,,....          ..)),,,@@;;;;##@@@,,)..           .....%%&&&&>>,,,.....      ..%%***@@@.           ...&&..                                   ",
"   ..))@@,,,$$$@))),%%%))..            ..$$$%@@@>>>>>##$$...==     ..+++$%%###@@@@+++$$++.      .++%%%####>>>#####%%@@---..     ...+#####$$..  ...+++%@@@$$...==...,,>>+++@@@@+$$%%%$$++..===     ..---@@@%####%%%%%$$+++++..===...$@@@@@@$$%%%%%%%%%$,,,..     ...--$$$$$@@###>@@@@@$$$--...      ..$$$%%@@%%%###%%%@@---.     ..++@@@$$$.===      ..$$$%%..===                                ",
"   ..))@@,,,$$$@))),%%%))..            ..$$$%@@@>>>>>##$$...==     ..+++$%%###@@@@+++$$++.      .++%%%####>>>#####%%@@---..     ...+#####$$..  ...+++%@@@$$...==...,,>>+++@@@@+$$%%%$$++..===     ..---@@@%####%%%%%$$+++++..===...$@@@@@@$$%%%%%%%%%$,,,..     ...--$$$$$@@###>@@@@@$$$--...      ..$$$%%@@%%%###%%%@@---.     ..++@@@$$$.===      ..$$$%%..===                                ",
"   ..))@@,,,$$$@))),%%%))..            ..$$$%@@@>>>>>##$$...==     ..+++$%%###@@@@+++$$++.      .++%%%####>>>#####%%@@---..     ...+#####$$..  ...+++%@@@$$...==...,,>>+++@@@@+$$%%%$$++..===     ..---@@@%####%%%%%$$+++++..===...$@@@@@@$$%%%%%%%%%$,,,..     ...--$$$$$@@###>@@@@@$$$--...      ..$$$%%@@%%%###%%%@@---.     ..++@@@$$$.===      ..$$$%%..===                                ",
"   ..%%%%+++$$$$---->>>@@..===      ...$$$$$%%%%&&&&&>>$$...==     ..,,,$,,+++++,,@@@@@>>+...   .,,,,,,,,,,,,,,,,,>>>>@@@..==   ...+%%%%%++..  ...+++@@@@$$...==...++>>@@@,+++,,,,,,$$,,..===     ..@@@>>>>,,,,,,,,,,,,,,,,..===...,,,,,,,,,,,,,,,,##$@@@..===  ...,,@@$$$@@$$$@++@@@$$@,,...===...--$$$%%@@+++,,,###>>@@@.==   ..++@@@$$$.===    ..%%@@@@@..===                                ",
"   ..%%%%+++$$$$---->>>@@..===      ...$$$$$%%%%&&&&&>>$$...==     ..,,,$,,+++++,,@@@@@>>+...   .,,,,,,,,,,,,,,,,,>>>>@@@..==   ...+%%%%%++..  ...+++@@@@$$...==...++>>@@@,+++,,,,,,$$,,..===     ..@@@>>>>,,,,,,,,,,,,,,,,..===...,,,,,,,,,,,,,,,,##$@@@..===  ...,,@@$$$@@$$$@++@@@$$@,,...===...--$$$%%@@+++,,,###>>@@@.==   ..++@@@$$$.===    ..%%@@@@@..===                                ",
"   ..%%%%+++$$$$---->>>@@..===      ...$$$$$%%%%&&&&&>>$$...==     ..,,,$,,+++++,,@@@@@>>+...   .,,,,,,,,,,,,,,,,,>>>>@@@..==   ...+%%%%%++..  ...+++@@@@$$...==...++>>@@@,+++,,,,,,$$,,..===     ..@@@>>>>,,,,,,,,,,,,,,,,..===...,,,,,,,,,,,,,,,,##$@@@..===  ...,,@@$$$@@$$$@++@@@$$@,,...===...--$$$%%@@+++,,,###>>@@@.==   ..++@@@$$$.===    ..%%@@@@@..===                                ",
"...++%%%%+++---.!!!)>>>@@++...      .........###&&&&&>>$$...==     ...............+++%%>>@...===..................>>&&@@@,,..   ...$%%%%%++..  ...+++$$$$++...==...@@>>+++................===   ..,,@@@&&&>..................===...................@@$###,,...  ...,,@@$$$&&......>>>$$@,,...===...@@$$$@@$$......###&&@@@,..     ........====  ..>>%%%%%++..===                                ",
"...++%%%%+++---.!!!)>>>@@++...      .........###&&&&&>>$$...==     ...............+++%%>>@...===..................>>&&@@@,,..   ...$%%%%%++..  ...+++$$$$++...==...@@>>+++................===   ..,,@@@&&&>..................===...................@@$###,,...  ...,,@@$$$&&......>>>$$@,,...===...@@$$$@@$$......###&&@@@,..     ........====  ..>>%%%%%++..===                                ",
"...++%%%%+++---.!!!)>>>@@++...      .........###&&&&&>>$$...==     ...............+++%%>>@...===..................>>&&@@@,,..   ...$%%%%%++..  ...+++$$$$++...==...@@>>+++................===   ..,,@@@&&&>..................===...................@@$###,,...  ...,,@@$$$&&......>>>$$@,,...===...@@$$$@@$$......###&&@@@,..     ........====  ..>>%%%%%++..===                                ",
"...,,%%$$+++...=...->>>@@$$...==       =====.%%%&&&&&&&$$...==       ===..........+++##&&@...=== =====............>>&&%%%$$..===...$@@@@@++.......,,,+$$$++...==...@@&&+++............=======   ..$$%%%&&&>...........==========   =============...@@$###@@...==...--%%$$$&&......&&&$$%--...===...@@$$$@@$$......###&&%%%$..===    =======   ..&&>>##+++..==   ...........................     ",
"...,,%%$$+++...=...->>>@@$$...==       =====.%%%&&&&&&&$$...==       ===..........+++##&&@...=== =====............>>&&%%%$$..===...$@@@@@++.......,,,+$$$++...==...@@&&+++............=======   ..$$%%%&&&>...........==========   =============...@@$###@@...==...--%%$$$&&......&&&$$%--...===...@@$$$@@$$......###&&%%%$..===    =======   ..&&>>##+++..==   ...........................     ",
"...))%%$$+++... ...,###@@++...==            .%%%>>>&&&&$$...==       ...+&&;;;**&&>>>>>##+...===      ...&;;;;;&&&>>**>>>$$..===...$#####$$##%%%%%,,,,,,,++...==...++##>>>&***;**>>>++..        ..$$>>>***>&&&;>>>>>%%.....                     ...@@$###$$...==   ..--$$$@@;;;*>>@@@$$-..======...--$$$$$$$###;&&>>>**>>>$..===           ...##>>>>++...==     .....&&'''''''''''''####...=====",
"...))%%$$+++... ...,###@@++...==            .%%%>>>&&&&$$...==       ...+&&;;;**&&>>>>>##+...===      ...&;;;;;&&&>>**>>>$$..===...$#####$$##%%%%%,,,,,,,++...==...++##>>>&***;**>>>++..        ..$$>>>***>&&&;>>>>>%%.....                     ...@@$###$$...==   ..--$$$@@;;;*>>@@@$$-..======...--$$$$$$$###;&&>>>**>>>$..===           ...##>>>>++...==     .....&&'''''''''''''####...=====",
"...))%%$$+++... ...,###@@++...==            .%%%>>>&&&&$$...==       ...+&&;;;**&&>>>>>##+...===      ...&;;;;;&&&>>**>>>$$..===...$#####$$##%%%%%,,,,,,,++...==...++##>>>&***;**>>>++..        ..$$>>>***>&&&;>>>>>%%.....                     ...@@$###$$...==   ..--$$$@@;;;*>>@@@$$-..======...--$$$$$$$###;&&>>>**>>>$..===           ...##>>>>++...==     .....&&'''''''''''''####...=====",
"...))@@$$$$$... ...,>>>$$++...==            .@@@>>>>>>>$$...==     ..+++@##+++%%##>>>>>++.======      ...>>>>#####>>**>>>$$..===...$>>>>>%%@@$$++++++,,,,--...==...,,>>>>>#%%%$%%###@@++..      ..$$>>>***>####@@@%%@@%%%$$..                   ...%%$###$$...==     ..$$$%%%%%%%%%%%$$.=====      ..,,,--$$######>>>**>>>$..===          .;;;%%>>++..===       .....##%%%%%>>>>>%%%@@@@...=====",
"...))@@$$$$$... ...,>>>$$++...==            .@@@>>>>>>>$$...==     ..+++@##+++%%##>>>>>++.======      ...>>>>#####>>**>>>$$..===...$>>>>>%%@@$$++++++,,,,--...==...,,>>>>>#%%%$%%###@@++..      ..$$>>>***>####@@@%%@@%%%$$..                   ...%%$###$$...==     ..$$$%%%%%%%%%%%$$.=====      ..,,,--$$######>>>**>>>$..===          .;;;%%>>++..===       .....##%%%%%>>>>>%%%@@@@...=====",
"...))@@$$$$$... ...,>>>$$++...==            .@@@>>>>>>>$$...==     ..+++@##+++%%##>>>>>++.======      ...>>>>#####>>**>>>$$..===...$>>>>>%%@@$$++++++,,,,--...==...,,>>>>>#%%%$%%###@@++..      ..$$>>>***>####@@@%%@@%%%$$..                   ...%%$###$$...==     ..$$$%%%%%%%%%%%$$.=====      ..,,,--$$######>>>**>>>$..===          .;;;%%>>++..===       .....##%%%%%>>>>>%%%@@@@...=====",
"...))@@$$$$$... ...+&&&@@$$...==            .@@@>>>>>>>$$...==  ...++@@@%##---++$$$$$,,..====         ...,,,,,,$$$##;;>>>$$..===...$>>###%%++-----,,,,+++--...==...,,,,$$$$+++,$$###%%@@++...   ..$$>>>;;;#$$$,,,,++@@%%%$$..===                ...%%$###@@...==   ..--@@@%%,,,,,,%%%@@-..           .....-----,$$+++;;>>>$..===       ...;***##++..==          .....++++++++++++,,,$$$$...=====",
"...))@@$$$$$... ...+&&&@@$$...==            .@@@>>>>>>>$$...==  ...++@@@%##---++$$$$$,,..====         ...,,,,,,$$$##;;>>>$$..===...$>>###%%++-----,,,,+++--...==...,,,,$$$$+++,$$###%%@@++...   ..$$>>>;;;#$$$,,,,++@@%%%$$..===                ...%%$###@@...==   ..--@@@%%,,,,,,%%%@@-..           .....-----,$$+++;;>>>$..===       ...;***##++..==          .....++++++++++++,,,$$$$...=====",
"...))@@$$$$$... ...+&&&@@$$...==            .@@@>>>>>>>$$...==  ...++@@@%##---++$$$$$,,..====         ...,,,,,,$$$##;;>>>$$..===...$>>###%%++-----,,,,+++--...==...,,,,$$$$+++,$$###%%@@++...   ..$$>>>;;;#$$$,,,,++@@%%%$$..===                ...%%$###@@...==   ..--@@@%%,,,,,,%%%@@-..           .....-----,$$+++;;>>>$..===       ...;***##++..==          .....++++++++++++,,,$$$$...=====",
"...,,%%##$$$... ...+>>>@@$$...==            .@@@>>>>>>>$$...==  ...##@@@@++............===            ............>>;;###$$..===..................---,+++--...==   ====..........+++@@@@##...===..$$###;;;>.........$$@@@$$..===                ...$$$###$$...==...--@@###&&......&&&&&@--...           ==........+++;;###$..===    ...***;***++..==            ...........................=====",
"...,,%%##$$$... ...+>>>@@$$...==            .@@@>>>>>>>$$...==  ...##@@@@++............===            ............>>;;###$$..===..................---,+++--...==   ====..........+++@@@@##...===..$$###;;;>.........$$@@@$$..===                ...$$$###$$...==...--@@###&&......&&&&&@--...           ==........+++;;###$..===    ...***;***++..==            ...........................=====",
"...++%%##$$$@@@.###$>>>@@++...==            .@@@>>>>>>>++...==  ...##%%%%++...............      ..................>>;;>>>--..===    ===========...---,+++,,...==.................+++%%%%##...===..-->>>;;;>.........$$@@@$$..===                ...++$###$$...==...$$@@###&&......&&&###$$...===..................+++;;>>>-..===  ..%%%***;+++..==  .......          ===========================",
"...++%%##$$$@@@.###$>>>@@++...==            .@@@>>>>>>>++...==  ...##%%%%++...............      ..................>>;;>>>--..===    ===========...---,+++,,...==.................+++%%%%##...===..-->>>;;;>.........$$@@@$$..===                ...++$###$$...==...$$@@###&&......&&&###$$...===..................+++;;>>>-..===  ..%%%***;+++..==  .......          ===========================",
"...++%%##$$$@@@.###$>>>@@++...==            .@@@>>>>>>>++...==  ...##%%%%++...............      ..................>>;;>>>--..===    ===========...---,+++,,...==.................+++%%%%##...===..-->>>;;;>.........$$@@@$$..===                ...++$###$$...==...$$@@###&&......&&&###$$...===..................+++;;>>>-..===  ..%%%***;+++..==  .......          ===========================",
"   ..++##+++$$$%%%%+>>>%%..=====            .@@@#######++...==  ...%%%%%#%%''''''''''''##.===   .##'''''''***&&&&&>>**@@@..=====               ...---,+++--...==...##'''''''''&$$%%%##@@++...===  ..@@@***>&&&&%%%@@,,$$$$$..===                ...--$###++...==...$$##@@@@@&&&;&&%%%>>#$$...===...##&&&**;;'''&&&>>>**@@@.=====..>>###&&&+...==  ..%%*****..                                   ",
"   ..++##+++$$$%%%%+>>>%%..=====            .@@@#######++...==  ...%%%%%#%%''''''''''''##.===   .##'''''''***&&&&&>>**@@@..=====               ...---,+++--...==...##'''''''''&$$%%%##@@++...===  ..@@@***>&&&&%%%@@,,$$$$$..===                ...--$###++...==...$$##@@@@@&&&;&&%%%>>#$$...===...##&&&**;;'''&&&>>>**@@@.=====..>>###&&&+...==  ..%%*****..                                   ",
"   ..++##+++$$$%%%%+>>>%%..=====            .@@@#######++...==  ...%%%%%#%%''''''''''''##.===   .##'''''''***&&&&&>>**@@@..=====               ...---,+++--...==...##'''''''''&$$%%%##@@++...===  ..@@@***>&&&&%%%@@,,$$$$$..===                ...--$###++...==...$$##@@@@@&&&;&&%%%>>#$$...===...##&&&**;;'''&&&>>>**@@@.=====..>>###&&&+...==  ..%%*****..                                   ",
"   ..!!--,,,---@%%%++++))..===              .@@@###>>>>++...==  ...%%%%%>%%>>>>>>>***;;@@.===   .@@######>########>>@@---..==                  ...---,$$$,,...==...@@;;***>>>>@@@%%%>>++..======  ..---@@@>####+++,,,,---,,..===                ...--$###++...==...--@@@@@$$>>>#@@@@@##@--...===...@@#############>>>@@---.==   ..##%%%+++.===    ..++%%%@@..===                                ",
"   ..!!--,,,---@%%%++++))..===              .@@@###>>>>++...==  ...%%%%%>%%>>>>>>>***;;@@.===   .@@######>########>>@@---..==                  ...---,$$$,,...==...@@;;***>>>>@@@%%%>>++..======  ..---@@@>####+++,,,,---,,..===                ...--$###++...==...--@@@@@$$>>>#@@@@@##@--...===...@@#############>>>@@---.==   ..##%%%+++.===    ..++%%%@@..===                                ",
"   ..!!--,,,---@%%%++++))..===              .@@@###>>>>++...==  ...%%%%%>%%>>>>>>>***;;@@.===   .@@######>########>>@@---..==                  ...---,$$$,,...==...@@;;***>>>>@@@%%%>>++..======  ..---@@@>####+++,,,,---,,..===                ...--$###++...==...--@@@@@$$>>>#@@@@@##@--...===...@@#############>>>@@---.==   ..##%%%+++.===    ..++%%%@@..===                                ",
"     ....---)))$---).....=====              .$$$@@@$$$$,,...==  ...++++++,,$$$$$@@%%%%%$$.===   .,,,,,,,,,,,,,,,,,,,.....====                  ...~~~),,,--...==...$$%%%%%@$$$$++,,,++..=====       ......,,,,,-------.....=====                ...,,,,,,,,...==   ..,,,,,,,,,,,,,,,,,,,..======...,,,,,,,,,,,,,,,,,,.....===   ..$$+++...=       ..++@@@@@..===                                ",
"     ....---)))$---).....=====              .$$$@@@$$$$,,...==  ...++++++,,$$$$$@@%%%%%$$.===   .,,,,,,,,,,,,,,,,,,,.....====                  ...~~~),,,--...==...$$%%%%%@$$$$++,,,++..=====       ......,,,,,-------.....=====                ...,,,,,,,,...==   ..,,,,,,,,,,,,,,,,,,,..======...,,,,,,,,,,,,,,,,,,.....===   ..$$+++...=       ..++@@@@@..===                                ",
"       ==...........=======                 ................==  ..........................===   ....................=======                    ...............==....................======             ===............=======                   ..............==     ...................=====   .....................======     .......===          .......=====                                ",
"       ==...........=======                 ................==  ..........................===   ....................=======                    ...............==....................======             ===............=======                   ..............==     ...................=====   .....................======     .......===          .......=====                                ",
"       ==...........=======                 ................==  ..........................===   ....................=======                    ...............==....................======             ===............=======                   ..............==     ...................=====   .....................======     .......===          .......=====                                ",
"            ===========                      =================     ==========================    =====================                            ==============   ===================                     ==============                          =============       ===================         ====================           =====               =======                                   ",
"            ===========                      =================     ==========================    =====================                            ==============   ===================                     ==============                          =============       ===================         ====================           =====               =======                                   ",
"            ===========                      =================     ==========================    =====================                            ==============   ===================                     ==============                          =============       ===================         ====================           =====               =======                                   "};
