/* XPM */
static char * bluekey_xpm[] = {
"64 73 16 1",
" 	c None",
".	c #0000E3",
"+	c #0000FF",
"@	c #0000CB",
"#	c #000047",
"$	c #00006B",
"%	c #00003B",
"&	c #000053",
"*	c #00000B",
"=	c #00009B",
"-	c #000017",
";	c #000023",
">	c #000083",
",	c #0000B3",
"'	c #9B5B13",
")	c #00002F",
"              ....++++++++++++++++++++++++++++@@@@              ",
"              ....++++++++++++++++++++++++++++@@@@              ",
"              ....++++++++++++++++++++++++++++@@@@              ",
"              ....++++++++++++++++++++++++++++@@@@              ",
"              ....++++++++++++++++++++++++++++@@@@              ",
"         .....####$$$$$@@@@%%%%%&&&&&....*****====              ",
"         .....####$$$$$@@@@%%%%%&&&&&....*****====              ",
"         .....####$$$$$@@@@%%%%%&&&&&....*****====              ",
"         .....####$$$$$@@@@%%%%%&&&&&....*****====              ",
"     ....-----####;;;;;@@@@;;;;;&&&&&....*****====              ",
"     ....-----####;;;;;@@@@;;;;;&&&&&....*****====              ",
"     ....-----####;;;;;@@@@;;;;;&&&&&....*****====              ",
"     ....-----####;;;;;@@@@;;;;;&&&&&....*****====              ",
"     ....-----####;;;;;@@@@;;;;;&&&&&....*****====              ",
"@@@@@####*****$$$$*****@@@@@@@@@=====....;;;;;====              ",
"@@@@@####*****$$$$*****@@@@@@@@@=====....;;;;;====              ",
"@@@@@####*****$$$$*****@@@@@@@@@=====....;;;;;====              ",
"@@@@@####*****$$$$*****@@@@@@@@@=====....;;;;;====              ",
"=====$$$$$$$$$>>>>;;;;;@@@@=====$$$$$@@@@-----====              ",
"=====$$$$$$$$$>>>>;;;;;@@@@=====$$$$$@@@@-----====              ",
"=====$$$$$$$$$>>>>;;;;;@@@@=====$$$$$@@@@-----====              ",
"=====$$$$$$$$$>>>>;;;;;@@@@=====$$$$$@@@@-----====              ",
"=====$$$$$$$$$>>>>;;;;;@@@@=====$$$$$@@@@-----====              ",
"=====####-----&&&&#####;;;;*****#####@@@@-----====              ",
"=====####-----&&&&#####;;;;*****#####@@@@-----====              ",
"=====####-----&&&&#####;;;;*****#####@@@@-----====              ",
"=====####-----&&&&#####;;;;*****#####@@@@-----====              ",
"=====####*****&&&&.....@@@@$$$$$#####,,,,;;;;;====              ",
"=====####*****&&&&.....@@@@$$$$$#####,,,,;;;;;====              ",
"=====####*****&&&&.....@@@@$$$$$#####,,,,;;;;;====              ",
"=====####*****&&&&.....@@@@$$$$$#####,,,,;;;;;====              ",
"=====####*****&&&&.....@@@@$$$$$#####,,,,;;;;;====              ",
"=====####;;;;;$$$$@@@@@,,,,$$$$$&&&&&>>>>-----@@@@+++++++++@@@@@",
"=====####;;;;;$$$$@@@@@,,,,$$$$$&&&&&>>>>-----@@@@+++++++++@@@@@",
"=====####;;;;;$$$$@@@@@,,,,$$$$$&&&&&>>>>-----@@@@+++++++++@@@@@",
"=====####;;;;;$$$$@@@@@,,,,$$$$$&&&&&>>>>-----@@@@+++++++++@@@@@",
"=====''''#####>>>>@@@@@####*****#####,,,,;;;;;****%%%%%=========",
"=====''''#####>>>>@@@@@####*****#####,,,,;;;;;****%%%%%=========",
"=====''''#####>>>>@@@@@####*****#####,,,,;;;;;****%%%%%=========",
"=====''''#####>>>>@@@@@####*****#####,,,,;;;;;****%%%%%=========",
"=====''''#####>>>>@@@@@####*****#####,,,,;;;;;****%%%%%=========",
"=====&&&&;;;;;>>>>%%%%%$$$$$$$$$$$$$$@@@@;;;;;;;;;>>>>>,,,,=====",
"=====&&&&;;;;;>>>>%%%%%$$$$$$$$$$$$$$@@@@;;;;;;;;;>>>>>,,,,=====",
"=====&&&&;;;;;>>>>%%%%%$$$$$$$$$$$$$$@@@@;;;;;;;;;>>>>>,,,,=====",
"=====&&&&;;;;;>>>>%%%%%$$$$$$$$$$$$$$@@@@;;;;;;;;;>>>>>,,,,=====",
"=====&&&&;;;;;>>>>%%%%%$$$$$$$$$$$$$$@@@@;;;;;;;;;>>>>>,,,,=====",
"=====''''*****,,,,&&&&&####;;;;;&&&&&@@@@-----****;;;;;>>>>=====",
"=====''''*****,,,,&&&&&####;;;;;&&&&&@@@@-----****;;;;;>>>>=====",
"=====''''*****,,,,&&&&&####;;;;;&&&&&@@@@-----****;;;;;>>>>=====",
"=====''''*****,,,,&&&&&####;;;;;&&&&&@@@@-----****;;;;;>>>>=====",
"=====;;;;*****$$$$@@@@@>>>>;;;;;#####,,,,%%%%%))));;;;;=========",
"=====;;;;*****$$$$@@@@@>>>>;;;;;#####,,,,%%%%%))));;;;;=========",
"=====;;;;*****$$$$@@@@@>>>>;;;;;#####,,,,%%%%%))));;;;;=========",
"=====;;;;*****$$$$@@@@@>>>>;;;;;#####,,,,%%%%%))));;;;;=========",
"=====;;;;*****$$$$@@@@@>>>>;;;;;#####,,,,%%%%%))));;;;;=========",
"=====''''*****)))).....$$$$;;;;;#####@@@@;;;;;####)))))$$$$=====",
"=====''''*****)))).....$$$$;;;;;#####@@@@;;;;;####)))))$$$$=====",
"=====''''*****)))).....$$$$;;;;;#####@@@@;;;;;####)))))$$$$=====",
"=====''''*****)))).....$$$$;;;;;#####@@@@;;;;;####)))))$$$$=====",
"=====;;;;#####$$$$.....;;;;;;;;;#####....;;;;;;;;;>>>>>=========",
"=====;;;;#####$$$$.....;;;;;;;;;#####....;;;;;;;;;>>>>>=========",
"=====;;;;#####$$$$.....;;;;;;;;;#####....;;;;;;;;;>>>>>=========",
"=====;;;;#####$$$$.....;;;;;;;;;#####....;;;;;;;;;>>>>>=========",
"=====;;;;#####$$$$.....;;;;;;;;;#####....;;;;;;;;;>>>>>=========",
"=====%%%%&&&&&$$$$.....####*****#####,,,,;;;;;****%%%%%>>>>=====",
"=====%%%%&&&&&$$$$.....####*****#####,,,,;;;;;****%%%%%>>>>=====",
"=====%%%%&&&&&$$$$.....####*****#####,,,,;;;;;****%%%%%>>>>=====",
"=====%%%%&&&&&$$$$.....####*****#####,,,,;;;;;****%%%%%>>>>=====",
">>>>>>>>>>>>>>>>>>>>>>>>>>>>>>>>>>>>>>>>>>>>>>>>>>>>>>>>>>>>>>>>",
">>>>>>>>>>>>>>>>>>>>>>>>>>>>>>>>>>>>>>>>>>>>>>>>>>>>>>>>>>>>>>>>",
">>>>>>>>>>>>>>>>>>>>>>>>>>>>>>>>>>>>>>>>>>>>>>>>>>>>>>>>>>>>>>>>",
">>>>>>>>>>>>>>>>>>>>>>>>>>>>>>>>>>>>>>>>>>>>>>>>>>>>>>>>>>>>>>>>",
">>>>>>>>>>>>>>>>>>>>>>>>>>>>>>>>>>>>>>>>>>>>>>>>>>>>>>>>>>>>>>>>"};
