/* XPM */
static char * blueskull_xpm[] = {
"64 79 15 1",
" 	c None",
".	c #00009B",
"+	c #0000B3",
"@	c #0000CB",
"#	c #0000E3",
"$	c #0000FF",
"%	c #1B1BFF",
"&	c #3737FF",
"*	c #5353FF",
"=	c #000083",
"-	c #00006B",
";	c #000053",
">	c #000047",
",	c #000023",
"'	c #00003B",
"               .....+++++@@@@@@@@@@@@@@+++++.....               ",
"               .....+++++@@@@@@@@@@@@@@+++++.....               ",
"               .....+++++@@@@@@@@@@@@@@+++++.....               ",
"               .....+++++@@@@@@@@@@@@@@+++++.....               ",
"               .....+++++@@@@@@@@@@@@@@+++++.....               ",
"          +++++@@@@@#####$$$$$$$$$$$$$$#####@@@@@+++++          ",
"          +++++@@@@@#####$$$$$$$$$$$$$$#####@@@@@+++++          ",
"          +++++@@@@@#####$$$$$$$$$$$$$$#####@@@@@+++++          ",
"          +++++@@@@@#####$$$$$$$$$$$$$$#####@@@@@+++++          ",
"          +++++@@@@@#####$$$$$$$$$$$$$$#####@@@@@+++++          ",
"     .....@@@@@#####%%%%%&&&&&&&&&&&&&&%%%%%#####@@@@@.....     ",
"     .....@@@@@#####%%%%%&&&&&&&&&&&&&&%%%%%#####@@@@@.....     ",
"     .....@@@@@#####%%%%%&&&&&&&&&&&&&&%%%%%#####@@@@@.....     ",
"     .....@@@@@#####%%%%%&&&&&&&&&&&&&&%%%%%#####@@@@@.....     ",
"     .....@@@@@#####%%%%%&&&&&&&&&&&&&&%%%%%#####@@@@@.....     ",
"     @@@@@##########%%%%%&&&&&****&&&&&%%%%%##########@@@@@     ",
"     @@@@@##########%%%%%&&&&&****&&&&&%%%%%##########@@@@@     ",
"     @@@@@##########%%%%%&&&&&****&&&&&%%%%%##########@@@@@     ",
"     @@@@@##########%%%%%&&&&&****&&&&&%%%%%##########@@@@@     ",
"     @@@@@##########%%%%%&&&&&****&&&&&%%%%%##########@@@@@     ",
"=====+++++$$$$$$$$$$#####$$$$$&&&&$$$$$#####$$$$$$$$$$+++++=====",
"=====+++++$$$$$$$$$$#####$$$$$&&&&$$$$$#####$$$$$$$$$$+++++=====",
"=====+++++$$$$$$$$$$#####$$$$$&&&&$$$$$#####$$$$$$$$$$+++++=====",
"=====+++++$$$$$$$$$$#####$$$$$&&&&$$$$$#####$$$$$$$$$$+++++=====",
"=====+++++$$$$$$$$$$#####$$$$$&&&&$$$$$#####$$$$$$$$$$+++++=====",
"=====+++++&&&&&$$$$$#####@@@@@####@@@@@#####$$$$$&&&&&+++++=====",
"=====+++++&&&&&$$$$$#####@@@@@####@@@@@#####$$$$$&&&&&+++++=====",
"=====+++++&&&&&$$$$$#####@@@@@####@@@@@#####$$$$$&&&&&+++++=====",
"=====+++++&&&&&$$$$$#####@@@@@####@@@@@#####$$$$$&&&&&+++++=====",
"=====+++++&&&&&$$$$$#####@@@@@####@@@@@#####$$$$$&&&&&+++++=====",
"-----.....**********%%%%%#####++++#####%%%%%**********.....-----",
"-----.....**********%%%%%#####++++#####%%%%%**********.....-----",
"-----.....**********%%%%%#####++++#####%%%%%**********.....-----",
"-----.....**********%%%%%#####++++#####%%%%%**********.....-----",
"-----.....**********%%%%%#####++++#####%%%%%**********.....-----",
".....#####;;;;;;;;;;;;;;;.....%%%%.....;;;;;;;;;;;;;;;#####.....",
".....#####;;;;;;;;;;;;;;;.....%%%%.....;;;;;;;;;;;;;;;#####.....",
".....#####;;;;;;;;;;;;;;;.....%%%%.....;;;;;;;;;;;;;;;#####.....",
".....#####;;;;;;;;;;;;;;;.....%%%%.....;;;;;;;;;;;;;;;#####.....",
".....#####.....-----=====@@@@@====@@@@@=====-----.....#####.....",
".....#####.....-----=====@@@@@====@@@@@=====-----.....#####.....",
".....#####.....-----=====@@@@@====@@@@@=====-----.....#####.....",
".....#####.....-----=====@@@@@====@@@@@=====-----.....#####.....",
".....#####.....-----=====@@@@@====@@@@@=====-----.....#####.....",
"@@@@@*****%%%%%%%%%%$$$$$--------------$$$$$%%%%%%%%%%*****@@@@@",
"@@@@@*****%%%%%%%%%%$$$$$--------------$$$$$%%%%%%%%%%*****@@@@@",
"@@@@@*****%%%%%%%%%%$$$$$--------------$$$$$%%%%%%%%%%*****@@@@@",
"@@@@@*****%%%%%%%%%%$$$$$--------------$$$$$%%%%%%%%%%*****@@@@@",
"@@@@@*****%%%%%%%%%%$$$$$--------------$$$$$%%%%%%%%%%*****@@@@@",
"@@@@@%%%%%#####++++++++++=====++++=====++++++++++#####%%%%%@@@@@",
"@@@@@%%%%%#####++++++++++=====++++=====++++++++++#####%%%%%@@@@@",
"@@@@@%%%%%#####++++++++++=====++++=====++++++++++#####%%%%%@@@@@",
"@@@@@%%%%%#####++++++++++=====++++=====++++++++++#####%%%%%@@@@@",
"@@@@@%%%%%#####++++++++++=====++++=====++++++++++#####%%%%%@@@@@",
"     .....;;;;;=====+++++#####%%%%#####+++++=====;;;;;.....     ",
"     .....;;;;;=====+++++#####%%%%#####+++++=====;;;;;.....     ",
"     .....;;;;;=====+++++#####%%%%#####+++++=====;;;;;.....     ",
"     .....;;;;;=====+++++#####%%%%#####+++++=====;;;;;.....     ",
"     .....;;;;;=====+++++#####%%%%#####+++++=====;;;;;.....     ",
"     >>>>>,,,,,;;;;;+++++@@@@@####@@@@@+++++;;;;;,,,,,'''''     ",
"     >>>>>,,,,,;;;;;+++++@@@@@####@@@@@+++++;;;;;,,,,,'''''     ",
"     >>>>>,,,,,;;;;;+++++@@@@@####@@@@@+++++;;;;;,,,,,'''''     ",
"     >>>>>,,,,,;;;;;+++++@@@@@####@@@@@+++++;;;;;,,,,,'''''     ",
"     >>>>>,,,,,;;;;;+++++@@@@@####@@@@@+++++;;;;;,,,,,'''''     ",
"     ;;;;;;;;;;=====.....++++++++++++++.....;;;;;;;;;;-----     ",
"     ;;;;;;;;;;=====.....++++++++++++++.....;;;;;;;;;;-----     ",
"     ;;;;;;;;;;=====.....++++++++++++++.....;;;;;;;;;;-----     ",
"     ;;;;;;;;;;=====.....++++++++++++++.....;;;;;;;;;;-----     ",
"     ;;;;;;;;;;=====.....++++++++++++++.....;;;;;;;;;;-----     ",
"     -----==========+++++@@@@@####@@@@@+++++==========-----     ",
"     -----==========+++++@@@@@####@@@@@+++++==========-----     ",
"     -----==========+++++@@@@@####@@@@@+++++==========-----     ",
"     -----==========+++++@@@@@####@@@@@+++++==========-----     ",
"     -----==========+++++@@@@@####@@@@@+++++==========-----     ",
"          .....@@@@@$$$$$@@@@@++++@@@@@$$$$$@@@@@.....          ",
"          .....@@@@@$$$$$@@@@@++++@@@@@$$$$$@@@@@.....          ",
"          .....@@@@@$$$$$@@@@@++++@@@@@$$$$$@@@@@.....          ",
"          .....@@@@@$$$$$@@@@@++++@@@@@$$$$$@@@@@.....          ",
"          .....@@@@@$$$$$@@@@@++++@@@@@$$$$$@@@@@.....          "};
