/* XPM */
static char *eaddb3e22a3641cffddfd78c1e3a6b78E2w9ExXArdhKJqZo[] = {
/* columns rows colors chars-per-pixel */
"64 64 78 1 ",
"  c gray11",
". c #382C14",
"X c #202020",
"o c #2E2B22",
"O c #313931",
"+ c gray22",
"@ c #400000",
"# c #4C0000",
"$ c #640000",
"% c #700000",
"& c #7C0000",
"* c #403018",
"= c #483818",
"- c #543C1C",
"; c #044000",
": c #044C00",
"> c #045800",
", c #046400",
"< c #047C00",
"1 c #394A39",
"2 c #404000",
"3 c #585400",
"4 c #706C00",
"5 c #5C4020",
"6 c #4C4436",
"7 c #425239",
"8 c #6C4824",
"9 c #744C28",
"0 c #00004C",
"q c #280040",
"w c #340058",
"e c #000064",
"r c #00007C",
"t c #400040",
"y c #500050",
"u c #440070",
"i c #600064",
"p c #6C0070",
"a c #005858",
"s c #524A42",
"d c #5E5246",
"f c #525A4A",
"g c gray33",
"h c #685D4C",
"j c #736B52",
"k c gray44",
"l c #7C7C7C",
"z c #880000",
"x c #980000",
"c c #9C4C00",
"v c #B45400",
"b c #80502C",
"n c #885830",
"m c #905C34",
"M c #9C6038",
"N c #A0643C",
"B c #A86840",
"V c #8C7B67",
"C c #C87C4C",
"Z c #848400",
"A c #9A8C77",
"S c #D08050",
"D c #DC8854",
"F c #000088",
"G c #000098",
"H c #0000B0",
"J c #500084",
"K c #60009C",
"L c #0004FC",
"P c #840084",
"I c #9C009C",
"U c #7C80FC",
"Y c gray55",
"T c #989898",
"R c #A89A85",
"E c gray66",
"W c #B4B4B4",
"Q c #C8BFB2",
/* pixels */
"bbnbnmmbbb989nnmmnnnnbbbbbnmnb989bnnb999bnnb9889bbb99bnb9889bbb8",
"bb99999999bbbbbbnbbbnmmmmnnmMBBMnnnbbbbnnb988888888999988888888b",
"89b9999999bbbb99999bbnnbb989nmmn999855588555555555555555555555bb",
"8-55---==-55--==----5555-==-555-==--=====*==--=====***==--====mb",
"8-                                                            D9",
"8-                                                            S8",
"8-     433X                     Vjjs     %$$@     Frr0Bmm8    S8",
"8- >::;Z442z&&#uwwq,::;%$$@6++o AVVd z&&#z%%#>::; GFFeC55b,::;S9",
"8- ,>>;Zaa2xzz$Juuw<,,;z%%#d66* AVVd xzz$zcc#,>>; GUUeCBBb<,,;Db",
"9= ,YY;Zaa2xWW$Jggw<::;z88#dRR* AAAd xWW$z%%#,YY; GFFeCBBb<YY;Sn",
"8= ,>>;Z442xzz$Juuw<::;z88#d66* AVVd xzz$z88#,>>; GLLeCBBb<kk;Cb",
"8= ,>>;Z442xYY$JYYw<,,;z%%#d88* AVVd xYY$z%%#,>>; GFFeCBBb<,,;S9",
"8= ,>>;Z442xzz$Juuw<,,;z%%#d66* AVVd xzz$z%%#,>>; GFFeCBBb<,,;S9",
"8- ,>>;Z442xzz$Juuw<,,;z%%#d66* AVVd xzz$z%%#,>>; GFFeCBBb<,,;Cb",
"8- ,>>;Z442xzz$Juuw<,,;z%%#d66* AVVd xzz$z%%#,>>; GFFeCBBb<,,;Db",
"8- ,>>;Z442xzz$Juuw<,,;z%%#d66* AVVd xzz$z%%#,>>; GFFeCBBb<,,;Db",
"8- ,>>;Z442xzz$Juuw<,,;z%%#d66* AVVd xzz$z%%#,>>; GFFeCYYb<,,;D9",
"8- ,gg;Z442xzz$Juuw<,,;z%%#d66* AVVd xzz$z%%#,gg; GFFeCBBb<,,;S8",
"8- ,>>;Z442xvv$JKKw<,,;zgg#dhh* Addd xcc$zgg#,>>; GHHeCBBb<,,;S8",
"8- >::X433Xz&&#uuuq,::;%$$@666o AVVd z&&#%$$@>::X Frr0Bmm5,::;S9",
"85DDDDSSSSCCCDDSSSDDCCCCDSSSDDCCCCCCDSSDDDSDSSSDDDCSSCSDSSSDDDCb",
"99nbnmmbbb989nnmmnnnnbbbbbnmnb989bnnb999bnnb9889bbb99bnb9889b88n",
"bb8889989999bnmmmnnmmmnnbbbnnn9889bnnb99bb98888888888898888888bn",
"b--======----555555588855--5555-=-5555-------------====------=mb",
"9-                                                            D9",
"9-                                                            S9",
"b5 Bmm8         Frr0               %$$@         >::;          S9",
"n5 CBBbz&&# piitGFFe 855. ,::;>::; z%%#6++oz&&# ,>>; 433XFrr0 Db",
"n5 C55bxzz$ PppyGTTe 988= <,,;,>>; z88#d66*xzz$ ,YY; Z442GFFe Cn",
"b5 CBBbxWW$ PWWyGFFe 9NN= <::;,YY; z88#dQQ*xWW$ ,>>; Zaa2GWWe Cn",
"9- CBBbxzz$ PppyGlle 9NN= <::;,>>; z%%#d66*xzz$ ,>>; Z442GFFe Cb",
"8= CBBbxWW$ PppyGFFe 988= <,,;,>>; z%%#dQQ*xYY$ ,>>; Z442GTTe C9",
"8- CBBbxzz$ PppyGFFe 988= <,,;,>>; z%%#d66*xzz$ ,>>; Z442GFFe C8",
"95 CBBbxzz$ PppyGFFe 988= <,,;,>>; z%%#d66*xzz$ ,>>; Z442GFFe C9",
"n5 CBBbxzz$ PppyGFFe 988= <,,;,>>; z%%#d66*xzz$ ,>>; Z442GFFe Db",
"n5 CBBbxzz$ PppyGFFe 988= <,,;,>>; z%%#d66*xzz$ ,>>; Z442GFFe Dn",
"n5 CYYbxzz$ PppyGFFe 988= <,,;,>>; z%%#d66*xzz$ ,>>; Z442GFFe Sm",
"b- CBBbxzz$ PppyGFFe 988= <,,;,gg; z%%#d66*xzz$ ,gg; Z442GFFe Sn",
"b- CBBbxcc$ PIIyGHHe 9mm= <,,;,>>; zgg#dhh*xhh$ ,>>; Z442GHHe Sb",
"b5 Bmm5z&&# piitFrr0 855. ,::;>::X %$$@666oz&&# >::X 433XFrr0 Db",
"n5DDDDSSSSCCCDDSSSDDCCCCDSSSDDCCCCCCDSSDDDSDSSSDDDCSSCSDSSSDDDCb",
"n9nbnmmbbb989nnmmnnnnbbbbbnmnb989bnnb999bnnb9889bbb99bnb9889b88b",
"mb8889989999bnmmmnnmmmnnbbbnnn9889bnnb99bb98888888888898888888bb",
"m--======----555555588855--5555-=-5555-------------====------=mn",
"m5                                                            Dn",
"n5                                                            Dn",
"n5      Vjjs     %$$@             433X    Frr0Bmm8        Frr0Sn",
"m5 6++o AVVd z&&#z%%# 711Ouwwq,::;Z442z&&#GFFeC55b,::;piitGFFeSm",
"m5 d66* AEEd xzz$z88# f771Juuw<,,;Zaa2xzz$GWWeCBBb<,,;PppyGUUeSm",
"m5 dQQ* AVVd xWW$z88# fWW1Jggw<::;Zaa2xWW$GFFeCBBb<gg;PWWyGFFeDn",
"n5 d66* AYYd xzz$z%%# f771Juuw<::;Z442xzz$GYYeCBBb<gg;PppyGUUeDn",
"b- dEE* AVVd xYY$z%%# fYY1JYYw<,,;Z442xYY$GFFeCBBb<,,;PppyGFFeC9",
"9- d66* AVVd xzz$z%%# f771Juuw<,,;Z442xzz$GFFeCBBb<,,;PppyGFFeC8",
"9- d66* AVVd xzz$z%%# f771Juuw<,,;Z442xzz$GFFeCBBb<,,;PppyGFFeC9",
"9- d66* AVVd xzz$z%%# f771Juuw<,,;Z442xzz$GFFeCBBb<,,;PppyGFFeSb",
"9= d66* AVVd xzz$z%%# f771Juuw<,,;Z442xzz$GFFeCBBb<,,;PppyGFFeSb",
"8= d66* AVVd xzz$z%%# f771Juuw<,,;Z442xzz$GFFeCYYb<,,;PppyGFFeSb",
"9= d66* AVVd xzz$z%%# f771Juuw<,,;Z442xzz$GFFeCBBb<,,;PppyGFFeSm",
"9= dhh* Addd xcc$zgg# f::1Jggw<,,;Z442xcc$GggeCBBb<,,;PhhyGHHeDm",
"8= 666o AVVd z&&#%$$@ 711Ouuuq,::;433Xz&&#Frr0Bmm5,::;piitFrr0Dn",
"8mDDDDSSSSCCCDDSSSDDCCCCDSSSDDCCCCCCDSSDDDSDSSSDDDCSSCSDSSSDDDDb",
"8bnbnmmbbb989nnmmnnnnbbbbbnmnb989bnnb999bnnb9889bbb99bnb9889bbbn",
"888889989999bnmmmnnmmmnnbbbnnn9889bnnb99bb9888888888889888888888",
"---======----555555588855--5555-=-5555-------------====---------"
};
