/* XPM */
static char * Cards_xpm[] = {
"45 26 47 1",
" 	c None",
".	c #00009B",
"+	c #AF4300",
"@	c #CB5707",
"#	c #8B0000",
"$	c #A70000",
"%	c #0000CB",
"&	c #0000E3",
"*	c #0000FF",
"=	c #EB6F0F",
"-	c #FF8F3B",
";	c #FFA35B",
">	c #BF0000",
",	c #EF0000",
"'	c #FF1F1F",
")	c #3737FF",
"!	c #1B1BFF",
"~	c #0000B3",
"{	c #D7BB43",
"]	c #F37317",
"^	c #9B0000",
"/	c #000053",
"(	c #872300",
"_	c #E30000",
":	c #730000",
"<	c #FF0000",
"[	c #5353FF",
"}	c #00006B",
"|	c #FF3F3F",
"1	c #000047",
"2	c #00000B",
"3	c #00003B",
"4	c #D75F0B",
"5	c #430000",
"6	c #B30000",
"7	c #D70000",
"8	c #9F3700",
"9	c #C34F00",
"0	c #DF670F",
"a	c #670000",
"b	c #EBDB57",
"c	c #000000",
"d	c #C39B2F",
"e	c #000083",
"f	c #874307",
"g	c #AF7B1F",
"h	c #CB0000",
"  .........      +@@@@@@@+      #$$$$$$$#    ",
"  .........      +@@@@@@@+      #$$$$$$$#    ",
"..%&&***&&%..  ++=--;;;--=++  ##>,,'',,,>##  ",
"..%&&***&&%..  ++=--;;;--=++  ##>,,'',,,>##  ",
"..)!!~~~!!)..  @@{;;]]];;{@@  ^^',,>>,,,'^^  ",
"&&/..!!!../&&  --(++---++(--  __:##<<###:,,  ",
"&&/..!!!../&&  --(++---++(--  __:##<<###:,,  ",
"&&/..!!!../&&  --(++---++(--  __:##<<###:,,  ",
"[[!**}}}**![[  {{;--+++--;{{  ||'<<##<<<'||  ",
"[[!**}}}**![[  {{;--+++--;{{  ||'<<##<<<'||  ",
"112~~***~~233  ((244===442((  5526677666255  ",
"112~~***~~233  ((244===442((  5526677666255  ",
"}}~%%&&&%%~}}  88900===00988  aa^>>77>>>^aa  ",
"}}~%%&&&%%~}}  88900===00988  aa^>>77>>>^aa  ",
"                                             ",
"                                             ",
"  ))))))*****    bbbbbbbbbbb    |<<<<<<<<<<  ",
"  ))))))*****    bbbbbbbbbbb    |<<<<<<<<<<  ",
"))%cc%%%cc%cc  bbdccdddccdcc  ||7cc77ccc7cc  ",
"))%cc%%%cc%cc  bbdccdddccdcc  ||7cc77ccc7cc  ",
"))%cc%%%cc%cc  bbdccdddccdcc  ||7cc77ccc7cc  ",
"**~%%%%%%%%%%  bbddddddddddd  <<77777777777  ",
"///ee~~~~~~~~  fffggdddddddd  :::^^hhhhhhhh  ",
"///ee~~~~~~~~  fffggdddddddd  :::^^hhhhhhhh  ",
"   //////////     ffffffffff     ::::::::::  ",
"   //////////     ffffffffff     ::::::::::  "};
