/* XPM */
static char * CardsSlot_xpm[] = {
"29 84 231 2",
"  	c #3B3B3B",
". 	c #565656",
"+ 	c #4E4E4E",
"@ 	c #373737",
"# 	c #4F4F4F",
"$ 	c #4B4B4B",
"% 	c #5B5B5B",
"& 	c #656565",
"* 	c #626262",
"= 	c #646464",
"- 	c #5E5E5E",
"; 	c #494949",
"> 	c #575757",
", 	c #6C6C6C",
"' 	c #5A5A5A",
") 	c #616161",
"! 	c #636363",
"~ 	c #555555",
"{ 	c #545454",
"] 	c #444444",
"^ 	c #474747",
"/ 	c #3A3A3A",
"( 	c #4D4D4D",
"_ 	c #323232",
": 	c #363636",
"< 	c #666666",
"[ 	c #6B6B6B",
"} 	c #737373",
"| 	c #727272",
"1 	c #5D5D5D",
"2 	c #585858",
"3 	c #696969",
"4 	c #535353",
"5 	c #484848",
"6 	c #3E3E3E",
"7 	c #3F3F3F",
"8 	c #404040",
"9 	c #505050",
"0 	c #4C4C4C",
"a 	c #5C5C5C",
"b 	c #525152",
"c 	c #5F5F5F",
"d 	c #383838",
"e 	c #343434",
"f 	c #414141",
"g 	c #2F2F2F",
"h 	c #424242",
"i 	c #454545",
"j 	c #686868",
"k 	c #464646",
"l 	c #3D3D3D",
"m 	c #393939",
"n 	c #767676",
"o 	c #6D6D6D",
"p 	c #232323",
"q 	c #222222",
"r 	c #747474",
"s 	c #292929",
"t 	c #282828",
"u 	c #828282",
"v 	c #858585",
"w 	c #6A6A6A",
"x 	c #707070",
"y 	c #717171",
"z 	c #787878",
"A 	c #7A7A7A",
"B 	c #818181",
"C 	c #7E7E7E",
"D 	c #7D7D7D",
"E 	c #313131",
"F 	c #848484",
"G 	c #898989",
"H 	c #7B7B7B",
"I 	c #868686",
"J 	c #8C8C8C",
"K 	c #878787",
"L 	c #808080",
"M 	c #2A2A2A",
"N 	c #2D2D2D",
"O 	c #5E605F",
"P 	c #575958",
"Q 	c #5D5F5E",
"R 	c #242424",
"S 	c #262626",
"T 	c #5F6161",
"U 	c #585A5A",
"V 	c #4F5150",
"W 	c #4A4D4C",
"X 	c #444746",
"Y 	c #2C2C2C",
"Z 	c #494B4B",
"` 	c #4B4E4D",
" .	c #474948",
"..	c #252525",
"+.	c #2D2D2F",
"@.	c #4D4C4F",
"#.	c #474749",
"$.	c #8B8B8B",
"%.	c #302F34",
"&.	c #48484A",
"*.	c #7F7F7F",
"=.	c #313133",
"-.	c #4B4A4D",
";.	c #494649",
">.	c #6F6F6F",
",.	c #323234",
"'.	c #49494B",
").	c #4E5051",
"!.	c #47494A",
"~.	c #303330",
"{.	c #565857",
"].	c #505254",
"^.	c #212121",
"/.	c #343734",
"(.	c #505252",
"_.	c #2D302D",
":.	c #6C6C6E",
"<.	c #6D6D6F",
"[.	c #424244",
"}.	c #4F4F51",
"|.	c #4E4E50",
"1.	c #797979",
"2.	c #69686B",
"3.	c #68676A",
"4.	c #404042",
"5.	c #3D3C3F",
"6.	c #5E5E60",
"7.	c #5A595C",
"8.	c #2F2E31",
"9.	c #1F1F21",
"0.	c #18181A",
"a.	c #1A191C",
"b.	c #1C1C1C",
"c.	c #161616",
"d.	c #1B1B1B",
"e.	c #1F1F1F",
"f.	c #151515",
"g.	c #616063",
"h.	c #58585B",
"i.	c #1E1E20",
"j.	c #131215",
"k.	c #141316",
"l.	c #151517",
"m.	c #171717",
"n.	c #1D1D1D",
"o.	c #1E1E1E",
"p.	c #181818",
"q.	c #141414",
"r.	c #303030",
"s.	c #565658",
"t.	c #373639",
"u.	c #363538",
"v.	c #28272A",
"w.	c #222124",
"x.	c #252527",
"y.	c #2B2B2B",
"z.	c #464548",
"A.	c #414143",
"B.	c #444346",
"C.	c #454447",
"D.	c #3F3E41",
"E.	c #717173",
"F.	c #747476",
"G.	c #626164",
"H.	c #636365",
"I.	c #5D5D5F",
"J.	c #8D8D8D",
"K.	c #939393",
"L.	c #777777",
"M.	c #8E8E8E",
"N.	c #8F8F8F",
"O.	c #909090",
"P.	c #302D31",
"Q.	c #322B2F",
"R.	c #4A4748",
"S.	c #454543",
"T.	c #494647",
"U.	c #424340",
"V.	c #1A1A1A",
"W.	c #444744",
"X.	c #4A4D4A",
"Y.	c #2C2E2F",
"Z.	c #484B47",
"`.	c #2F3133",
" +	c #4B4E4B",
".+	c #494A47",
"++	c #6D6E6B",
"@+	c #2D2D31",
"#+	c #4B4B48",
"$+	c #696967",
"%+	c #383836",
"&+	c #333431",
"*+	c #3A3B38",
"=+	c #444442",
"-+	c #4C494D",
";+	c #4C4A4B",
">+	c #3D3D3B",
",+	c #29282D",
"'+	c #3C393C",
")+	c #3B3839",
"!+	c #3F3F3D",
"~+	c #3E3E3C",
"{+	c #29282B",
"]+	c #393738",
"^+	c #474745",
"/+	c #363634",
"(+	c #393937",
"_+	c #666764",
":+	c #3B3C39",
"<+	c #31312F",
"[+	c #353835",
"}+	c #626260",
"|+	c #636361",
"1+	c #292927",
"2+	c #232321",
"3+	c #646562",
"4+	c #40403E",
"5+	c #343532",
"6+	c #262724",
"7+	c #333333",
"8+	c #202320",
"9+	c #6A6A68",
"0+	c #484946",
"a+	c #373735",
"b+	c #2A2A28",
"c+	c #080808",
"d+	c #0D0D0D",
"e+	c #101010",
"f+	c #111111",
"g+	c #131313",
"h+	c #0C0C0C",
"  . + @ @ # $ % & * = - ; > , , ' . ) & ! & - ~ { ] ] ^ / ",
"  > ( _ : + ( ' < = [ * $ > } | 1 2 - ) & 3 - 4 { 5 ^ ^ 6 ",
"@ . ( 7 8 9 0 a 3 > { b ( 4 1 % ( 0 ! , c 4 a ) ' d e f   ",
"g ~ + h i + $ . j $ / ] 0 0 k ^ l m & n a / ~ o 1 p q h l ",
": 2 b + 4 b 9 c o ~ ; + { { ~ . ; $ 3 r * 9 c , ) s t i l ",
"_ 4 # u v , w [ | , 3 o x y z A y o u v B C A D |     f / ",
"E 4 9 F G x y | r r y y r r H H n | I J v K u L r 6 l ] l ",
": % . r } . # ~ > 0 h + ' ) j w 1 . 3 | w = ) ) ' M N i / ",
"@ O P 3 ! i 8 f ] e s e $ 4 * - + i a ! % b $ $ 5 p t i 6 ",
"@ Q P , j ; ] 5 $ l g   ( . = & 4 0 c j a { b + 0 R S h l ",
"@ O P o 3 $ i ^ ^ ; ( 4 2 a = & > b % 2 c w 1 . b S t ^ 8 ",
"d T U o j ; i k ] 4 1 ' % - < ! a 2 ~ b c z = ' { t S $ f ",
"e P V x w 5 ] ^ ] 4 % > % - = = 2 ~ . ~ c y ! > b t S ^ 7 ",
"N W X o w ; i 5 h { > 2 % - & & ' . > { * | c . b S S k f ",
"Y W Z , 3 ; k h l ( 2 > a c = = 2 ~ . b ) } * > 4 t t k 6 ",
"g `  .[ 3 $ 5 4 % % a % ~ 2 j j a 2 ' % * o 1 . 9 S ..5 8 ",
"+.@.#.) * 9 k o $.y < - 5 . , o ' . ) j ! & a > { S t i l ",
"%.@.&.! ! + ^ 3 *.j ! a $ > | [ ' { ) < ! & % > { t s k 8 ",
"=.-.;.o , b + 0 + ] d 7 ( > >., $ f * , [ o ) > { S t ^ 8 ",
",.'.#.} y { { $ ^ @ M : ( 2 >.>.i m < x x | = > { S t ^ h ",
"_ ).!., o i h h ] 7   i $ > , j + $ ! [ = * % ' 4 R S 5 h ",
"~.{.].o j : g : / h ; ; + ~ * ! a 2 - = 1 { . % b ^.q ^ f ",
"/.P (.>.j : E d m f ; 0 # . = ! a 2 - = 1 { . 1 ~ R R $ ] ",
"_.V ` [ w 7 6 f h k 5 ^ 5 b < j + $ ! w ! ) ' > 9 q R 6 / ",
"N + ; :.<.&.[.-.}.-.|.0 f 9 x [ 5 7 , 1.x o c { ( p S m E ",
"N + ; 2.3.4.5.[.[.4.[.7 d k - 2 f   % & - 1 b 5 ] ^...l e ",
"Y ( 5 6.7.=.8.9.0.0.a.b.c.d.S q ^.e.S t ..p d.c.d.f.^.h   ",
"Y ( 5 g.h.8.+.i.j.k.l.c.f.m.b.b.n.o.^.e.^.n.p.q.c.f.o.i 6 ",
"r.( 5 h.s.t.u.v.w.x.w...p S N N y.y.g _ Y S R p p n...i 6 ",
"r.( 5 #.&.'.-.&.[.z.[.k ] 5 9 9 9 9 b > ] r.7 $ ] d / k 7 ",
"r.( 5 A.[.B.C.C.D.[.D.7 6 ] ( ; + + 0 ( 8 Y   i 6 @ m ^ 8 ",
"r.( 5 E.F.6.G.H.6.g.I.* ) j y | < < r A , % = >.= y.y.k 7 ",
"8.W Z J.K.r n n r r r r L.*.M.N.z n $.O.F r D J.H s S 5 8 ",
"P.$  .A C - 1 c - c ) * = < >.| 3 3 L.*.r 3 , | j ^...5 f ",
"Q.R.S.3 j f   6 6 8 f ^ 0 ; ; $ b . < , & - % > 9 f.n.^ 8 ",
"Q.T.U.3 [ ^ ] h ] ^ ; 0 4 9 ( ( ~ > < x w < c ' 9 V.e.f   ",
"P.; W.o w 7 6 h f h h i b 9 4 4 { > < x & - a a b m.e.9 ( ",
"8.` X.[ j / m   m d @ 8 # b > > > { & y ) { ~ a b m.e.w = ",
"Y.X.Z.x w l / l       7 # 4 2 2 . > 3 x ! { 2 a b m.e.= ) ",
"`. +.+++j d : /   7 f f # b . . 1 ! % 2 . $ 9 a b m.e.. 4 ",
"@++ #+++$+%+&+%+*+=+=+5 # 4 ' . ) & 2 ~ 9 5 b a b m.^.> { ",
"@+-+;+++$+%+&+%+>+U.U.k # 4 2 . ) & 2 > { b 4 a 4 p.e.> 4 ",
",+'+)+++$+%+&+!+=+~+%+] # 4 . . ) & 2 # ) >.c . { o.t 9 0 ",
"{+]+)+++$+%+&+!+^+~+/+h # 4 { . ) & 2 ( ! A < 2 . ^.t 0 5 ",
"S l (+_+_+:+/+~+.+:+<+/ k + c - ) & - a ) ! ' ~ + d.q { # ",
"q *+[+}+|+:+%+!+^+/+1+E 6 ( w j & = * j 1 9 b b $ c.n.% { ",
"2+:+*+|+3+>+(+4+^+5+6+7+8 ; ) c ! ! & < - . b + 5 m.e.2 4 ",
"8+>+:+9+9+!+(+4+0+a+b+_ h ^ 9 9 - & w x 1 0 5 ] f q.e.# 0 ",
"R / / o 3   : h ^ : y.e i 5 9 # c & w r c 0 ^ f 8 m.e.b $ ",
"p m m [ 3 7   h ^ : y.e i 5 9 ( - < j , a # 0 h f m.e.( ^ ",
"R /   x >.k ] h ^ : y.e i 5 9 + 3 >.' 4 > % 0 k h m.o.f 6 ",
"R / / } y k h h ^ : y.e i 5 9 9 , r % ~ % ) # k h m.n.h l ",
"s ; ] 6 d g s E @ Y q y.e : d :   8 ; 0 8 g 7+r.r.S y.^ 8 ",
"M { 5 e.o.n.b.S g ..o.p N Y M Y ..s   ; E V.p q ..r.: ; f ",
"M 4 k t ..q e.M E t ^.S g g r.N y.g 6 ^ : ^...p M Y r.5 8 ",
"..h / 7+@ / l d l _ s _ l 5 ' 2 # ( 2 * # m l l 7 $ 5 ] 7 ",
"^.m 7+E : 8 ] m : Y ..g / $ [ j > ~ c [ 9 e 7 7 ] - % k 7 ",
"..] 7 h ^ 9 4 0 $ i 7 ^ b ' j & ! = 3 x * ' . { 9 e / ; f ",
"s $ k 1 ) 3 w 3 , o o | D r | } 1.D D 1.u N.D z w c+d+$ h ",
"t ; i 2 % * ! * = ! * & y o >.>.n 1.L.n A F L.o * e+q.^ h ",
"N 5 i < * 6 m   8 7   i ~ 4 9 b > % % a = r - + 5 f+g+e s ",
"N 5 i j c @ r.: 6 @ e   + ( 0 $ b > 2 > c r ' k h e+q.Y o.",
"N 5 i & )   @     / / h # + b # { 2 2 a * y ' 5 i f+f.E s ",
"N 5 i ' a f ] @ Y :     i $ ' . 2 ' > > ' % ( f 8 f+m.( ^ ",
"r.5 ^ ' % i $ @ y.:   l f ; 2 ' > ' 2 2 ' 2 + h l h+f.{ $ ",
"M 7 l % 2     e y.@ l l f ; 2 . . > 4 b { { $ i 8 g+d.5 f ",
"S m @ a 2 d _ 7+Y d l l f ; 2 . . . 9 0 # 9 ^ ] 8 p.o.f l ",
"S / m % '   : E Y / l l f ; 2 > 2 2 # $ + 9 ^ f 7 d.o.] 6 ",
"t d d - % _ g g S _   m ] ; b 4 { 9 4 ~ b # # ( ^ V.n.] 6 ",
"s / l 1 ' E N M R g @   f ^ # ( ( + > > 4 $ b > ( d.d.] 6 ",
"R e : a 2 r.N y.t _ d l f ^ 4 4 b # . 2 ~ # # b 5 p.V.h l ",
"b.s t a 2 r.Y g Y d   l f $ % . 2 . 2 . . ' ( f 7 m.e.k 8 ",
"b.S s ' % N g g Y d   l f ; % > > > > ' > ' 0 h 7 c.o.^ f ",
"n.t M ! ) r.N g Y d   f $ + ' > > > > 2 2 2 # ( ^ V.o.^ f ",
"n.t M < ! r.y.N y.@ / h 9 b > > > > > > > > 4 { 0 b.e.5 h ",
"n.S M & * g y.N y.@ / f 9 9 > > > > > . > ' 4 b ; d.n.k 8 ",
"o.N _ = * r.M d i @ y.  % % * * 2 ~ ! = - . 4 4 $ m.e.; h ",
"o.g _ o , _ M h { / t / & j , , c % j >.= % ' . # p.o.5 h ",
"q d @ ( ^ t q E   N t 7+$ ( . ~ ( 5 9 . 9 0 5 i f p.n.i 7 ",
"t ]   n.m.V.m.b.e.e.^.p S g @ e : _ : e @ m E t M p.e.h 6 ",
"t 0 6 S e.V.m.q p ^.o.R Y 7+    @ : l l l 7 m r.g f.n.k 6 ",
"o.E y.R q e.e.p ..S t Y 7+@   l / m e : : d _ y.s o.q   : ",
"c.f.f.p R R p S M N _ E m m   l     r.Y N r.s p R t M y.Y ",
"m.d.b.p ..R q ..M N g E d m 6   m l E g r._ y.t t S S N g "};
