/* XPM */
static char * cells_xpm[] = {
"64 45 18 1",
" 	c None",
".	c #5B5B5B",
"+	c #575757",
"@	c #53573B",
"#	c #474747",
"$	c #4F4F4F",
"%	c #2F2F2F",
"&	c #272727",
"*	c #232323",
"=	c #332B13",
"-	c #434343",
";	c #373F27",
">	c #131313",
",	c #1F170B",
"'	c #53AF47",
")	c #3F472B",
"!	c #170F07",
"~	c #13230B",
"        ................................................        ",
"        ................................................        ",
"        ................................................        ",
"        ................................................        ",
"    ++++++++++++++++++++++++++++++++++++++++++++++++++++++++    ",
"    ++++++++++++++++++++++++++++++++++++++++++++++++++++++++    ",
"    ++++++++++++++++++++++++++++++++++++++++++++++++++++++++    ",
"@@@@###########@@@@@@@@@@@@@@@@@@@@@@@$$$$$$$$$$$$$$$#######@@@@",
"@@@@###########@@@@@@@@@@@@@@@@@@@@@@@$$$$$$$$$$$$$$$#######@@@@",
"@@@@###########@@@@@@@@@@@@@@@@@@@@@@@$$$$$$$$$$$$$$$#######@@@@",
"@@@@###########@@@@@@@@@@@@@@@@@@@@@@@$$$$$$$$$$$$$$$#######@@@@",
"%%%%&&&&***********%%%%&&&&&&&=======================***&&&&%%%%",
"%%%%&&&&***********%%%%&&&&&&&=======================***&&&&%%%%",
"%%%%&&&&***********%%%%&&&&&&&=======================***&&&&%%%%",
"%%%%&&&&***********%%%%&&&&&&&=======================***&&&&%%%%",
"%%%%====*******----====&&&%%%%----;;;;&&&====%%%%====*******%%%%",
"%%%%====*******----====&&&%%%%----;;;;&&&====%%%%====*******%%%%",
"%%%%====*******----====&&&%%%%----;;;;&&&====%%%%====*******%%%%",
"%%%%====*******----====&&&%%%%----;;;;&&&====%%%%====*******%%%%",
"%%%%****===>>>>,,,,>>>>>>>>>>>>>>>>>>>>>>>>>>>>>>>>>>===****%%%%",
"%%%%****===>>>>,,,,>>>>>>>>>>>>>>>>>>>>>>>>>>>>>>>>>>===****%%%%",
"%%%%****===>>>>,,,,>>>>>>>>>>>>>>>>>>>>>>>>>>>>>>>>>>===****%%%%",
"%%%%****&&&>>>>''''>>>>'''>>>>''''>>>>'''>>>>'''',,,,&&&****%%%%",
"%%%%****&&&>>>>''''>>>>'''>>>>''''>>>>'''>>>>'''',,,,&&&****%%%%",
"%%%%****&&&>>>>''''>>>>'''>>>>''''>>>>'''>>>>'''',,,,&&&****%%%%",
"%%%%****&&&>>>>''''>>>>'''>>>>''''>>>>'''>>>>'''',,,,&&&****%%%%",
"%%%%****&&&,,,,********==================************&&&****%%%%",
"%%%%****&&&,,,,********==================************&&&****%%%%",
"%%%%****&&&,,,,********==================************&&&****%%%%",
"%%%%****&&&,,,,********==================************&&&****%%%%",
"%%%%*******%%%%))))****@@@----****----)))====))))))))*******%%%%",
"%%%%*******%%%%))))****@@@----****----)))====))))))))*******%%%%",
"%%%%*******%%%%))))****@@@----****----)))====))))))))*******%%%%",
"%%%%*******%%%%))))****@@@----****----)))====))))))))*******%%%%",
"%%%%****&&&!!!!>>>>&&&&,,,,,,,****,,,,,,,****>>>>,,,,&&&****%%%%",
"%%%%****&&&!!!!>>>>&&&&,,,,,,,****,,,,,,,****>>>>,,,,&&&****%%%%",
"%%%%****&&&!!!!>>>>&&&&,,,,,,,****,,,,,,,****>>>>,,,,&&&****%%%%",
"====****&&&,,,,****====>>>,,,,%%%%>>>>,,,%%%%~~~~****&&&****====",
"====****&&&,,,,****====>>>,,,,%%%%>>>>,,,%%%%~~~~****&&&****====",
"====****&&&,,,,****====>>>,,,,%%%%>>>>,,,%%%%~~~~****&&&****====",
"====****&&&,,,,****====>>>,,,,%%%%>>>>,,,%%%%~~~~****&&&****====",
"****,,,,,,,~~~~,,,,,,,,,,,,,,,****,,,,,,,****,,,,,,,,,,,,,,,****",
"****,,,,,,,~~~~,,,,,,,,,,,,,,,****,,,,,,,****,,,,,,,,,,,,,,,****",
"****,,,,,,,~~~~,,,,,,,,,,,,,,,****,,,,,,,****,,,,,,,,,,,,,,,****",
"****,,,,,,,~~~~,,,,,,,,,,,,,,,****,,,,,,,****,,,,,,,,,,,,,,,****"};
