/* XPM */
static char * clip_xpm[] = {
"52 64 14 1",
" 	c None",
".	c #6F6F6F",
"+	c #874307",
"@	c #C39B2F",
"#	c #9B5B13",
"$	c #575757",
"%	c #4F4F4F",
"&	c #434343",
"*	c #373737",
"=	c #232323",
"-	c #3B3B3B",
";	c #2F2F2F",
">	c #131313",
",	c #272727",
"      ......+++++@@@@@@############+++++......      ",
"      ......+++++@@@@@@############+++++......      ",
"      ......+++++@@@@@@############+++++......      ",
"      ......+++++@@@@@@############+++++......      ",
"      ......+++++@@@@@@############+++++......      ",
"      ......+++++@@@@@@############+++++......      ",
"$$$$$$$$$$$$%%%%%&&&&&&&&&&&&&&&&&&%%%%%$$$$$$$$$$$$",
"$$$$$$$$$$$$%%%%%&&&&&&&&&&&&&&&&&&%%%%%$$$$$$$$$$$$",
"$$$$$$$$$$$$%%%%%&&&&&&&&&&&&&&&&&&%%%%%$$$$$$$$$$$$",
"$$$$$$$$$$$$%%%%%&&&&&&&&&&&&&&&&&&%%%%%$$$$$$$$$$$$",
"$$$$$$$$$$$$%%%%%&&&&&&&&&&&&&&&&&&%%%%%$$$$$$$$$$$$",
"$$$$$$$$$$$$%%%%%&&&&&&&&&&&&&&&&&&%%%%%$$$$$$$$$$$$",
"************=====------******------=====************",
"************=====------******------=====************",
"************=====------******------=====************",
"************=====------******------=====************",
"************=====------******------=====************",
";;;;;;******>>>>>------;;;;;;------>>>>>******;;;;;;",
";;;;;;******>>>>>------;;;;;;------>>>>>******;;;;;;",
";;;;;;******>>>>>------;;;;;;------>>>>>******;;;;;;",
";;;;;;******>>>>>------;;;;;;------>>>>>******;;;;;;",
";;;;;;******>>>>>------;;;;;;------>>>>>******;;;;;;",
";;;;;;******>>>>>------;;;;;;------>>>>>******;;;;;;",
",,,,,,******>>>>>------,,,,,,------>>>>>******,,,,,,",
",,,,,,******>>>>>------,,,,,,------>>>>>******,,,,,,",
",,,,,,******>>>>>------,,,,,,------>>>>>******,,,,,,",
",,,,,,******>>>>>------,,,,,,------>>>>>******,,,,,,",
",,,,,,******>>>>>------,,,,,,------>>>>>******,,,,,,",
",,,,,,******>>>>>------,,,,,,------>>>>>******,,,,,,",
";;;;;;******>>>>>------======------>>>>>******;;;;;;",
";;;;;;******>>>>>------======------>>>>>******;;;;;;",
";;;;;;******>>>>>------======------>>>>>******;;;;;;",
";;;;;;******>>>>>------======------>>>>>******;;;;;;",
";;;;;;******>>>>>------======------>>>>>******;;;;;;",
";;;;;;******>>>>>------======------>>>>>******;;;;;;",
";;;;;;******>>>>>******======******>>>>>******;;;;;;",
";;;;;;******>>>>>******======******>>>>>******;;;;;;",
";;;;;;******>>>>>******======******>>>>>******;;;;;;",
";;;;;;******>>>>>******======******>>>>>******;;;;;;",
";;;;;;******>>>>>******======******>>>>>******;;;;;;",
";;;;;;******>>>>>******======******>>>>>******;;;;;;",
";;;;;;******>>>>>******======******>>>>>******;;;;;;",
";;;;;;******>>>>>******======******>>>>>******;;;;;;",
";;;;;;******>>>>>******======******>>>>>******;;;;;;",
";;;;;;******>>>>>******======******>>>>>******;;;;;;",
";;;;;;******>>>>>******======******>>>>>******;;;;;;",
";;;;;;******>>>>>******======******>>>>>******;;;;;;",
";;;;;;******,,,,,******======******,,,,,******;;;;;;",
";;;;;;******,,,,,******======******,,,,,******;;;;;;",
";;;;;;******,,,,,******======******,,,,,******;;;;;;",
";;;;;;******,,,,,******======******,,,,,******;;;;;;",
";;;;;;******,,,,,******======******,,,,,******;;;;;;",
";;;;;;******;;;;;;;;;;;======;;;;;;;;;;;******;;;;;;",
";;;;;;******;;;;;;;;;;;======;;;;;;;;;;;******;;;;;;",
";;;;;;******;;;;;;;;;;;======;;;;;;;;;;;******;;;;;;",
";;;;;;******;;;;;;;;;;;======;;;;;;;;;;;******;;;;;;",
";;;;;;******;;;;;;;;;;;======;;;;;;;;;;;******;;;;;;",
";;;;;;******;;;;;;;;;;;======;;;;;;;;;;;******;;;;;;",
";;;;;;========================================;;;;;;",
";;;;;;========================================;;;;;;",
";;;;;;========================================;;;;;;",
";;;;;;========================================;;;;;;",
";;;;;;========================================;;;;;;",
";;;;;;========================================;;;;;;"};
