/* XPM */
static char * Doomhead_xpm[] = {
"192 87 66 1",
" 	c None",
".	c #1B1B1B",
"+	c #483020",
"@	c #4A3021",
"#	c #704828",
"$	c #885830",
"%	c #684828",
"&	c #1C1C1C",
"*	c #281810",
"=	c #302810",
"-	c #584820",
";	c #5A4921",
">	c #A06840",
",	c #A87040",
"'	c #D08050",
")	c #080808",
"!	c #E89868",
"~	c #291810",
"{	c #C08050",
"]	c #483820",
"^	c #F0A070",
"/	c #F8B890",
"(	c #1C1C1B",
"_	c #1D1C1C",
":	c #000000",
"<	c #C77B4E",
"[	c #AF6C45",
"}	c #CC7E4F",
"|	c #685038",
"1	c #787858",
"2	c #686868",
"3	c #4A494A",
"4	c #484848",
"5	c #404040",
"6	c #282828",
"7	c #313031",
"8	c #303030",
"9	c #606060",
"0	c #424142",
"a	c #505050",
"b	c #636163",
"c	c #848284",
"d	c #808080",
"e	c #9C9A9C",
"f	c #A0A0A0",
"g	c #989898",
"h	c #888888",
"i	c #B5B2B5",
"j	c #A5A2A5",
"k	c #8C8A8C",
"l	c #9D663F",
"m	c #925F3B",
"n	c #875830",
"o	c #1D1D1D",
"p	c #1F1C1C",
"q	c #1E1C1C",
"r	c #D6D3D6",
"s	c #CECBCE",
"t	c #E0E0E0",
"u	c #83552F",
"v	c #644527",
"w	c #1B1B1A",
"x	c #1B1B1C",
"y	c #1B1B19",
"z	c #1B1A1C",
"A	c #1B1A1D",
"                                                                                                                                                                                                ",
"                                                                                                                                                                                                ",
"                                                                                                                                                                                                ",
"                                                                                                                                                                                                ",
"                                                                                                                                                                                                ",
"..............+@###########$$$$$$$$$$$$$$#######%@+...........................+@###########$$$$$$$$$$$$$$#######%@+...........................+@###########$$$$$$$$$$$$$$#######%@+...........&&",
"..............+@###########$$$$$$$$$$$$$$#######%@+...........................+@###########$$$$$$$$$$$$$$#######%@+...........................+@###########$$$$$$$$$$$$$$#######%@+...........&&",
"..............+@###########$$$$$$$$$$$$$$#######%@+...........................+@###########$$$$$$$$$$$$$$#######%@+...........................+@###########$$$$$$$$$$$$$$#######%@+...........&&",
".........*=##-@@###########$$$$$$$$$$$$$$#######%@@-##=*.................*=##-@@###########$$$$$$$$$$$$$$#######%@@-##=*.................*=##-@@###########$$$$$$$$$$$$$$#######%@@-##=*......&&",
".........==##-@@###########$$$$$$$$$$$$$$#######%@@;##==.................==##-@@###########$$$$$$$$$$$$$$#######%@@;##==.................==##-@@###########$$$$$$$$$$$$$$#######%@@;##==......&&",
"........+==##;--#$$$$>,,,''''''''''''',,,>>$$####--###==@...............+==##;--#$$$$>,,,''''''''''''',,,>>$$####--###==@...............+==##;--#$$$$>,,,''''''''''''',,,>>$$####--###==@.....&&",
"......)*===##%--$$$,,,'''''!!!!!!!!'''''',,$$$###--###===*)...........)*===##%--$$$,,,'''''!!!!!!!!'''''',,$$$###--###===*)...........)*===##%--$$$,,,'''''!!!!!!!!'''''',,$$$###--###===*)...&&",
"......*====###--$$$,,,'''''!!!!!!!!'''''',,$$$###--###====*...........*====###--$$$,,,'''''!!!!!!!!'''''',,$$$###--###====*...........*====###--$$$,,,'''''!!!!!!!!'''''',,$$$###--###====*...&&",
"......*=-##$$$>>,''''''''!!'''''''',,,,,,,,>>>$$$$$#--+++=*...........*=-##$$$>>,''''''''!!'''''''',,,,,,,,>>>$$$$$#--+++=*...........*=-##$$$>>,''''''''!!'''''''',,,,,,,,>>>$$$$$#--+++=*...&&",
"......*=###$$$,,''''''''!!!'''''',,,,,,,,,,,,>$$$$$#--@@+=*...........*=###$$$,,''''''''!!!'''''',,,,,,,,,,,,>$$$$$#--@@+=*...........*=###$$$,,''''''''!!!'''''',,,,,,,,,,,,>$$$$$#--@@+=*...&&",
"......*=###$$$>>,'''''''''''''''',,,,,,,,>>>>>$$$$$#--+++=*...........*=###$$$>>,'''''''''''''''',,,,,,,,>>>>>$$$$$#--+++=*...........*=###$$$>>,'''''''''''''''',,,,,,,,>>>>>$$$$$#--+++=*...&&",
"...*~===$$$>>>$$>,,,,{'',>>''{,,{''>$$$$$$$$$$##%--]=====~~~~*.....)~~==$$$>>$$$>,,,,''',>>''',,,''$$$$$$$$$$$###--======~~~~*.....~~~==$$$>>$$$>,,,,''',>>''',,,''$$$$$$$$$$$###--======~~~~~&&",
"...)~===$$$>>>$$>,,,,{'',>>''{,,{''$$$$$$$$$$$##%--]=====~~~~*.....)~~==$$$>>$$$>,,,,''',>>''',,,''$$$$$$$$$$$###--======~~~~*.....~~~==$$$>>$$$>,,,,''',>>''',,,''$$$$$$$$$$$###--======~~~~~&&",
"...)~===#$$>>$$$>,,,,,{{,>,{{{,,>>>>>>$$####$#%%-]]=====~~~~~*.....)~===##$$$$##>,,,,,'',>>,,,,,>$$$$$########---++=~~~~~~~~~*.....~~===##$$$$##>,,,,,'',>>,,,,,>$$$$$########---++=~~~~~~~~~~&&",
"...)~===%##$$$##>,,,,,,,,,,,,,,,$++>,>##%++%##@@+==~~~~~~~~~~*.....)~===###$$###>,,,,,>>,,,,,,,,$++>,>##-++###@@+==~~~~~~~~~~*.....~~===###$$###>,,,,,>>,,,,,,,,$++>,>##-++###@@+==~~~~~~~~~~~&&",
"...)~===%##$$$##>,,,,,,,,,,,,,,,$+@>,>##%@@%##@@+==~~~~~~~~~~*.....)~===###$$###>,,,,,,,,,,,,,,,$+@>,>##-@@###@@+==~~~~~~~~~~*.....~~===###$$###>,,,,,,,,,,,,,,,$+@>,>##-@@###@@+==~~~~~~~~~~~&&",
"...)~===@@-%%%##>,,##$,,$$$$$$,,$%%%%%##%@@+++%%-*~========~~*.....)~===@--#####>,>##$,,$$$$$$,,$########@@+++##-~~~========~*.....~~===@--#####>,>##$,,$$$$$$,,$########@@+++##-~~~========~~&&",
"...)~===+@@--%##>,>;-$,,$####$,,$##@@@##%@@===##;*~=========~*.....)~===+@@--;##>,>--$,,$####$,,$##-@-###@@+==##-*~=========~*.....~~===+@@--;##>,>--$,,$####$,,$##-@-###@@+==##-*~=========~~&&",
"...)~===+@];;%##>>>%;$,,$####$,,$##-];##%]-+++##%===========~*.....)~===+@@--###$>>#;$,,$####$>>$##--;$$#--@@@##%===========~*.....~~===+@@--###$>>#;$,,$####$>>$##--;$$#--@@@##%===========~~&&",
"...)*+@@@@-$$$$$%;%,,$;;%##$$$#####>,,,,,,,>>>>>$##-++===@@=**.....)*=@@@@-$$$$$#-#>>$--###$$$#####>>>>>>>>>>>>>$##-+@===@@=~*.....~*=@@@@-$$$$$#-#>>$--###$$$#####>>>>>>>>>>>>>$##-+@===@@=~~&&",
"...)*+@@@@-$$$$$%-%,,$--%##$$$#####>,,,,,,,>>>>>$##-@@===@@=**.....)*=@@@@-$$$$$#-#>,$--###$$$#####>,,,,,,,>>>>>$##;@@===@@=~*.....~*=@@@@-$$$$$#-#>,$--###$$$#####>,,,,,,,>>>>>$##;@@===@@=~~&&",
"...)*+@@]];$$$$$#%#$>$$$#%%$$$$$$>>,{,,,,{{,>>>>>$$%--+=+@@=**.....)*=@@@@-$$$$$###$$$$$###$$$$$$$$,,,,,,,,>>>>>$$$#--+++@@=~*.....~*=@@@@-$$$$$###$$$$$###$$$$$$$$,,,,,,,,>>>>>$$$#--+++@@=~~&&",
"...)*+@@--%$$>,,$$$--$''$-;$$$,,{''''',,{'',,,,,,,,$##@@@@@=**.....)*=@@--#$$$,,$$$--$''$--$$$,,,''''',,,'',,,,,,,,$##-@@@@=~*.....~*=@@--#$$$,,$$$--$''$--$$$,,,''''',,,'',,,,,,,,$##-@@@@=~~&&",
"...)*+@@--%$$>,,$$$--$''$--$$$,,{''''',,{'',,,,,,,,$##@@@@@=**.....)*=@@--#$$$,,$$$--$''$--$$$,>,''''',,,'',,,,>,,,$##@@@@@=~*.....~*=@@--#$$$,,$$$--$''$--$$$,>,''''',,,'',,,,>,,,$##@@@@@=~~&&",
"...)*+@@%%#>>,{{{{{,,{''{,,{{{{{''''''{{'''{{{{{{{{,>>;-]@@=**.....)*=@@%##>>,'',,,>>,'',,,,,'''''''''''''',,,''''',$$;--@@=~*.....~*=@@%##>>,'',,,>>,'',,,,,'''''''''''''',,,''''',$$;--@@=~~&&",
"...)*+@@%#$,,{'''''''''''''''''''''''''''''''''''''{,,%--@@=**.....)*=@@###,,,''''''''''''''''''''''''''''''''''''',,,#--@@=~*.....~*=@@###,,,''''''''''''''''''''''''''''''''''''',,,#--@@=~~&&",
"...)*+@@##$,,{'''''''''''''''''''''''''''''''''''''{,,%--@@=**.....)*=@@###,,,''''''''''''''''''''''''''''''''''''',,>#--@@=~*.....~*=@@###,,,''''''''''''''''''''''''''''''''''''',,>#--@@=~~&&",
"...)*+@@$$$,,'!!'''''''''''''''''''''''''''''''''!!{,,##%@@=**.....)*=@@$$$,,'!!'''''''''''''''''''''''''''''''''!!',,###@@=~*.....~*=@@$$$,,'!!'''''''''''''''''''''''''''''''''!!',,###@@=~~&&",
"...)*+@@$$$,,'!!'''''''''''''''''''''''''''''''''!!{,,##%@@=**.....)*=@@$$$,,'!!!'''''''''''''''''''''''''''''''!!!',,###@@=~*.....~*=@@$$$,,'!!!'''''''''''''''''''''''''''''''!!!',,###@@=~~&&",
"...)*+@@$$$,,'!!''''''''''''''{{{{{'''''''''''''!!!{,,$##@@=**.....)*=@@$$$,,'!!!!!!!''''''''''''''''''''''!!!!!!!!',,###@@=~*.....~*=@@$$$,,'!!!!!!!''''''''''''''''''''''!!!!!!!!',,###@@=~~&&",
"...)*+@@$$$,,'!!^^^^^^!!'''''{,,,,,''''''!!^^^^^^!!{,,$$$@@=**.....)*=@@$$$,,'!!^^^^^!!!''''',,,,,,,'''''!!^^^^^^!!',,$$$@@=~*.....~*=@@$$$,,'!!^^^^^!!!''''',,,,,,,'''''!!^^^^^^!!',,$$$@@=~~&&",
"...)*+@@$$$,,'!!^^^^^^!!'''''{,,,,,''''''!!^^^^^^!!{,,$$$@@=**.....)*=@@$$$,,'!!^^^^^!!!'''',,>>>>>,,''''!!^^^^^^!!',,$$$@@=~*.....~*=@@$$$,,'!!^^^^^!!!'''',,>>>>>,,''''!!^^^^^^!!',,$$$@@=~~&&",
"...)*+@@$$${{'^!^////^!!!!!!!'''''''!!!!!!^!''{{{,,$$$$$$@@=**&....)*=@@$$$'''!!^////^!!!!!'''''''''''!!!!!^////^!!'''$$$@@=~*..&.(**=@@$$$$$>,,{{{''!!!!!!'''''''''''!!!!!^////^!!'''$$$@@=~*&_",
",,')*+@@$$>''!^^//////^^^^^!!!!!!!!!!!^^^^^{,>--]::*==$$$@@=**{''',**=@@$$$''!^^//////^^^^^!!!!!!!!!!!^^^^^//////^^'''$$$@@=~*'<[},**=@@$$$==*::+--,,'^^^^^!!!!!!!!!!!^^^^^//////^^'''$$$@@=~*''",
"''')*+@@$$>''!^^//////^^^^^!!!!!!!!!!!^^^^^{,,;-]::*==$$$@@=**{''',**=@@$$$''!^^//////^^^^^!!!!!!!!!!!^^^^^//////^^'''$$$@@=**'''',**=@@$$$==~::@-#,,'^^^^^!!!!!!!!!!!^^^^^//////^^'''$$$@@=**''",
"'''#$%@@$$$%%#||$>>''!!!///'''^^^^^''!//!{{#++==-$#$>>$$$@@-%%{''',##-@@$$$$$$>>>>>'''^^''',>,''''',>,''!^^'''>>>>>$$$$$$@@%##'''',##-@@$$$$$$##@++@@$''^//''!^^^^^!'!//^!^'''>>$$$###$$$@@%##''",
"'''$$%@@$$$=====--%'''!!///'''^^^^^'''//!,,-:)==-$$>>>$$$@@;##{''''###@@$$$#####;-#,,'!!'''$$>'''''$$$'''!!'',;-######$$$@@###'''''###@@$$$>>$$$@==::#,,^//''!^^^^^''!///!!'',;--=====$$$@@###''",
"'''$$%@@$$$]]+==--%{{'!!^//'{'^^^^^'{'//!>>@:)==-$$>,,$$$@@;##{''''###@@$$$$$$##--#,,'!!'''$$$'''''$$$'''!!',,--%##$$$$$$@@###'''''###@@$$$>>$$$@==::#,,!//'''^^^^^'''//^!!',,--@++@@@$$$@@###''",
"'''$$%@@{'{>>$##+=======~*~##$'''''$#%***))::)==+##,'',,>@@;##{''''##%@@>,,''>##+==+++++@@@==#,,,,,-=+@@@+++++==@##,'',,$@@###'''''##%@@>,,'',##+==::)))**~##$'''''$##**=+++++==@##$>>'''@@###''",
"'''$$%+@{''>>$##+=======*:)%#$'''''$#%::::::::==+##,'',,>++;##{''''##%@@>,,''>##+=======+@@==#,>>>>-==@@+=======+##,'',,$@@###'''''##%@@>,,'',##+==:::::::)##$'''''$#%::~=======+##$>>'''@@###''",
"'''$$#-;{'{>>>11222345**):);%#,,,,,#%-::678922344@@>{,{{,--%##,{'',###%%,,,,,>||+==330+++==++#'''''#++==]aa+==33bcc,,,,,,;;###,''',###%%,,,,,$@@==+22977*:)--#,,,,,#--::*====+22211$$$''';;###,'",
",,'$$###{'{$$1ddefe22a::::)+@]-----@@+::7aagff22a::%$$''{#####>,>,>#####'''$$1227:622977*:)--$!!!!!$--::4227:*22hiih$$'''#####>>>,>#####'''$$%::::7fjkaa8:)+@@-----@@+:::::::8fjgdc>$$'''#####>>",
">>>$$###{'{$$1ddgfe22a:::::++]-----+++::7aakfe22a::%$$''{#####>,,,>#####'''$$1226:)22977*::--$!!!!!$-]::4227:)22hiih$$'''#####>,,,>#####'''$$%::::8ffkaa8::++@-----+++:::::::6efgdd>$$'''#####>,",
">>,##$>>'''>>,{{!^!{{>-;;;%$>,'''''>>$;-%||{{{!!',,,>>''{>>$##$$$$$##$$$'''>>,{{!!!{{{##%--$$>'''''>$$---##>,,^^!{!,>>'''$$$##$$$$$##$$$'''>>>,,'!!{{{##%--$$>'''''>$$---##>,,^^!{{,>>'''$$$##$$",
"$$$##$>>''',,{''!^^'',#####,,{!!!!!,,>#####{''^^!''{,,''{>>$#########$>>''',,,''^^^'',#####>,,!!!!!,,>#####,''^^!'',,,'''>>$#########$>>''',,,''^^^'',#####>,,!!!!!,,>#####,''^^!'',,,'''>>$####",
"#####$>>''',,{''!^!'',####$,,{!!!!!{,,#####{''^^!''{,,'''>>$#########$>>''',,,''^^^'',$$###>,'!!!!!,,>###$$,''^^!'',,,'''>>$#########$>>''',,,''!^^'',$$###>,'!!!!!,,>###$$,''^^!'',,,'''>>$####",
"###%#$>>!!!!!'''''',,{''!!!'''^^^^^'''!!''',,,'''''!!!!!!>>$##>>>>$##$>>!!!!!'''''',,,'''''!!!!!^^^!!!''''',,,'''''!!!!!!>>$##$>>>$##$>>!!!!!'''''',,,''''''''^^^^^'''''''',,,'''''!!!!!'>>$##$>",
"$$>%#$>>!!!!!!''''',,{''!!!'''^^^^^'''!!!'',,,'''''!!!!!!>>$##>>>>$##$>>!^^!!!''''',,,'''''!!!!!^^^!!!'!''',,,'''''!!!^^!>>$##$>lmn##$>>!!!!!!''''',,,'''!!'''^^^^^'''!!''',,,'''''!!!!!'>>$##$>",
"&op%#$>>!!!!!!''''',,{''!^^''!^^^^^!'!^^!''{,{'''''!!!!!!>>$##&&...##$>>!!!!!!!!'''','''!!!!!!!!^^^^!!!!!''',''''!!!!!!!!>>$##..&.&##$>>!!!!!!!!'''','''!^^''!/////'''^^!''',''''!!!!!!!'>>$##._",
".&q%#>,,!!!!!!^^!!!''!^^///^^^/////^^^///^^'''!!!^^!!!!!!,,$##.....##$,,'!!!!^^^^!!!!!^!///^^^!!^^^^^^///!^!!!!!^^^^!!!!',,$##.....##$,,'!!!!^^^^!!!!!^^///^^^/////^^^///^^!!!!!^^^^!!!!',,$##&&",
"...%#>,,!!!!!!^^!!!'''^^///^^^/////^^^///^^'''!!!^^!!!!!!,,$##.....##$,,'!!!!^^^^!!!'!!!///^^^!!^^^^^^///!!!'!!!^^^^!!!!',,$##.....##$,,'!!!!^^^^!!''!^^///^^^/////^^^///^^!'!!!^^^^!!!!',,$##&&",
"...%#$>>'''''!!!!!!!!^//^^^^!^^^/rr^!^^^^//!!!!!!!!''''''>>$##.....##$>>'''''!!!!!!!!^///^^!!^^^///^!^^^///^!!!!!!!''''''>>$##.....##$>>'''''!!!!!!^^^^^^^^!!^/////^!^^^^^^^^^!!!!!''''''>>$##&&",
"...%#$>>''''''''!!!^^^//^!!!!!^^stt^!!!!^//^^^!!!'''''''{>>$##.....##$>>,'''''''!!!!!///^!!!!^/^/tt^!!!!///^!!!!!''''''',>>$##.....##$>>,'''''''!!!^^^//^!!!!!^^/tt^!!!!^//^^^!!!''''''',>>$##&&",
"...##u>>''''''''!!!^^^//^!!!!!^^stt^!!!!^//^^^!!!'''''''{>>$##.....##$>>,'''''''!!!!!^//^!!!!!^^/tt^!!!!///^!!!!!''''''',>>$##.....##$>>,'''''''!!!^^^//^!!!!!^^/tt^!!!!^//^^^!!!''''''',>>$##&&",
".....&$$,,,'''''!^^///!^'''{,{{{{!!{,{''!^!///^^!''''',,,$$,..........$$,,,'''''^^^^^^^^''''''{{{!!''''''^^^^^^^!''''',,,$$..........$$$,,,'''''^^^///!!''''''{{{!!''''''!!///^^!''''',,,$$$&&&&",
".....&$$,,,'''''!^^///!!''',,,{{{{{,,,'''!!///^^!''''',,>$$...........$$,,,'''''^^^^^^!!''',,,{{{{{,,,'''!!^^^^^^''''',,,$$..........$$$,,,'''''^^^///!!''',,,{{{{{,,,'''!!///^^^''''',,,$$&&&&&",
"....._$$,,,'''''^^^//^!!'{{,>,{{{{{,>,{{'!!///^^!''''',,,$$...........$$,,,,,'''^^^^^^!!',,,,,{{{{{,,,,,'!!^^^^^^''',,,,,$$..........$$$,,,,,'''^^^///!!',,,,,{{{{{,,,,,'!!///^^^''',,,,,$$&&&&&",
"....._$$''',,'!!///^^!''$-;$$$>>>>>$$$-->''!^^///!!{,,''{$$...........$$''',,'!!///^^!''$--$$$>>>>>$$$-->''!^^///!!',,'''$$..........$$$''',,'!!///^^!,'$--$$$>>>>>$$$--$',!^^///!!',,'''$$&&&&&",
".....&$$''',,'!!///^^!''$--$$$>>>>>$$$-->''!^^///!!{,,''{$$...........$$''',,'!!///^^!''$--$$$>>>>>$$$-]>''!^^///!!',,'''$$..........$$$''',,'!!///^^!,'$--$$$>>>>>$$$-]$',!^^///!!',,'''$$&&&&&",
".....&#${'',,'^!^/^!!!''{,,,,,{{{{{,,,,,{''!!!//^!^{,,''{$#...........#$''',,'!!///!!!''',,,,,,,,,,,,,,,'''!!!//^!!',,'''##..........##$''',,'!!///!!!''',,,,,,,,,,,,,,,'''!!!//^!!',,'''##&&&&&",
"....._%#{'',,'^^^^^'''!!!!!'''''''''''!!!!!'''^^^^^{,,''{#%...........##'!',,'^^^^^!!!!!!!!'''''''''''!!!!!!!!^^^^^',,'!'##..........###'!',,'^^^^^'''!!!!!'''''''''''!!!!!'''^^^^^',,'!'##&&&&&",
".....&%#{'',,'^^^^^'''!!!!!'''''''''''!!!!!'''^^^^^{,,''{%v&..........##''',,'^^^^^!!!!!!!!''',,,,,'''!!!!!!!!^^^^^',,'!'#%..........###''',,'^^^^^'''!!!!!''','''''''!!!!!'''^^^^^',,'!'##_&&&&",
"........'''{{'!!^^^!!!!!!^^//^!!!!!^/^^^!!!!!!^^^!!'{{'''...............''',,'!!^^^!!!!!^^^///!!!!!///^^^!!!!!^^^!!',,'''...............''',,'!!^^^!!!!!^^^//^!!!!!///^^^!!!!!^^^!!',,'''&&&&&&&",
"........''''''!!^^^!!!!!^^^///!!!!!///^^^!!!!!^^^!!''''''...............'''','!!^^^!!!!!^^^///!!!!!///^^^!!!!!^^^!!''''''...............'''','!!^^^!!!!!^^^///!!!!!///^^^!!!!!^^^!!''''''&&&&&&&",
"........''''''!!^^^!!!!!!!^///!!!!!///!!!!!!!!^^^!!''''''...............''''''!!^^^!'!!!^^^///!!!!!///^^^!!!'!^^^!!''''''...............''''''!!^^^!'!!!^^^///!!!!!///^^^!!!'!^^^!!''''''&&&&&&&",
"........>>>'''''!!!,,>$$::::::::::::::::>$$,,,!!!'''''>>,...............>>>'''!'!!!,,>$$:::::::::::::::::$$>,,!!!'!'''>>,...............>>>'''!'!!!,,>$$:::::::::::::::::$$>,,!!!'!'''>>,&&&&&&&",
"........>>>'''''!!!,,>$$:::::::::::::::::$$>,,!!!'''''>>................>>>'''!'!!!,,>$$:::::::::::::::::$$>,,!!!'!'''>>................>>>'''!'!!!,,>$$:::::::::::::::::$$>,,!!!'!'''>>.&&&&&&&",
"..........,'''''!!!{,,>>,''''''''''''''',>>,,{!!'''''',...................,'''''!!!'',,,''''''''''''''''',,'''!!!''''',...................,'''''!!!'',,,''''''''''''''''',,'''!!!''''',..&&&&&&&",
"...........,>,''''''''''!!!^^^!!!!!^^^!!!'''''''''',>,.....................,>,'''''!!!!!!!!^^^^^^^^^^^!!!!!!!!''''',>,.....................,>,'''''!!!!!!!!^^^^^^^^^^^!!!!!!!!''''',>,...&&&&&&&",
"...........>>,''''''''''!!!^^^!!!!!^^^!!!'''''''''',>,.....................>>,''''''''''!!!^^^^^^^^^^^!!!'''''''''',>,.....................>>,''''''''''!!!^^^^^^^^^^^!!!'''''''''',>,...&&&&&&&",
".............'{{'!!!!''''''{{{,,,,,{{'''''''!!!!',{'.........................''''!!!!!''''''''{{{{{''''''''!!!!!'''..........................,'''!!!!!''''''''{{{{{''''''''!!!!!''',&&&&&&&&&&&&",
".............',,!!!!!!''''',,>$$$$$>,,'''''!!!!!',,...........................'''!!!!!'!''',>>$$$$$>>,'''!'!!!!!'''...........................,,'!!!!!'!''',>>$$$$$>>,'''!'!!!!!',,&&&&&&&&&&&&&",
"..............,,!!!!!!''''',,>$$$$$,,,'''''!!!!!',,...........................'''!!!!!'!''',,>$$$$$,,,'''!'!!!!!'''...........................,,'!!!!!'!''',,>$$$$$,,,'''!'!!!!!',,&&&&&&&&&&&&&",
"................'''!!!!!!''''!!!!!!'''''!!!!!!'''...............................'''!!!!!!''''!!!!!!'''''!!!!!!'''...............................'''!!!!!!''''!!!!!!'''''!!!!!!'''..&&&&&&&&&&&&&",
"................'''!!!!!!''''!^^^^^!''''!!!!!!'''...............................'''!!!!!!''''!^^^^^!''''!!!!!!'''...............................'''!!!!!!''''!^^^^^!''''!!!!!!'''..&&&&&&&&&&&&&",
"wwwwwwww.........''''!!!!!!!!!^^^^^!!!!!!!!!''''.................................''''!!!!!!!!!^^^^^!!!!!!!!!''''.................................''''!!!!!!!!!^^^^^!!!!!!!!!''''...&&&&&&&&&&&&&",
"wwwwwwwwwwwwww..xxxxxx''!!!^^^/////^^^!!'''xxxxx................................xxxxxx''!!!^^^/////^^^!!'''xxxxx................................xxxxxx''!!!^^^/////^^^!!'''xxxxx...&&&&&&&&&&&&&",
"yyyyyyyyyyyyyyxxxxxxxz''!!!^^^/////^^^!!'''xxxxxxxx.........................xxxxxxxxxz''!!!^^^/////^^^!!'''xxxxxxxxx..........................xxxxxxxz''!!!^^^/////^^^!!'''xxxxxxxx&&&&&&&&&&&&&",
"yyyyyyyyyyyyyyxxxxzzzzzzzzA!!!^^^^^!!!zzzzzzzzxxxxx........................xxxxxxxzzzzzzzzA!!!^^^^^!!!zzzzzzzzxxxxxxx.........................xxxxzzzzzzzzA!!!^^^^^!!!zzzzzzzzxxxxx&&&&&&&&&&&&&",
"                                                                                                                                                                                                ",
"                                                                                                                                                                                                ",
"                                                                                                                                                                                                "};
