/* XPM */
static char * Doomhead_xpm[] = {
"192 87 46 1",
" 	c None",
".	c #483020",
"+	c #4A3021",
"@	c #684828",
"#	c #704828",
"$	c #885830",
"%	c #A06840",
"&	c #584820",
"*	c #302810",
"=	c #5A4921",
"-	c #281810",
";	c #A87040",
">	c #C08050",
",	c #D08050",
"'	c #E89868",
")	c #080808",
"!	c #291810",
"~	c #483820",
"{	c #F0A070",
"]	c #F8B890",
"^	c #000000",
"/	c #685038",
"(	c #787858",
"_	c #686868",
":	c #4A494A",
"<	c #484848",
"[	c #404040",
"}	c #282828",
"|	c #313031",
"1	c #303030",
"2	c #606060",
"3	c #424142",
"4	c #505050",
"5	c #636163",
"6	c #848284",
"7	c #808080",
"8	c #9C9A9C",
"9	c #A0A0A0",
"0	c #989898",
"a	c #888888",
"b	c #B5B2B5",
"c	c #A5A2A5",
"d	c #8C8A8C",
"e	c #D6D3D6",
"f	c #CECBCE",
"g	c #E0E0E0",
"                                                                                                                                                                                                ",
"                                                                                                                                                                                                ",
"                                                                                                                                                                                                ",
"                                                                                                                                                                                                ",
"              .+@##########$$$$$$$$$$$$$$#######@+.                           .+###########$$$$$$$$$$$$$$#######@+.                           ++###########$$$$$$$$$$$$$$#######@++             ",
"              .+@##########$$$$$$$$$$$$$$#######@+.                           .+###########$$$$$$$$$$$$$$#######@+.                           ++###########$$$$$$$$$$$$$$#######@++             ",
"             $.+@##########$$$$$$$$$$$$$$#######@+.%                          .+###########$$$$$$$$$$$$$$#######@+.                          &++###########$$$$$$$$$$$$$$#######@++&            ",
"        +**@@=++@##########$$$$$$$$$$$$$$#######@++@@@**                 -*##&++###########$$$$$$$$$$$$$$#######@++&##*-                ***##&++###########$$$$$$$$$$$$$$#######@++=##***       ",
"         *.##=++@##########$$$$$$$$$$$$$$#######@++@##**                 **##&++###########$$$$$$$$$$$$$$#######@++=##**                ***##&++###########$$$$$$$$$$$$$$#######@++=##***       ",
"      $$.*.##@&&#$$%%%;;;;;>>>>>>>>>;;;;;%%$$$##@&&@##**+ $             .**##=&&#$$$$%;;;,,,,,,,,,,,,,;;;%%$$####&&###**+             *****##=&&#$$$$%;;;,,,,,,,,,,,,,;;;%%$$####&&###*****     ",
"     $-***.##@&&$$$;;>,,,,,'''''''',,,,,>;;$$$##@&&@##****)           )-***##@&&$$$;;;,,,,,'''''''',,,,,,;;$$$###&&###***-)          ******##@&&$$$;;;,,,,,'''''''',,,,,,;;$$$###&&###******    ",
"     $****.##@=&$$$;;>,,,,,'''''''',,,,,>;;$$$##@&&@##****-           -****###&&$$$;;;,,,,,'''''''',,,,,,;;$$$###&&###****-          ******###&&$$$;;;,,,,,'''''''',,,,,,;;$$$###&&###*****     ",
"     $**@@#$$$%%>,,,,,,,''',,,,,>;;;;;;;;;;;;%$$$$$@==+..*-           -*&##$$$%%;,,,,,,,,'',,,,,,,,;;;;;;;;%%%$$$$$#&&...*-          ***&##$$$%%;,,,,,,,,'',,,,,,,,;;;;;;;;%%%$$$$$#&&...**     ",
"     $**@##$$%;;>,,,,,,,''',,,,,>;;;;;;;;;;;;;$$$$$#&&++.*-           -*###$$$;;,,,,,,,,''',,,,,,;;;;;;;;;;;;%$$$$$#&&++.*-          ***###$$$;;,,,,,,,,''',,,,,,;;;;;;;;;;;;%$$$$$#&&++.**     ",
"     $**###$$%;%>,,,,,,,,'',,,,,>;;;%%%%%%%%%%$$$$$@&&...*-           -*###$$$%%;,,,,,,,,,,,,,,,,;;;;;;;;%%%%%$$$$$#&&...*-          ***###$$$%%;,,,,,,,,,,,,,,,,;;;;;;;;%%%%%$$$$$#&&...***    ",
"   -!***$$$%%%$$%;;;;>,,;%%,,>;;>,,%$$$$$$$$$$##@&&~*****!!!!-     )!!**$$$%%$$$%;;;;,,,;%%,,,;;;,,$$$$$$$$$$$###&&******!!!!-     !!!**$$$%%$$$%;;;;,,,;%%,,,;;;,,$$$$$$$$$$$###&&******!!!!!  ",
"   )!***$$$%%%$$%;;;;>,,;%%,,>;;>,,$$$$$$$$$$$##@&&~*****!!!!-     )!!**$$$%%$$$%;;;;,,,;%%,,,;;;,,$$$$$$$$$$$###&&******!!!!-     !!!**$$$%%$$$%;;;;,,,;%%,,,;;;,,$$$$$$$$$$$###&&******!!!!!  ",
"   )!***#$$%%$$$%;;;;;>>;%;>>>;;%%%%%%$$####$#@@&~~*****!!!!!-     )!***##$$$$##%;;;;;,,;%%;;;;;%$$$$$########&&&..*!!!!!!!!!-     !!***##$$$$##%;;;;;,,;%%;;;;;%$$$$$########&&&..*!!!!!!!!!!  ",
"   )!***@##$$$##%;;;;;;;;;;;;;;;$..%;%##@..@##++.**!!!!!!!!!!-     )!***###$$###%;;;;;%%;;;;;;;;$..%;%##&..###++.**!!!!!!!!!!-     !!***###$$###%;;;;;%%;;;;;;;;$..%;%##&..###++.**!!!!!!!!!!!  ",
"   )!***@##$$$##%;;;;;;;;;;;;;;;$.+%;%##@++@##++.**!!!!!!!!!!-     )!***###$$###%;;;;;;;;;;;;;;;$.+%;%##&++###++.**!!!!!!!!!!-     !!***###$$###%;;;;;;;;;;;;;;;$.+%;%##&++###++.**!!!!!!!!!!!  ",
"   )!***++&@@@##%;;##$;;$$$$$$;;$@@@@@##@++...@@&-!********!!-     )!***+&&#####%;%##$;;$$$$$$;;$########++...##&!!!********!-     !!***+&&#####%;%##$;;$$$$$$;;$########++...##&!!!********!!  ",
"   )!***.++&&@##%;%=&$;;$####$;;$##+++##@++***##=-!*********!-     )!***.++&&=##%;%&&$;;$####$;;$##&+&###++.**##&-!*********!-     !!***.++&&=##%;%&&$;;$####$;;$##&+&###++.**##&-!*********!!  ",
"   )!***.+~==@##%%%@=$;;$####$;;$##&~=##@~&...##@***********!-     )!***.++&&###$%%#=$;;$####$%%$##&&=$$#&&+++##@***********!-     !!***.++&&###$%%#=$;;$####$%%$##&&=$$#&&+++##@***********!!  ",
"   )-.++++&$$$$$@=@;;$==@##$$$#####%;;;;;;;%%%%%$##&..***++*--     )-*++++&$$$$$#&#%%$&&###$$$#####%%%%%%%%%%%%%$##&.+***++*!-     !-*++++&$$$$$#&#%%$&&###$$$#####%%%%%%%%%%%%%$##&.+***++*!!  ",
"   )-.++++&$$$$$@&@;;$&&@##$$$#####%;;;;;;;%%%%%$##&++***++*--     )-*++++&$$$$$#&#%;$&&###$$$#####%;;;;;;;%%%%%$##=++***++*!-     !-*++++&$$$$$#&#%;$&&###$$$#####%;;;;;;;%%%%%$##=++***++*!!  ",
"   )-.++~~=$$$$$#@#$%$$$#@@$$$$$$%%;>;;;;>>;%%%%%$$@&&.*.++*--     )-*++++&$$$$$###$$$$$###$$$$$$$$;;;;;;;;%%%%%$$$#&&...++*!-     !-*++++&$$$$$###$$$$$###$$$$$$$$;;;;;;;;%%%%%$$$#&&...++*!!  ",
"   )-.++&&@$$%;;$$$&&$,,$&=$$$;;>,,,,,;;>,,;;;;;;;;$##+++++*--     )-*++&&#$$$;;$$$&&$,,$&&$$$;;;,,,,,;;;,,;;;;;;;;$##&++++*!-     !-*++&&#$$$;;$$$&&$,,$&&$$$;;;,,,,,;;;,,;;;;;;;;$##&++++*!!  ",
"   )-.++&&@$$%;;$$$&&$,,$&&$$$;;>,,,,,;;>,,;;;;;;;;$##+++++*--     )-*++&&#$$$;;$$$&&$,,$&&$$$;%;,,,,,;;;,,;;;;%;;;$##+++++*!-     !-*++&&#$$$;;$$$&&$,,$&&$$$;%;,,,,,;;;,,;;;;%;;;$##+++++*!!  ",
"   )-.++@@#%%;>>>>>;;>,,>;;>>>>>,,,,,,>>,,,>>>>>>>>;%%=&~++*--     )-*++@##%%;,,;;;%%;,,;;;;;,,,,,,,,,,,,,,;;;,,,,,;$$=&&++*!-     !-*++@##%%;,,;;;%%;,,;;;;;,,,,,,,,,,,,,,;;;,,,,,;$$=&&++*!!  ",
"   )-.++@#$;;>,,,,,,,,,,,,,,,,,,,,,,,,,,,,,,,,,,,,,>;;@&&++*--     )-*++###;;;,,,,,,,,,,,,,,,,,,,,,,,,,,,,,,,,,,,,,;;;#&&++*!-     !-*++###;;;,,,,,,,,,,,,,,,,,,,,,,,,,,,,,,,,,,,,,;;;#&&++*!!  ",
"   )-.++##$;;>,,,,,,,,,,,,,,,,,,,,,,,,,,,,,,,,,,,,,>;;@&&++*--     )-*++###;;;,,,,,,,,,,,,,,,,,,,,,,,,,,,,,,,,,,,,,;;%#&&++*!-     !-*++###;;;,,,,,,,,,,,,,,,,,,,,,,,,,,,,,,,,,,,,,;;%#&&++*!!  ",
"   )-.++$$$;;,'',,,,,,,,,,,,,,,,,,,,,,,,,,,,,,,,,''>;;##@++*--     )-*++$$$;;,'',,,,,,,,,,,,,,,,,,,,,,,,,,,,,,,,,'',;;###++*!-     !-*++$$$;;,'',,,,,,,,,,,,,,,,,,,,,,,,,,,,,,,,,'',;;###++*!!  ",
"   )-.++$$$;;,'',,,,,,,,,,,,,,,,,,,,,,,,,,,,,,,,,''>;;##@++*--     )-*++$$$;;,''',,,,,,,,,,,,,,,,,,,,,,,,,,,,,,,''',;;###++*!-     !-*++$$$;;,''',,,,,,,,,,,,,,,,,,,,,,,,,,,,,,,''',;;###++*!!  ",
"   )-.++$$$;;,'',,,,,,,,,,,,,,>>>>>,,,,,,,,,,,,,'''>;;$##++*--     )-*++$$$;;,''''''',,,,,,,,,,,,,,,,,,,,,,'''''''',;;###++*!-     !-*++$$$;;,''''''',,,,,,,,,,,,,,,,,,,,,,'''''''',;;###++*!!  ",
"   )-.++$$$;;,''{{{{{{'',,,,,>;;;;;,,,,,,''{{{{{{''>;;$$$++*--     )-*++$$$;;,''{{{{{''',,,,,;;;;;;;,,,,,''{{{{{{'',;;$$$++*!-     !-*++$$$;;,''{{{{{''',,,,,;;;;;;;,,,,,''{{{{{{'',;;$$$++*!!  ",
"   )-.++$$$;;,''{{{{{{'',,,,,>;;;;;,,,,,,''{{{{{{''>;;$$$++*--     )-*++$$$;;,''{{{{{''',,,,;;%%%%%;;,,,,''{{{{{{'',;;$$$++*!-     !-*++$$$;;,''{{{{{''',,,,;;%%%%%;;,,,,''{{{{{{'',;;$$$++*!!  ",
"   )-.++$$$>>,{'{]]]]{''''''',,,,,,,''''''{',,>>>;;$$$$$$++*--,,   )-*++$$$,,,''{]]]]{''''',,,,,,,,,,,'''''{]]]]{'',,,$$$++*!-  ,,%--*++$$$$$%;;>>>,,'''''',,,,,,,,,,,'''''{]]]]{'',,,$$$++*!-;,",
" ;,)-.++$$%,,'{{]]]]]]{{{{{'''''''''''{{{{{>;%&&~^^-**$$$++*-->,,,;--*++$$$,,'{{]]]]]]{{{{{'''''''''''{{{{{]]]]]]{{,,,$$$++*!-,,,,;--*++$$$**-^^.&&;;,{{{{{'''''''''''{{{{{]]]]]]{{,,,$$$++*!-,,",
" ,,)-.++$$%,,'{{]]]]]]{{{{{'''''''''''{{{{{>;;=&~^^-**$$$++*-->,,,;--*++$$$,,'{{]]]]]]{{{{{'''''''''''{{{{{]]]]]]{{,,,$$$++*--,,,,;--*++$$$**!^^+&#;;,{{{{{'''''''''''{{{{{]]]]]]{{,,,$$$++*--,,",
" ,,#$@++$$$@@#//$%%,,''']]],,,{{{{{,,']]'>>#..**&$#$%%$$$++&@@>,,,;##&++$$$$$$%%%%%,,,{{,,,;%;,,,,,;%;,,'{{,,,%%%%%$$$$$$++@##,,,,;##&++$$$$$$##+..++$,,{]],,'{{{{{',']]{'{,,,%%$$$###$$$++@##,,",
" ,,$$@++$$$*****&&@,,,'']]],,,{{{{{,,,]]';;&^)**&$$%%%$$$++=##>,,,,###++$$$#####=&#;;,'',,,$$%,,,,,$$$,,,'',,;=&######$$$++###,,,,,###++$$$%%$$$+**^^#;;{]],,'{{{{{,,']]]'',,;=&&*****$$$++###,,",
" ,,$$@++$$$~~.**&&@>>,''{]],>,{{{{{,>,]]'%%+^)**&$$%;;$$$++=##>,,,,###++$$$$$$##&&#;;,'',,,$$$,,,,,$$$,,,'',;;&&@##$$$$$$++###,,,,,###++$$$%%$$$+**^^#;;']],,,{{{{{,,,]]{'',;;&&+..+++$$$++###,,",
" ,,$$@++>,>%%$##.*******!-!##$,,,,,$#@---))^^)**.##;,,;;%++=##>,,,,##@++%;;,,%##.**.....+++**#;;;;;&*.+++.....**+##;,,;;$++###,,,,,##@++%;;,,;##.**^^)))--!##$,,,,,$##--*.....**+##$%%,,,++###,,",
" ,,$$@.+>,,%%$##.*******-^)@#$,,,,,$#@^^^^^^^^**.##;,,;;%..=##>,,,,##@++%;;,,%##.*******.++**#;%%%%&**++.*******.##;,,;;$++###,,,,,##@++%;;,,;##.**^^^^^^^)##$,,,,,$#@^^!*******.##$%%,,,++###,,",
" ,,$$#&=>,>%%%((___:<[--)^)=@#;;;;;#@&^^}|12__:<<++%>;>>;&&@##;>,,;###@@;;;;;%//.**::3...**..#,,,,,#..**~44.**::566;;;;;;==###;,,,;###@@;;;;;$++**.__2||-^)&&#;;;;;#&&^^-****.___(($$$,,,==###;,",
" ;,$$###>,>$$(77898__4^^^^).+~&&&&&++.^^|44099__4^^@$$,,>#####%;%;%#####,,,$$(__|^}__2||-^)&&$'''''$&&^^<__|^-__abba$$,,,#####%%%;%#####,,,$$@^^^^|9cd441^).++&&&&&++.^^^^^^^19c076%$$,,,#####%%",
" %%$$###>,>$$(77098__4^^^^^..~&&&&&...^^|44d98__4^^@$$,,>#####%;;;%#####,,,$$(__}^)__2||-^^&&$'''''$&~^^<__|^)__abba$$,,,#####%;;;%#####,,,$$@^^^^199d441^^..+&&&&&...^^^^^^^}89077%$$,,,#####%;",
" %;##$%%,,,%%;>>'{'>>%&===@$%;,,,,,%%$=&@//>>>'',;;;%%,,>%%$##$$$$$##$$$,,,%%;>>'''>>>##@&&$$%,,,,,%$$&&&##%;;{{'>';%%,,,$$$##$$$$$##$$$,,,%%%;;,''>>>##@&&$$%,,,,,%$$&&&##%;;{{'>>;%%,,,$$$##$$",
" $$##$%%,,,;;>,,'{{,,;#####;;>''''';;%#####>,,{{',,>;;,,>%%$#########$%%,,,;;;,,{{{,,;#####%;;''''';;%#####;,,{{',,;;;,,,%%$#########$%%,,,;;;,,{{{,,;#####%;;''''';;%#####;,,{{',,;;;,,,%%$####",
" ####$%%,,,;;>,,'{',,;####$;;>'''''>;;#####>,,{{',,>;;,,,%%$#########$%%,,,;;;,,{{{,,;$$###%;,''''';;%###$$;,,{{',,;;;,,,%%$#########$%%,,,;;;,,'{{,,;$$###%;,''''';;%###$$;,,{{',,;;;,,,%%$####",
" ##@#$%%''''',,,,,,;;>,,''',,,{{{{{,,,'',,,;;;,,,,,''''''%%$##%%%%$##$%%''''',,,,,,;;;,,,,,'''''{{{''',,,,,;;;,,,,,''''''%%$##$%%%$##$%%''''',,,,,,;;;,,,,,,,,{{{{{,,,,,,,,;;;,,,,,''''',%%$##$%",
" $%@#$%%'''''',,,,,;;>,,''',,,{{{{{,,,''',,;;;,,,,,''''''%%$##%%%%$##$%%'{{''',,,,,;;;,,,,,'''''{{{''',',,,;;;,,,,,'''{{'%%$##$%%%$##$%%'''''',,,,,;;;,,,'',,,{{{{{,,,'',,,;;;,,,,,''''',%%$##$%",
" $%@#$%%'''''',,,,,;;>,,'{{,,'{{{{{','{{',,>;>,,,,,''''''%%$##%;   ##$%%'''''''',,,,;,,,''''''''{{{{''''',,,;,,,,''''''''%%$##  %%$##$%%'''''''',,,,;,,,'{{,,']]]]],,,{{',,,;,,,,''''''',%%$##$%",
" $%@#%;;''''''{{''',,'{{]]]{{{]]]]]{{{]]]{{,,,'''{{'''''';;$##     ##$;;,''''{{{{'''''{']]]{{{''{{{{{{]]]'{'''''{{{{'''',;;$##     ##$;;,''''{{{{'''''{{]]]{{{]]]]]{{{]]]{{'''''{{{{'''',;;$##  ",
"   @#%;;''''''{{''',,,{{]]]{{{]]]]]{{{]]]{{,,,'''{{'''''';;$##     ##$;;,''''{{{{''',''']]]{{{''{{{{{{]]]''','''{{{{'''',;;$##     ##$;;,''''{{{{'',,'{{]]]{{{]]]]]{{{]]]{{','''{{{{'''',;;$##  ",
"   @#$%%,,,,,''''''''{]]{{{{'{{{]ee{'{{{{]]'''''''',,,,,,%%$##     ##$%%,,,,,''''''''{]]]{{''{{{]]]{'{{{]]]{''''''',,,,,,%%$##     ##$%%,,,,,''''''{{{{{{{{''{]]]]]{'{{{{{{{{{''''',,,,,,%%$##  ",
"   @#$%%,,,,,,,,'''{{{]]{'''''{{fgg{''''{]]{{{''',,,,,,,>%%$##     ##$%%;,,,,,,,''''']]]{''''{]{]gg{'''']]]{''''',,,,,,,;%%$##     ##$%%;,,,,,,,'''{{{]]{'''''{{]gg{''''{]]{{{''',,,,,,,;%%$##  ",
"   ##$%%,,,,,,,,'''{{{]]{'''''{{fgg{''''{]]{{{''',,,,,,,>%%$##     ##$%%;,,,,,,,'''''{]]{'''''{{]gg{'''']]]{''''',,,,,,,;%%$##     ##$%%;,,,,,,,'''{{{]]{'''''{{]gg{''''{]]{{{''',,,,,,,;%%$##  ",
"     %$$;;;,,,,,'{{]]]'{,,,>;>>>>''>;>,,'{']]]{{',,,,,;;;$$;          $$;;;,,,,,{{{{{{{{,,,,,,>>>'',,,,,,{{{{{{{',,,,,;;;$$          $$$;;;,,,,,{{{]]]'',,,,,,>>>'',,,,,,'']]]{{',,,,,;;;$$$    ",
"     %$$;;;,,,,,'{{]]]'',,,;;;>>>>>;;;,,,'']]]{{',,,,,;;%$$           $$;;;,,,,,{{{{{{'',,,;;;>>>>>;;;,,,''{{{{{{,,,,,;;;$$          $$$;;;,,,,,{{{]]]'',,,;;;>>>>>;;;,,,'']]]{{{,,,,,;;;$$     ",
"     %$$;;;,,,,,{{{]]{'',>>;%;>>>>>;%;>>,'']]]{{',,,,,;;;$$           $$;;;;;,,,{{{{{{'',;;;;;>>>>>;;;;;,''{{{{{{,,,;;;;;$$          $$$;;;;;,,,{{{]]]'',;;;;;>>>>>;;;;;,'']]]{{{,,,;;;;;$$     ",
"     %$$,,,;;,'']]]{{',,$&=$$$%%%%%$$$&&%,,'{{]]]''>;;,,>$$           $$,,,;;,'']]]{{',,$&&$$$%%%%%$$$&&%,,'{{]]]'',;;,,,$$          $$$,,,;;,'']]]{{';,$&&$$$%%%%%$$$&&$,;'{{]]]'',;;,,,$$     ",
"     %$$,,,;;,'']]]{{',,$&&$$$%%%%%$$$&&%,,'{{]]]''>;;,,>$$           $$,,,;;,'']]]{{',,$&&$$$%%%%%$$$&~%,,'{{]]]'',;;,,,$$          $$$,,,;;,'']]]{{';,$&&$$$%%%%%$$$&~$,;'{{]]]'',;;,,,$$     ",
"     %#$>,,;;,{'{]{''',,>;;;;;>>>>>;;;;;>,,''']]{'{>;;,,>$#           #$,,,;;,'']]]''',,,;;;;;;;;;;;;;;;,,,''']]{'',;;,,,##          ##$,,,;;,'']]]''',,,;;;;;;;;;;;;;;;,,,''']]{'',;;,,,##     ",
"     %@#>,,;;,{{{{{,,,''''',,,,,,,,,,,''''',,,{{{{{>;;,,>#@           ##,',;;,{{{{{'''''''',,,,,,,,,,,''''''''{{{{{,;;,',##          ###,',;;,{{{{{,,,''''',,,,,,,,,,,''''',,,{{{{{,;;,',##     ",
"     %@#>,,;;,{{{{{,,,''''',,,,,,,,,,,''''',,,{{{{{>;;,,>@@%          ##,,,;;,{{{{{'''''''',,,;;;;;,,,''''''''{{{{{,;;,',#@          ###,,,;;,{{{{{,,,''''',,,;,,,,,,,''''',,,{{{{{,;;,',###    ",
"        ,,,>>,''{{{''''''{{]]{'''''{]{{{''''''{{{'',>>,,,               ,,,;;,''{{{'''''{{{]]]''''']]]{{{'''''{{{'',;;,,,               ,,,;;,''{{{'''''{{{]]{''''']]]{{{'''''{{{'',;;,,,       ",
"        ,,,,,,''{{{'''''{{{]]]''''']]]{{{'''''{{{'',,,,,,               ,,,,;,''{{{'''''{{{]]]''''']]]{{{'''''{{{'',,,,,,               ,,,,;,''{{{'''''{{{]]]''''']]]{{{'''''{{{'',,,,,,       ",
"        ,,,,,,''{{{'''''''{]]]''''']]]''''''''{{{'',,,,,,               ,,,,,,''{{{','''{{{]]]''''']]]{{{''','{{{'',,,,,,               ,,,,,,''{{{','''{{{]]]''''']]]{{{''','{{{'',,,,,,       ",
"        ;%;,,,,,''';;%$$^^^^^^^^^^^^^^^^%$$;;;''',,,,,;%;               %%%,,,',''';;%$$^^^^^^^^^^^^^^^^^$$%;;''',',,,%%;               %%%,,,',''';;%$$^^^^^^^^^^^^^^^^^$$%;;''',',,,%%%       ",
"        ;%;,,,,,''';;%$$^^^^^^^^^^^^^^^^^$$%;;''',,,,,%%;               %%%,,,',''';;%$$^^^^^^^^^^^^^^^^^$$%;;''',',,,%%                %%%,,,',''';;%$$^^^^^^^^^^^^^^^^^$$%;;''',',,,%%%       ",
"        ;;;>>,,,'''>;;%%;,,,,,,,,,,,,,,,;%%;;>'',,,,>>;;,                 ;,,,,,''',,;;;,,,,,,,,,,,,,,,,,;;,,,''',,,,,;                 %%%,,,,,''',,;;;,,,,,,,,,,,,,,,,,;;,,,''',,,,,%%%       ",
"           ;;>,,,,,,,,,,'''{{{'''''{{{''',,,,,,,,,,>;;                     ;%;,,,,,''''''''{{{{{{{{{{{'''''''',,,,,;%;                     ;%;,,,,,''''''''{{{{{{{{{{{'''''''',,,,,;%;          ",
"           ;;>,,,,,,,,,,'''{{{'''''{{{''',,,,,,,,,,>;;                     %%;,,,,,,,,,,'''{{{{{{{{{{{''',,,,,,,,,,;%;                     ;;;,,,,,,,,,,'''{{{{{{{{{{{''',,,,,,,,,,;;;          ",
"             ,>>,'''',,,,,,>>>;;;;;>>,,,,,,,'''',;>,                         ,,,,''''',,,,,,,,>>>>>,,,,,,,,''''',,,                          ;,,,''''',,,,,,,,>>>>>,,,,,,,,''''',,,;            ",
"             ,;;'''''',,,,,;;%$$$$$%;;,,,,,''''',;;                           ,,,''''',',,,;%%$$$$$%%;,,,',''''',,,                           ;;,''''',',,,;%%$$$$$%%;,,,',''''',;;             ",
"              ;;'''''',,,,,;;%$$$$$;;;,,,,,''''',;;                           ,,,''''',',,,;;%$$$$$;;;,,,',''''',,,                           ;;,''''',',,,;;%$$$$$;;;,,,',''''',;;             ",
"                ,,,''''',,,,,,''''',,,,,,''''',,,                               ,,,'''''',,,,'''''',,,,,'''''',,,                               ,,,'''''',,,,'''''',,,,,'''''',,,               ",
"                ,,,''''',,,,,,{{{{{,,,,,,''''',,,                               ,,,'''''',,,,'{{{{{',,,,'''''',,,                               ,,,'''''',,,,'{{{{{',,,,'''''',,,               ",
"                ,,,''''',,,,,'{{{{{,,,,,,''''',,,                                ,,,,'''''''''{{{{{''''''''',,,,                                ,,,'''''''''''{{{{{''''''''''',,,               ",
"                        ''''''{{{{{''''',                                             ,,'''{{{]]]]]{{{'',,,                                           ,,'''{{{]]]]]{{{'',,,                     ",
"                        ''''''{{{{{''''''                                             ,,'''{{{]]]]]{{{'',,,                                           ,,'''{{{]]]]]{{{'',,,                     ",
"                        ,,,,,,''''',,,,,                                                   '''{{{{{'''                                                ,                                         ",
"                                                                                                                                                                                                ",
"                                                                                                                                                                                                ",
"                                                                                                                                                                                                ",
"                                                                                                                                                                                                "};
