/* XPM */
static char * Door_xpm[] = {
"128 128 50 1",
" 	c #232323",
".	c #272727",
"+	c #1B1B1B",
"@	c #3B3B3B",
"#	c #434343",
"$	c #2F2F2F",
"%	c #474747",
"&	c #4F4F4F",
"*	c #636363",
"=	c #6F6F6F",
"-	c #575757",
";	c #4B4B4B",
">	c #5B5B5B",
",	c #6B6B6B",
"'	c #373737",
")	c #9B5B13",
"!	c #AF7B1F",
"~	c #C39B2F",
"{	c #3F2F17",
"]	c #372313",
"^	c #131313",
"/	c #D7BB43",
"(	c #777777",
"_	c #874307",
":	c #4B371B",
"<	c #533F1F",
"[	c #0B0B0B",
"}	c #7F7F7F",
"|	c #939393",
"1	c #8B8B8B",
"2	c #838383",
"3	c #979797",
"4	c #9F9F9F",
"5	c #4F3B23",
"6	c #533F2F",
"7	c #5B472B",
"8	c #574333",
"9	c #675333",
"0	c #836B4B",
"a	c #775F4B",
"b	c #6F5743",
"c	c #775F3F",
"d	c #474F33",
"e	c #3F2B1B",
"f	c #473323",
"g	c #5F4B37",
"h	c #67533F",
"i	c #7B634F",
"j	c #43331B",
"k	c #5F4323",
" ...............................................................+  ............................................................ ",
"@@@#####@@@####################################################@$@@##################################################@@@#####@@@",
"@%&*=-%&&&&*=-%&&&*=-%&&&*=-%&&&*=-%&&&*=-%&&&*=-%&&&*=-%;;;;;%@$#%;;;&*=-%&&&&*=-%&&&*=-%&&&*=-%&&&*=-%&&&*=-%&&&*=-%&&&*=-%;%@",
"$%&#&#%&&&&#&#%&&&#&#%&&&#&#%&&&#&#%&&&#&#%&&&#&#%&&&#&#%;&&&&%@$#;&&&&#&#%&&&&#&#%&&&#&#%&&&#&#%&&&#&#%&&&#&#%&&&#&#%&&&#&#%;%$",
"@%&@$@%&&&&@$@%&&&@$@%&&&@$@%&&&@$@%&&&@$@%&&&@$@%&&&@$@%;&&&&%$.#;&&&&@$@%&&&&@$@%&&&@$@%&&&@$@%&&&@$@%&&&@$@%&&&@$@%&&&@$@%;%@",
"$;;%%%%;;;;%%%%;;;%%%%;;;%%%%;;;%%%%;;;%%%%;;;%%%%;;;%%%;>&&&&%@$#;&&&>;%%%;;;;%%%%;;;%%%%;;;%%%%;;;%%%%;;;%%%%;;;%%%%;;;%%%%;;$",
"@########################################################%,&&&%$.#;&&,%########################################################@",
" .........................................................%,>>&$.;->,%......................................................... ",
"'@@''@$'@'@'$'@'@'@'@$@'$$'@$'@'@'$$@$'@'@'$$'@$'@'@'$'''@.%%%%.+##%%.@'''$'@'@'$@'$$'@'@'$@$$'@'@'$@'$$'@$@'@'@'@'$'@'@'$@''@@'",
"'@%%%%%%%%%%%%%%%%%%%%%%%%%%%%%%%%%%%%%%%%%%%%%%%%%%%%%%%%#.....+  ..#%%%%%%%%%%%%%%%%%%%%%%%%%%%%%%%%%%%%%%%%%%%%%%%%%%%%%%%%@'",
"@;----&-----&--->----&--&;--&-----;&-&-----;&--&-----&----;@)!~{]~!^@;----&-----&--&;-----&-&;-----&--;&--&---->---&-----&----;@",
"#&>-->-->->--->-*->->->--&->-->->-&->-->->-&-->-->->----->;#)~/{]//)#;>----->->-->--&->->-->-&->->-->-&-->->->-*->--->->-->-->&#",
"%&>>-(->>>>>->>>*>>>-(>>-&>>->>>>>&--(>>>>>&->>->>>>-(>>>>&%^!~{]~/)%&>>>>-(>>>>->>-&>>>>>-(-&>>>>>->>&->>-(>>>*>>>->>>>>--(>>&%",
"%-*>&@->*>*>->*>*>*>&%*>-->*->*>*>--&@>*>*>-->*->*>*&@>>>*&;^ ~{]~~_;&*>>>&@*>*>-*>-->*>*>&@-->*>*>-*>-->*&%>*>*>*>->*>*>-&@>*-%",
"%-*>-#>>*>*>>>*>,>*>-&*>>->*>>*>*>->-%>*>*>->>*>>*>*-#>>>*&;^  {]~/);&*>>>-#*>*>>*>>->*>*>-%>->*>*>>*>->>*-&>*>,>*>>>*>*>>-#>*-%",
";-**-%>*****>***,***-&**>>**>*****>>-%*****>>**>****-%****-;^++{] ~);-****-%****>**>>*****-%>>*****>**>>**-&***,***>*****>-%**-;",
";>,*>&**,*,***,*,*,*>&,**>*,**,*,*>*>&*,*,*>**,**,*,>&***,-&^++:{++:&-,***>&,*,**,**>*,*,*>&*>*,*,**,*>**,>&*,*,*,***,*,**>&*,>;",
";>,*>&**,*,***,*=*,*>&,**>*,**,*,*>*>&*,*,*>**,**,*,>&***,-&:++<:+ ^&-,***>&,*,**,**>*,*,*>&*>*,*,**,*>**,>&*,*=*,***,*,**>&*,>;",
"&>=,*&*,=,=,*,=,=,=,*&=,**,=*,=,=,***&,=,=,**,=*,=,=*&,,,=>-)!+<:++^->=,,,*&=,=,*=,**,=,=,*&**,=,=,*=,**,=*&,=,=,=,*,=,=,**&,=>&",
"&>=,*-,,=,=,,,=,(,=,*-=,,*,=,,=,=,*,*-,=,=,*,,=,,=,=*-,,,=>-)~~<:++[->=,,,*-=,=,,=,,*,=,=,*-,*,=,=,,=,*,,=*-,=,(,=,,,=,=,,*-,=>&",
"->===*,=====,===(===**==,*==,=====*,**=====*,==,=====>====>-)//<:~ ^->=====>====,==,*=====**,*=====,==*,==**===(===,=====,=*==>-",
"-*}=(=((}(}(((}(}(}(}=((((((((}(((((,=(}(}(=((}((}(}(=(((}>>)~~:{/~^>>}(((=(}(}((}((=(}(}(=,(((((}((((((((=}(}(}(}(((}(}((=(=}*-",
">}|11|11|1|111|1|1|1|11|1|1111|11|1|111|1|1111|11|1|11111|}*)~/{]~/_*}|11111|1|11|1111|1|111|1|11|1111|1|11|1|1|1|111|1|11|11|}>",
">,========================================================*>^~/{]//)>*========================================================,>",
">;>&->-->->--->-*->->-->->-&-->-->->&-->->-&-->-->->----->;>^+!{]//)>;>----->->-->--&->->--&>->-->--&->->-->->-*->--->->-->-&>;>",
">}|11|11|1|111|1|1|1|11|1|1111|11|1|111|1|1111|11|1|11111|}>^ +{]!~_>}|11111|1|11|1111|1|111|1|11|1111|1|11|1|1|1|111|1|11|11|}>",
"-,======(((((((((========(((((((((======(((((((((=========*>^++{]+~)>*=========(((((((((======(((((((((========(((((((((======,-",
">>=,,=,,=(((=(((,,=,=,,==,}((((((=,=,,,==(((((((,=,(=,=,,,>>^++{]+ :>>,,,=,=(,=,(((((((==,,,=,=((((((},==,,=,=,,(((=(((=,,=,,=>>",
">,}}}2}}2}2}(}}2}}2}2}}}2}1}2}2}}2}2}(}}2}}2}2}}}2}12}2}}}=>:++{]+ ^>=}}}2}21}2}}}2}2}}2}}(}2}2}}2}2}1}2}}}2}2}}2}}(}2}2}}2}}},>",
"*=2221221212}221221212221212121221212}22122121222121121222=*)!+:{++^*=22212112122212122122}212122121212122212122122}2121221222=*",
"*=22}21221212}2212212122212|2121221212}2212212122212212222=*)~~<:++[*=2222122122212122122}2121221212|2122212122122}21212212}22=*",
"*=12}11211111}2112111112111|1111211111}2112111112111111212(*)//<:~+^*(2121111112111112112}1111121111|1112111112112}11111211}21=*",
"*=1121|11|1|1211|11|1|111|131|1|11|1|1211|11|1|111|11|1111(=_~/:{/~^=(1111|11|111|1|11|1121|1|11|1|131|111|1|11|1121|1|11|1211=*",
"*=1121|11|1|1211|11|1|111|131|1|11|1|1211|11|1|111|11|1111(=^!/{]//)=(1111|11|111|1|11|1121|1|11|1|131|111|1|11|1121|1|11|1211=*",
"*(|11||1|||||11||1|||||1|||3||||1|||||11||1|||||1||||||1|1(=^+!{]//_=(1|1||||||1|||||1||11|||||1||||3|||1|||||1||11|||||1||11|(*",
"=(||1|3||3|3|1||3||3|3|||3|4|3|3||3|3|1||3||3|3|||3||3||||(=[++{]!/)=(||||3||3|||3|3||3||1|3|3||3|3|4|3|||3|3||3||1|3|3||3|1||(=",
"=(||1|3||3|3|1||3||3|3|||3|4|3|3||3|3|1||3||3|3|||3||3||||==^++:{+~)==||||3||3|||3|3||3||1|3|3||3|3|4|3|||3|3||3||1|3|3||3|1||(=",
"*=|11||1|||||11||1|||||1|||3||||1|||||11||1|||||1||||||1|1=*^+ <:++:*=1|1||||||1|||||1||11|||||1||||3|||1|||||1||11|||||1||11|=*",
"*=1121|11|1|1211|11|1|111|131|1|11|1|1211|11|1|111|11|1111=*:++<:  ^*=1111|11|111|1|11|1121|1|11|1|131|111|1|11|1121|1|11|1211=*",
"*=1121|11|1|1211|11|1|111|131|1|11|1|1211|11|1|111|11|1111=>)!+<:++^>=1111|11|111|1|11|1121|1|11|1|131|111|1|11|1121|1|11|1211=*",
">=12}11211111}2112111112111|1111211111}2112111112111111212*>)~~:{++^>*2121111112111112112}1111121111|1112111112112}11111211}21=>",
">=22}21221212}2212212122212|2121221212}2212212122212212222*>_//{]~ ^>*2222122122212122122}2121221212|2122212122122}21212212}22=>",
">=22}21221212}221221212221212121221212}2212212122212212222*>)~/{]/~^>*2222122122212122122}212122121212122212122122}21212212}22=>",
">,}}(}2}}2}2}(}}2}}2}2}}}2}1}2}2}}2}2}(}}2}}2}2}}}2}}2}}}}>>)~~{]//)>>}}}}2}}2}}}2}2}}2}}(}2}2}}2}2}1}2}}}2}2}}2}}(}2}2}}2}(}},>",
"56777777777777777777777777777777777777777777777777}}}22211||1=}-;(}22211||1,}}77777777777777777777777777777777777777777777777765",
"56777777777777777777777777777777777777777777777778}(==}}(2==(*,%@*==}}(2==(>(}87777777777777777777777777777777777777777777777765",
"56777777777777777777777777777777777777777777777778}(==}}(2==(**%@>==}}(2==(>(}87777777777777777777777777777777777777777777777765",
"56777777777777777777777777777777777777777777777778},(*}}(2,}***%@>(*}}(2,}*>,}87777777777777777777777777777777777777777777777765",
"56777777777777777777777777777777777777777777777778}*&>(}(2*&>**%@>&>(}(2*&>>*}87777777777777777777777777777777777777777777777765",
"56777777777777777777777777777777777777777777777778},--(}=2*&-**%@>--(}=2*&->,}87777777777777777777777777777777777777777777777765",
"56777777777777777777777777777777777777777777777778}(>>(},2*&-**%@>>>(},2*&->(}87777777777777777777777777777777777777777777777765",
"56777777777900000000009777777799000000097777777778}(>*=}*2*&>**%@>>*=}*2*&>>(}87777777779000000000a9777777799a00000a977777777765",
"56777777b000000000000000c7779000000000000097777778>>>>>-&%@@@@@@$'>>>-&%@@@'>>8777777b000000000000000b77790000000000000977777765",
"5677779c00000000000000000c9c000000000000000c97777866556d565e)!~:{~!^e565d65566877779c00000000000000000c9c000000000000000c9777765",
"56777b00000000000000000000000000000000000000097777777869876f)~/{]/~_f67896877777779000000000000000000000000000000000000000977765",
"56777c00000000000000a79c000000000000000000000c7777777869876f^~/{]//)f6789687777777c00000000000000a79c000000000000000000000c77765",
"56779000000000000000a777779c0000000000000000009777777869876f^+!{]//)f6789687777779000000000000000a777779c00000000000000000ag7765",
"56779000000000000000a7777777779c000000000000009777777869876f^ +{]!~_f6789687777779000000000000000a7777777779c0000000000000097765",
"56779000000000000000a77777777777777c00000000009777777869876f^++{]+~)f6789687777779000000000000000a77777777777777c000000000097765",
"56779000000000000000a7777777779c00000000000000977777786c876f^++{]+ :f678c687777779000000000000000a7777777779c0000000000000097765",
"56779000000000000000a777779c0000000000000000009777}}}1|111|||1}-;(}1|111|||2}}7779000000000000000a777779c00000000000000000097765",
"56777c00000000000000a79c000000000000000000000c7778}((=}((}==((,%@*(=}((}==(=(}8777c00000000000000a79c000000000000000000000c77765",
"56777b00000000000000000000000000000000000000097778}((=}((}==((*%@>(=}((}==(=(}8777b000000000000000000000000000000000000000977765",
"5677779c00000000000000000c9c000000000000000c977778},(*}((},(*(*%@>(*}((},(*=,}877779c00000000000000000c9c000000000000000c9777765",
"56777777b000000000000000c7779000000000000097777778}*;>(=(}*@>(*%@>;>(=(}*@>=*}8777777b000000000000000c77790000000000000977777765",
"5677777777790000000000977777779c000000097777777778},#-(=(},#-(*%@>#-(=(},#-=,}877777777790000000000977777779c0000000977777777765",
"56777777777777777777777777777777777777777777777778}(%-(=(}=%-=*%@>%-(=(}=%-,(}87777777777777777777777777777777777777777777777765",
"56777777777777777777777777777777777777777777777778}(&>==(}=&>=*%@>&>==(}=&>,(}87777777777777777777777777777777777777777777777765",
"5677770007777700077777777b00a977777779c00000077778>>>>>-&%@@@@@@$'>>>-&%@@@'>>877770007777700077777777900c977777779c000000777765",
"567777000777770007777777c00000977777b000000007777866685d565e^+ <:+^_e565d5866687777000777770007777777c00000977777b00000000777765",
"56777700077777000777777c009g00c77777a0097777777777777869876f:++<:  ^f6789687777777700077777000777777c009g00c77777c00977777777765",
"5677770007777700077777900c7g0007777900c77777777777777869876f)!+<:++^f678968777777770007777700077777900c7g0007777900c777777777765",
"5677770007777700077777900c000007777b00c77777777777777869876f)~~:{++^f678968777777770007777700077777900c000007777h00c777777777765",
"5677770007777700077777c009i00007777b00c77777777777777869876f_//{]~ ^f678968777777770007777700077777c009i00007777b00c777777777765",
"567777c009777900c7777900c77g0007777900c7777777777777786c876f)~/{]/~^f678c6877777777c009777900c7777900c77g0007777900c777777777765",
"567777900c979c0097777c00b77g00077777a0097777777777}}}11|||1122}-;(}11|||112}}}77777900c979c0097777c00b77g00077777a0a977777777765",
"5677777c0000000c77777c00977g00077777b0000000077778}(==}(((==(((%@===}(((==(=(}877777c0000000c77777c00977g00077777b00000000777765",
"56777777b00000b77777700c777g0007777779c00000077778}(==}(((==((=%@,==}(((==(=(}8777777b00000b77777700c777g0007777779c000000777765",
"56777777777777777777777777777777777777777777777778},(*}((},(*(=%@,(*}((},(*=,}87777777777777777777777777777777777777777777777765",
"56777777777777777777777777777777777777777777777778}*#>(=(}*@>(=%@,#>(=(}*@>=*}87777777777777777777777777777777777777777777777765",
"56777777777777777777777777777777777777777777777778},%-(=(},#-(=%@,%-(=(},#-=,}87777777777777777777777777777777777777777777777765",
"56777777777777777777777777777777777777777777777778}(%-(=(}=%-==%@,%-(=(}=%-,(}87777777777777777777777777777777777777777777777765",
"56777777777777777777777777777777777777777777777778}(&>==(}=&>==%@,&>==(}=&>,(}87777777777777777777777777777777777777777777777765",
"56777777777777777777777777777777777777777777777778>>>>>-&%@@@@@@$'>>>-&%@@@'>>87777777777777777777777777777777777777777777777765",
">,}}(}2}}2}2}(}}2}}2}2}}}2}1}2}2}}2}2}(}}2}}2}2}}}2}}2}}}}>>_!~<:! ^>>}}}}2}}2}}}2}2}}2}}(}2}2}}2}2}1}2}}}2}2}}2}}(}2}2}}2}(}},>",
">,22}21221212}221221212221212121221212}2212212122212212222*>)~/:{~/^>*2222122122212122122}212122121212122212122122}21212212}22,>",
">,22}21221212}2212212122212|2121221212}2212212122212212222*>)~/{]/~_>*2222122122212122122}2121221212|2122212122122}21212212}22,>",
">,12}11211111}2112111112111|1111211111}2112111112111111212*>^~/{]//)>*2121111112111112112}1111121111|1112111112112}11111211}21,>",
"*=1121|11|1|1211|11|1|111|131|1|11|1|1211|11|1|111|11|1111,*^+!{]//)*,1111|11|111|1|11|1121|1|11|1|131|111|1|11|1121|1|11|1211=*",
"*=1121|11|1|1211|11|1|111|131|1|11|1|1211|11|1|111|11|1111,*^ +{]!~_*,1111|11|111|1|11|1121|1|11|1|131|111|1|11|1121|1|11|1211=*",
"*=|11||1|||||11||1|||||1|||3||||1|||||11||1|||||1||||||1|1(,^++{]+~),(1|1||||||1|||||1||11|||||1||||3|||1|||||1||11|||||1||11|=*",
"=(||1|3||3|3|1||3||3|3|||3|4|3|3||3|3|1||3||3|3|||3||3||||(,^++{]+ :,(||||3||3|||3|3||3||1|3|3||3|3|4|3|||3|3||3||1|3|3||3|1||(=",
"=(||1|3||3|3|1||3||3|3|||3|4|3|3||3|3|1||3||3|3|||3||3||||(,:++{]+ ^,(||||3||3|||3|3||3||1|3|3||3|3|4|3|||3|3||3||1|3|3||3|1||(=",
"*=|11||1|||||11||1|||||1|||3||||1|||||11||1|||||1||||||1|1(,)!+:{++^,(1|1||||||1|||||1||11|||||1||||3|||1|||||1||11|||||1||11|=*",
"*=1121|11|1|1211|11|1|111|131|1|11|1|1211|11|1|111|11|1111(*)~~<:++[*(1111|11|111|1|11|1121|1|11|1|131|111|1|11|1121|1|11|1211=*",
"*=1121|11|1|1211|11|1|111|131|1|11|1|1211|11|1|111|11|1111(*)//<:~+^*(1111|11|111|1|11|1121|1|11|1|131|111|1|11|1121|1|11|1211=*",
"*=11}2112111112111|1111211111}21121111}211111}211211212112,*_~/:{/~^*,211212112112}111112}11112112}1111121111|1112111112112}11=*",
"*=1}2212212122212|2121221212}22122121}221212}22122121211}2,*^!/{]//)*,2}11212122122}212122}12122122}2121221212|2122212122122}1=*",
"*,1}221221212221212121221212}22122121}221212}2212212122221,*^+!{]//_*,1222212122122}212122}12122122}212122121212122212122122}1,*",
">,2(}2}}2}2}}}2}1}2}2}}2}2}(}}2}}2}2(}}2}2}(}}2}}2}2}}}}}2**[++{]!/)**2}}}}}2}2}}2}}(}2}2}}(2}2}}2}}(}2}2}}2}2}1}2}}}2}2}}2}(2,>",
">}|11|11|1|111|1|1|1|11|1|1111|11|1|111|1|1111|11|1|11111|}*^++:{+~)*}|11111|1|11|1111|1|111|1|11|1111|1|11|1|1|1|111|1|11|11|}>",
">,========================================================*>^+ <:++:>*========================================================,>",
">;>&->-->->--->-*->->-->->-&-->-->->&-->->-&-->-->->----->;>:++<:  ^>;>----->->-->--&->->--&>->-->--&->->-->->-*->--->->-->-&>;>",
">}|11|11|1|111|1|1|1|11|1|1111|11|1|111|1|1111|11|1|11111|}>)!+<:++^>}|11111|1|11|1111|1|111|1|11|1111|1|11|1|1|1|111|1|11|11|}>",
"-,======(((((((((========(((((((((======(((((((((=========*>)~~:{++^>*=========(((((((((======(((((((((========(((((((((======,-",
"-&>&->---,,,,,,,-->->-->--,,,,,,,-->&-->-,,,,,,,->->-----&#>_//{]~ ^>#&----->->-,,,,,,,->--&>--,,,,,,,-->-->->--,,,,,,,--->-&>&-",
"->=*==,=-,>,,,>,-====,===-,>,,,>,-==*,==-,>,,,>,-====,====>-)~/{]/~^->====,====-,>,,,>,-==,*==-,>,,,>,-===,====-,>,,,>,-=,==*=>-",
"&>=*,=,,-,,,,,,,-,=,=,,=,-,,,,,,,-,=*,,=-,,,,,,,-=,=,,,,,=>-)~~{]//)->=,,,,,=,=-,,,,,,,-=,,*=,-,,,,,,,-,=,,=,=,-,,,,,,,-,,=,*=>&",
"&>=*,=*,&&&&>&&&&,=,=*,=,&&&&>&&&&,=**,=&&&&>&&&&=,=,*,,,=>-^!~{]~/)->=,,,*,=,=&&&&>&&&&=,**=,&&&&>&&&&,=,*=,=,&&&&>&&&&,*=,*=>&",
";>,>*,***#&>*>&#**,*,**,**#&>*>&#**,>**,*#&>*>&#*,*,*****,-&^ ~{]~~_&-,*****,*,*#&>*>&#*,**>,**#&>*>&#**,**,*,**#&>*>&#***,*>,>;",
";>,>*,****j>,,j*,*,*,**,***j>,,j*,*,>**,**j>,,j*,,*,*****,-&^  {]~/)&-,*****,*,,*j,,>j**,**>,*,*j,,>j***,**,*,*,*j,,>j****,*>,>;",
";-*>**>**,k>,,k*,****>****,k>,,k*,**>>***,k>,,k*,****>****-;^++{] ~);-****>****,*k,,>k,***>>**,*k,,>k,****>****,*k,,>k,**>**>*-;",
"%-*->*>>*,k>,,k*,>*>*>>*>*,k>,,k*,>*->>**,k>,,k*,*>*>>>>>*&;^++:{++:;&*>>>>>*>*,*k,,>k,**>>-*>,*k,,>k,*>*>>*>*>,*k,,>k,*>>*>-*-%",
"%-*->*->*,k>,,k*,>*>*->*>*,k>,,k*,>*-->**,k>,,k*,*>*>->>>*&;:++<:+ ^;&*>>>->*>*,*k,,>k,**>--*>,*k,,>k,*>*>-*>*>,*k,,>k,*>-*>-*-%",
"%&>&>>->*,k>,,k*,>>>>->>>*,k>,,k*,>>&->>*,k>,,k*,>>>>->>>>&%)!+<:++^%&>>>>->>>>,*k,,>k,*>>-&>>,*k,,>k,*>>>->>>>,*k,,>k,*>->>&>&%",
"%&>&-(--**}(,(}*,->--(->-**}(,(}*,->-(&>**}(,(}*,>->%(&-->;%)~~<:++[%;>--&%(>->,*}(,(}**>&-(>-,*}(,(}**->--(->-,*}(,(}**---(&>&%",
"%;-;#@&-*->*>*>-,---%'---*->*>*>-,--#@&-*->*>*>-,---#.&---;%)//<:~ ^%;---&#.---,->*>*>-*-&#@--,->*>*>-*---%'---,->*>*>-*-&#@;-;%",
"#--;##&&*->>>>>-,&-&#@&-&*->>>>>-,&-@@&-*->>>>>-,-&-#$&&&-%%)~~:{/~^%%-&&&#$-&-,->>>>>-*-&@@-&,->>>>>-*&-&#@&-&,->>>>>-*&&##;--#",
"#>>-##->*&->->--,>>>##>>>*&->->--,>>@@&>*&->->--,>>>#@&>>>%.....+  ..%>>>&#@>>>,-->->-&*>&@@>>,-->->-&*>>>##>>>,-->->-&*>-##->>#",
">((=>>(((*-----*}(((>>((((*-----*(((--(((*-----*((((>>((((.%%%%.+##%%.((((>>((((*-----*(((--(((*-----*((((>>(((}*-----*(((>>=((>",
" .........................................................%,>>&$.;->,%......................................................... ",
"@@@#####@@@##############################################%,&&&%$.#;&&,%##############################################@@@#####@@@",
"@%&*=-%&&&&*=-%&&&*=-%&&&*=-%&&&*=-%&&&*=-%&&&*=-%&&&*=-%>&&&&%@$#;&&&>*=-%&&&&*=-%&&&*=-%&&&*=-%&&&*=-%&&&*=-%&&&*=-%&&&*=-%;%@",
"$%&#&#%&&&&#&#%&&&#&#%&&&#&#%&&&#&#%&&&#&#%&&&#&#%&&&#&#%;&&&&%$.#;&&&&#&#%&&&&#&#%&&&#&#%&&&#&#%&&&#&#%&&&#&#%&&&#&#%&&&#&#%;%$",
"@%&@$@%&&&&@$@%&&&@$@%&&&@$@%&&&@$@%&&&@$@%&&&@$@%&&&@$@%;&&&&%@$#;&&&&@$@%&&&&@$@%&&&@$@%&&&@$@%&&&@$@%&&&@$@%&&&@$@%&&&@$@%;%@",
"$;;%%%%;;;;%%%%;;;%%%%;;;%%%%;;;%%%%;;;%%%%;;;%%%%;;;%%%%;;;;;%@$#%;;;;%%%%;;;;%%%%;;;%%%%;;;%%%%;;;%%%%;;;%%%%;;;%%%%;;;%%%%;;$",
"@##############################################################@$@@############################################################@",
" ...............................................................+  ............................................................ "};
