/* XPM */
static char * general_xpm[] = {
"256 64 85 1",
" 	c None",
".	c #E88C58",
"+	c #C87C4C",
"@	c #B47044",
"#	c #A86840",
"$	c #A0643C",
"%	c #9C6038",
"&	c #905C34",
"*	c #FC7C7C",
"=	c #BC0000",
"-	c #880000",
";	c #744C28",
">	c #545454",
",	c #DCDCDC",
"'	c #989898",
")	c #383838",
"!	c #885830",
"~	c #707070",
"{	c #484848",
"]	c #2C2C2C",
"^	c #000034",
"/	c #000000",
"(	c #80502C",
"_	c #00002C",
":	c #202020",
"<	c #FCF420",
"[	c #5C4020",
"}	c #382C14",
"|	c #DC8854",
"1	c #9C9C00",
"2	c #D08050",
"3	c #FCBC9C",
"4	c #C0C0C0",
"5	c #000070",
"6	c #CCC400",
"7	c #FCB080",
"8	c #FCB890",
"9	c #FCC4A4",
"0	c #FC9C60",
"a	c #FCA470",
"b	c #FCA85C",
"c	c #BC7848",
"d	c #F0945C",
"e	c #B4B4B4",
"f	c #ECECEC",
"g	c #FCFCFC",
"h	c #D0D0D0",
"i	c #C80000",
"j	c #980000",
"k	c #7C7C7C",
"l	c #7C0000",
"m	c #543C1C",
"n	c #6C4824",
"o	c #580000",
"p	c #B00000",
"q	c #D40000",
"r	c #700000",
"s	c #483818",
"t	c #00B4B4",
"u	c #008484",
"v	c #007070",
"w	c #004040",
"x	c #006C6C",
"y	c #005858",
"z	c #006060",
"A	c #006464",
"B	c #20FCFC",
"C	c #009C9C",
"D	c #00CCCC",
"E	c #00E4E4",
"F	c #0000D4",
"G	c #E4D800",
"H	c #FCF400",
"I	c #000088",
"J	c #40FCFC",
"K	c #7CFCF8",
"L	c #848400",
"M	c #706C00",
"N	c #B4AC00",
"O	c #403018",
"P	c #00001C",
"Q	c #000040",
"R	c #00004C",
"S	c #646464",
"T	c #404040",
"                                                                                                                                                                                                                                                                ",
"                                                                                        .........+@@@@                                                                                                                  .........+@@@@                          ",
"                         .........+@@@@                                               ..+++++++++@@@#$$%&                                               .........+@@@@                                                ..+++++++++@@@#$$%&                       ",
"                       ..+++++++++@@@#$$%&                                           .++*===----------;$%&                                            ..+++++++++@@@#$$%&                                            .++*===----------;$%&                      ",
"                      .++*===----------;$%&                                         ++#=->>>>,,'')))))--;!&                                          .++*===----------;$%&                                          ++#=->>>>,,'')))))--;!&                     ",
"                     ++#=->>>>,,'')))))--;!&                                        +#=>>>>>>~''~)))))))-;!                                         ++#=->>>>,,'')))))--;!&                                         +#=>>>>>>~''~)))))))-;!                     ",
"                     +#=>>>>>>~''~)))))))-;!                                        #=>>>{)]^^^^////]))))-(                                         +#=>>>>>>~''~)))))))-;!                                         #=>>>{)]^^^^////]))))-(                     ",
"                     #=>>>{)]^^^^////]))))-(                                        #->{]_______:::///:])-;                                         #=>>>{]]^^^^////]))))-(                                         #->{]_______:::///:])-;                     ",
"                     #->{]_______:::///]])-;                                        !>>]////////////////]);                                         #->{]_______:::///:])-;                                         !>>]////////////////]);                     ",
"                     !>>]////////////////]);                                         >.<##[}}[#|#&[}}##12)                                          !>>]////////////////]);                                          >.<##[}}[#|#&[}}##12)                      ",
"                      >.<##[}}[#|#&[}}##12)                                          >.<3345}}[![}}5'2#62)                                           >.<##[}}[#|#&[}}##12)                                           >.<3345}}[![}}5'2#62)                      ",
"                      >.<3345}}[![}}5'2#62)                                           #789|||00.2||||ab2#                                            >.<3345}}[![}}5'2#62)                                            #789|||00.2||||ab2#                       ",
"                       #789|||00.2||||ab2#                                            .799997997c..737ad2                                             #789|||00.2||||ab2#                                             .799997997c..737ad2                       ",
"                       .799997997c..737ad2                                             99997c22$$ccd77ad                                              .799997997c..737ad2                                              99997c22$$ccd77ad                        ",
"                        99997c22$$ccd77ad                                              9997c.002...caaad                                               99997c22$$ccd77ad                                               9997c.002...caaad                        ",
"                        9997c.002...caaad                                              997.2effghee2.aad                                               9997c.002...caaad                                               997.2effghee2.aad                        ",
"                        997.2effghee2.aad                                             ]097.2ddddddda2|.2/                                              997.2effghee2.aad                                              ]097.2ddddddda2|.2/                       ",
"                       ]097.2ddddddda2|.2/                                      i4i4i ]|0.2a73337aa.2@2@/ jkjkj                                       ]097.2ddddddda2|.2/                                       i4i4i ]|0.2a73337aa.2@2@/ jkjkj                 ",
"                       ]|0.2a73337aa.2@2@/-k-k                                i4lllll&]]|@&27337aa2@(mnn/(oooookj                                     ]|0.2a73337aa.2@2@/                                     i4lllll&]]|@&27337aa2@(mnn/(oooookj               ",
"                ppepep&]]|@&27337aa2@(mnn/oooo--                             ill////n&]]]nm#&&&&&((((mm//n(((((ooj(                              q'q'q]]|@&27337aa2@(mnn/-k-k--                              ill////n&]]]nm#&&&&&((((mm//n(((((ooj(             ",
"               pepplll&]]]nm#&&&&&((((mm//;;;;oo!(                        |22l&&:::/&&(]]]]]n#####nm/////&$$$$$((o((((                          qrrrrr]]]nm#&&&&&((((mm//oor--k-n                         |22l&&::::&&(]]]]]n#####nm/////&$$$$$((o((((          ",
"            @@pppll///&(]]]]]n#####nm/////&&&&&&!(((                    +2||+||#::::&|$(]4]]::/::::://'/(&$###$$$%&&!&!!                       rrr::///]]]]]n#####nm/////noooo---n(                     +2||+||#]]]]&|$(]4]]::/::::://'/(&$###$$$%&&&&!!        ",
"          @+cc#p;;m///n#(]4]]::/::::://'/($$$$$$$(&!!(                +||||||+|#)]]]n2|$$]]4]//([s[:'//(%#)tuv):$%%!$%&&!                    @++||::]]$m]4]]::/::::://'/$$$$(;o-m[n!!(                +||||||+|#)]]])2|$$]]4]//([s[:'//(%#)tuv):$%%%$%&&!       ",
"         ++||2c|+![]//]($(]]4]//([s[:'//($$$$$$$$%(&&!(              2|||||||@|#&]:::(2c|$]]/n(#!#():(%cc)t::uw)::uuuu%%&!                 +++++||;]::[$m]]4]//([))]]]))):@@$!(nn[$$$!(              2|||||||@|#&]]::)2c|$]]/n(#!#():(%cc)t::uw)::uuuu%%&!      ",
"        +2|||22c+#;)///]!##]]/n(#!#():($$$$$$$$$$%(%%&!(            2|||||2+@@2##)::::#2|||||||+$||@{]jl))u:)uw))::xxww$%&(              ++||||#++!:::/2$$]]/n(#tuv)]:::v::::v@22cc$$$!!            2|||||2+@@2##)::::#2|||||||+$||@{]jl))u:)uw))::xxww$%&(     ",
"       22||||22#++$[]///]!@@#####&%##{]jl]{jl{l]$$({{tv[(          |||||||2++(#$$c]:://#+|||||||$|||{]jtuv:uu:tuvw:]yzww$&!             @+||||+#22u:::/&++++++#t:tyw)]]::]::::yy22+c@$&!(          |||||||2++(#$$c::://#+|||||||$|||{]jtuv:uu:tuvw:]yzww$&!     ",
"      +||||||22#(cc!m]///]n######&%##{]jl]{jl{l]${{)t::y]]         ||||||22c$#((%%(:u///!#+|||||$|||%ct::uw::t::uyw:AyAw]&!!           @++||++c#tBwu////(+2222#t:Cyw))]]:]]:::wyy22+c@$%!(         ||||||22c$#((%%(:u///!#+|||||$|||%ct::uw::t::uyw:AyAw]&!!    ",
"      ||||||22+#%(%$!n]////n#####%!##%c+22+c@#$&{)]]v:)y]]]       ||||2222c@$((wwwvtwvu//m#+++++$+++%%u:)uwyyu:)uyw:y]yw]&!%          @@++++wwyuBuBwv////(+22CvvCy:tuvw]::]::::www2+c@$%!(        ||||2222c@$((wwwvtwvu//m#+++++$+++%%u:)uwyyu:)uyw:y]yw]&!%    ",
"     #||||||2+c#%!(%$!n]////]!###%!##%%%&&&&&&({)tv]]yy]]tvs      cccc|cc@@$$(wDDDtCvtwv//m(&ccc%ccc%@:uuwy)/:uuww::]]yw]$&c!         #$$$#wyCBDDBwwv]////(+C:tyw]t:tyyw]:w]:w:www22+c$%!(        cccc|cc@@$$(wDDDtCvtwv//m(&ccc%ccc%@:uuwy)/:uuww::]]yw]$&c!   ",
"     c|||||+cc#%%;m((%!n]/////n%#$!##%@@{{{@!#${t::y]]]]t::y     |||||c##($$(wEvCDDCtCvy]///];&#%#cc%@::::y)/y::::::]]ww]ccc%       ||++++wBCyCtCCDC+[]////;C:Cyw]t)Cyyw]:w]:w:))))2+c@%%&(      |||||c##($$(wEvCDDCtCvym////;&#%#cc%@::::y)/y::::::]]ww]ccc%   ",
"     c+222+#%%%%;m;(&&%$Cvw//C//n$!##%@@{{{@&#{)v:)y]yy]v:)y]    |ccc$ccc$(&&DEBvvEDDCv(]]////[!;!##%@:tuv:yy:tuvw::]]w]]&&&c       ++++@@yDBCBCBBttCc[]////)Cywy::Cwww:]:]]:]:))))2+c@$%&(      |ccc$ccc$(&&DEBvvEDDCv((m////[!;!##%@:tuv:yy:tuvw::]]w]]&&&c   ",
"    cc||||||cc(%(m;;(wwCCCvvCyy//m(##%@@@F@@&#{]]yy]y//y]yy]]    c|||<GGGG$&&DDEECvEEDtCC!]/////][!!&#t::uw::t::uyw:w]]]]2@@!!     +++HG66uDDDCByywwvc+n]/////):y))/y)]]]:]]:::))))2+c@$%&(      c|||<GGGG$&&DDEECvEEDtCC!m/////[[!!&#t::uw::t::uyw:w]]]]2@@!!  ",
"    c|||+ccc###(;;;;wwCDDDCCvww////m;&#@FII@&${]]]]]y//y]]]]]    |||<<<||<a77aDDDJKJJtCCCc!n]//////][&u:)uwtuu:)uyw:w]]]]|22c&     cHHGHGG6CtCDvwwwwvcc#(]///Cvv:::tvvw]]::]:::]]]]$$$@@$&(      |||<<<||<a77aDDDJKJJtCCCc!nm//////[[&u:)uwtuu:)uyw:w]]]]|22c&  ",
"    c||+||||||+$&;;wwCDuwuDtCuvw///Cm(&#@I@$&&{]]tv]]yy]]tv]]    ||<<<|<<733333DDEJttEEtttc!!n]////////uuwt::uuuww:]]]]]1|22c$     cHHGHGG6CtCtvwwwwvcc#%(n]C:tywyt:tyyw]:w::w:]]]$2222@@&(      ||<<<|<<733333DDEJttEEtttc!!nm////////uuwt::uuuww:]]]]]1|22c$  ",
"    c|+|||||GGGGG&(wCDEEuwwuDtCCvwCyy][[n!!!(;{)t::y]]]]t::y]    2|<<|<<733333,''CttEKuwwyu//<<<<66L////::u:)uw))::]]]MGGN@@$$     HGGH|7788CCCvwwwy######!;C:Cytvt)Cyyw]:w::w:]]]2222222&(      2|<<|<<733333,''CttEKuwwyu//<<<<666////::u:)uw))::]]]MGGN@@$$  ",
"    #c|||||G666666;wtttEEEuwwuDtCCvww//////]][;{v:)y]tv]v:)y      c662<333300,'>>>ttEuwwwwv//<6666LL/////::uuw):::s%2@@!NN%%&$     GHH|7888,~~>vvvv;;;((((!!!Cwt:tyCwww::w::]::]]GGG2@2!2&(       c662<333300,'>>>ttEuwwwwv//<6666LL!!##(::uuw):::s%2@@!NN%%&$  ",
"     c||||G6666|NNNvCCttDEEEuwwuDttCyw/////////)]yy]t::y]yys      %11c33333dd>>>>ECttvwwwyv//LLLLLLL///////:::::7999d2@[11%%!(     N6c7888,~>>>a  ///////////<<t:Cyw]]::::::::]]626662@2!!(       %11c33333dd>>>>ECttvwwwyv//LLLLL%%cccccc$:::::7999d2@[11%%!(  ",
"     #c++|G666|N++888888tttDEEuwuEEDCuy/////////]]]]v:)y]]](        1%33330||%;ccccccCyvvt#&&$$$(%%&&&!!!(((;;nn7999d2@[11!!(      L6%88dd|>>>>   ///////////666Cyw]:::]]::::][%N+NNN22%@!(         1%33330||%>cc$cccCyvvt#&!!!($$$cc$$$$$$$$&&!7999d2@[11!!(   ",
"      ##+c6N6+N+88888888aCChtDDEEEEDCCuv/////////]]]]yy]]]L           |3330|||c@@@%%%%%%%$#$$&$(n$$$$$$$%%%%%%&&7999d2@[11((        N;8d|||+++    /;!%$$$$$%!LLLL:::::::tyy#%%%[1c1112&@%!            |3330|||c$$$$$$$$%%%%%%%&n($c$22222222c$$!7999d2@[11((    ",
"       %%%111cNc88888883dhhkCtttDEEtCuDDw%%%%%%%%!7]]]]]c@M            ||||cccccc22222ccc&&##$(nn$%%%%&&&!!!((;;7999d2@[nM(         L;a|||++     !!#ccccccccc##%%nn((((9#yy#%%%[1#111#$!!(             ||||ccc@##$$$$$$%%%%%%%&n%(c22$#####$%!!!7999d2@[nM(     ",
"         %LLL%1a888888dhhkk{uuuCtttCuEwDDtC|||++c%777a|cc@                   c222222222222@&&(;(n$$$$$$$$$%%%%%%77ccccnnM            L;d+++      ##cc$$$$$$$$#+cc%n&&&&998a.%%%[L$LLL$&(((                    @cc@#$$$$%%%%%%%&n%%$2$$cccccccccc77ccccnnM       ",
"           LL%Laaa88aa|{{{{$$$uuuCCCuDEEuwy$$&&cc@7777ccc@                  cc22222222222+2c@$!([%$$$$$$$$%%%%%%&!                              #cc$$@cccc2222&&&@n&&&&998ad%%%)&%LL%!!((                     @cc@#$$$$%%%%%%%&n%##$cc22222222+cc#(             ",
"             %L(aaa|||++$$$$$$$$uuuuuwttwyC|222&&c$77a|cc                   c+22222222222+2c@$&![[nnn(((!!!!!!(((;n                             cc$@@ccc++|||2c@@[([!$%%2222@%%)!MM!!                        (@&&&&!!((((((((nmn%##cc+22222222++c#&(            ",
"                c2a|||+&!((;;;[[n!!@uuCCwC|||2222&$                        cc+2222222222222c@$&![[n!%%########$%&(n                             c$@cc+2||||||2ccc$[ssn;((((;;n){[[m                          (&$$#ccccc###%%!(nm%##c+2222222222+c@&(            ",
"               c222cc#$$%%%!!(;nn!@+||uuu|||||222@&                        ##+22222222222+c@$&!([n(!%###@ccc@@$%&(n                             $ccc++2||||||22cc$&[n(!&&&&&&&&!(nm                          ($ccc22222cccc%!(nm%##c+2222222222++c#(            ",
"               c22cc##$$%%&!!(;nn+++||||||||||||2@$                       @2222++++++++222@$&((([n(!%###@cccc@$%&(n                             ccc+|||||||||22cc$&[n(!&%%%&&&&!(nm                          !$@@c22222222c$!(nm%##@c22222222222+c#(            ",
"               c22cc##$$%%&!!(;n;+++||||||||||||2c$                       @222+c@@@@@@c+++2ccc(;[n(!%###@cccc@$%&(n                             +++2|||||||||22cc$&[n(!&%%%%%&&!(nm                          &$@@+22222222c$!(nm %@cc222++++++22cc#(            ",
"               ###c###$$%%&&!(;n$++2||||||||||22c$&                       @222c@######@@@c+cc;(;[n(!%###@cccc@$%&(n                             ++22|||||||||22cc$&[n(!&%%%%%&&!(nm                          &#@@+22222222c$%(nm %22222+cccccc++222c#           ",
"              2222@###$$$%&&!(;n$++|||||||||||||+$&                        ##$%#$$$$$$#$$$ccc;;n[n(!&%$#@cccc@$%%(n                             ++2||||||||||22cc$$[n(!&%%%%%&&!(;m                          &#@@222222222c$%(nm ((222+c######c+c222@           ",
"              @2222##$$$$$$$$&&[@++2||||||||||||+$&                        &&%%%%%%%%%%%%&$$$&[[[n(!&%$#@cccc@@@$(n                            $222||||||||||22cc$$[(&$%%%%%%&&&&&!(                         &#++222222222ccc$(n [$222c@######@cc22@(           ",
"               #$$&$$$$$$$$$$&&;@++c||22222222ccc#&                          ;&&&&&&&&&&&&(;;[//[(%%%%$#@cccc@@@@#%(                           $++cc||22222222ccc#$;&&&%%%%%%&&((&&(                        +++22222222222ccccc% [c$$$$$#######(%&&             ",
"               &&&&%%%%%%&&$$nn/$++|2#++2222+@22||c                          /;n!!!!!!!(((;[[///&%%%&%##@@cc@@%%@#$$&                          $22|2##+2222++@2|||@;;(n&&&&&&&!;;;((                        ++2@@%@2222222%c##%% /}[(((%$$$$$$$$(n/             ",
"                 [&(((((((((n[//|||2#%cc+2++c$%%@cc#                          //[n;;;;;;n[///// &&&&(%########&(&&$$&                          |||2#%%c++++cc@%@@2|#/On;n;;;;;nnn[O/                        ++@$(%$#######$&&&&& //}[(!!!!!!!!!(n/              ",
"                 /_[nnnnnnn[////|||#%#ccc2ccc$$$(%%%                           __////////////// (&;;(%$$$$$$$$%((&&&;                          |||#(##c@@@@@@@$((@@%//Os[[[[[[[[sO/                         !&&((&########$&(;;(  PP/}s[[[[[ss}///              ",
"                  Q___PPPPP/////(##%#c+++2###$$$$(((                           RRQ_////////////  _^^QQ^^_PPPP/////;;                           (&&($$$@@@@###@$&(;(!^//OOOOOOOOO///                          m_^^QQQQQ^___P////   P^PP///////////               ",
"                   Q____PPPPP////__^QQ^^_PPPP/////                              RQ____/////////  _^^QQ^^_PPPP/////                               //^QQQQ^^^PP/////(^^^PPPPPPP/////                            _^^QQQQQ^___P////   ^P^^^^___PP///                ",
"                   //////////////__^QQ^^_PPPP/////                              _QQ___/////////  /^^QQ^^_PPPP/////                               PP^QQQQ^^^PP///// ^^^^^^^____P///                            /^^QQQQQ^___P////   /^PPPP////////                ",
"                   ___/////////////^QQ^^_PPPP/////                               ____//////////   PP^^PPPP///////                                PP^QQQQ^^PPP///// ^^^_PPPPPPP////                            /__^QQQ^_^^P////    /^PPPP////////                ",
"                  _________PP//// /_^^^^_PPP/////                                 ////////////{{{PPPPP////////////                                /P^^^^PPPPP////   ^PPPPPPPP////                              //PPPPPP///////    /^^^PPPP//////                ",
"                  _QQQQ____PPPP/{{P/_///////////PP{{{{{{{>>>S                      //////////)]]PP^^QRQQQQ^^_PPPP/))))))))){>SS                  /////////////////{>>///////////{{{{{{{{{>>>S                 /__^QQQQQ^^^_P///    ////////////{{{{{{{{{{{{{>SS ",
"                   ////////////]]P/^QQQQ^____P///P))))))))){>SS                      SSSSSS)))]]P^QQQQQQQQQQ^___P/]]]]]]])){>>S                 /^^^QQQQQQ^___////))))))))))))))))))))))))){>SS               /^^QQQQQQ^^^^_PP/{{{{{]]//////])))))))))))))T{>>S ",
"                      SSS>>>{{{))/^_______PPPPPP/P]]]]]]])){>>S                       SSS>>{{{))P^^^^^^^^^^^^___PP]]])))){{{>SS                 /^^QQQQQQQQ^^__///]]]]]]]]]]]]]]]]]]]]]]])){>>S               /_____________PP/]]]]]]]]]]]]]]]]]]]]]]]]])TT{>SS ",
"                         >>>>>>{{/PPPPPPPPPPPP///P]]]]))){{{>SS                          >>>>>{{{PPPPPPPPPPPPPPPP)))){{{{>>>{{                  P^^____________///]]]]]]]]]]]]]]]]]]])))){{{>SS                ///////////////]]]]]]]]]]]]]]]]]]]]])))){{>>SSS  ",
"                               >>>//////////////P))))){{{>>>                                                                                     PPPPPPPPPPPPPP//)))))))))))))))))))){{{{>>>                                                                    "};
