/* XPM */
static char * generaldeath_xpm[] = {
"256 64 90 1",
" 	c None",
".	c #FC9C60",
"+	c #DC8854",
"@	c #B47044",
"#	c #905C34",
"$	c #BC0000",
"%	c #980000",
"&	c #880000",
"*	c #700000",
"=	c #484848",
"-	c #545454",
";	c #A8A8A8",
">	c #8C8C8C",
",	c #7C7C7C",
"'	c #707070",
")	c #383838",
"!	c #9C6038",
"~	c #000000",
"{	c #80502C",
"]	c #BC7848",
"^	c #6C4824",
"/	c #744C28",
"(	c #885830",
"_	c #A0643C",
":	c #E4D800",
"<	c #FCC4A4",
"[	c #FCA470",
"}	c #5C4020",
"|	c #382C14",
"1	c #FCA85C",
"2	c #646464",
"3	c #DCDCDC",
"4	c #000064",
"5	c #B00000",
"6	c #A86840",
"7	c #FCB890",
"8	c #E88C58",
"9	c #FCB080",
"0	c #989898",
"a	c #EC0000",
"b	c #D08050",
"c	c #FC5C5C",
"d	c #D0D0D0",
"e	c #ECECEC",
"f	c #C0C0C0",
"g	c #D40000",
"h	c #4C0000",
"i	c #640000",
"j	c #FC2020",
"k	c #7C0000",
"l	c #B4B4B4",
"m	c #E00000",
"n	c #403018",
"o	c #F0945C",
"p	c #543C1C",
"q	c #C87C4C",
"r	c #FC0000",
"s	c #A40000",
"t	c #C80000",
"u	c #00001C",
"v	c #FCD4BC",
"w	c #2C2C2C",
"x	c #FCF400",
"y	c #FC7C7C",
"z	c #FC9C9C",
"A	c #FC4040",
"B	c #CCC400",
"C	c #FCD8C4",
"D	c #B4AC00",
"E	c #0000B0",
"F	c #9C9C00",
"G	c #706C00",
"H	c #400000",
"I	c #FCBC9C",
"J	c #848400",
"K	c #580000",
"L	c #000034",
"M	c #483818",
"N	c #1C1C1C",
"O	c #202020",
"P	c #00002C",
"Q	c #000040",
"R	c #FCB8B8",
"S	c #28200C",
"T	c #282828",
"U	c #5C5C5C",
"V	c #303030",
"W	c #404040",
"X	c #4C4C4C",
"Y	c #343434",
"                                                                                                                                                                                                                                                                ",
"                                                                                                                                                                                                                                                                ",
"                              ..++++++++                                                      ..++++++++                                                                                                                                                        ",
"                           ..+@#$$%%&&&**++                                                ..+@#$$%%&&&**++                                                                                                                                                     ",
"                         .+@#$$=------;>,**+                                             .+@#$$=------;>,**+                                                                                                                                                    ",
"                        .+#$=---------';,))*!                                           .+#$=---------';,))*!                                                                                                                                                   ",
"                       ++$=----=)~~~~~~~~~~*{                                          ++$=----=)~~~~~~~~~~*{                                                                                                                                                   ",
"                      ++$--=)~~~~~~~~~~~~~~~~                                         ++$--=)~~~~~~~~~~~~~~~~                                                                                                                                                   ",
"                     +]$^/~~~~~~~~~~~~~~~~~~~~                                       +]$^/~~~~~~~~~~~~~~~~~~~~                                                                                                                                                  ",
"                     ]!(/_:::<<[[}}}]^^|~~~~~~                                       ]!(/_:::<<[[}}}]^^|~~~~~~                                                                                                                                                  ",
"                    +_(/1::::<<[};>2}_!_}|~~~~                                      +_(/1::::<<[};>2}_!_}|~~~~                                                                                                                                                  ",
"                    +_(1:<<<:<<[@34,5({}_}|~~                                       +_(1:<<<:<<[@34,5({}_}|~~                                                                                                                                                   ",
"                     _/+1<66<<778888.88!,2{~                                         _/+1<66<<778888.88!,2{~                                                                                                                                                    ",
"                       @+<99<<<<<<<9<99]04{                                            @+<99<<<<<<<9<99]04{                                                                                                                                                     ",
"                        a8<<<<<<9]]]b{{_]b{                                             a8<<<<<<9]]]b{{_]b{                                                                                                                                                     ",
"                    a   .99<a<<.].99.b{66]{                                         a   .99<a<<.].99.b{66]{                                                                                                                                                     ",
"                      a 7a<<<c.].ddef>'66!{                                           a 7a<<<c.].ddef>'66!{                                                        g                                                                                            ",
"                     ~~~aa<a<<.]hhhi&&'&!#{                                          ~~~aa<a<<.]hhhi&&'&!#{                                                                                                                                                     ",
"                  gggg&~~jk<<.bb{hhii&&{#{{                                       gggg&~~jk<<.bb{hhii&&{#{{                                                                                                                                                     ",
"               @ggglglg&c$k..bk.<<<[]{{{#{                                     @ggglglg&c$k..bk.<<<[]{{{#{                                                                m                                                                                     ",
"             @bggegg5kkk~~cnn..9.[[[o]!{{{k                                  @bggegg5kkk~~cnn..9.[[[o]!{{{k                                                           g                                                                                         ",
"           @@@@@+gg5k~~~~~~~an]]!!!!!{}~~phk                               @@@@@+gg5k~~~~~~~an]]!!!!!{}~~phk                                              m             g                                                                                       ",
"         @+++bbq@@+k!!}~~~$~$~~~~~~~~~~~~/phk^                           @+++bbq@@+k!!}~~~$~$~~~~~~~~~~~~/phk^                                                        c  g                                                                                      ",
"        @++ooo+b]]@bbbb~~~ii$qlal~n!~'-~({{{{{{^                        @++ooo+b]]@bbbb~~~ii$qlal~n!~'-~({{{{{{^                                          r     m      gsg  c                                                                                   ",
"       @++oooo+b]]@bbbbb~j$$cann~!!(~~~({_(((((({^^                    @++oooo+b]]@bbbbb~j$$cann~!!(~~~({_(((((({^^                                  orrooo             gs tuuuuuuuuu                                                                           ",
"      @++oooo+bq]]6bbbbbj~jj~j$++++(]]]66&&(((((((^^                  @++oooo+bq]]6bbbbbj~jj~j$++++(]]]66&&(((((((^^                               oo++++]m++:::+[+6<7vv[++uuuuuuuuuuuu                                                                         ",
"     @@+ooo]+bqq]]66@b+++/$j~~j$q]](t]]=w%kw%((((({^^                @@+ooo]+bqq]]66@b+++/$j~~j$q]](t]]=w%kw%((((({^^                             o+++++]++++xxx+y+!<<77tqqquuuuuuuuuuuu                                                                        ",
"     q+++qqq!+]]]_6!@b+++]//$~~}/$$(qqq=w%kw=%zj(({^^^               q+++qqq!+]]]_6!@b+++]//$~~}/$$(qqq=w%kw=%zj(({^^^                            o+++++++m+%:::+A+([+qqqqqcoooootuuuuuuu                                                                       ",
"    @qooo+!!!_____!(((!!(_]]kk~~}//a$bb!]]]Accj!{{^{^^^             @qooo+!!!_____!(((!!(_]]kk~~}//a$bb!]]]Accj!{{^{^^^                           qc+++%+mm++BBr+B+p]!@@!mqjCCC99C<o/uuuu                                                                       ",
"    +oo++!+++++BBB+BD(]8...8/~~~~$$$k]]!]]Ecaa@(/^{}{{///           +oo++!+++++BBB+BD(]8...8/~~~~$$$k]]!]]Ecaa@(/^{}{{///                         qqqqqq+kmqqFFr+F+p]!@@!qqjCCC99C{{ouuuuu                                                                      ",
"    +oob!]++++xxx+xx+6777777]!jk~kk(k]]!5aaa666///}((6FFF/          +oob!]++++xxx+xx+6777777]!jk~kk(k]]!5aaa666///}((6FFF/                        (qqqcq6km66rGG@G+p<<s<<<tj[c<9&8]{{ouuuu                                                                      ",
"   ]++b]++++++xxx+x+677777788b//~~~a*ks*a]]&^^^/}}((FFFBobb        ]++b]++++++xxx+x+677777788b//~~~a*ks*a]]&^^^/}}((FFFBobb                        (6666rks$//r +@jj+ccc<<<g[&q/&/]b{!uuuu                                                                      ",
"   ]++bbbbqqqxxxqx+67777[[+66t!!j&j5r**(^^^_!!&}}}{FFBB9v99o       ]++bbbbqqqxxxqx+67777[[+66t!!j&j5r**(^^^_!!&}}}{FFBB9v99o                        r(((/%sk//////((^_ccc995[&<[&t{]]]uuuu                                                                      ",
"   ]]]]]]]]]]:::]x]p[[[[++666k&t&Hi$*55&^((j!!/}}/6FBBvv8bb@@      ]]]]]]]]]]:::]x]p[[[[++666k&t&Hi$*55&^((j!!/}}/6FBBvv8bb@@                   c    ///ck%k~~r~~~ppp^ccrcc5[&[[&o{rr!uuuA                                                                      ",
"    66@@@@@@@BBB@B@p!![[jq66{&~~~ikkj~k$&/(((/}} /6BIIvo@@@@@       66@@@@@@@BBB@B@p!![[jq66{&~~~ikkj~k$&/(((/}} /6BIIvo@@@@@                        kkr$k%%~~r~~r~~mpppsrrs5&q!&r{66!uuu                                                                       ",
"       ______JDDD@Dpq[[[+q6{~~~~~5&~~~~k$~~}/}}  /6v9@q@@@@@_          ______JDDD@Dpq[[[+q6{~~~~~5&~~~~k$~~}/}}  /6v9@q@@@@@_                        kmk$k%k$$$$$/~~~~~~sis&5&!!&tt{truu                                                                        ",
"             tJJJ_J#p____{{!6j{}n~~~~~~~~~~~~~    699@q@@@@_                 tJJJ_J#p____{{!6j{}n~~~~~~~~~~~~~    699@q@@@@_                     +++zmmkKKKkqqq6(m((/~jjyit&&K!!&j{{{!  t                                                                       ",
"          k   k]]]]]]j]]]j66]]_^^p^^}KkK~~~~~~     }||[q_@                k   k]]]]]]j]]]j66]]_^^p^^}KkK~~~~~~     }||[q_@             LLLL   +++++++++zkkk{^^6qq6((}/&&ti5s&Kjt&t{{{j                                                                          ",
"           kk ]_^^^^^^^^^^]]_]_^^M^^(Kk5}}|~~~      }}}}}                  kk ]_^^^^^^^^^^]]_]_^^M^^(Kk5}}|~~~      }}}}}            ~~~~~LLL qqq++++++++!k{^r}6666(}/&&ti5s&K5tKt!{{j                                                                          ",
"        t$s%k]^______j__j_^^]_#^^Mp^(((^5__!((}                         t$s%k]^______j__j_^^]_#^^Mp^(((^5__!((}                     ~~NNN~~LL~666qq++qq++++r{{}kkp}}m}(q&jjjyy5AKyt!{    t                                          uuuuuuuu                    ",
"             ^@]]j]]]jjj@___^_#^^Mp^(((^!__!((/}                             ^@]]j]]]jjj@___^_#^^Mp^(((^!__!((/}                   LOOOOONN~~L~~~~6q+66q+(+rrr{^^kpp$p(qq//jjj5jjjjjj/                                            uuuuuuuuuuu                   ",
"        kk  !@]qqqqqq$gg]@jj#^p^^Mp^///(((//j}}}                        kk  !@]qqqqqq$gg]@jj#^p^^Mp^///(((//j}}}                   OOOOOOONN~~~~~~~p(qq6+p(%@@_^^pkkk*kkjqqqj5&5jj(rr///    A                                    ucjmmmuuuuuuu                  ",
"           !@b+bbbbcAKAAc@6##{M}MMp^{!!6666_!!(^}                          !@b+bbbbcAKAAc@6##{M}MMp^{!!6666_!!(^}                 ~OOOOOOONNN~~~LL~~p((q6^p%bbr//}nh*kkk(qqj$$r$$qqq/ptt/                                  AAs  mcmcmsksuuuuuu                  ",
"           !@b+++++bbcAcqA6##{}M}//(!j6@]]]j__m{^                          !@b+++++bbcAcqA6##{}M}//(!j6@]]]j__m{^                 NOOOOOOOOOO~~~LLPP~p(@^^pkbb_//}*hkp//k(($&KKK&$//pppA//         LQQQQL               ajjAAAAcmmcmskkssssaasuuuuu             ",
"          !@b++++++bbbbbq@cA#{}}^((!_66m]]]rjm6{/}                        !@b++++++bbbbbq@cA#{}}^((!_66m]]]rjm6{/}                NOOOOOOOOOON~~uuPPP~p_((pk__{%r}*hk/((_kkAyoooyAq((p////        LLLLLLLLL         AAAAAaaaggtmmsss5$ttaaczPPPPPPPPu           ",
"          !@b++++++bbbbbqcAA#{}^^((!6@@]%mjm$mr{{}                        !@b++++++bbbbbqcAA#{}^^((!6@@]%mjm$mr{{}                 OOOOOOOOOON~~~~PPu~~({^pn{{{//}khkk__qooooooooooqq_///qqqq     OOOOOOuPPP   ]]]cccmmmmjj*HHmms}55rrcz]acPuPPPPPPPPu          ",
"         q+++++++++bbb]]66__#{}^{((!_6]]m%r%__6${^}                      q+++++++++bbb]]66__#{}^{((!_6]]m%r%__6${^}                NOOOOOOOOON~~~~~~u~~{/^pn//{^^}pnkk@@oooooooooooooq((qq..qq   OOOOOOOOuPPP 2]]]ooccjmmm%%**Hms5rrckooooouPPNNNNNNuuu         ",
"        +++bb6]]]]]]]@bb++++#{}^{((g!_]]@%%*(($_$k}                     +++bb6]]]]]]]@bb++++#{}^{((g!_]]@%%*(($_$k}                 OOOOOOOOON~~~~~~u~~{/pnn//{^^}pnk@ooooooooooooooooq(q.q!!!!  OOOOOOOO~PPPuQQ]]oaa]cjmmy%**%msrr5kottoou~PNOOOOOONN~         ",
"        ++b66!_6666666!!@b+++{}/{((g(!]]m___(((({^}                     ++b66!_6666666!!@b+++{}/{((g(!]]m___(((({^}                 NNOOOONNNNN~~~~~~~~ppnnp//^}}nnnooooo+++++o++++oooo](!!!!!!  OOOOOOOO~PPPuQQ~~oaatycmmy%**%HHrrk!ttkoouuNOOOOOOOOON         ",
"        ++6{{666666666__{@@@p^ /{((((AA]]]]]____{/}                     ++6{{666666666__{@@@p^ /{((((AA]]]]]____{/}                   NNNNNNNNN~~~~~~~nnnnppppppnnnn@^ooqqq6qqoqqqqbboooq{{{{{   OOOOOOOO~uuuuQQPP~]tt]]cmR%**{H5rrk!tkoPuuuNOOOOOOOOON         ",
"         ~{__666666666___{66(p {!!!!!!]]]]]]++]]__(                      ~{__666666666___{66(p {!!!!!!]]]]]]++]]__(                   NNNNNNwwwO~~~~~  }Kpnnnnnnnnn|{^66^{~Luu~~~~^66]opq{{{{    OOOOOOOOOuuuuP~PP~_yk]]^tq&**jHrr5/tkoPPPuuOOOOOOOOOON         ",
"         P~//!!!!!!!!!!!!/~    {!ms!!_]]]]]]]]@@@6_                      P~//!!!!!!!!!!!!/~    {!ms!!_]]]]]]]]@@@6_                    NwwwwOOOO~~~~   kK  HH HSSSSS{_6^uPPPPPPuuu~~{6p!!{{      OOOOOOONN~~~uP~PPu~!K]]^5{***&Hrr5/tkPPPPPuOOOOOOOOOON:_       ",
"         P~np}/////////}n~~    (!!!^!66@]]@@@@{{66_(                     P~np}/////////}n~~    (!!!^!66@]]@@@@{{66_(                   wOOOOOOOOO~     Kk  H  hhHHhH(!^uuPPPPPPuuuuu~{!{          OOOOONNNNN~~u~uu~~(K^^}k{iKKHHrrk/tqPPuPuuOOOOOOOOOO:F:_      ",
"          P~npp}}}}pppnnS~~    (((^!6666]6666##({6_(                      P~npp}}}}pppnnS~~    (((^!6666]6666##({6_(                    OOOOOOOOO     * %  H  *hhHKH/^~~uPPLLLLLLuuuu~{{          OOOOONNNNN~~u~uu~~(K^^nk{iKKHHrrk/tuPPuuuuOOOOOOOONNFF:_      ",
"          LPPSnnnnnnnnS~~~     /(^/}MMMMMMMMM}/{{{({                      LPPSnnnnnnnnS~~~     /(^/}MMMMMMMMM}/{{{({                     OOOOOO~           &  *hhHKHH~uuuLLuuuuuuuuuuu            OONNNNNNNN~~~~~~~~{K^^nK^KKKHH5rkktuuPuuuuOOOOOOOONHF99999+   ",
"          Luu~~~~~~~~~~~~~      uPPLLLLLLPPuuu~~~M{                       Luu~~~~~~~~~~~~~      uPPLLLLLLPPuuu~~~M{                                   %    &  kiKhiHH~~uuLuuOOOOOOOO~~u            NNNNNNwOOO~~~~~~~^K}}nK^HHHHH55kktuuPuu~OOOOOOOOONH9+++++++  ",
"         ~LPPu~~~~~~~~~~~~      uPPLLLLLLPPuuu~~~M                       ~LPPu~~~~~~~~~~~~      uPPLLLLLLPPuuu~~~M                            %          22&-))kKhiHH~~LLuOOTTTwwwwTTTO             NNNwwOOOO~~~~~~~^K}n|K^HHHHH55kktuuu~u~NNNNNNNNNHH+_(_(_(_  ",
"         uLLLLPuu~~~~~~~~~      uPPLLLLLLPPuuu~~~                        uLLLLPuu~~~~~~~~~      uPPLLLLLLPPuuu~~~                                   22U-=)VVwwwkKhkHH~~uuOwwTwwwwwwwwwTw              wOOOOOOO~~~~~~nKn||KSHHHHH55KKtuu~~~NONNNNNNNNHH((/(/(/(  ",
"          LLLLPuuu~~~~~~~       ~uuPLLLLPuuuuu~~~                         LLLLPuuu~~~~~~~       ~uuPLLLLPuuuuu~~~                      5%%&k**   *2--=W))VVwwwwiKhkHH~~uuTTTTTTTTTTTTTOww)=          sOOOOOOOO~~~~~K|KSSSHHHHHHH55KKtuu~~~NwwwwwwwwHHHHH*&ii    ",
"          uLLLPPPPPuuu~~~====))))~~~~~~~~~~~~~~~)))WWW===XX-2             uLLLPPPPPuuu~~~====))))~~~~~~~~~~~~~~~)))WWW===XX-2     ggk         k  2sssss&&kk***iiK***H~~OOOOOOOOOOOOOOOOwVY)W=-    ssssOOOOOOOO~~~~~SSKKKKHHHHHHH55KKtHH~~~NNOOOOOONHHHHH*&ii    ",
"           uuuuuuuu~~~~~)YYVwwww~uuPLLLLLPPPuuu~~wVVVY)))W=X-U2            uuuuuuuu~~~~~)YYVwwww~uuPLLLLLPPPuuu~~wVVVY)))W=X-U2         %%i    22-==)kk*iiiKKKhhhhhhH~~OOwwwwwwwOOOOOOwwwVV)W=-  sss&&&OOOOOON~~~~KKKKHHHHHHKK&&&5&&tiiH~~NNOOOOOONHHHHh*&ii m  ",
"             ~~~~~~~~~~)YYVwwwwwuPPLLLLLLPPPPPu~~wwwVVY)WW=X-U2              ~~~~~~~~~~)YYVwwwwwuPPLLLLLLPPPPPu~~wwwVVY)WW=X-U2                22U--=WW))YYVVVwwwwwwwwwOOOOOOOOOOOOOwwwwVV)W=-2    %%%&&OOOON~hhHHHHHHHHHHHKkkkk&5&&&&&ii~OOOOOOOONHHHH*&iWXU   ",
"               2UU--==WWWWWWWWWWuPPLLLLLLLLPPPu~~)))))WW==X-U22                2UU--==WWWWWWWWWWuPPLLLLLLLLPPPu~~)))))WW==X-U22                            2UU---XXXX==WW))))))))))))))WW==X--2             hhhhhhhhhhKKKiiiiiiiihhhHHHHHiNOOOOOONHHHHHhhWXUmtt ",
"                    22UUU--------uuPPPPPPPPuuuu~)==---UU22222                       22UUU--------uuPPPPPPPPuuuu~)==---UU22222                                     222UU------------------UUU22   % $%%                          UUUUUUUUXXXXXWWWWWWWWWWWW       "};
