/* XPM */
static char * hang_corpse02_xpm[] = {
"64 88 56 1",
" 	c None",
".	c #670B0B",
"+	c #470000",
"@	c #771717",
"#	c #5F0707",
"$	c #8F2B2B",
"%	c #6B4727",
"&	c #831F1F",
"*	c #A33B3B",
"=	c #9B3333",
"-	c #AF4747",
";	c #A73F3F",
">	c #774F2B",
",	c #B37347",
"'	c #9B633B",
")	c #972F2F",
"!	c #875733",
"~	c #AB6F43",
"{	c #731313",
"]	c #A36B3F",
"^	c #7F532F",
"/	c #533F1F",
"(	c #BF7B4B",
"_	c #4B371B",
":	c #5B0707",
"<	c #CB7F4F",
"[	c #CF8353",
"}	c #D78B5B",
"|	c #8F5F37",
"1	c #3F2F17",
"2	c #5F4323",
"3	c #E79B6B",
"4	c #DF9363",
"5	c #EFA373",
"6	c #43331B",
"7	c #332B13",
"8	c #8B2323",
"9	c #530707",
"0	c #BB5757",
"a	c #7F1B1B",
"b	c #6B0F0F",
"c	c #4F0000",
"d	c #430000",
"e	c #BF0000",
"f	c #8B0000",
"g	c #5B0000",
"h	c #670000",
"i	c #1B1B1B",
"j	c #A70000",
"k	c #730000",
"l	c #D70000",
"m	c #7F0000",
"n	c #9B0000",
"o	c #E30000",
"p	c #CB0000",
"q	c #B30000",
"                                .+                              ",
"                                .+                              ",
"                                .+                              ",
"                                .+                              ",
"                                .+                              ",
"                                @#                              ",
"                                @#                              ",
"                                @#                              ",
"                                @#                              ",
"                                @#                              ",
"                                @#                              ",
"                                @#                              ",
"                                @#                              ",
"                                @#                              ",
"                                @#                              ",
"                                $@                              ",
"                                $@                              ",
"                                $@                              ",
"                               %$@%                             ",
"                              %&**$%                            ",
"                              &=--=&                            ",
"                             &;=;;$;&                           ",
"                             >,'))!'>                           ",
"                            >,~>{{>]~^                          ",
"                          /!(('_::_'<(^                         ",
"                         /][<~%    >,}<|/                       ",
"                         ![}(!1    _'(}<|/                      ",
"                        2(}}~/     1>,<}}|                      ",
"                        ^}}(|1      _',}3[/                     ",
"                       2',,>%       1!'(((>                     ",
"                       >](|21^',(,'^ 2>]''^                     ",
"                       !((^2/'<434<'%_2!',]                     ",
"                      2',(>1!,}353},!_2!]((/                    ",
"                      >|''2/^][}}}[]^ %>,[(>                    ",
"                      !!|!_!%!~(((~!%!_%](~'                    ",
"                      >!!2_2_>!'''!>_2_/!,]|                    ",
"                      %>%1/6_/^>^>^/_6_1%]'!                    ",
"                      2%2121_/1_/_1/_121_'^>                    ",
"                      _2_1>1__/_2_/__1%_1^>%                    ",
"                      7_11^2{11{@{117/>_/>%_                    ",
"                       71_!'871###17/!|_/%_7                    ",
"                        _2!];_#999#_%,|/%/7                     ",
"                        _2>,0%a:9:a/^(!2%_                      ",
"                        /^2''2ab9ba2^'2%!7                      ",
"                        1>!2%/@.:.@/>%%!27                      ",
"                         _22/_#:c:#{{{22_                       ",
"                         &!-;& #dd# =--*&                       ",
"                         :%&&   ##   8{#:                       ",
"                          &&   #dd#   e&                        ",
"                          :{    ##    f#                        ",
"                               .dd.                             ",
"                           8::  ##  ::8                         ",
"                           8++:{dd{++:8                         ",
"                           @8{+_>_+12ggh                        ",
"                          #a2^/>~^11_2fd                        ",
"                          #_|2{%'2{__>_d                        ",
"                          #2!_i/^/j2/^2c                        ",
"                          #/>1#/%_e%/7_c                        ",
"                          #/%_k/%jl>2jk9                        ",
"                          #/%_k22el^%jk9                        ",
"                          #/%1f22el^%j#9                        ",
"                          #/%1f2/el^%j#9                        ",
"                          #/%1f2/el^%j#9                        ",
"                          #_%1f2/el^%j#9                        ",
"                          #_%mn2/op>2mdh                        ",
"                          #_%nn%/oq%/kdh                        ",
"                           _%ja%/jf2_f9                         ",
"                           :%f.>/fk/_99                         ",
"                            %#_^/;;/1k                          ",
"                            %/%^&==/1k                          ",
"                            /^'/#&@/1g                          ",
"                           :1__1d.g/_kh                         ",
"                           :k8k+gnk/_fh                         ",
"                           :f8k+hfk2/jg                         ",
"                           :fak+hmh%/ng                         ",
"                            hmk+gkh>2g                          ",
"                            11__/2/2/1                          ",
"                            1_2%>^!'!%                          ",
"                            111111///c                          ",
"                             d99.&&@)>%                         ",
"                             d.9{)){&/7                         ",
"                             d@98;=$.                           ",
"                             da.8;=$.                           ",
"                             d&.$;=8d                           ",
"                             d&.);$@d                           ",
"                             d&@*)):                            ",
"                              :@*8&d                            ",
"                              dd..:                             "};
