/* XPM */
static char * hang_corpse01_xpm[] = {
"64 88 123 2",
"  	c None",
". 	c #474747",
"+ 	c #6B6B6B",
"@ 	c #332B13",
"# 	c #000000",
"$ 	c #3F2F17",
"% 	c #939393",
"& 	c #1B1B1B",
"* 	c #272727",
"= 	c #474F33",
"- 	c #232323",
"; 	c #3B3B3B",
"> 	c #373737",
", 	c #6F5743",
"' 	c #5B6347",
") 	c #A78F77",
"! 	c #BFA78F",
"~ 	c #AF977F",
"{ 	c #775F4B",
"] 	c #BF7B4B",
"^ 	c #FFBB93",
"/ 	c #EFA373",
"( 	c #CF8353",
"_ 	c #8F5F37",
": 	c #5F4323",
"< 	c #373F27",
"[ 	c #E79B6B",
"} 	c #F7AB7B",
"| 	c #DF9363",
"1 	c #A36B3F",
"2 	c #533F1F",
"3 	c #43331B",
"4 	c #533F2F",
"5 	c #4B371B",
"6 	c #6B0F0F",
"7 	c #2B230F",
"8 	c #D78B5B",
"9 	c #9B5B13",
"0 	c #9B633B",
"a 	c #67533F",
"b 	c #13230B",
"c 	c #170F07",
"d 	c #874307",
"e 	c #9B3333",
"f 	c #BF5B5B",
"g 	c #AB6F43",
"h 	c #070707",
"i 	c #131313",
"j 	c #937B63",
"k 	c #831F1F",
"l 	c #A73F3F",
"m 	c #732B00",
"n 	c #771717",
"o 	c #7F1B1B",
"p 	c #4F3B23",
"q 	c #775F3F",
"r 	c #53573B",
"s 	c #972F2F",
"t 	c #B79F87",
"u 	c #836B57",
"v 	c #9B7F6B",
"w 	c #7B634F",
"x 	c #EB6F0F",
"y 	c #D70000",
"z 	c #8F7753",
"A 	c #836B4B",
"B 	c #675333",
"C 	c #FFBF9B",
"D 	c #B74700",
"E 	c #B30000",
"F 	c #9B0000",
"G 	c #BF0000",
"H 	c #774F2B",
"I 	c #9F8363",
"J 	c #1F170B",
"K 	c #FF8F3B",
"L 	c #BB5757",
"M 	c #AF4747",
"N 	c #FF5F5F",
"O 	c #FFD3BB",
"P 	c #B34F4F",
"Q 	c #CB7F4F",
"R 	c #7F532F",
"S 	c #9F876F",
"T 	c #5B472B",
"U 	c #D75F0B",
"V 	c #CB5707",
"W 	c #875733",
"X 	c #6B4727",
"Y 	c #AF4300",
"Z 	c #676B4F",
"` 	c #F37317",
" .	c #DF670F",
"..	c #FF3F3F",
"+.	c #6F7357",
"@.	c #8B8B8B",
"#.	c #FFCFB3",
"$.	c #FFC7A7",
"%.	c #E78F8F",
"&.	c #FF7B7B",
"*.	c #B37347",
"=.	c #636363",
"-.	c #3F472B",
";.	c #2F2F2F",
">.	c #574333",
",.	c #5F4B37",
"'.	c #0B0B0B",
").	c #0B1707",
"!.	c #5B5B5B",
"~.	c #8B735B",
"{.	c #730000",
"].	c #670000",
"^.	c #8B0000",
"/.	c #A70000",
"(.	c #7F0000",
"_.	c #5B0000",
":.	c #430000",
"<.	c #CB0000",
"[.	c #EF0000",
"}.	c #530707",
"|.	c #4F0000",
"1.	c #5F0707",
"2.	c #8F2B2B",
"                                                        . + .                                                                   ",
"                                                        + @ #                                                                   ",
"                                                        $ % $                                                                   ",
"                                                        + & #                                                                   ",
"                                                        * + $                                                                   ",
"                                                        % & #                                                                   ",
"                                                        = + *                                                                   ",
"                                                        % - #                                                                   ",
"                                                        ; & -                                                                   ",
"                                                        - + >                                                                   ",
"                                                        + @ #                                                                   ",
"                                                        ; # #                                                                   ",
"                                                        # ; #                                                                   ",
"                                                        + # #                                                                   ",
"                                                        , ; ' ) ! ~ ) {                                                         ",
"                                                        . ] ^ / ( _ : : <                                                       ",
"                                                        ; [ } ^ / | 1 2 3 4                                                     ",
"                                                        | ] _ 5 6 ] : 2 $ 7                                                     ",
"                                                        8 9 8 0 a ~ b # b c                                                     ",
"                                                        _ d e f g $ # # h i                                                     ",
"                                                        j 6 k l g @ h h #                                                       ",
"                                                        $ m n o ( $ c # #                                                       ",
"                                                        # * p q p b # #                                                         ",
"                                                      = 3 # # b b # #                                                           ",
"                                                r r r 3 s 3 # # # # #                                                           ",
"                                          t u u v w 8 x y s 3 # # # # # # $ @                                                   ",
"                                        z A ) B w 8 C D E F G : $ # # # $ 7 4 z ~                                               ",
"                                        : H I J 8 / D } K e L s L : 5 7 : b b ) ) J                                             ",
"                                        5 ) ) 7 M N K | O G g P Q f L 0 R 3 b S u T                                             ",
"                                      I w { B ) @ U U D F | e l P 8 0 V e 3 W { A A                                             ",
"                                      j B j 7 ~ h d 9 d d X n m Y g e Y Y R W X ~ ) h                                           ",
"                                      2 { Z z ! > 9 d 0 V ` `  .Y D V V R $ 5 , ! t T                                           ",
"                                      : : q B ' { K ` K 8 ....` V |  .f k $ J @ ~ ! +.                                          ",
"                                      w T 7 q ) Q K U N 8 } 8  .Y ` D f  .X c J ) ! @.J                                         ",
"                                        A q ) I 0  .` ( #.[ ] N Y [ M Y Q e J # 2 ! ' T                                         ",
"                                        : 2 ) { # Q K | $.| #.%.f ^ 8  .( 5 J # @ 2 { r #                                       ",
"                                        $ B A @ # 0 Q | ^ &.} / : ^ ] 9 : h - * # @ q = i                                       ",
"                                        q J 4 @ # J 3 3 _ 1 #.%.f | *.: # # i =.. # 2 = $                                       ",
"                                        3 < J * J $ 7 c 7 7 @ 7 B 3 J J p a # r I @ i 4 -.#                                     ",
"                                        < 7 & # ;.3 3 4 J @ >.a $ 2 J = @ ,.# ;.i -.# @ r #                                     ",
"                                        r c c '.c '.J 7 4 3 5 0 @ a p - c = i # # c i # 2 -                                     ",
"                                        3 7 J c c 7 p w 3 : a a = 4 u >.7 # # # # - c # c 2 @                                   ",
"                                      @ h * '.& p 7 3 7 p a >.4 4 c * '.c '.# # # # # # # J - #                                 ",
"                                      c i c '.4 J '.'.7 a @ - a u # '.< < # # # # # # # # # - #                                 ",
"                                      J # # ).3 3 4 3 p J J c >.>.;.= J - p - # # # # # # # # . #                               ",
"                                      # c # c c J J # 7 @ 7 ,.7 { a 7 # # # !.- # # # # # # # i #                               ",
"                                      c # # c i J # '.4 4 @ J & < $ 3 4 J # '.+.# # # # # # # J ;.                              ",
"                                      i # # c c # # 3 a u u u J c 3 @ J 3 7 # i b b b b # & - - <                               ",
"                                        i # '.c J @ : 7 '.J * >.7 3 - J ;.3 c J                 @                               ",
"                                            '.J 3 3 $ ~.p # '.3 3 < - J J 7 4 #                                                 ",
"                                              J @ 4 @ p 4 7 p '.p J 7 4 J c < c                                                 ",
"                                              J 4 { - $ 4 @ # # '.4 c 3 p J #                                                   ",
"                                                a p @ 4 - - 5 < # n $ $ 3 4 @                                                   ",
"                                                ,.{ c m m - - - # ,.3 ,.4 J                                                     ",
"                                                4 2 5 F {.].].- # n @ '.# #                                                     ",
"                                                ^.^.F 5 0 {.^.- * # n < 7 J                                                     ",
"                                                ^./.(.*._.:.G ].4 '.# = < <                                                     ",
"                                                7 /.<.H 1 :.[...,.}.7 '.&                                                       ",
"                                                1 ]./.^.|.G ].].{ $ k p 3                                                       ",
"                                                :.g ^.{.|.G ].5 }.'.}.:.-                                                       ",
"                                                  n |.G ].].@ <.:.}.# '.                                                        ",
"                                                    1.@ _.:.E ^.n }.}.J                                                         ",
"                                                      :._._.F ^.'.:.:.J                                                         ",
"                                                          *._.^.( '.J                                                           ",
"                                                          (./.<.^.] 2.                                                          ",
"                                                          /.X '.g /.6                                                           ",
"                                                          ^.1 7 :.  E                                                           ",
"                                                            R 2 ^.W                                                             ",
"                                                                                                                                ",
"                                                                                                                                ",
"                                                                                                                                ",
"                                                                                                                                ",
"                                                                                                                                ",
"                                                                                                                                ",
"                                                                                                                                ",
"                                                                                                                                ",
"                                                                                                                                ",
"                                                                                                                                ",
"                                                                                                                                ",
"                                                                                                                                ",
"                                                                                                                                ",
"                                                                                                                                ",
"                                                                                                                                ",
"                                                                                                                                ",
"                                                                                                                                ",
"                                                                                                                                ",
"                                                                                                                                ",
"                                                                                                                                "};
