/* XPM */
static char * hang_corpse03_xpm[] = {
"64 88 117 2",
"  	c None",
". 	c #6B6B6B",
"+ 	c #332B13",
"@ 	c #000000",
"# 	c #3F2F17",
"$ 	c #939393",
"% 	c #1B1B1B",
"& 	c #272727",
"* 	c #434343",
"= 	c #474F33",
"- 	c #232323",
"; 	c #5B5B5B",
"> 	c #3B3B3B",
", 	c #373737",
"' 	c #777777",
") 	c #0B1707",
"! 	c #636363",
"~ 	c #3F472B",
"{ 	c #53573B",
"] 	c #CF8353",
"^ 	c #D3D3D3",
"/ 	c #B7B7B7",
"( 	c #BF7B4B",
"_ 	c #9B5B13",
": 	c #670000",
"< 	c #D78B5B",
"[ 	c #FFC7A7",
"} 	c #FF3F3F",
"| 	c #4F0000",
"1 	c #430000",
"2 	c #A73F3F",
"3 	c #9B3333",
"4 	c #070707",
"5 	c #1F170B",
"6 	c #170F07",
"7 	c #771717",
"8 	c #530707",
"9 	c #831F1F",
"0 	c #8B2323",
"a 	c #131313",
"b 	c #972F2F",
"c 	c #7F1B1B",
"d 	c #5B0707",
"e 	c #670B0B",
"f 	c #836B4B",
"g 	c #774F2B",
"h 	c #9B633B",
"i 	c #9F8363",
"j 	c #A78F77",
"k 	c #5B472B",
"l 	c #775F3F",
"m 	c #675333",
"n 	c #875733",
"o 	c #8F7753",
"p 	c #937B63",
"q 	c #8F5F37",
"r 	c #BFBFBF",
"s 	c #775F4B",
"t 	c #676B4F",
"u 	c #5B6347",
"v 	c #533F2F",
"w 	c #9F876F",
"x 	c #A33B3B",
"y 	c #533F1F",
"z 	c #2F2F2F",
"A 	c #8F2B2B",
"B 	c #43331B",
"C 	c #2B230F",
"D 	c #AF977F",
"E 	c #AB6F43",
"F 	c #6F5743",
"G 	c #5F4323",
"H 	c #6B4727",
"I 	c #373F27",
"J 	c #FFBB93",
"K 	c #BFA78F",
"L 	c #6F7357",
"M 	c #979797",
"N 	c #13230B",
"O 	c #67533F",
"P 	c #7B634F",
"Q 	c #4B371B",
"R 	c #B79F87",
"S 	c #7B7F63",
"T 	c #EFA373",
"U 	c #4F3B23",
"V 	c #A36B3F",
"W 	c #FFCFB3",
"X 	c #E78F8F",
"Y 	c #BF5B5B",
"Z 	c #DF9363",
"` 	c #B37347",
" .	c #CB7F4F",
"..	c #FF7B7B",
"+.	c #F7AB7B",
"@.	c #FF8F3B",
"#.	c #DF670F",
"$.	c #F37317",
"%.	c #E79B6B",
"&.	c #FF5F5F",
"*.	c #AF4300",
"=.	c #AF4747",
"-.	c #D75F0B",
";.	c #B74700",
">.	c #CB5707",
",.	c #732B00",
"'.	c #5F0707",
").	c #6B0F0F",
"!.	c #7F532F",
"~.	c #874307",
"{.	c #FFA35B",
"].	c #FFB37B",
"^.	c #C34F00",
"/.	c #836B57",
"(.	c #9B7F6B",
"_.	c #8B8B8B",
":.	c #838383",
"                                                            . + @                                                               ",
"                                                            # $ #                                                               ",
"                                                            . % @                                                               ",
"                                                            & . #                                                               ",
"                                                            $ % *                                                               ",
"                                                            = . &                                                               ",
"                                                            $ - ;                                                               ",
"                                                            > % *                                                               ",
"                                                            - . ,                                                               ",
"                                                            . + ;                                                               ",
"                                                            > @ >                                                               ",
"                                                            @ $ @                                                               ",
"                                                            ' @ ;                                                               ",
"                                                            . ) &                                                               ",
"                                                            * $ )                                                               ",
"                                                            . @ &                                                               ",
"                                                            ! ) &                                                               ",
"                                                            ~ ! {                                                               ",
"                                                          { ] ^ / ( _                                                           ",
"                                                          : { < [ _ _                                                           ",
"                                                          : : : } _ |                                                           ",
"                                                          1 @ : : @ |                                                           ",
"                                                          1 : : 2 : 3                                                           ",
"                                                          | 4 4 4 4 4                                                           ",
"                                                          5 5 6 6 6 4                                                           ",
"                                                          | | | 7 8 8                                                           ",
"                                                          | 9 | 6 0 1 a +                                                       ",
"                                                          | 8 b 1 7 6 1 1 +                                                     ",
"                                                        | b 7 7 c 0 b 0 7 +                                                     ",
"                                                        d e 7 9 f 6 8 c @ a                                                     ",
"                                                        e g b 1 b @ 9 6 9 1 ,                                                   ",
"                                                      7 h i 0 b c 6 j k 3 l m                                                   ",
"                                                      7 f 0 n ( o 6 p 7 # 6 &                                                   ",
"                                                    ~ q r i < 0 c @ s 6 @ t u u                                                 ",
"                                                    { v w x y = 5 z ~ @ A u B +                                                 ",
"                                                    f l m l 5 4 6 C @ A v 6 @ @                                                 ",
"                                                    p D y f i B 6 5 @ p m p s +                                                 ",
"                                                    i l y f E A F + @ A G H m f v                                               ",
"                                                  + f j I G f y 4 4 a f 5 m l + @                                               ",
"                                                  + y f y l f B l 6 l C B f C 5 u 6                                             ",
"                                                a + m m G J l 4 6 m m u I + C B s @                                             ",
"                                                a 5 C y h B 6 + ~ o # m I C = m 5 5                                             ",
"                                                5 5 @ @ m i K K K + 5 m y + m B @ a                                             ",
"                                                5 - + @ 6 f f y C & u G m f C @ a L                                             ",
"                                                5 5 + C @ B v B p B D i # @ @ @ M -                                             ",
"                                                N O F P m l C + 5 o o = L + I l I @                                             ",
"                                                a s C 6 6 B i y I i K @ 6 { u @ @ @                                             ",
"                                                  & l Q F B l i o f f 5 ~ a 5 6 @                                               ",
"                                                  5 5 # l R m h i i S f K o B @ @                                               ",
"                                                    5 a + # f m g T v i l I 5 L -                                               ",
"                                                    = m m f + y o i G n C L v p 4                                               ",
"                                                    5 # C 6 C C + C m B 5 5 U O @                                               ",
"                                                      5 B B q V W X Y Z ` G @ @ a                                               ",
"                                                      h  .Z J ..+.T G J ( _ G 4 -                                               ",
"                                                       .@.Z [ Z W X Y J < #.] Q 5                                               ",
"                                                    h #.$.] W %.( &.*.%.=.*. .3 5                                               ",
"                                                     .@.-.&.< +.< #.*.$.;.Y #.H 6                                               ",
"                                                  H < @.$.@.< } } $.>.Z #.>.3 H 5                                               ",
"                                                = %.< @.$.@.< T < #.*.;. . . .H Q                                               ",
"                                                %.Z E $.@.$.-.2 ;.3 8 ;.>.*.*. .n Q                                             ",
"                                              %.Z >.-.-.-.;.x 8 8 1 6 3 ,.1 5 ,.n n D                                           ",
"                                            ] @.&.-.2 c ,.e '.| 6 4 4 ,.6 4 @ 6 # V T  .                                        ",
"                                          n #.$.-.'.A ).| 6 4 4 4 4 4 4 4 4 4 4 4 C %.( q                                       ",
"                                        G  .$.>.A 1 | 5 6 4 4 4 4 @ 4 5 4 4 4 4 C ,.q #.2 Q                                     ",
"                                      Q E >.*.7 | | 6 6 6 4 4 4 4 6 B C @ 4 4 C # ,.!.>.~.!.                                    ",
"                                      q ` V H # 5 6 @ 6 5 6 6 1 g E E H 4 4 @ C B P P q y l L 5                                 ",
"                                    f l i i m l F O { + C Q 5 =.} #.;.A 6 @ @ B P O y ~ + + t B -                               ",
"                                  u v f i f f f f m I # B # 8 #.{.{.;.g 6 @ - O 5 # y f m m m v = +                             ",
"                                { m p u u g i i f j p 5 4 C ).&.].].{.2 6 @ 5 u B @ B G C 6 C m I u 5                           ",
"                              u O + t v = y i h m h l w 5 4 x 3 ^.^.8 7 # @ @ @ u ~ B @ @ @ @ 6 5 5 & +                         ",
"                          ~ u u O { { /.C F f i j m B C 6 @ =.;.-.2 ).H 6 5 @ @ @ @ @ @ @ @ @ @ 5 @ 5 ~ +                       ",
"                          u O P o j l f m l o k @ @ @ @ @ @ =.b x 3 8 h 6 5 @ @ @ @ @ @ @ @ @ @ 4 @ @ { +                       ",
"                          { m j f i F w (.D + @ @ @ @ @ @ 4 H H 6 4 # + 4 , @ @ @ @ @ @ @ @ @ @ a @ @ ~ -                       ",
"                        { { u o l p K _.+ @ @ @ @ @       6 + + + 6 + + 6 6 @ @ @ @ @ @ @ @ @ @ @ @ @ - N                       ",
"                        f l m f w D + @ @                 C 4 4 5 6 @       @ @ @ @ @ ~ a a - a @ @ @ a @                       ",
"                        v O v R u @ @                                           @ @ @ u 5 5 ~ z @ @ @ @ @                       ",
"                        B s :.- @                                               @ @ @ s v = 5 ~ @ @ @ @ @                       ",
"                        L S                                                     @ @ 5 u B B u C @ @ @ @                         ",
"                        /.a                                                     6 6 B l = I 5 5 @ @                             ",
"                                                                                4 5 + O 5 /.5 @ @                               ",
"                                                                                6 w + 6 5 5 5 @                                 ",
"                                                                                5 H Q k 5 F a                                   ",
"                                                                                6 B + G H H @                                   ",
"                                                                                @ 4 @ 4 4 a @                                   ",
"                                                                                                                                ",
"                                                                                                                                ",
"                                                                                                                                ",
"                                                                                                                                "};
