/* XPM */
static char * Health_xpm[] = {
"125 84 23 1",
" 	c None",
".	c #838383",
"+	c #434343",
"@	c #4F4F4F",
"#	c #474747",
"$	c #575757",
"%	c #5B5B5B",
"&	c #636363",
"*	c #6F6F6F",
"=	c #3B3B3B",
"-	c #6B6B6B",
";	c #272727",
">	c #2F2F2F",
",	c #373737",
"'	c #777777",
")	c #232323",
"!	c #8B8B8B",
"~	c #939393",
"{	c #1B1B1B",
"]	c #131313",
"^	c #9F9F9F",
"/	c #ABABAB",
"(	c #B7B7B7",
"                                                                                                                             ",
"                                                                                                                             ",
"                                                                                                                             ",
"                                                                                                                             ",
"..++@@@##$$$$$$$$$$$$$$$%%$$$$$$$##@@++&&&$$%%@@@@***@@@@@@==###@@&&##@@@@@@@++--@@&&&;;++++##$$@@@########@@@%%&&%%--&&&&&>>",
"..++@@@##$$$$$$$$$$$$$$$%%$$$$$$$##@@++&&&$$%%@@@@***@@@@@@==###@@&&##@@@@@@@++--@@&&&;;++++##$$@@@########@@@%%&&%%--&&&&&>>",
"..#########&&$$@@@$$$$%%%%$$$$$&&@@####$$$%%%%@@##@@@@@@@@@@@#####@@++@@@@@$$@@--&&$$$,,++++##@@@@@@@$$&&@@@@@$$%%%%%%'''**;;",
"..#########&&$$@@@$$$$%%%%$$$$$&&@@####$$$%%%%@@##@@@@@@@@@@@#####@@++@@@@@$$@@--&&$$$,,++++##@@@@@@@$$&&@@@@@$$%%%%%%'''**;;",
"..#########&&$$@@@$$$$%%%%$$$$$&&@@####$$$%%%%@@##@@@@@@@@@@@#####@@++@@@@@$$@@--&&$$$,,++++##@@@@@@@$$&&@@@@@$$%%%%%%'''**;;",
"..==###@@@@==$$$$$$$@@%%%%$$$$$##@@##==%%%$$%%@@,,@@@$$%%##$$#######,,%%@@@&&@@&&$$@@@++++>>##%%@@@##@@@@@@&&&$$$$$$&&'''&&))",
"..==###@@@@==$$$$$$$@@%%%%$$$$$##@@##==%%%$$%%@@,,@@@$$%%##$$#######,,%%@@@&&@@&&$$@@@++++>>##%%@@@##@@@@@@&&&$$$$$$&&'''&&))",
"..##@@@##@@##$$$$$@@$$&&$$$$$$$##@@####$$$$$%%$$@@###@@@@##$$#######$$&&%%%&&$$$$--$$$++##;;++$$@@@########@@@@@@@$$**---&&))",
"..##@@@##@@##$$$$$@@$$&&$$$$$$$##@@####$$$$$%%$$@@###@@@@##$$#######$$&&%%%&&$$$$--$$$++##;;++$$@@@########@@@@@@@$$**---&&))",
"..##@@@##@@##$$$$$@@$$&&$$$$$$$##@@####$$$$$%%$$@@###@@@@##$$#######$$&&%%%&&$$$$--$$$++##;;++$$@@@########@@@@@@@$$**---&&))",
"..++@@@@@$$##$$---$$##&&&&###@@@@&&@@++%%%%%&&@@$$%%%&&@@@@>>,,,@@''&&@@@@@--$$&&&&$$$++##$$##@@&&&@@##++##$$$@@$$$$&&&&&&&>>",
"..++@@@@@$$##$$---$$##&&&&###@@@@&&@@++%%%%%&&@@$$%%%&&@@@@>>,,,@@''&&@@@@@--$$&&&&$$$++##$$##@@&&&@@##++##$$$@@$$$$&&&&&&&>>",
"..++@@@@@$$##$$---$$##&&&&###@@@@&&@@++%%%%%&&@@$$%%%&&@@@@>>,,,@@''&&@@@@@--$$&&&&$$$++##$$##@@&&&@@##++##$$$@@$$$$&&&&&&&>>",
"..@@#####$$$$@@$$$&&@@&&%%#####@@@@@@@@%%%%%$$@@@@@@@%%@@@@,,@@@@@##,,++@@@--++----$$$++##**##$$&&&@@@@@@@@&&&&&&&%%--&&&**;;",
"..@@#####$$$$@@$$$&&@@&&%%#####@@@@@@@@%%%%%$$@@@@@@@%%@@@@,,@@@@@##,,++@@@--++----$$$++##**##$$&&&@@@@@@@@&&&&&&&%%--&&&**;;",
"..@@###@@@@$$$$$$$&&%%**%%$$$##@@%%++@@%%%$$%%##@@@@@&&@@$$#####,,==##@@@@@&&$$&&$$$$$==##@@@@@@%%%%%$$&&@@&&&%%%%$$&&&&&'';;",
"..@@###@@@@$$$$$$$&&%%**%%$$$##@@%%++@@%%%$$%%##@@@@@&&@@$$#####,,==##@@@@@&&$$&&$$$$$==##@@@@@@%%%%%$$&&@@&&&%%%%$$&&&&&'';;",
"..@@###@@@@$$$$$$$&&%%**%%$$$##@@%%++@@%%%$$%%##@@@@@&&@@$$#####,,==##@@@@@&&$$&&$$$$$==##@@@@@@%%%%%$$&&@@&&&%%%%$$&&&&&'';;",
"..#####@@$$$$@@$$$&&%%&&$$$$$$$@@$$++##$$$%%&&##@@###@@@@##@@###++####@@+++&&++--&&@@@==##@@@@##&&&%%$$%%@@---%%$$$$&&&&&''))",
"..#####@@$$$$@@$$$&&%%&&$$$$$$$@@$$++##$$$%%&&##@@###@@@@##@@###++####@@+++&&++--&&@@@==##@@@@##&&&%%$$%%@@---%%$$$$&&&&&''))",
"..#####@@$$$$@@$$$&&%%&&$$$$$$$@@$$++##$$$%%&&##@@###@@@@##@@###++####@@+++&&++--&&@@@==##@@@@##&&&%%$$%%@@---%%$$$$&&&&&''))",
"!!%%###@@@@@@$$$$$$$%%&&$$@@@##@@$$$$%%%%%$$$$%%@@#####@@#########++++@@+++&&$$--&&@@@##==@@@@@@$$$%%%%$$%%%%%%%$$&&&&-----;;",
"!!%%###@@@@@@$$$$$$$%%&&$$@@@##@@$$$$%%%%%$$$$%%@@#####@@#########++++@@+++&&$$--&&@@@##==@@@@@@$$$%%%%$$%%%%%%%$$&&&&-----;;",
"..@@#####@@@@$$$$$$$%%&&%%%%%@@@@$$##@@%%%$$$$@@#####@@@@#########,,++@@@@@++$$--$$@@@##++####@@&&&##%%@@%%@@@&&@@$$--''''';;",
"..@@#####@@@@$$$$$$$%%&&%%%%%@@@@$$##@@%%%$$$$@@#####@@@@#########,,++@@@@@++$$--$$@@@##++####@@&&&##%%@@%%@@@&&@@$$--''''';;",
"..@@#####@@@@$$$$$$$%%&&%%%%%@@@@$$##@@%%%$$$$@@#####@@@@#########,,++@@@@@++$$--$$@@@##++####@@&&&##%%@@%%@@@&&@@$$--''''';;",
"..@@@@@##@@@@$$$$$$$%%%%&&%%%++@@@@@@@@$$$@@$$@@++@@@@@&&@@#######++++@@+++@@@@@@&&+++,,##@@@@##%%%%%@@&&$$&&&$$@@@@''***--))",
"..@@@@@##@@@@$$$$$$$%%%%&&%%%++@@@@@@@@$$$@@$$@@++@@@@@&&@@#######++++@@+++@@@@@@&&+++,,##@@@@##%%%%%@@&&$$&&&$$@@@@''***--))",
"..#######@@$$$$$$$$$&&&&%%%%%++%%%%++##@@@@@@@==##%%%$$&&@@##+++####++@@@@@&&@@--@@$$$++##@@&&@@@@@@@@@%%&&@@@##$$$$**'''--))",
"..#######@@$$$$$$$$$&&&&%%%%%++%%%%++##@@@@@@@==##%%%$$&&@@##+++####++@@@@@&&@@--@@$$$++##@@&&@@@@@@@@@%%&&@@@##$$$$**'''--))",
"..#######@@$$$$$$$$$&&&&%%%%%++%%%%++##@@@@@@@==##%%%$$&&@@##+++####++@@@@@&&@@--@@$$$++##@@&&@@@@@@@@@%%&&@@@##$$$$**'''--))",
"..==###@@$$@@@@$$$$$--%%&&%%%++$$$$##==$$$$$$$##++@@@@@##@@++###++++##%%@@@@@$$--&&$$$######==&&@@@$$#########@@@@@@--'''**))",
"..==###@@$$@@@@$$$$$--%%&&%%%++$$$$##==$$$$$$$##++@@@@@##@@++###++++##%%@@@@@$$--&&$$$######==&&@@@$$#########@@@@@@--'''**))",
"..==###@@$$@@@@$$$$$--%%&&%%%++$$$$##==$$$$$$$##++@@@@@##@@++###++++##%%@@@@@$$--&&$$$######==&&@@@$$#########@@@@@@--'''**))",
"..#######@@@@@@$$$$$%%--&&%%%++%%%%++##@@@$$@@##,,$$$@@@@@@##+++======++@@@$$$$--$$$$$@@&&&&,,@@@@@@@######$$$@@##%%&&---**))",
"..#######@@@@@@$$$$$%%--&&%%%++%%%%++##@@@$$@@##,,$$$@@@@@@##+++======++@@@$$$$--$$$$$@@&&&&,,@@@@@@@######$$$@@##%%&&---**))",
"..##@@@##@@$$@@$$$$$##&&%%&&&##%%&&++##%%%$$$$>>,,&&&@@######+++,,==++@@@@@$$&&$$@@$$$@@$$&&&&$$###@@$$####&&&@@@@$$--'''**;;",
"..##@@@##@@$$@@$$$$$##&&%%&&&##%%&&++##%%%$$$$>>,,&&&@@######+++,,==++@@@@@$$&&$$@@$$$@@$$&&&&$$###@@$$####&&&@@@@$$--'''**;;",
"..##@@@##@@$$@@$$$$$##&&%%&&&##%%&&++##%%%$$$$>>,,&&&@@######+++,,==++@@@@@$$&&$$@@$$$@@$$&&&&$$###@@$$####&&&@@@@$$--'''**;;",
"..++###@@@@$$@@$$$--@@&&%%%%%%%&&%%@@++%%%@@##++##+++####++,,###,,++==++@@@$$&&$$--$$$$$@@,,##'',,,@@%%##@@@@@@@@@$$--***'';;",
"..++###@@@@$$@@$$$--@@&&%%%%%%%&&%%@@++%%%@@##++##+++####++,,###,,++==++@@@$$&&$$--$$$$$@@,,##'',,,@@%%##@@@@@@@@@$$--***'';;",
"..++###@@@@$$@@$$$--@@&&%%%%%%%&&%%@@++%%%@@##++##+++####++,,###,,++==++@@@$$&&$$--$$$$$@@,,##'',,,@@%%##@@@@@@@@@$$--***'';;",
"..#####@@$$$$$$$$$&&%%%%--&&&@@&&%%@@##$$$@@######+++####==,,,,,==++>>+++++&&&&&&$$@@@@@$$##&&''###&&@@&&##@@@##@@@@''---''>>",
"..#####@@$$$$$$$$$&&%%%%--&&&@@&&%%@@##$$$@@######+++####==,,,,,==++>>+++++&&&&&&$$@@@@@$$##&&''###&&@@&&##@@@##@@@@''---''>>",
"..##$$$$$$$$$$$$$$&&&&----&&&##&&$$@@##$$$@@####=====####,,,,+++==++>>@@+++@@&&--@@+++##@@@@@@@@$$$&&%%##$$&&&@@$$$$**&&&-->>",
"..##$$$$$$$$$$$$$$&&&&----&&&##&&$$@@##$$$@@####=====####,,,,+++==++>>@@+++@@&&--@@+++##@@@@@@@@$$$&&%%##$$&&&@@$$$$**&&&-->>",
"..##$$$$$$$$$$$$$$&&&&----&&&##&&$$@@##$$$@@####=====####,,,,+++==++>>@@+++@@&&--@@+++##@@@@@@@@$$$&&%%##$$&&&@@$$$$**&&&-->>",
"!!++$$$##$$$$$$&&&--&&''--&&&&&@@&&$$++%%%@@$$##,,===@@==>>,,+++++++>>@@+++@@--$$$$+++@@++$$@@#####&&@@&&++###==@@@@--&&&''>>",
"!!++$$$##$$$$$$&&&--&&''--&&&&&@@&&$$++%%%@@$$##,,===@@==>>,,+++++++>>@@+++@@--$$$$+++@@++$$@@#####&&@@&&++###==@@@@--&&&''>>",
"!!@@$$$@@$$@@$$&&&$$&&&&%%&&&&&&&&&$$@@@@@##&&,,>>,,,==>>,,##+++,,##,,++@@@@@@@--+++++####@@@@@@@@@%%@@&&+++++@@##%%&&***''>>",
"!!@@$$$@@$$@@$$&&&$$&&&&%%&&&&&&&&&$$@@@@@##&&,,>>,,,==>>,,##+++,,##,,++@@@@@@@--+++++####@@@@@@@@@%%@@&&+++++@@##%%&&***''>>",
"!!@@$$$@@$$@@$$&&&$$&&&&%%&&&&&&&&&$$@@@@@##&&,,>>,,,==>>,,##+++,,##,,++@@@@@@@--+++++####@@@@@@@@@%%@@&&+++++@@##%%&&***''>>",
"!!++$$$@@$$@@$$$$$$$##&&&&&&&@@%%&&%%++,,,##$$,,,,,,,>>>>==,,,,,++==>>+++++&&$$&&+++++@@##&&@@##@@@@@@@@@&&$$$##@@$$-------))",
"!!++$$$@@$$@@$$$$$$$##&&&&&&&@@%%&&%%++,,,##$$,,,,,,,>>>>==,,,,,++==>>+++++&&$$&&+++++@@##&&@@##@@@@@@@@@&&$$$##@@$$-------))",
"!!++$$$@@$$@@$$$$$$$##&&&&&&&@@%%&&%%++,,,##$$,,,,,,,>>>>==,,,,,++==>>+++++&&$$&&+++++@@##&&@@##@@@@@@@@@&&$$$##@@$$-------))",
"..++$$$@@$$$$$$$$$$$%%%%%%&&&##%%%%@@++===##&&==++,,,,,>>>>++>>>,,==,,@@@@@@@$$$$&&+++==##++@@++@@@@@%%&&@@&&&++&&@@&&---@@;;",
"..++$$$@@$$$$$$$$$$$%%%%%%&&&##%%%%@@++===##&&==++,,,,,>>>>++>>>,,==,,@@@@@@@$$$$&&+++==##++@@++@@@@@%%&&@@&&&++&&@@&&---@@;;",
"..@@$$$@@$$$$$$.....$$%%**...!!%%@@..!!.......>>##>>>..!!..++===!!..==@@!!!......!!...>>..!!#######!!..**$$$$$,,##@@&&&&&%%))",
"..@@$$$@@$$$$$$.....$$%%**...!!%%@@..!!.......>>##>>>..!!..++===!!..==@@!!!......!!...>>..!!#######!!..**$$$$$,,##@@&&&&&%%))",
"..@@$$$@@$$$$$$.....$$%%**...!!%%@@..!!.......>>##>>>..!!..++===!!..==@@!!!......!!...>>..!!#######!!..**$$$$$,,##@@&&&&&%%))",
"..##$$$$$$$$$$$~~~~~))&&&&~~~~~))~~~~{{]]]{{]]]]++~~~~~]]~~~~>>>~~~~]]+++++))~~~~)){{{]]~~~~{{@@@@@~~~~))$$%%%==%%##&&&&&&&))",
"..##$$$$$$$$$$$~~~~~))&&&&~~~~~))~~~~{{]]]{{]]]]++~~~~~]]~~~~>>>~~~~]]+++++))~~~~)){{{]]~~~~{{@@@@@~~~~))$$%%%==%%##&&&&&&&))",
"..##$$$$$$$$$$$~~~~~))&&&&~~~~~))~~~~{{]]]{{]]]]++~~~~~]]~~~~>>>~~~~]]+++++))~~~~)){{{]]~~~~{{@@@@@~~~~))$$%%%==%%##&&&&&&&))",
"!!++###@@@@$$$$^^^^^^^^^^^^^^^^))^^^^^^^^^^^^^,,^^^^^^^^^^^^^]]]^^^^]]>>+++$$^^^^))+++##^^^^^^^^^^^^^^^))&&#####@@##@@&&&&&))",
"!!++###@@@@$$$$^^^^^^^^^^^^^^^^))^^^^^^^^^^^^^,,^^^^^^^^^^^^^]]]^^^^]]>>+++$$^^^^))+++##^^^^^^^^^^^^^^^))&&#####@@##@@&&&&&))",
"..,,===@@@@$$$$/////))))))/////))////]]{{{{{]]]]/////]]{{////]]]////]]>>+++@@////))@@@##////)))))))////))@@#########@@-----))",
"..,,===@@@@$$$$/////))))))/////))////]]{{{{{]]]]/////]]{{////]]]////]]>>+++@@////))@@@##////)))))))////))@@#########@@-----))",
"..,,===@@@@$$$$/////))))))/////))////]]{{{{{]]]]/////]]{{////]]]////]]>>+++@@////))@@@##////)))))))////))@@#########@@-----))",
"..,,@@@$$$$$$@@((((())$$&&((((())&&(((((((((((>>(((((]]##((((]]]((((((((+++$$(((())+++##(((())%%%%%(((())$$@@@==####&&---&&))",
"..,,@@@$$$$$$@@((((())$$&&((((())&&(((((((((((>>(((((]]##((((]]]((((((((+++$$(((())+++##(((())%%%%%(((())$$@@@==####&&---&&))",
"..++#######$$@@&&&))))%%%%%%%{{))%%@@{{{{{)){{]]>>]]]]]##,,]]]]]>>]]]])))))$$$$))))@@@++##)){{@@@@@##))))@@@@@,,++%%&&-----))",
"..++#######$$@@&&&))))%%%%%%%{{))%%@@{{{{{)){{]]>>]]]]]##,,]]]]]>>]]]])))))$$$$))))@@@++##)){{@@@@@##))))@@@@@,,++%%&&-----))",
"..++#######$$@@&&&))))%%%%%%%{{))%%@@{{{{{)){{]]>>]]]]]##,,]]]]]>>]]]])))))$$$$))))@@@++##)){{@@@@@##))))@@@@@,,++%%&&-----))",
"..@@###@@##$$@@$$$$$&&%%##$$$%%$$@@@@@@@@@@@##,,,,,,,====;;>>===>>++>>++%%%&&$$&&$$@@@++######@@###@@@@@@@@@@@,,##$$%%-----))",
"..@@###@@##$$@@$$$$$&&%%##$$$%%$$@@@@@@@@@@@##,,,,,,,====;;>>===>>++>>++%%%&&$$&&$$@@@++######@@###@@@@@@@@@@@,,##$$%%-----))",
"..@@###@@##$$@@$$$$$&&%%##$$$%%$$@@@@@@@@@@@##,,,,,,,====;;>>===>>++>>++%%%&&$$&&$$@@@++######@@###@@@@@@@@@@@,,##$$%%-----))",
"..@@#######$$@@@@@@@%%&&&&***%%%%%%@@@@===####;;,,,,,==,,>>==,,,>>,,,,++@@@&&$$&&&&@@@##++++#######@@####@@%%%######&&***--))",
"..@@#######$$@@@@@@@%%&&&&***%%%%%%@@@@===####;;,,,,,==,,>>==,,,>>,,,,++@@@&&$$&&&&@@@##++++#######@@####@@%%%######&&***--))",
">>>>>>>,,>>>>>>,,,====##,,,,,,,>>>>))>>>>>{{))))))))){{)))){{)))));;>>==,,,====>>>>;;;;;>>>>>>>>>>>>>>>,,>>>>>>>==##++=======",
">>>>>>>,,>>>>>>,,,====##,,,,,,,>>>>))>>>>>{{))))))))){{)))){{)))));;>>==,,,====>>>>;;;;;>>>>>>>>>>>>>>>,,>>>>>>>==##++======="};
