/* XPM */
static char * MapBorder_xpm[] = {
"22 22 9 1",
" 	c #434343",
".	c #636363",
"+	c #474747",
"@	c #575757",
"#	c #4F4F4F",
"$	c #5B5B5B",
"%	c #3B3B3B",
"&	c #373737",
"*	c #6B6B6B",
" . +. @#@$.@@%@.++#.@@",
"++& ##.@@..@.&@.++#$$#",
"+@+ ##$#$$. #%@*###@$@",
"+++ # +@@+$+# ..$ #$.+",
"##++## +$..%$+@.@ +@$#",
"+.++ # #@..+@##.@ #.$@",
"+@## +%@@.$ $. ..++$@@",
"$####+##$.$@#$ ..+ $.$",
"#+++ #+#+$##+.#@##+@@.",
"@#+#@+@@#$##+###$$+@@@",
"@#+++ #@#$#.++@+.@+@@@",
"@+ +++#+##+.@%. $.+@$#",
"# # ##  ##+$.+++.$+#$+",
"+&+++++++@+$$@#+.@ @$+",
"+%#+&#+#+##@+@+#$#+@#@",
"#%+++&+##%##+#++#+####",
"++%++@%.#%#+#+$ #. #@#",
"+ + ++ ## ##+.$%+$&###",
" +++@++##.++@$# #++###",
"++&++++@@##+#+#  #++##",
"++++ #.#+#.+#+# &$+#@#",
"@++ +#+##..#$ ## # +@@"};
