/* XPM */
static char * MapHead_xpm[] = {
"28 29 41 1",
" 	c #00FFFF",
".	c #4B371B",
"+	c #5F4323",
"@	c #6B4727",
"#	c #774F2B",
"$	c #332B13",
"%	c #533F1F",
"&	c #7F532F",
"*	c #8F5F37",
"=	c #AB6F43",
"-	c #BF7B4B",
";	c #CF8353",
">	c #9B633B",
",	c #CB7F4F",
"'	c #B37347",
")	c #875733",
"!	c #A36B3F",
"~	c #2B230F",
"{	c #3F2F17",
"]	c #EFA373",
"^	c #E79B6B",
"/	c #FFBB93",
"(	c #D78B5B",
"_	c #DF9363",
":	c #473323",
"<	c #675333",
"[	c #6B6B6B",
"}	c #000000",
"|	c #3B3B3B",
"1	c #B3B3B3",
"2	c #EB9797",
"3	c #BB5757",
"4	c #DB7B7B",
"5	c #FFA35B",
"6	c #FFB37B",
"7	c #FFC7A7",
"8	c #FFD7BB",
"9	c #F7AB7B",
"0	c #9F8363",
"a	c #FFBF9B",
"b	c #9B5B13",
"       .+++@#####@++.       ",
"     $+%&*=-;;;-=>#+%+$     ",
"    $+#*=-,;-'>>>**##%.$    ",
"    $#)#*>')=*!####+%$$~    ",
"   ~{+#+*>****.*+.+.$~~~~   ",
"   ~{.%+*%>@@*@.@.{+~$${~   ",
"   ~..##%*%@#@@***))@.{.~   ",
"   ~.%#*#%!%#*!'>!***@..~   ",
"   ~.+*='!!''''''!!'=*%.~   ",
"   ~.#>;,,'!====!',,;>+.~   ",
"   ~.#>;]^;-!**!-;^];>#.~   ",
"   ~.#'^//^^;((;^^//^'#.~   ",
"  '@.#@@%!_'#''#'_!%@@#.@'  ",
"  '@:*=+{{{.{**{.{{{+=*:@'  ",
"  *@<'#[}[|}%((%}[}[1#'<@*  ",
"  @+)'*=23@+*;^*+@32=*')+@  ",
"  )+)4(-=*=,(56(,=*=-(4)+)  ",
"  *+*;_]_,5/^56^/5,_]_;*+*  ",
"   +)!=-(57_(68(_75(-=!)+   ",
"   +#>!-]9(=>00>=(9]-!>#+   ",
"    #'>(/^-%#))#%-^/(>'#    ",
"    +,>^9;;(-!!-(;;9^>,+    ",
"    %=!(^;(9a__a9(;^(!=%    ",
"     )=,(*#bbbbbb#*(,=)     ",
"     %*',,,(^55^(,,,'*%     ",
"      @=;_,=*&&*=,_;=@      ",
"       @=;_,,^^,,_;=@       ",
"        %)'(^aa^(')%        ",
"          @*!!!!*@          "};
