/* XPM */
static char * medikit_xpm[] = {
"64 43 26 1",
" 	c None",
".	c #8B8B8B",
"+	c #939393",
"@	c #9F9F9F",
"#	c #A7A7A7",
"$	c #777777",
"%	c #6B6B6B",
"&	c #6F6F6F",
"*	c #636363",
"=	c #730000",
"-	c #8B0000",
";	c #5B5B5B",
">	c #4F4F4F",
",	c #9B0000",
"'	c #575757",
")	c #5B472B",
"!	c #D3D3D3",
"~	c #979797",
"{	c #775F3F",
"]	c #373737",
"^	c #000000",
"/	c #4F3B23",
"(	c #272727",
"_	c #2F2F2F",
":	c #3B3B3B",
"<	c #4B4B4B",
"       ..................................................       ",
"       ..................................................       ",
"     ..++++++++++++++++++++++++++++++++++++++++++++++++++..     ",
"     ..++++++++++++++++++++++++++++++++++++++++++++++++++..     ",
"     ..++++++++++++++++++++++++++++++++++++++++++++++++++..     ",
"  ............................................................  ",
"  ............................................................  ",
"++@@@@@@@@@@@@#########################################@@@@@@@++",
"++@@@@@@@@@@@@#########################################@@@@@@@++",
"$$%%%%%&&&&&&&%%&&&&&&&&&&&&&&&&&&&&&&&&&&&&&&&&&&&&&&&&&&&&&&$$",
"$$%%%%%&&&&&&&%%&&&&&&&&&&&&&&&&&&&&&&&&&&&&&&&&&&&&&&&&&&&&&&$$",
"$$***%%%%&&&&&&&&&&&&&&&&&&&&&====&&&&&&&&&&&&&&&&&&&&&%%*****$$",
"$$***%%%%&&&&&&&&&&&&&&&&&&&&&====&&&&&&&&&&&&&&&&&&&&&%%*****$$",
"$$***%%%%&&&&&&&&&&&&&&&&&&&&&====&&&&&&&&&&&&&&&&&&&&&%%*****$$",
"&&*****%%%%%%%&&&&&&&&&&&&&&&&----&&&&&&&&&&&&&&&&%%%%%****;;;&&",
"&&*****%%%%%%%&&&&&&&&&&&&&&&&----&&&&&&&&&&&&&&&&%%%%%****;;;&&",
">>&&&**;;*****%%%%%%%%%%%==---,,,,---==%%%%%%%%%*******'';;&&&>>",
">>&&&**;;*****%%%%%%%%%%%==---,,,,---==%%%%%%%%%*******'';;&&&>>",
">>)))&&;;''''';;*********==---,,-----==***********'''''>>&&)))>>",
">>)))&&;;''''';;*********==---,,-----==***********'''''>>&&)))>>",
">>%%%))&&;;'''$$!!$$$''*******----*******;;$$$!!$$>>>>>&&))%%%>>",
">>%%%))&&;;'''$$!!$$$''*******----*******;;$$$!!$$>>>>>&&))%%%>>",
">>%%%))&&;;'''$$!!$$$''*******----*******;;$$$!!$$>>>>>&&))%%%>>",
">>&&&%%))&&;;;&&~~&&&;;''>>>>>====>>>>>'';;&&&~~&&>>>&&))%%&&&>>",
">>&&&%%))&&;;;&&~~&&&;;''>>>>>====>>>>>'';;&&&~~&&>>>&&))%%&&&>>",
">>&&&&&{{));;;**;;%%%%%%%%%%%%%%%%%%%%%%%%%%%%;;**;;;)){{&&&&&>>",
">>&&&&&{{));;;**;;%%%%%%%%%%%%%%%%%%%%%%%%%%%%;;**;;;)){{&&&&&>>",
">>%%%&&&&{{]]]^^^^^^^//))))))))))))))))))//^^^^^^^]]]{{&&&&%%%>>",
">>%%%&&&&{{]]]^^^^^^^//))))))))))))))))))//^^^^^^^]]]{{&&&&%%%>>",
">>%%%%%%%%%'''((__(((''%%%%%%%%%%%%%%%%%%''(((__(('''%%%%%%%%%>>",
">>%%%%%%%%%'''((__(((''%%%%%%%%%%%%%%%%%%''(((__(('''%%%%%%%%%>>",
">>%%%%%%%%%'''((__(((''%%%%%%%%%%%%%%%%%%''(((__(('''%%%%%%%%%>>",
">>*********'''__::___''******************''___::__'''*********>>",
">>*********'''__::___''******************''___::__'''*********>>",
">>*********'''((__(((''******************''(((__(('''*********>>",
">>*********'''((__(((''******************''(((__(('''*********>>",
">>;;;;;;;;;<<<(((((((<<;;;;;;;;;;;;;;;;;;<<(((((((<<<;;;;;;;;;>>",
">>;;;;;;;;;<<<(((((((<<;;;;;;;;;;;;;;;;;;<<(((((((<<<;;;;;;;;;>>",
">>>>>>>>>>><<<(((((((<<>>>>>>>>>>>>>>>>>><<(((((((<<<>>>>>>>>>>>",
">>>>>>>>>>><<<(((((((<<>>>>>>>>>>>>>>>>>><<(((((((<<<>>>>>>>>>>>",
">>>>>>>>>>><<<(((((((<<>>>>>>>>>>>>>>>>>><<(((((((<<<>>>>>>>>>>>",
">>))))))))))))_______))))))))))))))))))))))_______))))))))))))>>",
">>))))))))))))_______))))))))))))))))))))))_______))))))))))))>>"};
