/* XPM */
static char * pbfg_xpm[] = {
"64 38 45 1",
" 	c None",
".	c #272727",
"+	c #000000",
"@	c #777777",
"#	c #2F2F2F",
"$	c #4F4F4F",
"%	c #575757",
"&	c #6B6B6B",
"*	c #232323",
"=	c #4B371B",
"-	c #533F1F",
";	c #5F4323",
">	c #5B5B5B",
",	c #7F7F7F",
"'	c #8B8B8B",
")	c #636363",
"!	c #774F2B",
"~	c #6B4727",
"{	c #3B3B3B",
"]	c #474747",
"^	c #373737",
"/	c #434343",
"(	c #979797",
"_	c #DFDFDF",
":	c #B7B7B7",
"<	c #9F9F9F",
"[	c #B3B3B3",
"}	c #ABABAB",
"|	c #A7A7A7",
"1	c #332B13",
"2	c #3F2F17",
"3	c #838383",
"4	c #C7C7C7",
"5	c #939393",
"6	c #6F6F6F",
"7	c #170F07",
"8	c #6B0F0F",
"9	c #B30000",
"0	c #FF0000",
"a	c #DBDBDB",
"b	c #EFEFEF",
"c	c #7F532F",
"d	c #875733",
"e	c #4B4B4B",
"f	c #2B230F",
"                    .                                           ",
"                   .+                                           ",
"                  .++                                           ",
"        @@      .+++                                            ",
"       @#$@@+++++++                                             ",
"       @%%&&@++++                                               ",
"        &%%%&@                                                  ",
"         &%%%&@                                                 ",
"         +&&%%&@                                                ",
"        .+++&%%&@                                               ",
"        .+++&%%&@                                               ",
"       .++++ &%%&@                                              ",
"      ++++    &%%&@                                             ",
"     *==++     &%%&@                                            ",
"     =--;$>>    &%%&@                                           ",
"       $;$$$$>,,-&#&@                                           ",
"         $>>',)!;;&>                                            ",
"         ',,))%!!~{]^    ^/$>&@((_:('^><<::_[}|<_@&>##          ",
"       ',)))%&>{112^^  {)@)/$>&>>>>>>^^^^^@[@^^@|@>^##          ",
"     ',))%&&&>1122^@'||[[[|('@@33'(|4[($%&@}}<5]3]3]''*.#*$*$.67",
"   ',))%&&>>112^^  $%))))$898$)66@3([|'^]%&&&&&{&^)^&&^.^*^*/.&7",
" @@))%&)$^//$@@'([[$%)&&&$909$&@@'''||'$^^^^^^^^^^^^^^{*{*{*{*>7",
"%)%%&)$^/$))&&&&)>%$%),3,$898$,,,'',||'3,^}>}>}>}^33++/7#+#+#+%7",
"%&&)$^^^^^//////////%)&,,,,&,,,&&,,)|(36>^a{_{b{b^))++.%66666%.7",
" %$^^{]$%%%%%%%%$$]/%)&${{$&@@@&&@@)(5@6>^}^}#_#b^$)++++++++++77",
" {{{/$$%&&&&&&&&)>%$%cd/&//&&&&&&&&)53@6>^})})}/}^])777777777777",
" +++++++++++++++++++%~c{)/{)))cddc))3,@6>^,/@)@)@^^)77##########",
"        +++++++{{*++%%$^$/^$$$$$$$$$))%$#+%+%+%+%+#$77*.#*$*$.e7",
"         ******]]*+++++.//{.++++++++++++++#*+++*#+++++^.^*^*/.]7",
"         ******]]*+++++.//{.++++++++++++++#*+++*#+++++^.^*^*/.]7",
"          .....%%.+*+*+*#..+++++++++++++++*#///#*+++77{*{*{*{*{7",
"            ###%%#*#*#*#f=1**//++++{++++++++++++++++77/7#+#+#+{7",
"             ^^%%^#^#^#^+221.>${{{{++++++++++++++{+{77#{eeeee{.7",
"                         f=1#/^+++++   +*+*+*7777     ++++++++77",
"                         +22#>$         ++*+*  77777777777777777",
"                          f=#/^          ++++   77777777        ",
"                          +21%$                                 ",
"                           +f^/                                 "};
