/* XPM */
static char * pchainsaw_xpm[] = {
"64 25 59 1",
" 	c None",
".	c #474747",
"+	c #575757",
"@	c #5B5B5B",
"#	c #4F4F4F",
"$	c #232323",
"%	c #53573B",
"&	c #434343",
"*	c #272727",
"=	c #1B1B1B",
"-	c #2F2F2F",
";	c #373737",
">	c #131313",
",	c #636363",
"'	c #000000",
")	c #13230B",
"!	c #6F6F6F",
"~	c #0B1707",
"{	c #3B3B3B",
"]	c #070707",
"^	c #730000",
"/	c #5B0000",
"(	c #4F0000",
"_	c #8B0000",
":	c #7F7F7F",
"<	c #D7BB43",
"[	c #FFFF73",
"}	c #AF7B1F",
"|	c #533F1F",
"1	c #6B4727",
"2	c #5F4323",
"3	c #4B371B",
"4	c #332B13",
"5	c #2B230F",
"6	c #C39B2F",
"7	c #9B5B13",
"8	c #373F27",
"9	c #5B6347",
"0	c #3F472B",
"a	c #170F07",
"b	c #1F170B",
"c	c #7F532F",
"d	c #8F5F37",
"e	c #A36B3F",
"f	c #B37347",
"g	c #BF7B4B",
"h	c #875733",
"i	c #9B633B",
"j	c #AB6F43",
"k	c #874307",
"l	c #43331B",
"m	c #4F3B23",
"n	c #732B00",
"o	c #774F2B",
"p	c #474F33",
"q	c #5B472B",
"r	c #3F2F17",
"s	c #AF4300",
"t	c #CB5707",
"                        .+@@#.$                                 ",
"                     %.&*======$-                               ",
"                   %-;*=>>>>>>>>$-                              ",
"            ,,.&&$-*==>''''''''''>-                             ",
"         @@.&$$$$$*=>'$$$$$$$$$$$>$                             ",
"      @@.&='=*$$$$)>>.!         $$>                             ",
"    @&$='''=*>=$$*~''{.!        {$>                             ",
"   {$$='''';->>**;'']-{.,       &$>                             ",
"  {$=''^/]'${-'--;'''$-#+!!,    .$>                             ",
"  ;='= (_]]'$$${{-'''#,!,@.{    .$>                             ",
" ;='=;     ]';'::{'''+#.&;;$    .$>                             ",
" $=$;@ <[<}|'-$''$'''>'$$$$$    .$>{# #{ #{ #{ ###{*#{-#{-#{{   ",
"$$|111223345'-&{{='><67#'8&8>8904a'8)44'8'8>8*8$$8'8'8a8a8a8b#{ ",
"$$|111223345'-&{{='><67#'8&8>8904a'8)44'8'8>8*8$$8'8'8a8a8a8b#{ ",
"|cdefg6666666-;--='5767.'>>''>]''''''''''''''''''''''''''''''$8#",
"1hij}}}}}ee}6-;$$'''k<k.''''''''''''''''''''''''''''''''''''''4{",
"1cccchla]mee6-;$$]'n76k&'''''''''''''''''''''''''>''''''''''''8*",
"22occhb$blh76-;$$'nk767&''''''''''''''''''''''''''>'''''''''''4#",
"|1211c40p8776-;$$]k@:67{''''''''''''''''''''''''''''''''''''''8{",
"43||||mqqmk76-;$$]7#@67;'''''''''''''''''''''''''''''''''''''$* ",
"b4lr3||kk7kk<**--a|k}67;''''''''''4b*>b$'''aa'>'''''''''''''${# ",
" bbb4r|kssss7}***-'|667;8%8%848'8'88%848'8'8b8$88'$b-8>8$8%#{*  ",
"   babr32kstk7}****'|77*'''$*$${# {# 5# {# {# {###-{#-{#*{#*    ",
"     '444444444''$$''44*b'**                                    ",
"                 $$''                                           "};
