/* XPM */
static char * pgatlin_xpm[] = {
"64 19 35 1",
" 	c None",
".	c #575757",
"+	c #434343",
"@	c #636363",
"#	c #7F7F7F",
"$	c #6F6F6F",
"%	c #838383",
"&	c #8B8B8B",
"*	c #373737",
"=	c #4B371B",
"-	c #533F1F",
";	c #1B1B1B",
">	c #3B3B3B",
",	c #6B4727",
"'	c #774F2B",
")	c #000000",
"!	c #4F4F4F",
"~	c #232323",
"{	c #939393",
"]	c #B3B3B3",
"^	c #777777",
"/	c #5B5B5B",
"(	c #272727",
"_	c #5F4323",
":	c #474747",
"<	c #131313",
"[	c #9F9F9F",
"}	c #ABABAB",
"|	c #A7A7A7",
"1	c #2F2F2F",
"2	c #3F2F17",
"3	c #4B4B4B",
"4	c #170F07",
"5	c #6B6B6B",
"6	c #0B0B0B",
"           .......+              @#####$@   %&   %&        %&&  ",
"           **==--=+;>----,,'''+))!@@@@$*~%%+{]%++{]#^$$^$/+{]]$$",
"       @+((*=--==*+;++++++-_''>))>::::/<(@@)[}@))[|@/::/:>)[||&&",
"       @+((*=--==*+;++++++-_''>))>::::/<(@@)[}@))[|@/::/:>)[||&&",
"     @+1)((=-_=***+;*!!@+!@-,,*))*>>>>.<1**)&}*))&}**~~*~))&}}++",
"  @@+1)))))2--=**=+;*222*22-__1))111113<:++)#[+))#[+++++++)#[[  ",
"@+11)))))))~2=*==-+;1!!@=!@-__1))(~~~~:<:$$)$&$))$&$@..@.:)$&&  ",
"))))))))))))21=--_+;(222=22-__1))(((~~+<111)@%1))@%1111111)@%%  ",
");))))))))))~1-__,+;(222===_,,1))(((~~><((()3$)))3$))))))))3$$  ",
");))((((444);++++++~~222==_,''1))(((~1*<~!!)>5!))>5!!!!!!*)>55  ",
");))((((444);++++++~~222==_,''1))(((~1*<~!!)>5!))>5!!!!!!*)>55  ",
"))((*./:1));;;;;;;;;;;;((1**111))(~~1*><)11)(/1))(/1111111)(//  ",
" )((*:./:))  >))))))))))<)~)))<))(11**+<)66)<!6))<!6666666)<!!  ",
" )((1:@5/(()))))))))))))1)1))))))<))))1))   (/@  (/@       (//  ",
"  ((1>.@5**)))~    ))))(!(!>)))                                 ",
"  ))11!.@::          ))1>1>!                                    ",
"  ))11!.@::          ))1>1>!                                    ",
"    )1++!::          ))1111!                                    ",
"     )1>>~~          )))))))                                    "};
