/* XPM */
static char * plasmabolt_xpm[] = {
"308 41 18 1",
" 	c None",
".	c #7373FF",
"+	c #8F8FFF",
"@	c #ABABFF",
"#	c #E7E7FF",
"$	c #C7C7FF",
"%	c #FFFFD7",
"&	c #FFFFFF",
"*	c #0000FF",
"=	c #3737FF",
"-	c #5353FF",
";	c #1B1BFF",
">	c #FFFFB3",
",	c #0000CB",
"'	c #0000E3",
")	c #000047",
"!	c #000083",
"~	c #FFDBDB",
"                                                                                                                                                    .   .                                                                                                                                                           ",
"                                                                                                                                                    +.@@@#                                                                                                                                                          ",
"                                                                                                                                                    @@+.+@#.                                                                                                                                                        ",
"                                                                                                                                                    @+. .@#@.                                     ...         @                                                                                                     ",
"                                                                                                                                                ..@@+  .+@$#+.++                                 .$+.        $                                                                                                      ",
"                                                                                                                                                .   ...+++#@+.+ .                                  .$$++     %                            .@.  $@     +                                                             ",
"                                                                                                                                                +  ..@++++%@@++ +.                                   +%###$ $#   ..                      .  @.$ .@   + .                                                            ",
"                                                                                                                                                +  +$$@@++$%++@  @                         .+     +++$#$$$##$    .                        ..@.$  + .@+                                                              ",
"                                                                                                                                                +$%%&&#$@@+$%%#@+ $   @@            .    ..+     +##%%$+++$%+      .                  .#   ..$++ ++.                                                                ",
"                                                                                                           *=*=***                     @       +$#$+++$&#$$#$$$%+  $##+            +    ..   +   #+@+#%$+++%+      .                   $$..++#++                                                                    ",
"                                                                                                         **-..+@.-**                    $$#   ++%$+@@++$&##$@++%@+@#$@             ++   .   #+@@@#@@#@@#@++#++                          # ..+$#+   $ +.                                                             ",
"                                                                                                        *.-...+@.--=*                     $$+++%$@@@@@@$$##@@#+#@@$%..                  +$%%#@@@######@#$@@$%%%++..                     $#++@@##+  +$. .                                                            ",
"                                                                                                      **=-...+@$+.---**                    ####$+@@$$#$$###$$$@$%###+       .        @..$$+#%%&@@###&&##$$@@@+$#  .                  +++@#$@$@#+$@++#   .                                                           ",
"                       -                                                                              *==-.+$@$@@@+...;                   +#$++@@@$##$####&##$$$$$&%+    .@@+.       .$$   +##%%#&&&####$$$@@++%  @                  .+++&#$$##$#$@&$.                                                              ",
"                       -                                  -           -                              *..=-+.@+&$@++.@.-*                  ##+++@@$$#############$$&%@  ..$@          .++   +##$#&&&&&#&####$@@+%. @                  +@@$##&$#####$>@$.                                                             ",
"                      ,.,                                  .   ,=,   .                              '*;;.++@$$&$$$@@.+-==                 #$++@@$$$##&%&##&&##&&@$&%#@ @$>.         ..+    @###&#&%%&&&&###$@@+%..+@@+.              @+@#$########$&@#.                                                             ",
"                    )!=+=!)                                 +,!=.=!,+                               **-...@@$$&&$$@$@@.-;                +$#++###@##&#####&#&##&#%%@@#@$>@         ..     +#####&&&&&%&#&###@++#$.@+@.              #++$$$####&&#&##@>.                                                             ",
"                   );-.+.-;)                                ,@-.+.-@,                              '*-...$$$&#&&&#$$@$@--*               ++$##$@@##&&&&#&#&&#####%#+@@>>@         ..  +   +>>###&%%%&&&#&##$@++$#$@.+@            +.+&+#####&&&&%&&##@$..                                                           ",
"                  );-.@$@.-;)                              );-$@$@$-;)                             '-.@+@$$#&&&&&##@@@+.-*               +++#$@@$#&&&%%&###&&&###&+@$...           . .++++#+$##&#&%%%&&#&####+++$%.@.@              .++&##&%%%%%%&&##@+$.                                  +@+                      ",
"                  ,=.+$&$+.=,                              ,=.+###+.=,                             *@$$####&&&&&&&&#$&#$+*               +++##@@#&##%%&%&#&&&&#&#&$@@.              .#%%>##@#>###&%&&##&&&#&##$+$%@@@#               .+&$#%%#&%&%&&###@#+.                                +$#$+                     ",
"                -..+$$&&&$$+..-                            =.+$#&#$+.=                             '@@#$#$#&&&&&&&&&$$$@.*                 +#+#@#&#&&%&%%&&#&%%&$#@+.               .#+++@$#@###&&%%%%&&&#&##&#$%#$##                @@$#&%%&#%%%&#&#@ >+.                               +$#&#$+                    ",
"                  ,=.+$&$+.=,                              ,=.+###+.=,                             *--@.+$$$&&&&#&#$$&+.-*                 +#@@###&&%%&&%%%#%%##$#$+..             .>..+++@$$@###&&##&&#&##$@$%%@@#@.             ...$@+##%%%##&&&&#$@+>+.                               @#&&&#@                    ",
"                  );-.@$@.-;)                              );-$@$@$-;)                             '*;.-+@@$$#&&##$$@@++-*                 +##@@#&&&%%&%&&&&&&####$+++.           $$ ....++@@&#>##&&%%#&###$@@$+@.@@              #$@@@&#&#&#####&#@###$+.                               +$#&#$+                    ",
"                   );-.$.-;)                                ,@-.+.-@,                              '*--..+@$$$&##$@+.++...                  +###&$&&&&%%&&&&#&&#&##$$@+.$$         .   ..++@$###&#&&&&####$$#+$@@@.             ..$@$$$>@&##&##&&###$@+@+.                                +$#$+                     ",
"                    )!=+=!)                                 +,,=.=!,+                               *=-=-.@+$@#$$$+.++.+;                     $&$@#%%%%###&##&&##&#>>>&$            .    $&&##@$&###&###&#$@++$++@@              ....@#>$$########$$@@@+.                                  +@+                      ",
"                      ,.,                                  .   ,=,   .                              '=;---+.@+#@@@@+-.+-*                     $&@#%%&##&&###&&##$&$@+@$             .    >#&&#$$####&&#&&#$$###@...                 .+>>$$$$$##$#$$@+$#$@                                                           ",
"                       .                                  -           -                              *=--..+++@++@@-.-.*                      $&@%###&###&&####$$#$..                 .#..$$$########&&&$$$#$+@...                   .>++##@@#@$@@@@$#@+$                                                           ",
"                       .                                                                              *;--....@+++..-.*                  +   +$&@%$$###&&###&#$$&$@@.                $#. . ++@$###&&@$#&%%&#$+ .                     #.++$+@$#@$+@@$>>   +$                                                         ",
"                                                                                                      **-----.+++.--.**                   +   $+@~@$#######$$$$&#$@+                  .  .  +@+$#++++@+@%#%%%$@.                   @@  .++$##$+#$$>>#      @                                                        ",
"                                                                                                        *==--..-.-==*                      +  $+$#+@$###$$$$@$#&+++.                        .+@$#$+..+@@%#++$#@                           ++>@+@#>$ $                                                               ",
"                                                                                                         ***=--+--**                       .    %+++@$$##$$$@@#&+..                           $#>$+. +@%@ ####@                         . . >@++@#$ @                                                               ",
"                                                                                                           *******                          .   ~+   ++$##$@++$#$.                            $#>+.  +#@  $. $#                          ...@@+.$$#@.                                                               ",
"                                                                                                                                            .   $$     +$#@+++++#.                             $$.   +%$@$$                                ..$$@                                                                    ",
"                                                                                                                                             ..++$     +$#++..  #.                               +    $#$$                                  .$                                                                      ",
"                                                                                                                                                 .$+   ++#+++   .#.                                    +$$@                                                                                                         ",
"                                                                                                                                                 .$++ +++#+.     .#.                                    .+@                                                                                                         ",
"                                                                                                                                                 @...  ..$#.      $.                                      +.                                                                                                        ",
"                                                                                                                                                @.  .   ..$#.                                             .                                                                                                         ",
"                                                                                                                                            .  +    ..  ...$                                                                                                                                                        ",
"                                                                                                                                             ++      ...   .$                                                                                                                                                       ",
"                                                                                                                                                      .     $                                                                                                                                                       "};
