/* XPM */
static char * pplasma_xpm[] = {
"64 19 42 1",
" 	c None",
".	c #3B3B3B",
"+	c #373737",
"@	c #232323",
"#	c #5B5B5B",
"$	c #434343",
"%	c #474747",
"&	c #4F4F4F",
"*	c #575757",
"=	c #7B634F",
"-	c #8B735B",
";	c #937B63",
">	c #9F876F",
",	c #AF977F",
"'	c #000000",
")	c #272727",
"!	c #2F2F2F",
"~	c #6F6F6F",
"{	c #636363",
"]	c #7F7F7F",
"^	c #5B6347",
"/	c #BFA78F",
"(	c #836B57",
"_	c #9B7F6B",
":	c #A78F77",
"<	c #6B6B6B",
"[	c #1B1B1B",
"}	c #43331B",
"|	c #67533F",
"1	c #574333",
"2	c #836B4B",
"3	c #7F0000",
"4	c #FF0000",
"5	c #3F2F17",
"6	c #13230B",
"7	c #533F2F",
"8	c #675333",
"9	c #170F07",
"0	c #2B230F",
"a	c #332B13",
"b	c #5B472B",
"c	c #0B1707",
"         ...............+                                       ",
"       @@@@@#        ..@@                                       ",
"  @@@@@@@@@.$#..........$%&*   =-=--=-=-=----;>,,  '@))!@&@&))~ ",
"  @@@@@@@@@.$#..........$%&*   =-=--=-=-=----;>,,  '@))!@&@&))~ ",
" @++&*{{{{{*&&$@@''''@@$&{{]'''^/^,,^>(>(;;_>:,,,'''+))+@+@$))<@",
"@$++.+!)@@@[[[[!!.&%.!![[[+<@@@}|}||}|}|1||1|||22@@'.@@.@.@.@@#@",
"@''''343'''''''[[[[[[[[''[+#'''565665656566567688'''$99!'!'!''*@",
"@''''@!%*&&%$+!!!!!!!..%*{<<@@@0'0''0'0'0''0'a'bb@@'$**~~~~~*** ",
"@'''@$$+!!!)@@0000000000@@+&'''9'9''9'9'9''9'9'}}'''''''''''''% ",
"@'''$!@!+@@@@@'''''''''''@@$@@@9'''''''''''''''00@@''@@)!.!)@@% ",
"@'''$!@!+@@@@@'''''''''''@@$@@@9'''''''''''''''00@@''@@)!.!)@@% ",
" '''+@@+.''''    ''''''''@).'''909009090900909c99''''''''''@)). ",
" '''+)).$'''''''''''''''')!+   99'99'9'999999'999  '999'''@)!!+ ",
"  ''+@!$.         '@'@@'@                                       ",
"  ''+@!.+          ''@@'@                                       ",
"    '@!++           '''''                                       ",
"    '@!++           '''''                                       ",
"    '@!!+                                                       ",
"     ''++                                                       "};
