/* XPM */
static char * procketl_xpm[] = {
"64 17 37 1",
" 	c None",
".	c #272727",
"+	c #373737",
"@	c #636363",
"#	c #6F6F6F",
"$	c #232323",
"%	c #474747",
"&	c #4F4F4F",
"*	c #575757",
"=	c #5B5B5B",
"-	c #6B6B6B",
";	c #7F7F7F",
">	c #3F2F17",
",	c #67533F",
"'	c #434343",
")	c #533F1F",
"!	c #4B371B",
"~	c #332B13",
"{	c #2B230F",
"]	c #1B1B1B",
"^	c #3B3B3B",
"/	c #4F3B23",
"(	c #5F4B37",
"_	c #7F532F",
":	c #1F170B",
"<	c #2F2F2F",
"[	c #777777",
"}	c #6B4727",
"|	c #6F5743",
"1	c #131313",
"2	c #5F4323",
"3	c #000000",
"4	c #43331B",
"5	c #170F07",
"6	c #4B4B4B",
"7	c #574333",
"8	c #0B0B0B",
"             .+                                                 ",
"            +......+                                   @##      ",
"         $+%%%&***=@@@@==***&$                       @--#;;#    ",
">,-------'%)!>~~~{{]]]]]]]]]+'''=$^^^^^^^^^^^^^^^^^^=@@@&=-;;#  ",
"~/(******+'!!!>>>~~~~~~{{{{{+%&*=.''''''''''''''''''&_**'%&=-;#*",
":>^''''''.+>>~{$$<${{{{{{{{{+#[+&]<<<<<<<<<<<<<<<<<<^}&&+++%&*(|",
"]{.<<<<<<]<~~{{$$<<+^'%&*-[[[-@$^1$$^^%^%^*^*$$$$$$$>)2'<<+%3342",
"55]]]]]]]1.{]]]]]$$+^^'''%66&'^3]333%<%<%<'<']333333$2^^.$.*^3~7",
"31]$....$].333333333333333333333]].$+3+3+3+3%*-33%*-$+++$$$$.<<~",
"31]$....$].333333333333333333333]].$+3+3+3+3%*-33%*-$+++$$$$.<<~",
"5]]]]]]]]1.3]$<^^<$]338883333333]11]$3$3$3$33]]]]3333+<<]].<]]  ",
"         $..+^''''+<$]]]]]]$<$      3.3.3.3.333  333 3...<]]    ",
"             ^^<<.$$<$$$<                              333      ",
"             ^<..$.<  $<                                        ",
"             <.$$.<33$<                                         ",
"             $...<3                                             ",
"             33333                                              "};
