/* XPM */
static char * pshotgun_xpm[] = {
"64 12 32 1",
" 	c None",
".	c #232323",
"+	c #373737",
"@	c #575757",
"#	c #6B4727",
"$	c #272727",
"%	c #3B3B3B",
"&	c #474747",
"*	c #5B5B5B",
"=	c #636363",
"-	c #6F6F6F",
";	c #434343",
">	c #2F2F2F",
",	c #4F4F4F",
"'	c #332B13",
")	c #774F2B",
"!	c #5F4323",
"~	c #533F1F",
"{	c #3F472B",
"]	c #1B1B1B",
"^	c #7F532F",
"/	c #8F5F37",
"(	c #9B633B",
"_	c #1F170B",
":	c #373F27",
"<	c #131313",
"[	c #3F2F17",
"}	c #4B371B",
"|	c #6F5743",
"1	c #67533F",
"2	c #2B230F",
"3	c #000000",
"                     .+@                                        ",
"                #$+%&&*=--=*&%;%%+>>%%%&&&&&&@@&&;;;;;,;;;;,;;&'",
"          ))))!~~.$>+{+...%&%>;]]]$!#)^/((((((((/^)#!]]]]]]]]]]]",
"     )))))##!!~~'_..>+::;{{%+>;&&%'!~~!!!~~!#!~~!~~~#>%>]       ",
"<[}~)######!!~}[]__.$>+++%%+>>%]]$$#~~~}}}}}}}}}}}~!#$]]]       ",
"<'[~#~~~~~~~['']]..+++;&&&,,@|1    }}~~~~~~~~~~~~}}}~           ",
"<''}~}}}}['2]3333]] $]%                                         ",
" <2[}}['22]33<33  +].%                                          ",
" <]2['22333  <3                                                 ",
" <<]2233                                                        ",
"  <333                                                          ",
"  <3                                                            "};
