/* XPM */
static char * psupershotgun_xpm[] = {
"64 17 29 1",
" 	c None",
".	c #332B13",
"+	c #4F4F4F",
"@	c #979797",
"#	c #000000",
"$	c #272727",
"%	c #373737",
"&	c #3B3B3B",
"*	c #434343",
"=	c #2F2F2F",
"-	c #4B371B",
";	c #171F07",
">	c #13230B",
",	c #774F2B",
"'	c #5F4323",
")	c #6B4727",
"!	c #533F1F",
"~	c #2F371F",
"{	c #373F27",
"]	c #3F472B",
"^	c #7F532F",
"/	c #875733",
"(	c #8F5F37",
"_	c #2B230F",
":	c #372313",
"<	c #2F1B0B",
"[	c #3F2F17",
"}	c #1B1B1B",
"|	c #131313",
"                           .++@#####$%&*****%=$$$$$========&&&&+",
"                         ..-;;;;>>>>>#########################$%",
".,,,,,,,,,,,,,,,,'      .-)!..;;~{]]{#,^/((/,,,,,,,,,,,,,,'_##$$",
".,,,,,,,,,,,,,,,,'      .-)!..;;~{]]{#,^/((/,,,,,,,,,,,,,,'_##$$",
"..^^^,^^^^^^^^^,,,))'------!..;;~{]]{#,!-..::::::::::::<_[-     ",
" }..^,^^^^^^^^^,,,,,,,,'---.$$$$$$$$##!!!!!!!!!!!!!!!!!!!!      ",
"  }}.))))))))''--!),)))'!}}}    ||                              ",
"  }}.-------------!)---)}  |   ||                               ",
"  }}}[[[[[[[[))!!----))}   ||||                                 ",
"  }}}[[[[[[[[))!!----))}   ||||                                 ",
"  }}}...[----}}}}![[)}}     ||                                  ",
"  }}}..[---}}    }!.}                                           ",
"  ____--}}}       }}                                            ",
" }}}[[}}                                                        ",
" }}}[[}}                                                        ",
" }[[}}                                                          ",
" }}}                                                            "};
