/* XPM */
static char * redkey_xpm[] = {
"64 73 14 1",
" 	c None",
".	c #B30000",
"+	c #D70000",
"@	c #470000",
"#	c #670000",
"$	c #CB0000",
"%	c #430000",
"&	c #4F0000",
"*	c #E30000",
"=	c #000000",
"-	c #9B0000",
";	c #170F07",
">	c #7F0000",
",	c #9B5B13",
"              ....++++++++++++++++++++++++++++++++              ",
"              ....++++++++++++++++++++++++++++++++              ",
"              ....++++++++++++++++++++++++++++++++              ",
"              ....++++++++++++++++++++++++++++++++              ",
"              ....++++++++++++++++++++++++++++++++              ",
"         .....@@@@#####$$$$%%%%%&&&&&****=====----              ",
"         .....@@@@#####$$$$%%%%%&&&&&****=====----              ",
"         .....@@@@#####$$$$%%%%%&&&&&****=====----              ",
"         .....@@@@#####$$$$%%%%%&&&&&****=====----              ",
"     ....;;;;;@@@@%%%%%$$$$%%%%%&&&&&****=====----              ",
"     ....;;;;;@@@@%%%%%$$$$%%%%%&&&&&****=====----              ",
"     ....;;;;;@@@@%%%%%$$$$%%%%%&&&&&****=====----              ",
"     ....;;;;;@@@@%%%%%$$$$%%%%%&&&&&****=====----              ",
"     ....;;;;;@@@@%%%%%$$$$%%%%%&&&&&****=====----              ",
".....@@@@=====####=====$$$$$$$$$-----****%%%%%----              ",
".....@@@@=====####=====$$$$$$$$$-----****%%%%%----              ",
".....@@@@=====####=====$$$$$$$$$-----****%%%%%----              ",
".....@@@@=====####=====$$$$$$$$$-----****%%%%%----              ",
"-----#########>>>>%%%%%$$$$-----#####$$$$;;;;;----              ",
"-----#########>>>>%%%%%$$$$-----#####$$$$;;;;;----              ",
"-----#########>>>>%%%%%$$$$-----#####$$$$;;;;;----              ",
"-----#########>>>>%%%%%$$$$-----#####$$$$;;;;;----              ",
"-----#########>>>>%%%%%$$$$-----#####$$$$;;;;;----              ",
"-----@@@@;;;;;&&&&@@@@@%%%%=====@@@@@$$$$;;;;;----              ",
"-----@@@@;;;;;&&&&@@@@@%%%%=====@@@@@$$$$;;;;;----              ",
"-----@@@@;;;;;&&&&@@@@@%%%%=====@@@@@$$$$;;;;;----              ",
"-----@@@@;;;;;&&&&@@@@@%%%%=====@@@@@$$$$;;;;;----              ",
"-----@@@@=====&&&&*****$$$$#####@@@@@....%%%%%----              ",
"-----@@@@=====&&&&*****$$$$#####@@@@@....%%%%%----              ",
"-----@@@@=====&&&&*****$$$$#####@@@@@....%%%%%----              ",
"-----@@@@=====&&&&*****$$$$#####@@@@@....%%%%%----              ",
"-----@@@@=====&&&&*****$$$$#####@@@@@....%%%%%----              ",
"-----@@@@%%%%%####$$$$$....#####&&&&&>>>>;;;;;....*********$$$$$",
"-----@@@@%%%%%####$$$$$....#####&&&&&>>>>;;;;;....*********$$$$$",
"-----@@@@%%%%%####$$$$$....#####&&&&&>>>>;;;;;....*********$$$$$",
"-----@@@@%%%%%####$$$$$....#####&&&&&>>>>;;;;;....*********$$$$$",
"-----,,,,@@@@@>>>>$$$$$@@@@=====@@@@@....%%%%%====%%%%%---------",
"-----,,,,@@@@@>>>>$$$$$@@@@=====@@@@@....%%%%%====%%%%%---------",
"-----,,,,@@@@@>>>>$$$$$@@@@=====@@@@@....%%%%%====%%%%%---------",
"-----,,,,@@@@@>>>>$$$$$@@@@=====@@@@@....%%%%%====%%%%%---------",
"-----,,,,@@@@@>>>>$$$$$@@@@=====@@@@@....%%%%%====%%%%%---------",
"-----&&&&%%%%%>>>>%%%%%##############$$$$%%%%%%%%%>>>>>....-----",
"-----&&&&%%%%%>>>>%%%%%##############$$$$%%%%%%%%%>>>>>....-----",
"-----&&&&%%%%%>>>>%%%%%##############$$$$%%%%%%%%%>>>>>....-----",
"-----&&&&%%%%%>>>>%%%%%##############$$$$%%%%%%%%%>>>>>....-----",
"-----&&&&%%%%%>>>>%%%%%##############$$$$%%%%%%%%%>>>>>....-----",
"-----,,,,=====....&&&&&@@@@%%%%%&&&&&$$$$;;;;;====%%%%%>>>>-----",
"-----,,,,=====....&&&&&@@@@%%%%%&&&&&$$$$;;;;;====%%%%%>>>>-----",
"-----,,,,=====....&&&&&@@@@%%%%%&&&&&$$$$;;;;;====%%%%%>>>>-----",
"-----,,,,=====....&&&&&@@@@%%%%%&&&&&$$$$;;;;;====%%%%%>>>>-----",
"-----%%%%=====####$$$$$>>>>%%%%%@@@@@....%%%%%%%%%%%%%%---------",
"-----%%%%=====####$$$$$>>>>%%%%%@@@@@....%%%%%%%%%%%%%%---------",
"-----%%%%=====####$$$$$>>>>%%%%%@@@@@....%%%%%%%%%%%%%%---------",
"-----%%%%=====####$$$$$>>>>%%%%%@@@@@....%%%%%%%%%%%%%%---------",
"-----%%%%=====####$$$$$>>>>%%%%%@@@@@....%%%%%%%%%%%%%%---------",
"-----,,,,=====%%%%*****####%%%%%@@@@@$$$$%%%%%@@@@%%%%%####-----",
"-----,,,,=====%%%%*****####%%%%%@@@@@$$$$%%%%%@@@@%%%%%####-----",
"-----,,,,=====%%%%*****####%%%%%@@@@@$$$$%%%%%@@@@%%%%%####-----",
"-----,,,,=====%%%%*****####%%%%%@@@@@$$$$%%%%%@@@@%%%%%####-----",
"-----%%%%@@@@@####*****%%%%%%%%%@@@@@****%%%%%%%%%>>>>>---------",
"-----%%%%@@@@@####*****%%%%%%%%%@@@@@****%%%%%%%%%>>>>>---------",
"-----%%%%@@@@@####*****%%%%%%%%%@@@@@****%%%%%%%%%>>>>>---------",
"-----%%%%@@@@@####*****%%%%%%%%%@@@@@****%%%%%%%%%>>>>>---------",
"-----%%%%@@@@@####*****%%%%%%%%%@@@@@****%%%%%%%%%>>>>>---------",
"-----%%%%&&&&&####*****@@@@=====@@@@@....%%%%%====%%%%%>>>>-----",
"-----%%%%&&&&&####*****@@@@=====@@@@@....%%%%%====%%%%%>>>>-----",
"-----%%%%&&&&&####*****@@@@=====@@@@@....%%%%%====%%%%%>>>>-----",
"-----%%%%&&&&&####*****@@@@=====@@@@@....%%%%%====%%%%%>>>>-----",
">>>>>>>>>>>>>>>>>>>>>>>>>>>>>>>>>>>>>>>>>>>>>>>>>>>>>>>>>>>>>>>>",
">>>>>>>>>>>>>>>>>>>>>>>>>>>>>>>>>>>>>>>>>>>>>>>>>>>>>>>>>>>>>>>>",
">>>>>>>>>>>>>>>>>>>>>>>>>>>>>>>>>>>>>>>>>>>>>>>>>>>>>>>>>>>>>>>>",
">>>>>>>>>>>>>>>>>>>>>>>>>>>>>>>>>>>>>>>>>>>>>>>>>>>>>>>>>>>>>>>>",
">>>>>>>>>>>>>>>>>>>>>>>>>>>>>>>>>>>>>>>>>>>>>>>>>>>>>>>>>>>>>>>>"};
