/* XPM */
static char * redskull_xpm[] = {
"64 79 18 1",
" 	c None",
".	c #8B0000",
"+	c #A70000",
"@	c #BF0000",
"#	c #EF0000",
"$	c #FF1F1F",
"%	c #FF3F3F",
"&	c #E30000",
"*	c #FF5F5F",
"=	c #FF0000",
"-	c #B30000",
";	c #CB0000",
">	c #670000",
",	c #9B0000",
"'	c #730000",
")	c #D70000",
"!	c #5B0000",
"~	c #430000",
"               .....+++++@@@@@@@@@@@@@@+++++.....               ",
"               .....+++++@@@@@@@@@@@@@@+++++.....               ",
"               .....+++++@@@@@@@@@@@@@@+++++.....               ",
"               .....+++++@@@@@@@@@@@@@@+++++.....               ",
"               .....+++++@@@@@@@@@@@@@@+++++.....               ",
"          @@@@@@@@@@#####$$$$$$$$$$$$$$#####@@@@@@@@@@          ",
"          @@@@@@@@@@#####$$$$$$$$$$$$$$#####@@@@@@@@@@          ",
"          @@@@@@@@@@#####$$$$$$$$$$$$$$#####@@@@@@@@@@          ",
"          @@@@@@@@@@#####$$$$$$$$$$$$$$#####@@@@@@@@@@          ",
"          @@@@@@@@@@#####$$$$$$$$$$$$$$#####@@@@@@@@@@          ",
"     .....@@@@@$$$$$%%%%%%%%%%%%%%%%%%%%%%%%$$$$$@@@@@.....     ",
"     .....@@@@@$$$$$%%%%%%%%%%%%%%%%%%%%%%%%$$$$$@@@@@.....     ",
"     .....@@@@@$$$$$%%%%%%%%%%%%%%%%%%%%%%%%$$$$$@@@@@.....     ",
"     .....@@@@@$$$$$%%%%%%%%%%%%%%%%%%%%%%%%$$$$$@@@@@.....     ",
"     .....@@@@@$$$$$%%%%%%%%%%%%%%%%%%%%%%%%$$$$$@@@@@.....     ",
"     @@@@@&&&&&$$$$$%%%%%%%%%%****%%%%%%%%%%$$$$$&&&&&@@@@@     ",
"     @@@@@&&&&&$$$$$%%%%%%%%%%****%%%%%%%%%%$$$$$&&&&&@@@@@     ",
"     @@@@@&&&&&$$$$$%%%%%%%%%%****%%%%%%%%%%$$$$$&&&&&@@@@@     ",
"     @@@@@&&&&&$$$$$%%%%%%%%%%****%%%%%%%%%%$$$$$&&&&&@@@@@     ",
"     @@@@@&&&&&$$$$$%%%%%%%%%%****%%%%%%%%%%$$$$$&&&&&@@@@@     ",
".....@@@@@=====&&&&&#####$$$$$%%%%$$$$$#####&&&&&=====@@@@@.....",
".....@@@@@=====&&&&&#####$$$$$%%%%$$$$$#####&&&&&=====@@@@@.....",
".....@@@@@=====&&&&&#####$$$$$%%%%$$$$$#####&&&&&=====@@@@@.....",
".....@@@@@=====&&&&&#####$$$$$%%%%$$$$$#####&&&&&=====@@@@@.....",
".....@@@@@=====&&&&&#####$$$$$%%%%$$$$$#####&&&&&=====@@@@@.....",
".....-----%%%%%=====;;;;;;;;;;&&&&;;;;;;;;;;=====%%%%%-----.....",
".....-----%%%%%=====;;;;;;;;;;&&&&;;;;;;;;;;=====%%%%%-----.....",
".....-----%%%%%=====;;;;;;;;;;&&&&;;;;;;;;;;=====%%%%%-----.....",
".....-----%%%%%=====;;;;;;;;;;&&&&;;;;;;;;;;=====%%%%%-----.....",
".....-----%%%%%=====;;;;;;;;;;&&&&;;;;;;;;;;=====%%%%%-----.....",
">>>>>,,,,,*****%%%%%$$$$$&&&&&++++&&&&&$$$$$%%%%%*****,,,,,>>>>>",
">>>>>,,,,,*****%%%%%$$$$$&&&&&++++&&&&&$$$$$%%%%%*****,,,,,>>>>>",
">>>>>,,,,,*****%%%%%$$$$$&&&&&++++&&&&&$$$$$%%%%%*****,,,,,>>>>>",
">>>>>,,,,,*****%%%%%$$$$$&&&&&++++&&&&&$$$$$%%%%%*****,,,,,>>>>>",
">>>>>,,,,,*****%%%%%$$$$$&&&&&++++&&&&&$$$$$%%%%%*****,,,,,>>>>>",
",,,,,&&&&&.....'''''.....+++++$$$$+++++.....'''''.....#####,,,,,",
",,,,,&&&&&.....'''''.....+++++$$$$+++++.....'''''.....#####,,,,,",
",,,,,&&&&&.....'''''.....+++++$$$$+++++.....'''''.....#####,,,,,",
",,,,,&&&&&.....'''''.....+++++$$$$+++++.....'''''.....#####,,,,,",
",,,,,$$$$$-----'''''.....)))))....))))).....'''''-----$$$$$,,,,,",
",,,,,$$$$$-----'''''.....)))))....))))).....'''''-----$$$$$,,,,,",
",,,,,$$$$$-----'''''.....)))))....))))).....'''''-----$$$$$,,,,,",
",,,,,$$$$$-----'''''.....)))))....))))).....'''''-----$$$$$,,,,,",
",,,,,$$$$$-----'''''.....)))))....))))).....'''''-----$$$$$,,,,,",
";;;;;*****%%%%%$$$$$=====+++++....+++++=====$$$$$%%%%%*****@@@@@",
";;;;;*****%%%%%$$$$$=====+++++....+++++=====$$$$$%%%%%*****@@@@@",
";;;;;*****%%%%%$$$$$=====+++++....+++++=====$$$$$%%%%%*****@@@@@",
";;;;;*****%%%%%$$$$$=====+++++....+++++=====$$$$$%%%%%*****@@@@@",
";;;;;*****%%%%%$$$$$=====+++++....+++++=====$$$$$%%%%%*****@@@@@",
";;;;;%%%%%$$$$$&&&&&;;;;;+++++))))+++++;;;;;&&&&&$$$$$%%%%%@@@@@",
";;;;;%%%%%$$$$$&&&&&;;;;;+++++))))+++++;;;;;&&&&&$$$$$%%%%%@@@@@",
";;;;;%%%%%$$$$$&&&&&;;;;;+++++))))+++++;;;;;&&&&&$$$$$%%%%%@@@@@",
";;;;;%%%%%$$$$$&&&&&;;;;;+++++))))+++++;;;;;&&&&&$$$$$%%%%%@@@@@",
";;;;;%%%%%$$$$$&&&&&;;;;;+++++))))+++++;;;;;&&&&&$$$$$%%%%%@@@@@",
"     ,,,,,!!!!!.....-----)))))$$$$)))))-----.....!!!!!!!!!!     ",
"     ,,,,,!!!!!.....-----)))))$$$$)))))-----.....!!!!!!!!!!     ",
"     ,,,,,!!!!!.....-----)))))$$$$)))))-----.....!!!!!!!!!!     ",
"     ,,,,,!!!!!.....-----)))))$$$$)))))-----.....!!!!!!!!!!     ",
"     ,,,,,!!!!!.....-----)))))$$$$)))))-----.....!!!!!!!!!!     ",
"     ~~~~~~~~~~'''''-----)))))####)))))-----'''''~~~~~~~~~~     ",
"     ~~~~~~~~~~'''''-----)))))####)))))-----'''''~~~~~~~~~~     ",
"     ~~~~~~~~~~'''''-----)))))####)))))-----'''''~~~~~~~~~~     ",
"     ~~~~~~~~~~'''''-----)))))####)))))-----'''''~~~~~~~~~~     ",
"     ~~~~~~~~~~'''''-----)))))####)))))-----'''''~~~~~~~~~~     ",
"     >>>>>!!!!!!!!!!,,,,,,,,,,,,,,,,,,,,,,,,!!!!!!!!!!>>>>>     ",
"     >>>>>!!!!!!!!!!,,,,,,,,,,,,,,,,,,,,,,,,!!!!!!!!!!>>>>>     ",
"     >>>>>!!!!!!!!!!,,,,,,,,,,,,,,,,,,,,,,,,!!!!!!!!!!>>>>>     ",
"     >>>>>!!!!!!!!!!,,,,,,,,,,,,,,,,,,,,,,,,!!!!!!!!!!>>>>>     ",
"     >>>>>!!!!!!!!!!,,,,,,,,,,,,,,,,,,,,,,,,!!!!!!!!!!>>>>>     ",
"     >>>>>.....,,,,,;;;;;)))))####)))));;;;;,,,,,.....>>>>>     ",
"     >>>>>.....,,,,,;;;;;)))))####)))));;;;;,,,,,.....>>>>>     ",
"     >>>>>.....,,,,,;;;;;)))))####)))));;;;;,,,,,.....>>>>>     ",
"     >>>>>.....,,,,,;;;;;)))))####)))));;;;;,,,,,.....>>>>>     ",
"     >>>>>.....,,,,,;;;;;)))))####)))));;;;;,,,,,.....>>>>>     ",
"          ,,,,,;;;;;=====)))))----)))))=====;;;;;,,,,,          ",
"          ,,,,,;;;;;=====)))))----)))))=====;;;;;,,,,,          ",
"          ,,,,,;;;;;=====)))))----)))))=====;;;;;,,,,,          ",
"          ,,,,,;;;;;=====)))))----)))))=====;;;;;,,,,,          ",
"          ,,,,,;;;;;=====)))))----)))))=====;;;;;,,,,,          "};
