/* XPM */
static char * rocket_xpm[] = {
"64 144 20 1",
" 	c None",
".	c #775F3F",
"+	c #675333",
"@	c #9F8363",
"#	c #836B4B",
"$	c #5B472B",
"%	c #8F7753",
"&	c #4F3B23",
"*	c #43331B",
"=	c #836B57",
"-	c #332B13",
";	c #67533F",
">	c #5F4B37",
",	c #6F5743",
"'	c #7B634F",
")	c #3F2F17",
"!	c #17330F",
"~	c #13230B",
"{	c #1F170B",
"]	c #2B230F",
"                           ..........                           ",
"                           ..........                           ",
"                           ..........                           ",
"                           ..........                           ",
"                           ..........                           ",
"                     ++++++@@@@@#####$$$$$$                     ",
"                     ++++++@@@@@#####$$$$$$                     ",
"                     ++++++@@@@@#####$$$$$$                     ",
"                     ++++++@@@@@#####$$$$$$                     ",
"                     ++++++@@@@@#####$$$$$$                     ",
"                     ++++++@@@@@#####$$$$$$                     ",
"                     ######%%%%%.....$$$$$$                     ",
"                     ######%%%%%.....$$$$$$                     ",
"                     ######%%%%%.....$$$$$$                     ",
"                     ######%%%%%.....$$$$$$                     ",
"                     ######%%%%%.....$$$$$$                     ",
"                +++++######.....+++++&&&&&&&&&&&                ",
"                +++++######.....+++++&&&&&&&&&&&                ",
"                +++++######.....+++++&&&&&&&&&&&                ",
"                +++++######.....+++++&&&&&&&&&&&                ",
"                +++++######.....+++++&&&&&&&&&&&                ",
"                #####......+++++$$$$$***********                ",
"                #####......+++++$$$$$***********                ",
"                #####......+++++$$$$$***********                ",
"                #####......+++++$$$$$***********                ",
"                #####......+++++$$$$$***********                ",
"                #####......+++++$$$$$***********                ",
"           +++++=====......$$$$$&&&&&******-----*****           ",
"           +++++=====......$$$$$&&&&&******-----*****           ",
"           +++++=====......$$$$$&&&&&******-----*****           ",
"           +++++=====......$$$$$&&&&&******-----*****           ",
"           +++++=====......$$$$$&&&&&******-----*****           ",
"           =====#####......$$$$$&&&&&***********&&&&&           ",
"           =====#####......$$$$$&&&&&***********&&&&&           ",
"           =====#####......$$$$$&&&&&***********&&&&&           ",
"           =====#####......$$$$$&&&&&***********&&&&&           ",
"           =====#####......$$$$$&&&&&***********&&&&&           ",
"     ######=====###########.....$$$$$&&&&&&*****-----******     ",
"     ######=====###########.....$$$$$&&&&&&*****-----******     ",
"     ######=====###########.....$$$$$&&&&&&*****-----******     ",
"     ######=====###########.....$$$$$&&&&&&*****-----******     ",
"     ######=====###########.....$$$$$&&&&&&*****-----******     ",
"     ######=====###########.....$$$$$&&&&&&*****-----******     ",
"     ######=====.....;;;;;;>>>>>&&&&&******----------******     ",
"     ######=====.....;;;;;;>>>>>&&&&&******----------******     ",
"     ######=====.....;;;;;;>>>>>&&&&&******----------******     ",
"     ######=====.....;;;;;;>>>>>&&&&&******----------******     ",
"     ######=====.....;;;;;;>>>>>&&&&&******----------******     ",
"     ######=====.....,,,,,,>>>>>&&&&&******----------******     ",
"     ######=====.....,,,,,,>>>>>&&&&&******----------******     ",
"     ######=====.....,,,,,,>>>>>&&&&&******----------******     ",
"     ######=====.....,,,,,,>>>>>&&&&&******----------******     ",
"     ######=====.....,,,,,,>>>>>&&&&&******----------******     ",
"     ######=====.....;;;;;;,,,,,&&&&&******----------******     ",
"     ######=====.....;;;;;;,,,,,&&&&&******----------******     ",
"     ######=====.....;;;;;;,,,,,&&&&&******----------******     ",
"     ######=====.....;;;;;;,,,,,&&&&&******----------******     ",
"     ######=====.....;;;;;;,,,,,&&&&&******----------******     ",
"     ######=====.....;;;;;;,,,,,&&&&&******----------******     ",
"     ######=====.....,,,,,,>>>>>&&&&&******----------******     ",
"     ######=====.....,,,,,,>>>>>&&&&&******----------******     ",
"     ######=====.....,,,,,,>>>>>&&&&&******----------******     ",
"     ######=====.....,,,,,,>>>>>&&&&&******----------******     ",
"     ######=====.....,,,,,,>>>>>&&&&&******----------******     ",
"     ######=====.....;;;;;;;;;;;&&&&&******----------******     ",
"     ######=====.....;;;;;;;;;;;&&&&&******----------******     ",
"     ######=====.....;;;;;;;;;;;&&&&&******----------******     ",
"     ######=====.....;;;;;;;;;;;&&&&&******----------******     ",
"     ######=====.....;;;;;;;;;;;&&&&&******----------******     ",
"     ######=====.....;;;;;;>>>>>&&&&&******----------******     ",
"     ######=====.....;;;;;;>>>>>&&&&&******----------******     ",
"     ######=====.....;;;;;;>>>>>&&&&&******----------******     ",
"     ######=====.....;;;;;;>>>>>&&&&&******----------******     ",
"     ######=====.....;;;;;;>>>>>&&&&&******----------******     ",
"     ######=====.....;;;;;;>>>>>&&&&&******----------******     ",
"     ######'''''.....;;;;;;$$$$$&&&&&))))))----------******     ",
"     ######'''''.....;;;;;;$$$$$&&&&&))))))----------******     ",
"     ######'''''.....;;;;;;$$$$$&&&&&))))))----------******     ",
"     ######'''''.....;;;;;;$$$$$&&&&&))))))----------******     ",
"     ######'''''.....;;;;;;$$$$$&&&&&))))))----------******     ",
"     ######''''',,,,,>>>>>>$$$$$&&&&&))))))----------******     ",
"     ######''''',,,,,>>>>>>$$$$$&&&&&))))))----------******     ",
"     ######''''',,,,,>>>>>>$$$$$&&&&&))))))----------******     ",
"     ######''''',,,,,>>>>>>$$$$$&&&&&))))))----------******     ",
"     ######''''',,,,,>>>>>>$$$$$&&&&&))))))----------******     ",
"     ######.....,,,,,>>>>>>$$$$$&&&&&!!!!!!----------******     ",
"     ######.....,,,,,>>>>>>$$$$$&&&&&!!!!!!----------******     ",
"     ######.....,,,,,>>>>>>$$$$$&&&&&!!!!!!----------******     ",
"     ######.....,,,,,>>>>>>$$$$$&&&&&!!!!!!----------******     ",
"     ######.....,,,,,>>>>>>$$$$$&&&&&!!!!!!----------******     ",
"     ######.....,,,,,>>>>>>$$$$$&&&&&!!!!!!----------******     ",
"     ######.....+++++>>>>>>$$$$$&&&&&!!!!!!~~~~~-----******     ",
"     ######.....+++++>>>>>>$$$$$&&&&&!!!!!!~~~~~-----******     ",
"     ######.....+++++>>>>>>$$$$$&&&&&!!!!!!~~~~~-----******     ",
"     ######.....+++++>>>>>>$$$$$&&&&&!!!!!!~~~~~-----******     ",
"     ######.....+++++>>>>>>$$$$$&&&&&!!!!!!~~~~~-----******     ",
"     ######.....+++++>>>>>>$$$$$&&&&&!!!!!!~~~~~-----******     ",
"     ######.....+++++>>>>>>$$$$$&&&&&!!!!!!~~~~~-----******     ",
"     ######.....+++++>>>>>>$$$$$&&&&&!!!!!!~~~~~-----******     ",
"     ######.....+++++>>>>>>$$$$$&&&&&!!!!!!~~~~~-----******     ",
"     ######.....+++++>>>>>>$$$$$&&&&&!!!!!!~~~~~-----******     ",
"     ######.....+++++>>>>>>$$$$$&&&&&!!!!!!~~~~~-----******     ",
"     ######.....+++++>>>>>>$$$$$&&&&&!!!!!!~~~~~-----******     ",
"     ######.....+++++>>>>>>$$$$$&&&&&!!!!!!~~~~~-----******     ",
"     ######.....+++++>>>>>>$$$$$&&&&&!!!!!!~~~~~-----******     ",
"     ######.....+++++>>>>>>$$$$$&&&&&!!!!!!~~~~~-----******     ",
"     ######.....+++++>>>>>>$$$$$&&&&&!!!!!!~~~~~-----******     ",
"#####$$$$$$.....+++++>>>>>>$$$$$&&&&&!!!!!!{{{{{~~~~~------$$$$$",
"#####$$$$$$.....+++++>>>>>>$$$$$&&&&&!!!!!!{{{{{~~~~~------$$$$$",
"#####$$$$$$.....+++++>>>>>>$$$$$&&&&&!!!!!!{{{{{~~~~~------$$$$$",
"#####$$$$$$.....+++++>>>>>>$$$$$&&&&&!!!!!!{{{{{~~~~~------$$$$$",
"#####$$$$$$.....+++++>>>>>>$$$$$&&&&&!!!!!!{{{{{~~~~~------$$$$$",
"+++++$$$$$$.....+++++>>>>>>$$$$$&&&&&!!!!!!{{{{{{{{{{~~~~~~*****",
"+++++$$$$$$.....+++++>>>>>>$$$$$&&&&&!!!!!!{{{{{{{{{{~~~~~~*****",
"+++++$$$$$$.....+++++>>>>>>$$$$$&&&&&!!!!!!{{{{{{{{{{~~~~~~*****",
"+++++$$$$$$.....+++++>>>>>>$$$$$&&&&&!!!!!!{{{{{{{{{{~~~~~~*****",
"+++++$$$$$$.....+++++>>>>>>$$$$$&&&&&!!!!!!{{{{{{{{{{~~~~~~*****",
"$$$$$$$$$$$.....+++++>>>>>>.....$$$$$!!!!!!{{{{{{{{{{{{{{{{]]]]]",
"$$$$$$$$$$$.....+++++>>>>>>.....$$$$$!!!!!!{{{{{{{{{{{{{{{{]]]]]",
"$$$$$$$$$$$.....+++++>>>>>>.....$$$$$!!!!!!{{{{{{{{{{{{{{{{]]]]]",
"$$$$$$$$$$$.....+++++>>>>>>.....$$$$$!!!!!!{{{{{{{{{{{{{{{{]]]]]",
"$$$$$$$$$$$.....+++++>>>>>>.....$$$$$!!!!!!{{{{{{{{{{{{{{{{]]]]]",
"$$$$$$$$$$$.....+++++>>>>>>.....$$$$$!!!!!!{{{{{{{{{{{{{{{{]]]]]",
"$$$$$$$$$$$.....+++++>>>>>>+++++.....!!!!!!~~~~~{{{{{{{{{{{*****",
"$$$$$$$$$$$.....+++++>>>>>>+++++.....!!!!!!~~~~~{{{{{{{{{{{*****",
"$$$$$$$$$$$.....+++++>>>>>>+++++.....!!!!!!~~~~~{{{{{{{{{{{*****",
"$$$$$$$$$$$.....+++++>>>>>>+++++.....!!!!!!~~~~~{{{{{{{{{{{*****",
"$$$$$$$$$$$.....+++++>>>>>>+++++.....!!!!!!~~~~~{{{{{{{{{{{*****",
"&&&&&$$$$$$.....+++++>>>>>>+++++.....!!!!!!{{{{{{{{{{{{{{{{&&&&&",
"&&&&&$$$$$$.....+++++>>>>>>+++++.....!!!!!!{{{{{{{{{{{{{{{{&&&&&",
"&&&&&$$$$$$.....+++++>>>>>>+++++.....!!!!!!{{{{{{{{{{{{{{{{&&&&&",
"&&&&&$$$$$$.....+++++>>>>>>+++++.....!!!!!!{{{{{{{{{{{{{{{{&&&&&",
"&&&&&$$$$$$.....+++++>>>>>>+++++.....!!!!!!{{{{{{{{{{{{{{{{&&&&&",
"+++++$$$$$$.....+++++>>>>>>+++++.....!!!!!!{{{{{{{{{{{{{{{{$$$$$",
"+++++$$$$$$.....+++++>>>>>>+++++.....!!!!!!{{{{{{{{{{{{{{{{$$$$$",
"+++++$$$$$$.....+++++>>>>>>+++++.....!!!!!!{{{{{{{{{{{{{{{{$$$$$",
"+++++$$$$$$.....+++++>>>>>>+++++.....!!!!!!{{{{{{{{{{{{{{{{$$$$$",
"+++++$$$$$$.....+++++>>>>>>+++++.....!!!!!!{{{{{{{{{{{{{{{{$$$$$",
"+++++$$$$$$.....+++++>>>>>>+++++.....!!!!!!{{{{{{{{{{{{{{{{$$$$$",
"           +++++$$$$$&&&&&&&&&&&&&&&&&&&&&&&&&&&*****           ",
"           +++++$$$$$&&&&&&&&&&&&&&&&&&&&&&&&&&&*****           ",
"           +++++$$$$$&&&&&&&&&&&&&&&&&&&&&&&&&&&*****           ",
"           +++++$$$$$&&&&&&&&&&&&&&&&&&&&&&&&&&&*****           ",
"           +++++$$$$$&&&&&&&&&&&&&&&&&&&&&&&&&&&*****           "};
