/* XPM */
static char * shells_xpm[] = {
"64 30 10 1",
" 	c None",
".	c #C39B2F",
"+	c #EBDB57",
"@	c #AF7B1F",
"#	c #B30000",
"$	c #CB0000",
"%	c #A70000",
"&	c #9B0000",
"*	c #8B0000",
"=	c #730000",
"....+++++....    ....+++++....    ....+++++....    ....+++++....",
"....+++++....    ....+++++....    ....+++++....    ....+++++....",
"....+++++....    ....+++++....    ....+++++....    ....+++++....",
"....+++++....    ....+++++....    ....+++++....    ....+++++....",
"@@@@@@@@@@@@@    @@@@@@@@@@@@@    @@@@@@@@@@@@@    @@@@@@@@@@@@@",
"@@@@@@@@@@@@@    @@@@@@@@@@@@@    @@@@@@@@@@@@@    @@@@@@@@@@@@@",
"@@@@@@@@@@@@@    @@@@@@@@@@@@@    @@@@@@@@@@@@@    @@@@@@@@@@@@@",
"@@@@@@@@@@@@@    @@@@@@@@@@@@@    @@@@@@@@@@@@@    @@@@@@@@@@@@@",
"@@@@@@@@@@@@@    @@@@@@@@@@@@@    @@@@@@@@@@@@@    @@@@@@@@@@@@@",
"@@@@.....@@@@    @@@@.....@@@@    @@@@.....@@@@    @@@@.....@@@@",
"@@@@.....@@@@    @@@@.....@@@@    @@@@.....@@@@    @@@@.....@@@@",
"@@@@.....@@@@    @@@@.....@@@@    @@@@.....@@@@    @@@@.....@@@@",
"@@@@.....@@@@    @@@@.....@@@@    @@@@.....@@@@    @@@@.....@@@@",
"####$$$$$%%%%    ####$$$$$%%%%    ####$$$$$%%%%    ####$$$$$%%%%",
"####$$$$$%%%%    ####$$$$$%%%%    ####$$$$$%%%%    ####$$$$$%%%%",
"####$$$$$%%%%    ####$$$$$%%%%    ####$$$$$%%%%    ####$$$$$%%%%",
"####$$$$$%%%%    ####$$$$$%%%%    ####$$$$$%%%%    ####$$$$$%%%%",
"&&&&#####****    &&&&#####****    &&&&#####****    &&&&#####****",
"&&&&#####****    &&&&#####****    &&&&#####****    &&&&#####****",
"&&&&#####****    &&&&#####****    &&&&#####****    &&&&#####****",
"&&&&#####****    &&&&#####****    &&&&#####****    &&&&#####****",
"&&&&#####****    &&&&#####****    &&&&#####****    &&&&#####****",
"&&&&#####****    &&&&#####****    &&&&#####****    &&&&#####****",
"&&&&#####****    &&&&#####****    &&&&#####****    &&&&#####****",
"&&&&#####****    &&&&#####****    &&&&#####****    &&&&#####****",
"&&&&#####****    &&&&#####****    &&&&#####****    &&&&#####****",
"****&&&&&====    ****&&&&&====    ****&&&&&====    ****&&&&&====",
"****&&&&&====    ****&&&&&====    ****&&&&&====    ****&&&&&====",
"****&&&&&====    ****&&&&&====    ****&&&&&====    ****&&&&&====",
"****&&&&&====    ****&&&&&====    ****&&&&&====    ****&&&&&===="};
