/* XPM */
static char * SmallNumbers_xpm[] = {
"152 36 4 1",
" 	c None",
".	c #838383",
"+	c #430000",
"@	c #FFFF73",
"                                                                                                                                                        ",
"                                                                                                                                                        ",
"  .........          ...          .........      .........      ..    ...      .........      .........      .........      .........      .........    ",
"  .........          ...          .........      .........      ..    ...      .........      .........      .........      .........      .........    ",
"  ...++++..++     ......+++          +++...++       +++...++    ..++++...++    ...++++++++    ...++++++++       +++...++    ...+++...++    ..++++...++  ",
"  ...++++..++     ......+++          +++...++       +++...++    ..++++...++    ...++++++++    ...++++++++       +++...++    ...+++...++    ..++++...++  ",
"  ...++++..++     ......+++          +++...++       +++...++    ..++++...++    ...++++++++    ...++++++++       +++...++    ...+++...++    ..++++...++  ",
"  ...++++..++        ...+++          ...   ++       ......++    .........++    .........      .........         ...   ++       ...   ++    .........++  ",
"  ...++++..++        ...+++          ...   ++       ......++    .........++    .........      .........         ...   ++       ...   ++    .........++  ",
"  ...++++..++        ...+++          ...   ++       ......++    .........++    .........      .........         ...   ++       ...   ++    .........++  ",
"  ...++++..++        ...+++       ...   +++            ...++      ++++...++       ++++..++    ...+++...++    ...   +++      ...+++...        ++++...++  ",
"  ...++++..++        ...+++       ...   +++            ...++      ++++...++       ++++..++    ...+++...++    ...   +++      ...+++...        ++++...++  ",
"  ...++++..++        ...+++       ...   +++            ...++      ++++...++       ++++..++    ...+++...++    ...   +++      ...+++...        ++++...++  ",
"  .........++     .........       .........      .........++          ...++    .........++    .........++    ...+++         .........++    .........++  ",
"  .........++     .........       .........      .........++          ...++    .........++    .........++    ...+++         .........++    .........++  ",
"     ++++++++        ++++++++        ++++++++       ++++++++             ++       ++++++++       ++++++++       +++            ++++++++      +++++++++  ",
"     ++++++++        ++++++++        ++++++++       ++++++++             ++       ++++++++       ++++++++       +++            ++++++++      +++++++++  ",
"                                                                                                                                                        ",
"                                                                                                                                                        ",
"  @@@@@@@@@          @@@          @@@@@@@@@      @@@@@@@@@      @@    @@@      @@@@@@@@@      @@@@@@@@@      @@@@@@@@@      @@@@@@@@@      @@@@@@@@@    ",
"  @@@@@@@@@          @@@          @@@@@@@@@      @@@@@@@@@      @@    @@@      @@@@@@@@@      @@@@@@@@@      @@@@@@@@@      @@@@@@@@@      @@@@@@@@@    ",
"  @@@++++@@++     @@@@@@+++          +++@@@++       +++@@@++    @@++++@@@++    @@@++++++++    @@@++++++++       +++@@@++    @@@+++@@@++    @@++++@@@++  ",
"  @@@++++@@++     @@@@@@+++          +++@@@++       +++@@@++    @@++++@@@++    @@@++++++++    @@@++++++++       +++@@@++    @@@+++@@@++    @@++++@@@++  ",
"  @@@++++@@++        @@@+++          @@@   ++       @@@@@@++    @@@@@@@@@++    @@@@@@@@@      @@@@@@@@@         @@@   ++       @@@   ++    @@@@@@@@@++  ",
"  @@@++++@@++        @@@+++          @@@   ++       @@@@@@++    @@@@@@@@@++    @@@@@@@@@      @@@@@@@@@         @@@   ++       @@@   ++    @@@@@@@@@++  ",
"  @@@++++@@++        @@@+++       @@@   +++         @@@@@@++      ++++@@@++       ++++@@++    @@@+++@@@++    @@@   +++      @@@+++@@@        ++++@@@++  ",
"  @@@++++@@++        @@@+++       @@@   +++            @@@++      ++++@@@++       ++++@@++    @@@+++@@@++    @@@   +++      @@@+++@@@        ++++@@@++  ",
"  @@@++++@@++        @@@+++       @@@   +++            @@@++      ++++@@@++       ++++@@++    @@@+++@@@++    @@@   +++      @@@+++@@@        ++++@@@++  ",
"  @@@++++@@++        @@@+++       @@@   +++            @@@++      ++++@@@++       ++++@@++    @@@+++@@@++    @@@   +++      @@@+++@@@        ++++@@@++  ",
"  @@@@@@@@@++     @@@@@@@@@       @@@@@@@@@      @@@@@@@@@++          @@@++    @@@@@@@@@++    @@@@@@@@@++    @@@+++         @@@@@@@@@++    @@@@@@@@@++  ",
"  @@@@@@@@@++     @@@@@@@@@       @@@@@@@@@      @@@@@@@@@++          @@@++    @@@@@@@@@++    @@@@@@@@@++    @@@+++         @@@@@@@@@++    @@@@@@@@@++  ",
"  @@@@@@@@@++     @@@@@@@@@       @@@@@@@@@      @@@@@@@@@++          @@@++    @@@@@@@@@++    @@@@@@@@@++    @@@+++         @@@@@@@@@++    @@@@@@@@@++  ",
"     ++++++++        ++++++++        ++++++++       ++++++++             ++       ++++++++       ++++++++       +++            ++++++++      +++++++++  ",
"     ++++++++        ++++++++        ++++++++       ++++++++             ++       ++++++++       ++++++++       +++            ++++++++      +++++++++  ",
"                                                                                                                                                        ",
"                                                                                                                                                        "};
