/* XPM */
static char *_e4fc5214fc74414e0fc631e948eec18HJ9RwPGCiOovwOZF[] = {
/* columns rows colors chars-per-pixel */
"64 64 39 1 ",
"  c #202020",
". c #2E2B22",
"X c #282828",
"o c #2C2C2C",
"O c #313929",
"+ c gray19",
"@ c #343434",
"# c #313931",
"$ c gray22",
"% c #394A39",
"& c #4C4436",
"* c gray25",
"= c #484848",
"- c #4C4C4C",
"; c #524A42",
": c #5E5246",
"> c gray33",
", c gray36",
"< c #685D4C",
"1 c #736352",
"2 c #736B52",
"3 c #736B5A",
"4 c #7B6B5A",
"5 c #646464",
"6 c gray44",
"7 c #7C7C7C",
"8 c #81735D",
"9 c #847B63",
"0 c #8C7B67",
"q c #94846B",
"w c #9A8C77",
"e c gray55",
"r c #989898",
"t c #A89A85",
"y c gray66",
"u c #B4B4B4",
"i c #C8BFB2",
"p c #C0C0C0",
"a c #D0D0D0",
/* pixels */
"<913;:81<8303:;;&&:<;::;;;;&*;;::::::;&;:<:;:<<<;$O:::<;;;;&&:<<",
"18114198498w811:::1411:::;;1:::;+<8111:::18:144184;:4441:;;;14<:",
":8<:414418498<<<;;<1<1<;;&;;;;;O.:8<:1;<&<<;114;&<;;11<<&;&&;4:$",
";8<:<1:<::<34<:::::<:::::;;&&&&$.18<::&;&:<;<<3:;&&;<<::;&&&;3:$",
";8<<&<:;;<<<<<;;;;:::::::;;&&;&O.18<<:;::<<:;<31<<::<<<<:&;&&<:$",
"<q<:&:<;&:::::;&;;;<<<:<:::;&;&O.8q<:<:::<<<<113<<::<1:;:::;;:;&",
":w1;:;::;:&;::<:;<;:<<<<&&::&;&$.<w1;:::;::::<19<:::::::;<:<<1;$",
";q1;:&::;&&::<<:;<:;<<<<:$;&&;&&O1q1;:::<<;&;:<4<:::<:<<;;&:<1:O",
";t1;:::<<<;;&:1<:<::<33::&;&;;;$.8t1;::<<1:;;:331:;::;:<::;:;&;O",
";q1::<<<1318:&:::::<<<<::;;;;:&&O1q1:;:::<<;::181:::::::<:;:;;&O",
"&q1:1<:<<<:83;&:<::<<<<<<;&&&:&&O:q1:;::;:1:<1141:;:;::::::<:::.",
";q1::::13<181:&;:&;:83<<<:;&&;&O.:q1:&;;;;<::1<1<:;::<<:;<41::;$",
"<0<&::&;::::::;::;&$<<:<<;&$$$&@.10<&&;;;&;;&:::::&&;::<:11<:<:&",
"&<&@OO$.$$OO...O.OO.OOO$$.O...+.$:<&@.....O..O$$$O...OO$.O$OOOO+",
"o&&OOO$OO$&&&&$@$$&&&&&&&&&$$&&&:1<&O&&&&&&;&$&$$&&$&O$$;;;&$$oX",
":<3::<::<:111<1::::<11181<<<<818q04<<11<88111:1:1911111<18q1<:::",
"88tw8<<11881141;:338811818818800ww88808808088131199w008800wwq8<8",
"90w4<:14141<12&+;3:1144<<<<<<1440w114114114:1<1&$80w4491149w9<:9",
"334:&&&;&:;;<:&.;<<<;::::<:;;:<<3114<;:;<1<:<;:.&qwq113:;<331:;3",
"1903:&&&&;;:<;&.;<<1:<:::<:;&:::<<1<;;<:1::<&;;.&q04:<<::1381:;1",
"<43<:&;&;:<::;&.:811<<<<<1:;&;;:<181:::;;&<<:::&:ww4<<<:<1<<:;;<",
"344<;;:::<:;:;&.:8113<<1<1:;;;:::<3<<:;:::<<:::$;0043331<3<<:::3",
"341<;;:;:<::<:&.:3:<1<<<::;;;::::<3;;:<<::<<<<<$;8041<<13333<::3",
"31<:;:<;:<<31;$.;<:<<<::<<<:;&;;;<:;&:<;;<<::<:&:00<::<39844<::3",
"3881;;<:<1<<:&$.:81:<<:<3<:;&&:;;:<:;:;&&:<::<:$&801:<114433<<:3",
"108<<<1:11<<:;&O:08<<<<13:<;&;::3<:::;;;;:<::<:$;881:<<3;<3<<<<1",
"9q4:<<;:1<<1<:&O<8<;33<33:;&&&:;:<<:;;:::;::;<:$&81<:<14<88313<9",
"13<;:::13<181;O.:<<<83<<<:;&&;;&;;<:;&;;;;<::1:$&111:<<:;<41::;1",
":1331<:<<<:83&O.<811<<<<<;&&&:;:<;<:;;::;:1:<1:&;111;::::::<::::",
";;<:&;;;:::<&O$.:4<:;;;&&$$$$&$;;;;&$$&&&;;$&&;&;11:&&&&;&$&$$O;",
"O$&@...OOO.. .@.;1&+O$$.. . .....$$. ..OO@....$@&:&$...O..... .O",
"&<<:;$;;&$$;;::;;2;&::::;+&$$&&&&;:;$;;;::&$&;:<:<:;:;::&&$;:<;&",
"499w414414:1449410149999::44:11<:1q4:444144449qt0444444419499q1:",
"4808:491:444441:111999494441:1<&$9q1194449999qqw99449q41444114<$",
";qw1;3<::33333::::<<<<<<<::;;:;$.18<1<:<<33<:39833<<3333<;:;;3<.",
";q0:<1:<::<34<:::::<:::::;;&&&&$.18<::&;&:<;<<3:;&&;<<::;&&&;3:.",
":ww41<11<3183:::;;:<:<:;;&;;;;&O.:8<:<;:&::;<<1;&:;;<<::&;&&;1:.",
"1001<:31<3191::;;;:<::;;;&&:;;&&.<81<:;;;:1;:<<:1<&;<<<:;&&&:<:.",
"4800;:81<8303:;;&&:<;::;;;;&*;&&.<81<;&;:<:;:<<<;$O:::<;;;;&&:<.",
"&000:49424131:;:&:1:;:::::;&&<:&O8w1<;;<;;:::<::&&&::<3<<:;&&:<O",
":801:3381<1<<:::;::&:::::;;::;:&O0q14;;<;::<:::<:<::;<311:;;:1<O",
";884:::<;:441::&;;&&:<<::;:<;::&.8w8<;;:<<:::<1<:::::::<::&&;::.",
":810:1<:<189<<<:<;&;:<<:::<:;::;.1w1<;&&:::;>:1::::;:;::&:;&;;<.",
"<1101<::1<14<<<;<<:;:::::1:&;::&.1q<:#*;:&*;<<<::<<<<:1114:;;;1.",
":111:;;:<;:41<;&&&&&&&;:;;&&&&:$.<q4:&&&;:;1:;;&&<;::&&&1<&&&&:.",
"&11<&&$&&$;<:;&O&O$OO&&&$$$&&&$&$:3<&&&$&&&&&&&&&$O$&&;&:&&&O$$$",
":81&OO.OO.O$O....  ..@@O.....XX$@;<&O...OO.OO@..  .O@O&&@O$O...@",
"8q08<:;:::<1<::&&;:<:<:<&&;;;;:<;<8<<<::<33<11<:&&12318948<::<<:",
"wwtt08388800088<49qww8808888388888080>880008ww0<;<tqww000w8w0w0w",
"qwtq1888111811<&1qqq811081111,81811881,-8818882&&8wwqq880q0qq08q",
"9w811111:<141:;+<874<181<<<<<5641<144<:<98<114:+&00148<<41<1<<59",
"394<<11<:<<11:&O<081<1<::;:<::<<:111::::,;%*<<:O:18141;::;&:;:<3",
"38311144<<;:<:&.:851<1<<:;::<::<<*=:;:;:<::>41<$;<001:;;<:<:::<3",
"9003<311<;;34<&@301<;;<:<151<:;<<;:<,<:::;:,44<$;1w9::<<<41::<39",
"4093<1<1<:141::&301<::<<1<1,<:::<*:><:::::<,<<:O;1q1:<11<11<<<<4",
"8q881131<<4411:@,01<:<<<<33:::;;;;:,:,<1<<<<11<$;<09:11<<1<::::8",
"9q98441<<<1<,,:$5001:;<<1<,:<:;:;;::,,,:;:<::3:.$<q9<<,3881<<5:9",
"0w45313,,<1<<1:$3w1<:<4433,:::<>::,555<=:1<:11>.$1q4<<,<<35<1,,0",
"8q48994,,51<,5<$5015<1383,<,,,5<,15555,:;::<33<$=8w9<:,333453:,8",
"0wq99335,38391:@,064,53455,:<555535555,::<:<55<$&6w1::,3988<<<<0",
"9ww95555566091:@5w775699556556766695554,3353565O&6e4<,1999337539",
"000<<<46056665=$5t766060566556776605633<5666665=>7u7655356676560",
"6665555>>>5555&*7i0,>>55>5555535>>555<<->>55>5>*5yu75>><<5533566",
"uuuuuyypypupuyyrpyuypyupyyyypuyyppuyppyyyrrupypuiapaauppappuupuu"
};
