/* XPM */
static char * stimpack_xpm[] = {
"64 69 27 1",
" 	c None",
".	c #8B8B8B",
"+	c #7F7F7F",
"@	c #9F9F9F",
"#	c #939393",
"$	c #979797",
"%	c #ABABAB",
"&	c #5B5B5B",
"*	c #3B3B3B",
"=	c #777777",
"-	c #6B6B6B",
";	c #474747",
">	c #675333",
",	c #D3D3D3",
"'	c #4F4F4F",
")	c #6F6F6F",
"!	c #575757",
"~	c #D70000",
"{	c #CB0000",
"]	c #4B4B4B",
"^	c #BF0000",
"/	c #636363",
"(	c #B30000",
"_	c #9B0000",
":	c #730000",
"<	c #4F3B23",
"[	c #5B472B",
"         .....++++++++++++++++++++++++++++++++++++.....         ",
"         .....++++++++++++++++++++++++++++++++++++.....         ",
"         .....++++++++++++++++++++++++++++++++++++.....         ",
"         .....++++++++++++++++++++++++++++++++++++.....         ",
"         .....++++++++++++++++++++++++++++++++++++.....         ",
"     @@@@##############################################@@@@     ",
"     @@@@##############################################@@@@     ",
"     @@@@##############################################@@@@     ",
"     @@@@##############################################@@@@     ",
"$$$$$%%%%%%%%%%%%%%%%%%%%%%%%%%%%%%%%%%%%%%%%%%%%%%%%%%%%%%$$$$$",
"$$$$$%%%%%%%%%%%%%%%%%%%%%%%%%%%%%%%%%%%%%%%%%%%%%%%%%%%%%%$$$$$",
"$$$$$%%%%%%%%%%%%%%%%%%%%%%%%%%%%%%%%%%%%%%%%%%%%%%%%%%%%%%$$$$$",
"$$$$$%%%%%%%%%%%%%%%%%%%%%%%%%%%%%%%%%%%%%%%%%%%%%%%%%%%%%%$$$$$",
"$$$$$%%%%%%%%%%%%%%%%%%%%%%%%%%%%%%%%%%%%%%%%%%%%%%%%%%%%%%$$$$$",
"&&&&&++++++++++++++++++++++++++++++++++++++++++++++++++++++&&&&&",
"&&&&&++++++++++++++++++++++++++++++++++++++++++++++++++++++&&&&&",
"&&&&&++++++++++++++++++++++++++++++++++++++++++++++++++++++&&&&&",
"&&&&&++++++++++++++++++++++++++++++++++++++++++++++++++++++&&&&&",
"*****====------------------=====-----------------------====*****",
"*****====------------------=====-----------------------====*****",
"*****====------------------=====-----------------------====*****",
"*****====------------------=====-----------------------====*****",
"*****====------------------=====-----------------------====*****",
";;;;;>>>>---------&&&&&----,,,,,=====&&&&&&&&&&&&&----->>>>;;;;;",
";;;;;>>>>---------&&&&&----,,,,,=====&&&&&&&&&&&&&----->>>>;;;;;",
";;;;;>>>>---------&&&&&----,,,,,=====&&&&&&&&&&&&&----->>>>;;;;;",
";;;;;>>>>---------&&&&&----,,,,,=====&&&&&&&&&&&&&----->>>>;;;;;",
";;;;;>>>>---------&&&&&----,,,,,=====&&&&&&&&&&&&&----->>>>;;;;;",
";;;;;---->>>>>'''''''''----$$$$$)))))'''''''''&&&&>>>>>----;;;;;",
";;;;;---->>>>>'''''''''----$$$$$)))))'''''''''&&&&>>>>>----;;;;;",
";;;;;---->>>>>'''''''''----$$$$$)))))'''''''''&&&&>>>>>----;;;;;",
";;;;;---->>>>>'''''''''----$$$$$)))))'''''''''&&&&>>>>>----;;;;;",
";;;;;))))----->>>>>>>>>''''''''''''''''''>>>>>>>>>-----))));;;;;",
";;;;;))))----->>>>>>>>>''''''''''''''''''>>>>>>>>>-----))));;;;;",
";;;;;))))----->>>>>>>>>''''''''''''''''''>>>>>>>>>-----))));;;;;",
";;;;;))))----->>>>>>>>>''''''''''''''''''>>>>>>>>>-----))));;;;;",
";;;;;))))----->>>>>>>>>''''''''''''''''''>>>>>>>>>-----))));;;;;",
"!!!!!=============---------~~~~~~~~~~-------------=========;;;;;",
"!!!!!=============---------~~~~~~~~~~-------------=========;;;;;",
"!!!!!=============---------~~~~~~~~~~-------------=========;;;;;",
"!!!!!=============---------~~~~~~~~~~-------------=========;;;;;",
"!!!!!=============---------{{{{{{{{{{-------------=========;;;;;",
"!!!!!=============---------{{{{{{{{{{-------------=========;;;;;",
"!!!!!=============---------{{{{{{{{{{-------------=========;;;;;",
"!!!!!=============---------{{{{{{{{{{-------------=========;;;;;",
"!!!!!=============---------{{{{{{{{{{-------------=========;;;;;",
"]]]]])))))))))))))^^^^^^^^^^^^^^^^^^^^^^^^^^^^)))))))))))));;;;;",
"]]]]])))))))))))))^^^^^^^^^^^^^^^^^^^^^^^^^^^^)))))))))))));;;;;",
"]]]]])))))))))))))^^^^^^^^^^^^^^^^^^^^^^^^^^^^)))))))))))));;;;;",
"]]]]])))))))))))))^^^^^^^^^^^^^^^^^^^^^^^^^^^^)))))))))))));;;;;",
"]]]]])))))))))))))^^^^^^^^^^^^^^^^^^^^^^^^^^^^)))))))))))));;;;;",
"]]]]]/////////////((((((((((((((((((((((((((((/////////////;;;;;",
"]]]]]/////////////((((((((((((((((((((((((((((/////////////;;;;;",
"]]]]]/////////////((((((((((((((((((((((((((((/////////////;;;;;",
"]]]]]/////////////((((((((((((((((((((((((((((/////////////;;;;;",
";;;;;&&&&&&&&&&&&&&&&&&&&&&__________&&&&&&&&&&&&&&&&&&&&&&*****",
";;;;;&&&&&&&&&&&&&&&&&&&&&&__________&&&&&&&&&&&&&&&&&&&&&&*****",
";;;;;&&&&&&&&&&&&&&&&&&&&&&__________&&&&&&&&&&&&&&&&&&&&&&*****",
";;;;;&&&&&&&&&&&&&&&&&&&&&&__________&&&&&&&&&&&&&&&&&&&&&&*****",
";;;;;&&&&&&&&&&&&&&&&&&&&&&__________&&&&&&&&&&&&&&&&&&&&&&*****",
";;;;;''''''''''''''''''''''::::::::::''''''''''''''''''''''*****",
";;;;;''''''''''''''''''''''::::::::::''''''''''''''''''''''*****",
";;;;;''''''''''''''''''''''::::::::::''''''''''''''''''''''*****",
";;;;;''''''''''''''''''''''::::::::::''''''''''''''''''''''*****",
"<<<<<[[[[[[[[[[[[[[[[[[[[[[[[[[[[[[[[[[[[[[[[[[[[[[[[[[[[[[<<<<<",
"<<<<<[[[[[[[[[[[[[[[[[[[[[[[[[[[[[[[[[[[[[[[[[[[[[[[[[[[[[[<<<<<",
"<<<<<[[[[[[[[[[[[[[[[[[[[[[[[[[[[[[[[[[[[[[[[[[[[[[[[[[[[[[<<<<<",
"<<<<<[[[[[[[[[[[[[[[[[[[[[[[[[[[[[[[[[[[[[[[[[[[[[[[[[[[[[[<<<<<",
"<<<<<[[[[[[[[[[[[[[[[[[[[[[[[[[[[[[[[[[[[[[[[[[[[[[[[[[[[[[<<<<<"};
