/* XPM */
static char * yellowkey_xpm[] = {
"64 73 17 1",
" 	c None",
".	c #C39B2F",
"+	c #D7BB43",
"@	c #4B371B",
"#	c #6B4727",
"$	c #3F2F17",
"%	c #533F1F",
"&	c #070707",
"*	c #AF7B1F",
"=	c #170F07",
"-	c #1F170B",
";	c #675333",
">	c #8F7753",
",	c #9B5B13",
"'	c #875733",
")	c #874307",
"!	c #2B230F",
"              ....++++++++++++++++++++++++++++....              ",
"              ....++++++++++++++++++++++++++++....              ",
"              ....++++++++++++++++++++++++++++....              ",
"              ....++++++++++++++++++++++++++++....              ",
"              ....++++++++++++++++++++++++++++....              ",
"         .....@@@@#####....$$$$$%%%%%....&&&&&****              ",
"         .....@@@@#####....$$$$$%%%%%....&&&&&****              ",
"         .....@@@@#####....$$$$$%%%%%....&&&&&****              ",
"         .....@@@@#####....$$$$$%%%%%....&&&&&****              ",
"     ....=====%%%%-----....-----%%%%%....&&&&&****              ",
"     ....=====%%%%-----....-----%%%%%....&&&&&****              ",
"     ....=====%%%%-----....-----%%%%%....&&&&&****              ",
"     ....=====%%%%-----....-----%%%%%....&&&&&****              ",
"     ....=====%%%%-----....-----%%%%%....&&&&&****              ",
".....@@@@&&&&&;;;;&&&&&.........*****....-----****              ",
".....@@@@&&&&&;;;;&&&&&.........*****....-----****              ",
".....@@@@&&&&&;;;;&&&&&.........*****....-----****              ",
".....@@@@&&&&&;;;;&&&&&.........*****....-----****              ",
"*****#########>>>>-----....*****#####****=====****              ",
"*****#########>>>>-----....*****#####****=====****              ",
"*****#########>>>>-----....*****#####****=====****              ",
"*****#########>>>>-----....*****#####****=====****              ",
"*****#########>>>>-----....*****#####****=====****              ",
"*****@@@@=====%%%%@@@@@,,,,&&&&&@@@@@****=====****              ",
"*****@@@@=====%%%%@@@@@,,,,&&&&&@@@@@****=====****              ",
"*****@@@@=====%%%%@@@@@,,,,&&&&&@@@@@****=====****              ",
"*****@@@@=====%%%%@@@@@,,,,&&&&&@@@@@****=====****              ",
"*****@@@@&&&&&%%%%+++++....#####@@@@@****-----****              ",
"*****@@@@&&&&&%%%%+++++....#####@@@@@****-----****              ",
"*****@@@@&&&&&%%%%+++++....#####@@@@@****-----****              ",
"*****@@@@&&&&&%%%%+++++....#####@@@@@****-----****              ",
"*****@@@@&&&&&%%%%+++++....#####@@@@@****-----****              ",
"*****@@@@-----;;;;.........#####%%%%%****=====....+++++++++.....",
"*****@@@@-----;;;;.........#####%%%%%****=====....+++++++++.....",
"*****@@@@-----;;;;.........#####%%%%%****=====....+++++++++.....",
"*****@@@@-----;;;;.........#####%%%%%****=====....+++++++++.....",
"*****,,,,@@@@@''''.....@@@@&&&&&@@@@@****-----&&&&$$$$$*********",
"*****,,,,@@@@@''''.....@@@@&&&&&@@@@@****-----&&&&$$$$$*********",
"*****,,,,@@@@@''''.....@@@@&&&&&@@@@@****-----&&&&$$$$$*********",
"*****,,,,@@@@@''''.....@@@@&&&&&@@@@@****-----&&&&$$$$$*********",
"*****,,,,@@@@@''''.....@@@@&&&&&@@@@@****-----&&&&$$$$$*********",
"*****%%%%-----''''$$$$$##############****---------)))))....*****",
"*****%%%%-----''''$$$$$##############****---------)))))....*****",
"*****%%%%-----''''$$$$$##############****---------)))))....*****",
"*****%%%%-----''''$$$$$##############****---------)))))....*****",
"*****%%%%-----''''$$$$$##############****---------)))))....*****",
"*****,,,,&&&&&....%%%%%@@@@-----%%%%%****=====&&&&-----''''*****",
"*****,,,,&&&&&....%%%%%@@@@-----%%%%%****=====&&&&-----''''*****",
"*****,,,,&&&&&....%%%%%@@@@-----%%%%%****=====&&&&-----''''*****",
"*****,,,,&&&&&....%%%%%@@@@-----%%%%%****=====&&&&-----''''*****",
"*****----&&&&&####.....''''-----@@@@@****$$$$$!!!!-----*********",
"*****----&&&&&####.....''''-----@@@@@****$$$$$!!!!-----*********",
"*****----&&&&&####.....''''-----@@@@@****$$$$$!!!!-----*********",
"*****----&&&&&####.....''''-----@@@@@****$$$$$!!!!-----*********",
"*****----&&&&&####.....''''-----@@@@@****$$$$$!!!!-----*********",
"*****,,,,&&&&&!!!!+++++####-----@@@@@****-----@@@@!!!!!####*****",
"*****,,,,&&&&&!!!!+++++####-----@@@@@****-----@@@@!!!!!####*****",
"*****,,,,&&&&&!!!!+++++####-----@@@@@****-----@@@@!!!!!####*****",
"*****,,,,&&&&&!!!!+++++####-----@@@@@****-----@@@@!!!!!####*****",
"*****----@@@@@####+++++---------@@@@@****---------)))))*********",
"*****----@@@@@####+++++---------@@@@@****---------)))))*********",
"*****----@@@@@####+++++---------@@@@@****---------)))))*********",
"*****----@@@@@####+++++---------@@@@@****---------)))))*********",
"*****----@@@@@####+++++---------@@@@@****---------)))))*********",
"*****&&&&%%%%%####+++++@@@@&&&&&@@@@@****-----&&&&$$$$$''''*****",
"*****&&&&%%%%%####+++++@@@@&&&&&@@@@@****-----&&&&$$$$$''''*****",
"*****&&&&%%%%%####+++++@@@@&&&&&@@@@@****-----&&&&$$$$$''''*****",
"*****&&&&%%%%%####+++++@@@@&&&&&@@@@@****-----&&&&$$$$$''''*****",
"''''''''''''''''''''''''''''''''''''''''''''''''''''''''''''''''",
"''''''''''''''''''''''''''''''''''''''''''''''''''''''''''''''''",
"''''''''''''''''''''''''''''''''''''''''''''''''''''''''''''''''",
"''''''''''''''''''''''''''''''''''''''''''''''''''''''''''''''''",
"''''''''''''''''''''''''''''''''''''''''''''''''''''''''''''''''"};
