/* XPM */
static char * yellowskull_xpm[] = {
"64 79 17 1",
" 	c None",
".	c #AF4300",
"+	c #CB5707",
"@	c #DF670F",
"#	c #EB6F0F",
"$	c #FF8F3B",
"%	c #FFA35B",
"&	c #FFB37B",
"*	c #9F3700",
"=	c #FF7F1B",
"-	c #F37317",
";	c #872300",
">	c #A73F00",
",	c #D75F0B",
"'	c #932F00",
")	c #B74700",
"!	c #C34F00",
"               .....+++++@@@@@@@@@@@@@@+++++.....               ",
"               .....+++++@@@@@@@@@@@@@@+++++.....               ",
"               .....+++++@@@@@@@@@@@@@@+++++.....               ",
"               .....+++++@@@@@@@@@@@@@@+++++.....               ",
"               .....+++++@@@@@@@@@@@@@@+++++.....               ",
"          +++++#####$$$$$%%%%%%%%%%%%%%$$$$$#####+++++          ",
"          +++++#####$$$$$%%%%%%%%%%%%%%$$$$$#####+++++          ",
"          +++++#####$$$$$%%%%%%%%%%%%%%$$$$$#####+++++          ",
"          +++++#####$$$$$%%%%%%%%%%%%%%$$$$$#####+++++          ",
"          +++++#####$$$$$%%%%%%%%%%%%%%$$$$$#####+++++          ",
"     .....#####$$$$$%%%%%&&&&&&&&&&&&&&%%%%%$$$$$#####.....     ",
"     .....#####$$$$$%%%%%&&&&&&&&&&&&&&%%%%%$$$$$#####.....     ",
"     .....#####$$$$$%%%%%&&&&&&&&&&&&&&%%%%%$$$$$#####.....     ",
"     .....#####$$$$$%%%%%&&&&&&&&&&&&&&%%%%%$$$$$#####.....     ",
"     .....#####$$$$$%%%%%&&&&&&&&&&&&&&%%%%%$$$$$#####.....     ",
"     +++++$$$$$$$$$$%%%%%&&&&&&&&&&&&&&%%%%%$$$$$$$$$$+++++     ",
"     +++++$$$$$$$$$$%%%%%&&&&&&&&&&&&&&%%%%%$$$$$$$$$$+++++     ",
"     +++++$$$$$$$$$$%%%%%&&&&&&&&&&&&&&%%%%%$$$$$$$$$$+++++     ",
"     +++++$$$$$$$$$$%%%%%&&&&&&&&&&&&&&%%%%%$$$$$$$$$$+++++     ",
"     +++++$$$$$$$$$$%%%%%&&&&&&&&&&&&&&%%%%%$$$$$$$$$$+++++     ",
"*****#####%%%%%$$$$$==========$$$$==========$$$$$%%%%%#####*****",
"*****#####%%%%%$$$$$==========$$$$==========$$$$$%%%%%#####*****",
"*****#####%%%%%$$$$$==========$$$$==========$$$$$%%%%%#####*****",
"*****#####%%%%%$$$$$==========$$$$==========$$$$$%%%%%#####*****",
"*****#####%%%%%$$$$$==========$$$$==========$$$$$%%%%%#####*****",
"*****#####&&&&&%%%%%=====@@@@@----@@@@@=====%%%%%&&&&&#####*****",
"*****#####&&&&&%%%%%=====@@@@@----@@@@@=====%%%%%&&&&&#####*****",
"*****#####&&&&&%%%%%=====@@@@@----@@@@@=====%%%%%&&&&&#####*****",
"*****#####&&&&&%%%%%=====@@@@@----@@@@@=====%%%%%&&&&&#####*****",
"*****#####&&&&&%%%%%=====@@@@@----@@@@@=====%%%%%&&&&&#####*****",
";;;;;+++++&&&&&&&&&&%%%%%$$$$$++++$$$$$%%%%%&&&&&&&&&&+++++;;;;;",
";;;;;+++++&&&&&&&&&&%%%%%$$$$$++++$$$$$%%%%%&&&&&&&&&&+++++;;;;;",
";;;;;+++++&&&&&&&&&&%%%%%$$$$$++++$$$$$%%%%%&&&&&&&&&&+++++;;;;;",
";;;;;+++++&&&&&&&&&&%%%%%$$$$$++++$$$$$%%%%%&&&&&&&&&&+++++;;;;;",
";;;;;+++++&&&&&&&&&&%%%%%$$$$$++++$$$$$%%%%%&&&&&&&&&&+++++;;;;;",
"+++++$$$$$>>>>>;;;;;.....,,,,,$$$$,,,,,.....;;;;;>>>>>$$$$$+++++",
"+++++$$$$$>>>>>;;;;;.....,,,,,$$$$,,,,,.....;;;;;>>>>>$$$$$+++++",
"+++++$$$$$>>>>>;;;;;.....,,,,,$$$$,,,,,.....;;;;;>>>>>$$$$$+++++",
"+++++$$$$$>>>>>;;;;;.....,,,,,$$$$,,,,,.....;;;;;>>>>>$$$$$+++++",
"+++++%%%%%+++++;;;;;.....=====''''=====.....;;;;;+++++%%%%%+++++",
"+++++%%%%%+++++;;;;;.....=====''''=====.....;;;;;+++++%%%%%+++++",
"+++++%%%%%+++++;;;;;.....=====''''=====.....;;;;;+++++%%%%%+++++",
"+++++%%%%%+++++;;;;;.....=====''''=====.....;;;;;+++++%%%%%+++++",
"+++++%%%%%+++++;;;;;.....=====''''=====.....;;;;;+++++%%%%%+++++",
"#####&&&&&%%%%%%%%%%$$$$$)))))'''')))))$$$$$%%%%%&&&&&&&&&&#####",
"#####&&&&&%%%%%%%%%%$$$$$)))))'''')))))$$$$$%%%%%&&&&&&&&&&#####",
"#####&&&&&%%%%%%%%%%$$$$$)))))'''')))))$$$$$%%%%%&&&&&&&&&&#####",
"#####&&&&&%%%%%%%%%%$$$$$)))))'''')))))$$$$$%%%%%&&&&&&&&&&#####",
"#####&&&&&%%%%%%%%%%$$$$$)))))'''')))))$$$$$%%%%%&&&&&&&&&&#####",
"#####%%%%%=====@@@@@!!!!!))))),,,,)))))!!!!!@@@@@=====%%%%%#####",
"#####%%%%%=====@@@@@!!!!!))))),,,,)))))!!!!!@@@@@=====%%%%%#####",
"#####%%%%%=====@@@@@!!!!!))))),,,,)))))!!!!!@@@@@=====%%%%%#####",
"#####%%%%%=====@@@@@!!!!!))))),,,,)))))!!!!!@@@@@=====%%%%%#####",
"#####%%%%%=====@@@@@!!!!!))))),,,,)))))!!!!!@@@@@=====%%%%%#####",
"     .....;;;;;;;;;;,,,,,$$$$$%%%%$$$$$,,,,,;;;;;;;;;;.....     ",
"     .....;;;;;;;;;;,,,,,$$$$$%%%%$$$$$,,,,,;;;;;;;;;;.....     ",
"     .....;;;;;;;;;;,,,,,$$$$$%%%%$$$$$,,,,,;;;;;;;;;;.....     ",
"     .....;;;;;;;;;;,,,,,$$$$$%%%%$$$$$,,,,,;;;;;;;;;;.....     ",
"     .....;;;;;;;;;;,,,,,$$$$$%%%%$$$$$,,,,,;;;;;;;;;;.....     ",
"     ;;;;;;;;;;*****+++++#####====#####+++++*****;;;;;;;;;;     ",
"     ;;;;;;;;;;*****+++++#####====#####+++++*****;;;;;;;;;;     ",
"     ;;;;;;;;;;*****+++++#####====#####+++++*****;;;;;;;;;;     ",
"     ;;;;;;;;;;*****+++++#####====#####+++++*****;;;;;;;;;;     ",
"     ;;;;;;;;;;*****+++++#####====#####+++++*****;;;;;;;;;;     ",
"     ;;;;;;;;;;>>>>>+++++,,,,,,,,,,,,,,+++++*****;;;;;;;;;;     ",
"     ;;;;;;;;;;>>>>>+++++,,,,,,,,,,,,,,+++++*****;;;;;;;;;;     ",
"     ;;;;;;;;;;>>>>>+++++,,,,,,,,,,,,,,+++++*****;;;;;;;;;;     ",
"     ;;;;;;;;;;>>>>>+++++,,,,,,,,,,,,,,+++++*****;;;;;;;;;;     ",
"     ;;;;;;;;;;>>>>>+++++,,,,,,,,,,,,,,+++++*****;;;;;;;;;;     ",
"     *****.....!!!!!#####=====$$$$=====#####!!!!!.....*****     ",
"     *****.....!!!!!#####=====$$$$=====#####!!!!!.....*****     ",
"     *****.....!!!!!#####=====$$$$=====#####!!!!!.....*****     ",
"     *****.....!!!!!#####=====$$$$=====#####!!!!!.....*****     ",
"     *****.....!!!!!#####=====$$$$=====#####!!!!!.....*****     ",
"          +++++#####%%%%%$$$$$====$$$$$%%%%%#####+++++          ",
"          +++++#####%%%%%$$$$$====$$$$$%%%%%#####+++++          ",
"          +++++#####%%%%%$$$$$====$$$$$%%%%%#####+++++          ",
"          +++++#####%%%%%$$$$$====$$$$$%%%%%#####+++++          ",
"          +++++#####%%%%%$$$$$====$$$$$%%%%%#####+++++          "};
